<svg width="19" height="19" viewBox="0 0 19 19" fill="none" xmlns="http://www.w3.org/2000/svg">
<g clip-path="url(#clip0_335_2)">
<path d="M15.6713 9.33567C15.6713 12.8348 12.8348 15.6713 9.33567 15.6713C5.83658 15.6713 3 12.8348 3 9.33567C3 5.83658 5.83658 3 9.33567 3C12.8348 3 15.6713 5.83658 15.6713 9.33567Z" fill="#5FCF92" stroke="#3D9465" stroke-width="1.3"/>
<path d="M12.8566 9.42407C12.8566 11.3198 11.3198 12.8566 9.42407 12.8566C7.52836 12.8566 5.99158 11.3198 5.99158 9.42407C5.99158 7.52836 7.52836 5.99158 9.42407 5.99158C11.3198 5.99158 12.8566 7.52836 12.8566 9.42407Z" stroke="#3D9465" stroke-width="1.3"/>
<path d="M11.0699 9.36152C11.0699 10.236 10.361 10.9448 9.48655 10.9448C8.61211 10.9448 7.90323 10.236 7.90323 9.36152C7.90323 8.48708 8.61211 7.7782 9.48655 7.7782C10.361 7.7782 11.0699 8.48708 11.0699 9.36152Z" fill="#20680C" stroke="#20680C" stroke-width="0.472345"/>
</g>
<defs>
<clipPath id="clip0_335_2">
<rect width="19" height="19" fill="white"/>
</clipPath>
</defs>
</svg>
