<svg width="19" height="19" viewBox="0 0 19 19" fill="none" xmlns="http://www.w3.org/2000/svg">
<g clip-path="url(#clip0_341_2)">
<path d="M6.57096 2.4967H3.35094C2.87215 2.4967 2.48401 2.88484 2.48401 3.36363L2.48401 7.12032C2.48401 7.59912 2.87215 7.98725 3.35094 7.98725H6.57096C7.04975 7.98725 7.43789 7.59912 7.43789 7.12032L7.43789 3.36363C7.43789 2.88484 7.04975 2.4967 6.57096 2.4967Z" fill="#FDF7EB" stroke="url(#paint0_linear_341_2)" stroke-width="1.00043" stroke-linecap="round" stroke-linejoin="round"/>
<path d="M2.32066 4.52881H12.6029C13.0832 4.52881 13.4698 4.91546 13.4698 5.39574L13.4698 11.6765C13.4698 12.1568 13.0832 12.5458 12.6029 12.5435L2.32066 12.4925C1.84039 12.4902 1.45374 12.1059 1.45374 11.6256L1.45374 5.39574C1.45374 4.91546 1.84039 4.52881 2.32066 4.52881Z" fill="url(#paint1_linear_341_2)" stroke="url(#paint2_linear_341_2)" stroke-width="1.00043" stroke-linecap="round" stroke-linejoin="round"/>
<path d="M1.99469 4.52881H8.63082" stroke="url(#paint3_linear_341_2)" stroke-width="1.00043"/>
<path d="M17.5 7.9762H4.5V17.5H17.5V7.9762Z" fill="url(#paint4_linear_341_2)" stroke="url(#paint5_linear_341_2)"/>
<path d="M17.5 7.5H4.5V9.40476H17.5V7.5Z" fill="url(#paint6_linear_341_2)" stroke="#C4894E"/>
<rect x="7" y="13" width="2" height="2" fill="#32DA4D"/>
<rect x="6" y="12" width="1" height="1" fill="#C2ED02"/>
<rect x="6" y="13" width="1" height="1" fill="#ADC977"/>
<rect x="6" y="14" width="1" height="1" fill="#ADC977"/>
<rect x="8" y="12" width="1" height="1" fill="#4F9E55"/>
<rect x="7" y="12" width="1" height="1" fill="#4F9E55"/>
<rect x="11" y="12" width="1" height="2" fill="#3A7FFF"/>
<rect x="14" y="13" width="2" height="2" fill="#FF4400"/>
<rect x="11" y="14" width="1" height="1" fill="#2F5AE2"/>
<rect x="12" y="14" width="1" height="1" fill="#9ABFFD"/>
<rect x="13" y="12" width="1" height="1" fill="#FFBF3F"/>
<rect x="13" y="13" width="1" height="1" fill="#FFBF3F"/>
<rect x="10" y="12" width="1" height="1" fill="#9ABFFD"/>
<rect x="10" y="13" width="1" height="1" fill="#9ABFFD"/>
<rect x="14" y="12" width="1" height="1" fill="#FF6900"/>
<rect x="15" y="12" width="1" height="1" fill="#FF00CC"/>
<rect x="10" y="14" width="1" height="1" fill="#3A7FFF"/>
<rect x="8" y="13" width="1" height="1" fill="#4F9E55"/>
</g>
<defs>
<linearGradient id="paint0_linear_341_2" x1="4.45982" y1="2.41046" x2="4.45982" y2="3.8604" gradientUnits="userSpaceOnUse">
<stop stop-color="#C48A4E"/>
<stop offset="1" stop-color="#AD6C24"/>
</linearGradient>
<linearGradient id="paint1_linear_341_2" x1="7.00977" y1="11.654" x2="7.00977" y2="4.38483" gradientUnits="userSpaceOnUse">
<stop stop-color="#F8D078"/>
<stop offset="1" stop-color="#F8F0C8"/>
</linearGradient>
<linearGradient id="paint2_linear_341_2" x1="10.4622" y1="12.5672" x2="10.4622" y2="4.23901" gradientUnits="userSpaceOnUse">
<stop stop-color="#9E6627"/>
<stop offset="1" stop-color="#C38536"/>
</linearGradient>
<linearGradient id="paint3_linear_341_2" x1="-nan" y1="-nan" x2="-nan" y2="-nan" gradientUnits="userSpaceOnUse">
<stop stop-color="#C38536"/>
<stop offset="0.153812" stop-color="#F2DC91"/>
<stop offset="0.5" stop-color="#FBDC8B"/>
<stop offset="0.75" stop-color="#E6BD7A"/>
<stop offset="1" stop-color="#BA772F"/>
</linearGradient>
<linearGradient id="paint4_linear_341_2" x1="5.58333" y1="11.9444" x2="14.4016" y2="19.1667" gradientUnits="userSpaceOnUse">
<stop stop-color="#D0F1FF"/>
<stop offset="1" stop-color="#F1F9FE"/>
</linearGradient>
<linearGradient id="paint5_linear_341_2" x1="12.0833" y1="18.2936" x2="12.0833" y2="13.5317" gradientUnits="userSpaceOnUse">
<stop stop-color="#75673B"/>
<stop offset="1" stop-color="#9D7C2F"/>
</linearGradient>
<linearGradient id="paint6_linear_341_2" x1="5.58333" y1="7.97619" x2="16.4167" y2="7.97619" gradientUnits="userSpaceOnUse">
<stop stop-color="#FEC056"/>
<stop offset="1" stop-color="#F8EBBB"/>
</linearGradient>
<clipPath id="clip0_341_2">
<rect width="19" height="19" fill="white"/>
</clipPath>
</defs>
</svg>
