<svg width="19" height="19" viewBox="0 0 19 19" fill="none" xmlns="http://www.w3.org/2000/svg">
<path d="M6 7.5H3.5V11.5H6L10.5 16.5V2.5L6 7.5Z" fill="url(#paint0_linear_335_20)" stroke="url(#paint1_linear_335_20)"/>
<path d="M12.1567 7L11.5 8.28798V8.3192C11.912 8.654 12.181 9.15823 12.181 9.72918C12.181 10.2999 11.912 10.8041 11.5 11.1385V11.1435L12.1665 12.451C13.0475 11.8657 13.6294 10.8666 13.6294 9.72918C13.6294 8.58704 13.0434 7.5843 12.1567 7Z" fill="#548CD0"/>
<path d="M17.4566 9.65639C17.4566 7.2277 16.1217 5.11451 14.1474 4L13.5 5.27083V5.30133C14.9974 6.17801 16.0083 7.79937 16.0083 9.65639C16.0083 11.5132 14.9974 13.1348 13.5 14.0112V14.015L14.1582 15.3068C16.1265 14.1902 17.4566 12.0803 17.4566 9.65639Z" fill="#548CD0"/>
<defs>
<linearGradient id="paint0_linear_335_20" x1="8.5" y1="6.5" x2="8.5" y2="13" gradientUnits="userSpaceOnUse">
<stop stop-color="#C7DEF1"/>
<stop offset="1" stop-color="#58A5D6"/>
</linearGradient>
<linearGradient id="paint1_linear_335_20" x1="7" y1="2.5" x2="7" y2="16.5" gradientUnits="userSpaceOnUse">
<stop stop-color="#1E6CBE"/>
<stop offset="1" stop-color="#15518F"/>
</linearGradient>
</defs>
</svg>
