<svg width="19" height="19" viewBox="0 0 19 19" fill="none" xmlns="http://www.w3.org/2000/svg">
<path d="M8.5 3.5H2.5V9.5H8.5V3.5Z" fill="url(#paint0_linear_335_35)" stroke="url(#paint1_linear_335_35)"/>
<path d="M8.5 3.5H2.5V5.5H8.5V3.5Z" fill="url(#paint2_linear_335_35)" stroke="#C4894E"/>
<path d="M12.5 6.5H6.5V12.5H12.5V6.5Z" fill="url(#paint3_linear_335_35)" stroke="url(#paint4_linear_335_35)"/>
<path d="M12.5 6.5H6.5V8.5H12.5V6.5Z" fill="url(#paint5_linear_335_35)" stroke="#C4894E"/>
<path d="M16.5 9.5H10.5V15.5H16.5V9.5Z" fill="url(#paint6_linear_335_35)" stroke="url(#paint7_linear_335_35)"/>
<path d="M16.5 9.5H10.5V11.5H16.5V9.5Z" fill="url(#paint8_linear_335_35)" stroke="#C4894E"/>
<defs>
<linearGradient id="paint0_linear_335_35" x1="3" y1="5.99999" x2="7.99999" y2="9" gradientUnits="userSpaceOnUse">
<stop stop-color="#D0F1FF"/>
<stop offset="1" stop-color="#F1F9FE"/>
</linearGradient>
<linearGradient id="paint1_linear_335_35" x1="6" y1="9.99998" x2="6" y2="6.99999" gradientUnits="userSpaceOnUse">
<stop stop-color="#75673B"/>
<stop offset="1" stop-color="#9D7C2F"/>
</linearGradient>
<linearGradient id="paint2_linear_335_35" x1="3" y1="4" x2="8" y2="4" gradientUnits="userSpaceOnUse">
<stop stop-color="#FEC056"/>
<stop offset="1" stop-color="#F8EBBB"/>
</linearGradient>
<linearGradient id="paint3_linear_335_35" x1="7" y1="8.99999" x2="12" y2="12" gradientUnits="userSpaceOnUse">
<stop stop-color="#D0F1FF"/>
<stop offset="1" stop-color="#F1F9FE"/>
</linearGradient>
<linearGradient id="paint4_linear_335_35" x1="10" y1="13" x2="10" y2="9.99999" gradientUnits="userSpaceOnUse">
<stop stop-color="#75673B"/>
<stop offset="1" stop-color="#9D7C2F"/>
</linearGradient>
<linearGradient id="paint5_linear_335_35" x1="7" y1="7" x2="12" y2="7" gradientUnits="userSpaceOnUse">
<stop stop-color="#FEC056"/>
<stop offset="1" stop-color="#F8EBBB"/>
</linearGradient>
<linearGradient id="paint6_linear_335_35" x1="11" y1="12" x2="16" y2="15" gradientUnits="userSpaceOnUse">
<stop stop-color="#D0F1FF"/>
<stop offset="1" stop-color="#F1F9FE"/>
</linearGradient>
<linearGradient id="paint7_linear_335_35" x1="14" y1="16" x2="14" y2="13" gradientUnits="userSpaceOnUse">
<stop stop-color="#75673B"/>
<stop offset="1" stop-color="#9D7C2F"/>
</linearGradient>
<linearGradient id="paint8_linear_335_35" x1="11" y1="10" x2="16" y2="10" gradientUnits="userSpaceOnUse">
<stop stop-color="#FEC056"/>
<stop offset="1" stop-color="#F8EBBB"/>
</linearGradient>
</defs>
</svg>
