<svg width="19" height="19" viewBox="0 0 19 19" fill="none" xmlns="http://www.w3.org/2000/svg">
<path d="M11.7086 2.79897C11.3101 2.40037 10.6684 2.40035 10.2698 2.79885L7.61985 5.44888L4.96992 2.79897C4.57141 2.40037 3.92964 2.40037 3.53109 2.79897L2.79891 3.53115C2.40038 3.92955 2.40039 4.57129 2.79895 4.96999L5.44884 7.62002L2.79894 10.2698C2.40035 10.6684 2.40036 11.31 2.79893 11.7086L3.53114 12.4408C3.92967 12.8393 4.57138 12.8393 4.96997 12.4408L7.61991 9.79092L10.2883 12.4593C10.6868 12.8579 11.3285 12.8579 11.7271 12.4593L12.4593 11.7272C12.8578 11.3286 12.8538 10.6908 12.4592 10.2882L9.79088 7.62002L12.4408 4.97012C12.8394 4.57142 12.8394 3.92965 12.4409 3.53115L11.7086 2.79897Z" fill="url(#paint0_linear_335_44)" stroke="url(#paint1_linear_335_44)" stroke-linecap="round"/>
<path d="M15.6318 7.73718C15.2332 7.33858 14.5915 7.33868 14.193 7.73718L11.543 10.3871L8.89307 7.73718C8.49456 7.33858 7.85279 7.33858 7.45424 7.73718L6.72206 8.46948C6.32353 8.86788 6.32354 9.5095 6.72209 9.9082L9.37199 12.5582L6.72209 15.208C6.3235 15.6066 6.32351 16.2484 6.72208 16.647L7.45429 17.3792C7.85282 17.7777 8.49453 17.7777 8.89312 17.3792L11.5431 14.7292L14.2114 17.3976C14.6099 17.7962 15.2517 17.7962 15.6502 17.3976L16.3824 16.6654C16.781 16.2668 16.777 15.6292 16.3824 15.2266L13.714 12.5582L16.364 9.90832C16.7625 9.50962 16.7625 8.86798 16.364 8.46948L15.6318 7.73718Z" fill="url(#paint2_linear_335_44)" stroke="url(#paint3_linear_335_44)" stroke-linecap="round"/>
<defs>
<linearGradient id="paint0_linear_335_44" x1="4.33085" y1="13.3476" x2="4.33085" y2="2.73588" gradientUnits="userSpaceOnUse">
<stop stop-color="#D8D8D8"/>
<stop offset="1" stop-color="#D8D8D8"/>
</linearGradient>
<linearGradient id="paint1_linear_335_44" x1="7.65416" y1="13.0854" x2="7.65416" y2="1.98553" gradientUnits="userSpaceOnUse">
<stop stop-color="#2B2B2B"/>
<stop offset="1" stop-color="#686861"/>
</linearGradient>
<linearGradient id="paint2_linear_335_44" x1="8.254" y1="18.2859" x2="8.254" y2="7.67409" gradientUnits="userSpaceOnUse">
<stop stop-color="#707070"/>
<stop offset="1" stop-color="#A0A0A0"/>
</linearGradient>
<linearGradient id="paint3_linear_335_44" x1="11.5773" y1="18.0237" x2="11.5773" y2="6.92374" gradientUnits="userSpaceOnUse">
<stop stop-color="#313131"/>
<stop offset="1" stop-color="#696969"/>
</linearGradient>
</defs>
</svg>
