<svg width="19" height="19" viewBox="0 0 19 19" fill="none" xmlns="http://www.w3.org/2000/svg">
<path d="M5.552 2.07825C5.552 2.07825 6.01018 3.75058 7.1688 4.90918C8.32742 6.06778 9.99969 6.526 9.99969 6.526C9.99969 6.526 8.33691 6.97472 7.1688 8.14282C6.0007 9.31102 5.552 10.9736 5.552 10.9736C5.552 10.9736 5.14125 9.34892 3.9352 8.14282C2.72915 6.93672 1.10431 6.526 1.10431 6.526C1.10431 6.526 2.80503 6.03938 3.9352 4.90918C5.06536 3.77898 5.552 2.07825 5.552 2.07825Z" fill="#FF116C"/>
<g filter="url(#filter0_f_351_2)">
<path d="M5.51405 2.9895C5.51405 2.9895 5.13392 4.32645 4.24316 5.21723C3.3524 6.108 2.01537 6.48822 2.01537 6.48822H5.51405V2.9895Z" fill="#E67BA4"/>
</g>
<g filter="url(#filter1_f_351_2)">
<path d="M5.58993 2.9895V6.48822H9.08861C9.08861 6.48822 7.77401 6.1304 6.86082 5.21723C5.94762 4.30405 5.58993 2.9895 5.58993 2.9895Z" fill="#CC6D91"/>
</g>
<g filter="url(#filter2_f_351_2)">
<path d="M2.01537 6.56384C2.01537 6.56384 3.29259 6.88414 4.24316 7.83476C5.19374 8.78533 5.51405 10.0625 5.51405 10.0625V6.56384H2.01537Z" fill="#B35F7F"/>
</g>
<g filter="url(#filter3_f_351_2)">
<path d="M5.58993 6.56384V10.0625C5.58993 10.0625 5.94015 8.7554 6.86082 7.83476C7.78148 6.91406 9.08861 6.56384 9.08861 6.56384H5.58993Z" fill="#A65976"/>
</g>
<path d="M5.552 2.27466C5.552 2.27466 5.98995 3.87309 7.09742 4.98059C8.20489 6.08799 9.80333 6.526 9.80333 6.526C9.80333 6.526 8.21396 6.95491 7.09743 8.07141C5.98089 9.18801 5.552 10.7772 5.552 10.7772C5.552 10.7772 5.15939 9.22431 4.00658 8.07141C2.85377 6.91861 1.30067 6.526 1.30067 6.526C1.30067 6.526 2.92631 6.06079 4.00658 4.98059C5.08685 3.90029 5.552 2.27466 5.552 2.27466Z" stroke="url(#paint0_linear_351_2)" stroke-width="0.566223" stroke-linecap="round" stroke-linejoin="round"/>
<path d="M13.5069 2.06018C13.5069 2.06018 13.8691 3.38193 14.785 4.29773C15.7008 5.21363 17.0226 5.57581 17.0226 5.57581C17.0226 5.57581 15.7083 5.93046 14.785 6.85376C13.8616 7.77716 13.507 9.09143 13.507 9.09143C13.507 9.09143 13.1823 7.80716 12.2289 6.85376C11.2756 5.90046 9.99126 5.57581 9.99126 5.57581C9.99126 5.57581 11.3356 5.19113 12.2289 4.29773C13.1223 3.40443 13.5069 2.06018 13.5069 2.06018Z" fill="black"/>
<g filter="url(#filter4_f_351_2)">
<path d="M13.4769 2.7804C13.4769 2.7804 13.1765 3.83719 12.4724 4.54131C11.7683 5.24542 10.7114 5.54597 10.7114 5.54597H13.4769V2.7804Z" fill="#8376E6"/>
</g>
<g filter="url(#filter5_f_351_2)">
<path d="M13.5369 2.7804V5.54597H16.3025C16.3025 5.54597 15.2633 5.26313 14.5415 4.54131C13.8197 3.81949 13.5369 2.7804 13.5369 2.7804Z" fill="#7469CC"/>
</g>
<g filter="url(#filter6_f_351_2)">
<path d="M10.7114 5.60583C10.7114 5.60583 11.721 5.85901 12.4724 6.61044C13.2238 7.36182 13.4769 8.37135 13.4769 8.37135V5.60583H10.7114Z" fill="#665CB3"/>
</g>
<g filter="url(#filter7_f_351_2)">
<path d="M13.5369 5.60583V8.37135C13.5369 8.37135 13.8138 7.33816 14.5415 6.61044C15.2693 5.88267 16.3025 5.60583 16.3025 5.60583H13.5369Z" fill="#5E55A6"/>
</g>
<path d="M13.5069 2.21533C13.5069 2.21533 13.8531 3.47885 14.7285 4.35425C15.6039 5.22955 16.8674 5.57581 16.8674 5.57581C16.8674 5.57581 15.6111 5.91486 14.7285 6.79736C13.846 7.67996 13.507 8.93628 13.507 8.93628C13.507 8.93628 13.1966 7.70866 12.2854 6.79736C11.3741 5.88616 10.1465 5.57581 10.1465 5.57581C10.1465 5.57581 11.4315 5.20805 12.2854 4.35425C13.1393 3.50035 13.5069 2.21533 13.5069 2.21533Z" stroke="url(#paint1_linear_351_2)" stroke-width="0.447573" stroke-linecap="round" stroke-linejoin="round"/>
<path d="M11.5403 8.21399C11.5403 8.21399 11.9879 9.84743 13.1196 10.9791C14.2514 12.1109 15.8849 12.5585 15.8849 12.5585C15.8849 12.5585 14.2607 12.9967 13.1196 14.1378C11.9786 15.2788 11.5403 16.9031 11.5403 16.9031C11.5403 16.9031 11.1391 15.3159 9.961 14.1378C8.7829 12.9596 7.19574 12.5585 7.19574 12.5585C7.19574 12.5585 8.85703 12.0831 9.961 10.9791C11.065 9.87513 11.5403 8.21399 11.5403 8.21399Z" fill="#FF7BA9"/>
<g filter="url(#filter8_f_351_2)">
<path d="M11.5032 9.104C11.5032 9.104 11.1319 10.41 10.2618 11.2801C9.3917 12.1502 8.08567 12.5216 8.08567 12.5216H11.5032V9.104Z" fill="#E6AB4C"/>
</g>
<g filter="url(#filter9_f_351_2)">
<path d="M11.5774 9.104V12.5216H14.9949C14.9949 12.5216 13.7108 12.1721 12.8188 11.2801C11.9268 10.3881 11.5774 9.104 11.5774 9.104Z" fill="#CC9843"/>
</g>
<g filter="url(#filter10_f_351_2)">
<path d="M8.08567 12.5956C8.08567 12.5956 9.33328 12.9084 10.2618 13.837C11.1903 14.7656 11.5032 16.0131 11.5032 16.0131V12.5956H8.08567Z" fill="#B3853B"/>
</g>
<g filter="url(#filter11_f_351_2)">
<path d="M11.5774 12.5956V16.0131C11.5774 16.0131 11.9195 14.7363 12.8188 13.837C13.7181 12.9377 14.9949 12.5956 14.9949 12.5956H11.5774Z" fill="#A67B37"/>
</g>
<path d="M11.5403 8.40576C11.5403 8.40576 11.9681 9.96705 13.0499 11.049C14.1317 12.1307 15.6931 12.5585 15.6931 12.5585C15.6931 12.5585 14.1406 12.9775 13.0499 14.0681C11.9593 15.1588 11.5403 16.7113 11.5403 16.7113C11.5403 16.7113 11.1568 15.1942 10.0307 14.0681C8.90464 12.942 7.38754 12.5585 7.38754 12.5585C7.38754 12.5585 8.97549 12.1041 10.0307 11.049C11.0859 9.99365 11.5403 8.40576 11.5403 8.40576Z" stroke="url(#paint2_linear_351_2)" stroke-width="0.553096" stroke-linecap="round" stroke-linejoin="round"/>
<defs>
<filter id="filter0_f_351_2" x="1.87543" y="2.84956" width="3.77857" height="3.77861" filterUnits="userSpaceOnUse" color-interpolation-filters="sRGB">
<feFlood flood-opacity="0" result="BackgroundImageFix"/>
<feBlend mode="normal" in="SourceGraphic" in2="BackgroundImageFix" result="shape"/>
<feGaussianBlur stdDeviation="0.0699734" result="effect1_foregroundBlur_351_2"/>
</filter>
<filter id="filter1_f_351_2" x="5.44998" y="2.84956" width="3.77857" height="3.77861" filterUnits="userSpaceOnUse" color-interpolation-filters="sRGB">
<feFlood flood-opacity="0" result="BackgroundImageFix"/>
<feBlend mode="normal" in="SourceGraphic" in2="BackgroundImageFix" result="shape"/>
<feGaussianBlur stdDeviation="0.0699734" result="effect1_foregroundBlur_351_2"/>
</filter>
<filter id="filter2_f_351_2" x="1.87543" y="6.4239" width="3.77857" height="3.77855" filterUnits="userSpaceOnUse" color-interpolation-filters="sRGB">
<feFlood flood-opacity="0" result="BackgroundImageFix"/>
<feBlend mode="normal" in="SourceGraphic" in2="BackgroundImageFix" result="shape"/>
<feGaussianBlur stdDeviation="0.0699734" result="effect1_foregroundBlur_351_2"/>
</filter>
<filter id="filter3_f_351_2" x="5.44998" y="6.4239" width="3.77857" height="3.77855" filterUnits="userSpaceOnUse" color-interpolation-filters="sRGB">
<feFlood flood-opacity="0" result="BackgroundImageFix"/>
<feBlend mode="normal" in="SourceGraphic" in2="BackgroundImageFix" result="shape"/>
<feGaussianBlur stdDeviation="0.0699734" result="effect1_foregroundBlur_351_2"/>
</filter>
<filter id="filter4_f_351_2" x="10.6008" y="2.66977" width="2.98678" height="2.98681" filterUnits="userSpaceOnUse" color-interpolation-filters="sRGB">
<feFlood flood-opacity="0" result="BackgroundImageFix"/>
<feBlend mode="normal" in="SourceGraphic" in2="BackgroundImageFix" result="shape"/>
<feGaussianBlur stdDeviation="0.0553106" result="effect1_foregroundBlur_351_2"/>
</filter>
<filter id="filter5_f_351_2" x="13.4263" y="2.66977" width="2.98678" height="2.98681" filterUnits="userSpaceOnUse" color-interpolation-filters="sRGB">
<feFlood flood-opacity="0" result="BackgroundImageFix"/>
<feBlend mode="normal" in="SourceGraphic" in2="BackgroundImageFix" result="shape"/>
<feGaussianBlur stdDeviation="0.0553106" result="effect1_foregroundBlur_351_2"/>
</filter>
<filter id="filter6_f_351_2" x="10.6008" y="5.49521" width="2.98678" height="2.98675" filterUnits="userSpaceOnUse" color-interpolation-filters="sRGB">
<feFlood flood-opacity="0" result="BackgroundImageFix"/>
<feBlend mode="normal" in="SourceGraphic" in2="BackgroundImageFix" result="shape"/>
<feGaussianBlur stdDeviation="0.0553106" result="effect1_foregroundBlur_351_2"/>
</filter>
<filter id="filter7_f_351_2" x="13.4263" y="5.49521" width="2.98678" height="2.98675" filterUnits="userSpaceOnUse" color-interpolation-filters="sRGB">
<feFlood flood-opacity="0" result="BackgroundImageFix"/>
<feBlend mode="normal" in="SourceGraphic" in2="BackgroundImageFix" result="shape"/>
<feGaussianBlur stdDeviation="0.0553106" result="effect1_foregroundBlur_351_2"/>
</filter>
<filter id="filter8_f_351_2" x="7.94897" y="8.9673" width="3.69097" height="3.69101" filterUnits="userSpaceOnUse" color-interpolation-filters="sRGB">
<feFlood flood-opacity="0" result="BackgroundImageFix"/>
<feBlend mode="normal" in="SourceGraphic" in2="BackgroundImageFix" result="shape"/>
<feGaussianBlur stdDeviation="0.0683512" result="effect1_foregroundBlur_351_2"/>
</filter>
<filter id="filter9_f_351_2" x="11.4407" y="8.9673" width="3.69097" height="3.69101" filterUnits="userSpaceOnUse" color-interpolation-filters="sRGB">
<feFlood flood-opacity="0" result="BackgroundImageFix"/>
<feBlend mode="normal" in="SourceGraphic" in2="BackgroundImageFix" result="shape"/>
<feGaussianBlur stdDeviation="0.0683512" result="effect1_foregroundBlur_351_2"/>
</filter>
<filter id="filter10_f_351_2" x="7.94897" y="12.4589" width="3.69097" height="3.69095" filterUnits="userSpaceOnUse" color-interpolation-filters="sRGB">
<feFlood flood-opacity="0" result="BackgroundImageFix"/>
<feBlend mode="normal" in="SourceGraphic" in2="BackgroundImageFix" result="shape"/>
<feGaussianBlur stdDeviation="0.0683512" result="effect1_foregroundBlur_351_2"/>
</filter>
<filter id="filter11_f_351_2" x="11.4407" y="12.4589" width="3.69097" height="3.69095" filterUnits="userSpaceOnUse" color-interpolation-filters="sRGB">
<feFlood flood-opacity="0" result="BackgroundImageFix"/>
<feBlend mode="normal" in="SourceGraphic" in2="BackgroundImageFix" result="shape"/>
<feGaussianBlur stdDeviation="0.0683512" result="effect1_foregroundBlur_351_2"/>
</filter>
<linearGradient id="paint0_linear_351_2" x1="5.76129" y1="10.6602" x2="5.76129" y2="2.41545" gradientUnits="userSpaceOnUse">
<stop stop-color="#802649"/>
<stop offset="1" stop-color="#CC3E74"/>
</linearGradient>
<linearGradient id="paint1_linear_351_2" x1="13.6724" y1="8.84376" x2="13.6724" y2="2.32661" gradientUnits="userSpaceOnUse">
<stop stop-color="#302680"/>
<stop offset="1" stop-color="#4C3ECC"/>
</linearGradient>
<linearGradient id="paint2_linear_351_2" x1="11.7447" y1="16.5969" x2="11.7447" y2="8.54327" gradientUnits="userSpaceOnUse">
<stop stop-color="#805D26"/>
<stop offset="1" stop-color="#CC943E"/>
</linearGradient>
</defs>
</svg>
