<svg width="19" height="19" viewBox="0 0 19 19" fill="none" xmlns="http://www.w3.org/2000/svg">
<path fill-rule="evenodd" clip-rule="evenodd" d="M3.5 4.75L4.75 3.5L6 4.75L6.5 4.5V2.5H8.5V4.5L9 4.75L10.25 3.5L11.5 4.75L10.25 6L10.5 6.5H12.5V8.5H10.5L10.25 9L11.5 10.25L10.25 11.5L9 10.25L8.5 10.5V12.5H6.5V10.5L6 10.25L4.75 11.5L3.5 10.25L4.75 9L4.5 8.5H2.5V6.5H4.5L4.75 6L3.5 4.75Z" fill="url(#paint0_linear_335_49)" stroke="#75615A" stroke-linejoin="round"/>
<g opacity="0.911" filter="url(#filter0_f_335_49)">
<path fill-rule="evenodd" clip-rule="evenodd" d="M4.98245 13.0409L4.96142 8.9989H5.96142V5.9989H8.96142V4.9989L12.7301 5.0199L12.7301 12.8937L4.98245 13.0409Z" fill="url(#paint1_radial_335_49)"/>
</g>
<path fill-rule="evenodd" clip-rule="evenodd" d="M7.5 8.75L8.75 7.5L10 8.75L10.5 8.5V6.5H12.5V8.5L13 8.75L14.25 7.5L15.5 8.75L14.25 10L14.5 10.5H16.5V12.5H14.5L14.25 13L15.5 14.25L14.25 15.5L13 14.25L12.5 14.5V16.5H10.5V14.5L10 14.25L8.75 15.5L7.5 14.25L8.75 13L8.5 12.5H6.5V10.5H8.5L8.75 10L7.5 8.75Z" fill="url(#paint2_linear_335_49)" stroke="#75615A" stroke-linejoin="round"/>
<path d="M11.5 12.5C12.0523 12.5 12.5 12.0523 12.5 11.5C12.5 10.9477 12.0523 10.5 11.5 10.5C10.9477 10.5 10.5 10.9477 10.5 11.5C10.5 12.0523 10.9477 12.5 11.5 12.5Z" fill="#FEFCF0" stroke="#77605A" stroke-linecap="round"/>
<defs>
<filter id="filter0_f_335_49" x="4.56142" y="4.5989" width="8.56868" height="8.84199" filterUnits="userSpaceOnUse" color-interpolation-filters="sRGB">
<feFlood flood-opacity="0" result="BackgroundImageFix"/>
<feBlend mode="normal" in="SourceGraphic" in2="BackgroundImageFix" result="shape"/>
<feGaussianBlur stdDeviation="0.2" result="effect1_foregroundBlur_335_49"/>
</filter>
<linearGradient id="paint0_linear_335_49" x1="7.4045" y1="11.0749" x2="7.44829" y2="4.3036" gradientUnits="userSpaceOnUse">
<stop stop-color="#E4B367"/>
<stop offset="0.523121" stop-color="#F0D98D"/>
<stop offset="1" stop-color="#F5F5B5"/>
</linearGradient>
<radialGradient id="paint1_radial_335_49" cx="0" cy="0" r="1" gradientUnits="userSpaceOnUse" gradientTransform="translate(9.47666 9.5458) rotate(-44.7428) scale(5.05704 4.99372)">
<stop stop-color="white"/>
<stop offset="1" stop-color="white" stop-opacity="0.911854"/>
</radialGradient>
<linearGradient id="paint2_linear_335_49" x1="11.4045" y1="15.0749" x2="11.4483" y2="8.30356" gradientUnits="userSpaceOnUse">
<stop stop-color="#E4B367"/>
<stop offset="0.523121" stop-color="#F0D98D"/>
<stop offset="1" stop-color="#F5F5B5"/>
</linearGradient>
</defs>
</svg>
