<svg width="19" height="19" viewBox="0 0 19 19" fill="none" xmlns="http://www.w3.org/2000/svg">
<g clip-path="url(#clip0_335_155)">
<path d="M6.03975 3.2424C3.82628 3.2424 2.05544 3.76899 2.05544 4.42631V12.3185C2.05544 12.976 3.82628 13.5026 6.03975 13.5026C8.25322 13.5026 10.0554 12.976 10.0554 12.3185V4.42631C10.0554 3.76899 8.25322 3.2424 6.03975 3.2424Z" fill="url(#paint0_linear_335_155)"/>
<path opacity="0.544" d="M9.35914 3.99908C9.49196 4.10644 9.55982 4.21948 9.55982 4.33335C9.55982 4.59915 9.19061 4.85405 8.53341 5.042C7.87621 5.22994 6.98486 5.33552 6.05544 5.33552C5.12602 5.33552 4.23467 5.22994 3.57747 5.042C2.92027 4.85405 2.55106 4.59915 2.55106 4.33335C2.55106 4.21948 2.61892 4.10645 2.75172 3.9991" stroke="url(#paint1_linear_335_155)" stroke-width="1.11514"/>
<path d="M2.75172 3.99909C2.99338 3.80375 3.44084 3.63463 4.03248 3.51502C4.62413 3.3954 5.33088 3.33118 6.05544 3.33118C6.77999 3.33118 7.48673 3.3954 8.07837 3.51501C8.67002 3.63462 9.11747 3.80374 9.35914 3.99908" stroke="url(#paint2_linear_335_155)" stroke-width="1.11514"/>
<path d="M6.04149 3.28516C4.07344 3.28516 2.49895 3.80938 2.49895 4.46364V12.322C2.49895 12.9766 4.07344 13.5011 6.04149 13.5011C8.00954 13.5011 9.61193 12.9766 9.61193 12.322V4.46364C9.61193 3.80938 8.00954 3.28516 6.04149 3.28516Z" stroke="url(#paint3_linear_335_155)" stroke-width="0.997894"/>
<path d="M12.9289 5.2424C10.7154 5.2424 8.94456 5.76899 8.94456 6.42631V14.3185C8.94456 14.976 10.7154 15.5026 12.9289 15.5026C15.1423 15.5026 16.9446 14.976 16.9446 14.3185V6.42631C16.9446 5.76899 15.1423 5.2424 12.9289 5.2424Z" fill="url(#paint4_linear_335_155)"/>
<path d="M12.9306 5.28516C10.9626 5.28516 9.38807 5.80938 9.38807 6.46364V14.322C9.38807 14.9766 10.9626 15.5011 12.9306 15.5011C14.8987 15.5011 16.5011 14.9766 16.5011 14.322V6.46364C16.5011 5.80938 14.8987 5.28516 12.9306 5.28516Z" stroke="url(#paint5_linear_335_155)" stroke-width="0.997894"/>
<path d="M8.98431 7.34933C6.77084 7.34933 5 7.87592 5 8.53324V16.4255C5 17.0829 6.77084 17.6095 8.98431 17.6095C11.1978 17.6095 13 17.0829 13 16.4255V8.53324C13 7.87592 11.1978 7.34933 8.98431 7.34933Z" fill="url(#paint6_linear_335_155)"/>
<path d="M9 9.44242C10.9354 9.44242 12.5044 8.99373 12.5044 8.44025C12.5044 7.88677 10.9354 7.43808 9 7.43808C7.06458 7.43808 5.49562 7.88677 5.49562 8.44025C5.49562 8.99373 7.06458 9.44242 9 9.44242Z" stroke="url(#paint7_linear_335_155)" stroke-width="1.11514"/>
<path d="M8.98605 7.39206C7.01801 7.39206 5.44351 7.91629 5.44351 8.57055V16.4289C5.44351 17.0835 7.01801 17.608 8.98605 17.608C10.9541 17.608 12.5565 17.0835 12.5565 16.4289V8.57055C12.5565 7.91629 10.9541 7.39206 8.98605 7.39206Z" stroke="url(#paint8_linear_335_155)" stroke-width="0.997894"/>
<path opacity="0.544" d="M16.2418 6.01169C16.3746 6.11904 16.4424 6.23208 16.4424 6.34596C16.4424 6.47756 16.3518 6.60788 16.1757 6.72947C15.9996 6.85106 15.7414 6.96154 15.416 7.0546C15.0906 7.14766 14.7043 7.22148 14.2791 7.27184C13.8539 7.32221 13.3983 7.34813 12.938 7.34813C12.4778 7.34813 12.0222 7.32221 11.597 7.27184C11.1718 7.22148 10.7855 7.14766 10.4601 7.0546C10.1347 6.96154 9.87653 6.85106 9.70042 6.72947C9.52431 6.60788 9.43367 6.47756 9.43367 6.34596C9.43367 6.23209 9.50153 6.11905 9.63433 6.0117" stroke="url(#paint9_linear_335_155)" stroke-width="1.11514"/>
<path d="M9.63433 6.0117C9.87599 5.81635 10.3234 5.64724 10.9151 5.52762C11.5067 5.40801 12.2135 5.34378 12.938 5.34378C13.6626 5.34378 14.3693 5.40801 14.961 5.52762C15.5526 5.64723 16.0001 5.81634 16.2418 6.01168" stroke="url(#paint10_linear_335_155)" stroke-width="1.11514"/>
</g>
<defs>
<linearGradient id="paint0_linear_335_155" x1="2.83948" y1="8.3725" x2="9.30316" y2="8.3725" gradientUnits="userSpaceOnUse">
<stop stop-color="#7E9BCB"/>
<stop offset="0.347073" stop-color="#ECEBF2"/>
<stop offset="1" stop-color="#5E82C4"/>
</linearGradient>
<linearGradient id="paint1_linear_335_155" x1="5.8778" y1="5.69317" x2="5.94619" y2="3.04642" gradientUnits="userSpaceOnUse">
<stop stop-color="#2A69B7"/>
<stop offset="1" stop-color="#296FC4"/>
</linearGradient>
<linearGradient id="paint2_linear_335_155" x1="5.8778" y1="5.69317" x2="5.94619" y2="3.04642" gradientUnits="userSpaceOnUse">
<stop stop-color="#2A69B7"/>
<stop offset="1" stop-color="#296FC4"/>
</linearGradient>
<linearGradient id="paint3_linear_335_155" x1="5.62922" y1="13.9874" x2="5.53901" y2="3.01393" gradientUnits="userSpaceOnUse">
<stop stop-color="#2B5790"/>
<stop offset="1" stop-color="#296FC4"/>
</linearGradient>
<linearGradient id="paint4_linear_335_155" x1="9.7286" y1="10.3725" x2="16.1923" y2="10.3725" gradientUnits="userSpaceOnUse">
<stop stop-color="#7E9BCB"/>
<stop offset="0.347073" stop-color="#ECEBF2"/>
<stop offset="1" stop-color="#5E82C4"/>
</linearGradient>
<linearGradient id="paint5_linear_335_155" x1="12.5183" y1="15.9874" x2="12.4281" y2="5.01393" gradientUnits="userSpaceOnUse">
<stop stop-color="#2B5790"/>
<stop offset="1" stop-color="#296FC4"/>
</linearGradient>
<linearGradient id="paint6_linear_335_155" x1="5.78404" y1="12.4794" x2="12.2477" y2="12.4794" gradientUnits="userSpaceOnUse">
<stop stop-color="#7E9BCB"/>
<stop offset="0.347073" stop-color="#ECEBF2"/>
<stop offset="1" stop-color="#5E82C4"/>
</linearGradient>
<linearGradient id="paint7_linear_335_155" x1="8.82236" y1="9.80007" x2="8.89075" y2="7.15332" gradientUnits="userSpaceOnUse">
<stop stop-color="#2A69B7"/>
<stop offset="1" stop-color="#296FC4"/>
</linearGradient>
<linearGradient id="paint8_linear_335_155" x1="8.57378" y1="18.0943" x2="8.48357" y2="7.12081" gradientUnits="userSpaceOnUse">
<stop stop-color="#2B5790"/>
<stop offset="1" stop-color="#296FC4"/>
</linearGradient>
<linearGradient id="paint9_linear_335_155" x1="12.7604" y1="7.70577" x2="12.8288" y2="5.05902" gradientUnits="userSpaceOnUse">
<stop stop-color="#2A69B7"/>
<stop offset="1" stop-color="#296FC4"/>
</linearGradient>
<linearGradient id="paint10_linear_335_155" x1="12.7604" y1="7.70577" x2="12.8288" y2="5.05902" gradientUnits="userSpaceOnUse">
<stop stop-color="#2A69B7"/>
<stop offset="1" stop-color="#296FC4"/>
</linearGradient>
<clipPath id="clip0_335_155">
<rect width="16" height="16" fill="white" transform="translate(1 2)"/>
</clipPath>
</defs>
</svg>
