<svg width="19" height="19" viewBox="0 0 19 19" fill="none" xmlns="http://www.w3.org/2000/svg">
<path d="M15.7037 5.51465H5.2963C4.85696 5.51465 4.50081 5.87072 4.50081 6.31006V14.7292C4.50081 15.1686 4.85696 15.5248 5.2963 15.5248H15.7037C16.143 15.5248 16.4992 15.1686 16.4992 14.7292V6.31006C16.4992 5.87072 16.143 5.51465 15.7037 5.51465Z" fill="url(#paint0_linear_335_81)" stroke="url(#paint1_linear_335_81)"/>
<path d="M15 7.01465H6V14.0146H15V7.01465Z" fill="white"/>
<path d="M12.9722 16H8.00014V17.0386H12.9722V16Z" fill="#4673AD"/>
<path d="M16 17.0149H5V17.9993H16V17.0149Z" fill="#4673AD"/>
<path d="M12.0135 16H8.97252V17.0386H12.0135V16Z" fill="#2A5893"/>
<path d="M14.9906 17.0149H6V17.9993H14.9906V17.0149Z" fill="#2A5893"/>
<path d="M15 7.01465H6.01103V8.00349H15V7.01465Z" fill="#CFEDFB"/>
<path d="M7.00429 14.0194V7.01465H6V14.0194H7.00429Z" fill="#CFEDFB"/>
<path d="M6.54003 10.4956L6.52898 9.50757H8.52877V7.50781H9.54524V5.54285H8.52877V3.51013H6.51794L6.52899 2.5C4.92263 2.5 6.1226 2.5 4.51625 2.5L4.5273 3.51013H2.51647V5.54285H1.5V7.50781H2.51647V9.50757H4.51625L4.5052 10.4956C6.11892 10.4956 4.92631 10.4956 6.54003 10.4956Z" fill="url(#paint2_linear_335_81)" stroke="#75615A"/>
<path d="M5.55328 7.51648C6.1142 7.51648 6.56891 7.06177 6.56891 6.50085C6.56891 5.93994 6.1142 5.48523 5.55328 5.48523C4.99237 5.48523 4.53766 5.93994 4.53766 6.50085C4.53766 7.06177 4.99237 7.51648 5.55328 7.51648Z" fill="white" stroke="#75615A" stroke-linejoin="round"/>
<path d="M6.54698 10.5187L6.53593 9.53064H8.53571V7.53088H9.55218V5.56592H8.53571V3.5332H6.52488L6.53593 2.52307C4.92957 2.52307 6.12955 2.52307 4.52319 2.52307L4.53424 3.5332H2.52341V5.56592H1.50694V7.53088H2.52341V9.53064H4.52319L4.51214 10.5187C6.12586 10.5187 4.93326 10.5187 6.54698 10.5187Z" fill="url(#paint3_linear_335_81)" stroke="#75615A"/>
<path d="M5.56023 7.53955C6.12114 7.53955 6.57585 7.08484 6.57585 6.52393C6.57585 5.96301 6.12114 5.5083 5.56023 5.5083C4.99931 5.5083 4.5446 5.96301 4.5446 6.52393C4.5446 7.08484 4.99931 7.53955 5.56023 7.53955Z" fill="white" stroke="#75615A" stroke-linejoin="round"/>
<defs>
<linearGradient id="paint0_linear_335_81" x1="10.9583" y1="7.82134" x2="10.9583" y2="15.9666" gradientUnits="userSpaceOnUse">
<stop stop-color="#91A5C7"/>
<stop offset="1" stop-color="#91A5C7"/>
</linearGradient>
<linearGradient id="paint1_linear_335_81" x1="10.3806" y1="12.3063" x2="10.3806" y2="5.58094" gradientUnits="userSpaceOnUse">
<stop stop-color="#2B5C9C"/>
<stop offset="1" stop-color="#3673C4"/>
</linearGradient>
<linearGradient id="paint2_linear_335_81" x1="5.38859" y1="9.5528" x2="5.41069" y2="4.8795" gradientUnits="userSpaceOnUse">
<stop stop-color="#E0B575"/>
<stop offset="0.471586" stop-color="#F5CA75"/>
<stop offset="1" stop-color="#F5F5B5"/>
</linearGradient>
<linearGradient id="paint3_linear_335_81" x1="5.39554" y1="8.70178" x2="5.39554" y2="3.46397" gradientUnits="userSpaceOnUse">
<stop stop-color="#DF9F3F"/>
<stop offset="0.384956" stop-color="#FFBF3F"/>
<stop offset="1" stop-color="#F5F5B5"/>
</linearGradient>
</defs>
</svg>
