<svg width="19" height="19" viewBox="0 0 19 19" fill="none" xmlns="http://www.w3.org/2000/svg">
<path d="M6.57099 4.4967H3.35097C2.87218 4.4967 2.48404 4.88484 2.48404 5.36363L2.48404 9.12032C2.48404 9.59912 2.87218 9.98725 3.35097 9.98725H6.57099C7.04978 9.98725 7.43792 9.59912 7.43792 9.12032L7.43792 5.36363C7.43792 4.88484 7.04978 4.4967 6.57099 4.4967Z" fill="#FDF7EB" stroke="url(#paint0_linear_335_90)" stroke-width="1.00043" stroke-linecap="round" stroke-linejoin="round"/>
<path d="M2.32068 6.52884H12.6029C13.0832 6.52884 13.4698 6.91549 13.4698 7.39577L13.4698 13.6766C13.4698 14.1568 13.0832 14.5459 12.6029 14.5435L2.32068 14.4926C1.84041 14.4902 1.45375 14.1059 1.45375 13.6256L1.45375 7.39577C1.45375 6.91549 1.8404 6.52884 2.32068 6.52884Z" fill="url(#paint1_linear_335_90)" stroke="url(#paint2_linear_335_90)" stroke-width="1.00043" stroke-linecap="round" stroke-linejoin="round"/>
<path d="M1.99471 6.52884H8.63084" stroke="url(#paint3_linear_335_90)" stroke-width="1.00043"/>
<path d="M17.5531 7.50121C17.5531 8.03238 17.4485 8.55834 17.2452 9.04908C17.0419 9.53981 16.744 9.9857 16.3684 10.3613C15.9928 10.7369 15.5469 11.0348 15.0562 11.2381C14.5655 11.4414 14.0395 11.546 13.5083 11.546C12.9772 11.546 12.4512 11.4414 11.9605 11.2381C11.4697 11.0348 11.0239 10.7369 10.6483 10.3613C10.2727 9.9857 9.97474 9.53981 9.77147 9.04908C9.5682 8.55834 9.46358 8.03238 9.46358 7.50121C9.46358 6.97005 9.5682 6.44408 9.77147 5.95335C9.97474 5.46262 10.2727 5.01673 10.6483 4.64113C11.0239 4.26554 11.4697 3.96761 11.9605 3.76434C12.4512 3.56107 12.9772 3.45645 13.5083 3.45645C14.5811 3.45645 15.6099 3.88259 16.3684 4.64113C17.127 5.39967 17.5531 6.42848 17.5531 7.50121Z" fill="url(#paint4_radial_335_90)"/>
<path d="M13.9375 3.49997C13.8797 3.49984 13.836 3.51685 13.9375 3.53122C14.008 3.54079 13.8973 3.57293 14 3.56247C14.052 3.51771 13.9885 3.50009 13.9375 3.49997ZM12.6875 3.53122C12.6316 3.54267 12.5863 3.57999 12.5313 3.59372C12.647 3.56463 12.7556 3.5501 12.875 3.53122C12.8137 3.54085 12.7479 3.51886 12.6875 3.53122ZM13.1875 3.53122C13.1177 3.5446 13.1006 3.55679 13.1875 3.56247C13.2469 3.53506 13.2495 3.52929 13.2813 3.53122C13.2465 3.5357 13.2168 3.5256 13.1875 3.53122ZM14.3125 3.53122C14.3062 3.5307 14.287 3.56291 14.2813 3.56247C14.2702 3.58356 14.1918 3.59619 14.3125 3.59372C14.3158 3.60694 14.3224 3.63943 14.3438 3.62497C14.3518 3.61234 14.3575 3.57196 14.375 3.56247C14.353 3.55757 14.3347 3.53576 14.3125 3.53122ZM13.5313 3.56247C13.5145 3.56283 13.5076 3.59795 13.5 3.62497C13.4332 3.57945 13.2942 3.58745 13.25 3.59372C13.2116 3.61243 13.2154 3.63189 13.3438 3.62497C13.4157 3.62345 13.3334 3.64693 13.2813 3.65622C13.2968 3.6576 13.2935 3.65692 13.3438 3.65622C13.4122 3.6555 13.7741 3.61831 13.5625 3.59372C13.5788 3.56555 13.5442 3.5631 13.5313 3.56247ZM14.0313 3.56247C14.0235 3.57239 14.0464 3.59568 14.125 3.59372C14.1468 3.56467 14.1504 3.56214 14.125 3.56247C14.099 3.56281 14.0391 3.55255 14.0313 3.56247ZM13.7188 3.59372C13.7084 3.59413 13.7188 3.62065 13.7188 3.62497H13.75L13.7188 3.59372ZM13.75 3.62497C13.718 3.63053 13.7198 3.6475 13.8125 3.65622C13.7901 3.66015 13.7268 3.69875 13.8438 3.68747C13.9355 3.65937 13.9657 3.59273 13.875 3.59372C13.8656 3.59382 13.8558 3.62358 13.8438 3.62497C13.8553 3.63682 13.7821 3.61941 13.75 3.62497ZM14.5313 3.59372C14.5217 3.60592 14.5044 3.61252 14.5 3.62497C14.4938 3.64314 14.5071 3.67828 14.5 3.68747C14.495 3.69055 14.4782 3.69031 14.4688 3.68747C14.4311 3.68729 14.3566 3.69618 14.3438 3.68747C14.2373 3.68019 14.2917 3.70434 14.3125 3.71872C14.4082 3.72691 14.5181 3.77338 14.5313 3.78122C14.6259 3.78835 14.5566 3.67169 14.7188 3.71872C14.7147 3.70173 14.7195 3.6914 14.75 3.68747C14.6773 3.66379 14.6058 3.61332 14.5313 3.59372ZM14.0313 3.62497C14.0421 3.63063 14.0327 3.648 14.0625 3.65622C14.1076 3.63008 14.0673 3.62528 14.0313 3.62497ZM12.9063 3.65622C12.7309 3.73526 12.6113 3.78195 12.625 3.84372C12.7496 3.83043 12.882 3.72502 13.0313 3.71872C13.1862 3.66678 12.9948 3.65982 12.9063 3.65622ZM13.9063 3.68747C13.878 3.69838 13.8943 3.73858 13.9688 3.74997C13.9893 3.71288 13.9625 3.68721 13.9375 3.68747C13.9271 3.68758 13.9157 3.68383 13.9063 3.68747ZM13.4375 3.71872C13.4065 3.71874 13.3983 3.74394 13.4375 3.78122C13.5569 3.75883 13.4828 3.71868 13.4375 3.71872ZM13.6563 3.74997C13.5609 3.77598 13.6904 3.7668 13.5938 3.81247C13.4502 3.76538 13.5719 3.92716 13.5938 3.93747C13.6233 3.93597 13.6844 3.87656 13.7188 3.84372C13.6937 3.82584 13.7296 3.79514 13.75 3.78122C13.7503 3.77593 13.7426 3.75312 13.7188 3.74997C13.7052 3.74885 13.6768 3.75062 13.6563 3.74997ZM14.8438 3.74997C14.841 3.75393 14.8303 3.7703 14.8438 3.78122C14.8979 3.80389 14.8611 3.80473 14.875 3.81247C14.8999 3.86153 15.0921 3.92662 15 3.90622C15.0939 3.92525 15.288 4.1397 15.25 4.06247C15.2788 4.11012 15.3272 4.28706 15.3125 4.21872C15.3197 4.22338 15.3773 4.2615 15.375 4.28122C15.4256 4.29294 15.4386 4.32674 15.4375 4.34372C15.4471 4.34753 15.4649 4.38519 15.4375 4.37497H15.4063C15.4109 4.37693 15.4021 4.40459 15.4063 4.40622C15.4918 4.43719 15.4102 4.49487 15.4375 4.49997C15.4064 4.50024 15.4057 4.52496 15.4063 4.53122C15.4117 4.53467 15.4023 4.55986 15.4063 4.56247C15.42 4.56737 15.3851 4.59471 15.4688 4.59372C15.453 4.59314 15.398 4.59979 15.375 4.59372C15.3826 4.59821 15.3796 4.61245 15.4063 4.62497C15.3669 4.63085 15.3454 4.67249 15.3438 4.68747C15.4518 4.65066 15.4094 4.70242 15.375 4.71872C15.4086 4.72205 15.4366 4.73146 15.4375 4.74997C15.4479 4.74767 15.4643 4.77328 15.4375 4.78122C15.436 4.7861 15.4403 4.80856 15.4375 4.81247C15.4425 4.81558 15.4343 4.84046 15.4375 4.84372C15.377 4.86498 15.4135 4.91548 15.4375 4.93747C15.4361 4.93802 15.4669 4.94326 15.4688 4.93747C15.463 4.99983 15.5 5.0903 15.5 5.06247C15.5614 5.1204 15.6219 5.14368 15.625 5.12497C15.6455 5.12243 15.7226 5.17431 15.7188 5.18747C15.75 5.19705 15.7703 5.1925 15.75 5.15622C15.7529 5.14256 15.7433 5.11866 15.75 5.09372C15.7588 5.06058 15.7611 5.04787 15.75 5.06247C15.7206 5.03654 15.8094 5.01059 15.7813 4.99997C15.809 4.9729 15.7968 4.78682 15.8125 4.87497C15.8988 4.84356 15.9284 4.90383 15.9375 4.84372C15.9378 4.89156 15.9816 4.85048 16 4.84372C16.0044 4.84548 16.0281 4.84627 16.0313 4.84372C16.0551 4.82431 16.021 4.71583 16.0625 4.74997C16.1136 4.83046 16.2932 4.83267 16.3438 4.78122C16.2975 4.7577 16.2742 4.73189 16.25 4.71872C16.2112 4.70491 16.198 4.66448 16.1875 4.65622C16.1978 4.65526 16.2109 4.67596 16.25 4.68747C16.2665 4.70236 16.2715 4.67978 16.2813 4.68747C16.2513 4.64664 16.2232 4.58781 16.2188 4.59372C16.1855 4.56306 16.1781 4.55662 16.1875 4.56247C16.1358 4.52649 16.1827 4.51332 16.25 4.56247C15.9015 4.2397 15.5082 3.96599 15.0625 3.78122C15.0357 3.78124 14.8992 3.75375 14.8438 3.74997ZM13.0313 3.78122C12.9911 3.80494 12.9599 3.82683 12.9063 3.84372C12.9635 3.84852 12.6045 3.92567 12.9375 3.90622C12.8937 3.93106 12.5634 3.94687 12.8125 4.03122C12.7238 4.17232 13.2186 3.98422 13.0938 4.03122C13.1365 4.01947 13.1617 4.09428 13.25 4.09372C13.3625 4.0723 13.3397 4.00917 13.3125 3.99997C13.3348 3.98595 13.3602 3.96744 13.375 3.96872C13.3391 3.92818 13.3169 3.90901 13.375 3.84372C13.3338 3.87138 13.2406 3.9046 13.25 3.84372C13.2557 3.80272 13.2623 3.72343 13.2188 3.78122C13.1551 3.79867 13.0965 3.7906 13.0625 3.78122C13.0553 3.78431 13.0323 3.77797 13.0313 3.78122ZM14.0938 3.84372C14.0191 3.86649 13.8553 3.99708 14.0313 4.03122C14.0011 4.02503 13.9815 4.03061 13.9688 4.03122C13.9993 4.05685 14.0464 4.10534 14.0313 4.09372C14.0637 4.09875 14.1334 4.11568 14.1875 4.12497C14.2604 4.13765 14.3214 4.14746 14.2813 4.15622C14.3714 4.19659 14.3212 4.02529 14.375 4.18747C14.4636 4.20192 14.5654 4.26596 14.4688 4.28122C14.464 4.2814 14.4579 4.33692 14.4688 4.31247C14.4966 4.35498 14.5729 4.42177 14.5625 4.37497C14.6201 4.42034 14.486 4.48359 14.4375 4.49997C14.4498 4.54067 14.4106 4.57711 14.375 4.59372C14.4184 4.58357 14.5456 4.7641 14.5 4.71872C14.4802 4.72459 14.4841 4.73376 14.5 4.74997C14.4932 4.75102 14.5151 4.79213 14.5313 4.78122C14.5987 4.82651 14.7013 4.86815 14.7188 4.87497C14.7257 4.84981 14.6881 4.788 14.6563 4.74997C14.6645 4.75354 14.6728 4.74177 14.6875 4.74997C14.7205 4.75769 14.7892 4.76921 14.7813 4.81247C14.8101 4.78708 14.7779 4.68747 14.7813 4.68747C14.7016 4.57594 14.7061 4.61937 14.6875 4.53122C14.6688 4.51491 14.8035 4.52398 14.7813 4.53122C14.7954 4.55359 14.8092 4.57449 14.8125 4.59372C14.8016 4.58874 14.9094 4.54685 14.9063 4.62497C14.9314 4.60877 14.9302 4.58276 14.9375 4.56247C15.0543 4.55988 14.9002 4.52665 14.9375 4.53122C14.9472 4.46096 14.8556 4.4942 14.875 4.43747C14.844 4.40227 14.7845 4.35788 14.8125 4.40622C14.8004 4.40714 14.764 4.36587 14.75 4.34372C14.7554 4.3296 14.7488 4.30325 14.8438 4.31247C14.8053 4.30099 14.7857 4.29016 14.7813 4.28122C14.7937 4.26992 14.8035 4.24362 14.7188 4.24997C14.6981 4.22903 14.7315 4.22411 14.75 4.21872C14.7496 4.21144 14.7419 4.205 14.7188 4.18747C14.6432 4.22062 14.712 4.17508 14.6875 4.15622C14.6726 4.16189 14.6552 4.16171 14.6563 4.15622C14.7212 4.12589 14.6682 4.08322 14.625 4.09372C14.6391 4.08093 14.6045 4.04758 14.5625 4.06247C14.4889 4.04572 14.5735 4.05994 14.5 3.99997C14.4884 3.97405 14.4896 3.93744 14.4688 3.93747C14.4307 3.93753 14.4142 3.96772 14.4063 3.96872C14.3948 3.93716 14.3821 3.92544 14.375 3.93747C14.3782 3.89869 14.3505 3.86393 14.25 3.90622C14.1976 3.91973 14.2145 4.01538 14.1875 3.96872C14.16 3.94639 14.1403 3.9502 14.125 3.96872C14.1098 3.98724 14.1073 4.01724 14.125 4.03122C14.067 4.04298 14.0928 4.00741 14.125 3.96872C14.1734 3.91068 14.2248 3.84204 14.1563 3.84372C14.1422 3.84407 14.1224 3.83563 14.0938 3.84372ZM12.3438 3.90622C12.3149 3.91748 12.2477 3.94826 12.1875 3.96872C12.1291 3.98304 12.0647 3.97813 12.0938 3.96872C12.0699 3.96312 11.9379 4.04065 11.875 3.93747C11.7679 3.94726 11.7159 3.93459 11.6563 3.93747C11.6482 3.9417 11.6331 3.93319 11.625 3.93747C11.2665 4.12738 10.9407 4.37183 10.6563 4.65622C10.6207 4.68964 10.5918 4.74082 10.5625 4.78122C10.5206 4.83894 10.5129 4.88118 10.5625 4.84372C10.507 4.90504 10.4886 5.02328 10.5938 4.93747C10.5053 5.07227 10.369 5.18692 10.2813 5.28122C10.4246 5.1644 10.5516 5.03303 10.6875 4.90622C10.6984 4.84776 10.7803 4.81418 10.8438 4.78122C10.7806 4.8394 10.7191 4.93569 10.7813 4.87497C10.8423 4.85139 10.9283 4.75954 10.9688 4.71872C10.968 4.71787 10.9994 4.72103 11 4.71872C11.0097 4.71843 11.015 4.71612 11 4.74997C11.0294 4.75717 11.1282 4.80248 11.1563 4.81247C11.1878 4.79671 11.2586 4.87162 11.25 4.90622C11.2586 4.90058 11.2725 4.89112 11.2813 4.84372C11.2881 4.81666 11.2595 4.98612 11.2813 4.96872C11.2724 4.98831 11.2568 5.01104 11.25 5.03122L11.2188 5.06247C11.2132 5.07546 11.2144 5.08965 11.2188 5.09372L11.25 5.06247C11.2476 5.0729 11.249 5.08615 11.25 5.09372C11.2466 5.09407 11.2335 5.13512 11.25 5.12497C11.2532 5.12718 11.2761 5.1247 11.2813 5.12497C11.2629 5.1438 11.2699 5.15005 11.2813 5.15622C11.2916 5.16488 11.2813 5.18386 11.25 5.21872C11.2399 5.22843 11.2664 5.23582 11.25 5.24997C11.23 5.31593 11.2593 5.34425 11.2813 5.34372C11.2688 5.39822 11.2683 5.45304 11.2813 5.46872C11.2525 5.50983 11.2282 5.56677 11.25 5.53122C11.3011 5.52596 11.2508 5.61779 11.2188 5.65622C11.2384 5.64808 11.2719 5.63847 11.3438 5.59372C11.3381 5.61063 11.4294 5.65064 11.375 5.68747C11.3976 5.72238 11.395 5.7765 11.375 5.81247C11.3618 5.83554 11.3457 5.83847 11.3438 5.84372C11.3088 5.68843 11.2177 6.09301 11.2188 5.99997C11.1545 6.15018 11.0914 6.27748 11.0625 6.43747C11.0062 6.55779 11.0481 6.76348 11.0938 6.71872C11.1215 6.82452 11.1056 6.97499 11.2188 6.99997C11.3262 7.10521 11.2936 7.2983 11.4063 7.40622C11.4204 7.48892 11.3172 7.53983 11.4375 7.56247C11.5159 7.73558 11.5296 7.84684 11.625 7.81247C11.5616 7.73964 11.4476 7.45379 11.4688 7.46872C11.4139 7.37927 11.3486 7.13472 11.4688 7.21872C11.5188 7.32404 11.5607 7.47 11.6563 7.56247C11.6592 7.67068 11.8123 7.77593 11.8438 7.93747C11.8176 8.04628 11.8613 8.12381 11.9688 8.18747C12.1199 8.22987 12.2706 8.38912 12.4375 8.31247C12.5457 8.29338 12.6376 8.52442 12.7813 8.49997C12.9397 8.51569 12.9339 8.55649 13.0313 8.68747C13.0233 8.81399 13.1089 8.65421 13.125 8.81247C13.1749 8.80267 13.3378 8.85507 13.375 8.87497C13.3805 8.7446 13.5614 8.78563 13.5313 8.90622C13.583 9.01514 13.5745 9.16318 13.4688 9.24997C13.3987 9.27819 13.3299 9.41229 13.3125 9.46872C13.4702 9.45171 13.4032 9.69605 13.3438 9.71872C13.4861 9.79931 13.5348 9.97549 13.625 10.0937C13.6847 10.2223 13.8939 10.2223 13.9688 10.3437C13.9882 10.4824 13.9592 10.5859 13.9688 10.7187C13.9086 10.8227 13.981 10.9407 13.9375 11.0312C13.8858 11.1136 13.8577 11.2736 13.9688 11.2812C13.963 11.3085 13.9185 11.345 13.9063 11.375C13.9024 11.3852 13.9063 11.4013 13.9063 11.4062C13.8285 11.4087 13.8475 11.4217 13.875 11.4375L13.9063 11.4687C13.9155 11.4691 13.9263 11.4744 13.9375 11.4687C13.9472 11.4748 13.9306 11.4943 13.9375 11.5C14.0317 11.4897 14.1266 11.4854 14.2188 11.4687C14.0926 11.4509 14.3832 11.3706 14.2188 11.3437C14.2871 11.3255 14.2723 11.281 14.3438 11.25C14.3496 11.2214 14.4795 11.0958 14.5938 11.0937C14.8783 11.045 14.4528 10.8617 14.7188 10.9375C14.7997 10.9826 14.9217 10.8416 14.9688 10.7812C14.9277 10.891 15.1637 10.5416 15.1563 10.5312C15.2619 10.4521 15.578 10.3441 15.4688 10.3437C15.6123 10.2439 15.6636 10.0494 15.6875 9.87497C15.8084 9.77405 15.8923 9.57903 15.9063 9.53122C15.8816 9.44544 15.5572 9.36702 15.6563 9.37497C15.5887 9.34263 15.4946 9.32786 15.4688 9.37497C15.4623 9.31179 15.258 9.2924 15.3125 9.31247C15.2779 9.33767 15.2657 9.32582 15.25 9.34372C15.1943 9.40717 15.2235 9.44043 15.1563 9.37497C15.2088 9.36497 15.2369 9.35971 15.25 9.34372C15.2697 9.31974 15.2508 9.28591 15.2188 9.28122C15.2135 9.28166 15.1903 9.27722 15.1875 9.28122C15.1836 9.28372 15.1578 9.27862 15.1563 9.28122C15.1352 9.29092 15.114 9.31604 15.0938 9.34372C15.0353 9.32646 15.0524 9.06447 15.1563 9.12497C15.1271 9.01117 15.0312 8.95491 14.9063 8.93747C14.7492 8.97498 14.721 8.87689 14.625 8.78122C14.5387 8.80111 14.4682 8.66077 14.4688 8.65622C14.3505 8.73963 14.0521 8.65082 14 8.62497C13.9513 8.62807 13.9216 8.65989 13.9375 8.74997C13.7947 8.80615 14.0126 8.51477 13.875 8.59372C13.7858 8.70587 13.681 8.60793 13.6563 8.74997C13.5637 8.88846 13.5886 8.80733 13.4375 8.74997C13.2634 8.84484 13.1241 8.73399 13.1563 8.62497C13.1938 8.53189 13.1492 8.38592 13.1563 8.37497C13.1141 8.36567 13.0211 8.31531 12.9063 8.34372C12.7357 8.39849 12.9531 8.23872 12.9063 8.18747C12.8951 8.13525 12.8226 7.97063 12.9375 7.96872C12.7662 7.94128 12.7545 8.08954 12.6875 8.18747C12.6278 8.13652 12.4779 8.23902 12.4063 8.12497C12.2821 8.00921 12.2931 7.83004 12.3438 7.68747C12.3913 7.63284 12.341 7.44677 12.4688 7.43747C12.5881 7.37087 12.5507 7.34943 12.7188 7.37497C12.7568 7.38147 12.8061 7.30477 12.875 7.37497C12.8815 7.27481 13.179 7.3164 13.0938 7.31247C13.1532 7.3886 13.2645 7.32227 13.2813 7.46872C13.272 7.5209 13.3796 7.63669 13.4063 7.68747C13.5239 7.54192 13.2768 7.31086 13.4688 7.18747C13.5791 7.11378 13.7654 6.9807 13.75 6.96872C13.759 6.96548 13.768 6.94001 13.7813 6.93747C13.772 6.93133 13.7742 6.9162 13.75 6.90622C13.809 6.86216 13.76 6.74334 13.75 6.71872C13.7538 6.72225 13.82 6.58371 13.8125 6.74997C13.8365 6.9205 13.8593 6.67943 13.875 6.62497C13.9063 6.6039 13.9319 6.57378 13.9688 6.53122C13.9741 6.52529 13.9913 6.53486 14 6.53122C14.0312 6.50091 14.0707 6.45591 14.125 6.46872C14.2406 6.45885 14.1763 6.46091 14.1875 6.34372C14.2659 6.25163 14.3666 6.22144 14.4063 6.21872C14.3744 6.1687 14.5144 6.20941 14.5625 6.18747C14.5099 6.21417 14.4078 6.30889 14.5313 6.34372C14.5546 6.24524 14.769 6.24712 14.75 6.18747C14.7473 6.17895 14.7329 6.20046 14.7188 6.18747C14.5729 6.25056 14.4904 6.04201 14.5313 6.03122C14.3844 5.99956 14.7973 5.94045 14.5313 5.90622C14.3114 5.96929 14.1177 6.14978 14.375 5.90622C14.4978 5.86772 14.5108 5.75309 14.6563 5.81247C14.7504 5.8268 14.8965 5.89199 14.9688 5.78122C15.041 5.80163 15.1303 5.72457 15.0938 5.68747C15.1346 5.63197 15.0736 5.57279 15.0625 5.59372C15.0552 5.54318 14.9825 5.57027 14.9375 5.59372C14.9412 5.5879 14.9247 5.57705 14.9375 5.56247C14.9722 5.54129 15.1093 5.53197 14.9688 5.46872C14.9229 5.48559 14.86 5.43311 14.9063 5.43747C14.8145 5.3795 14.8562 5.23665 14.8438 5.28122C14.8767 5.23367 14.9 5.15143 14.8438 5.18747C14.7635 5.19874 14.8471 5.13915 14.7813 5.06247C14.7795 5.04199 14.7539 5.03785 14.75 5.03122C14.7319 5.06336 14.6869 5.11412 14.6875 5.09372C14.6848 5.14249 14.5668 5.17022 14.5625 5.15622C14.5122 5.17712 14.5863 5.10697 14.4688 5.09372C14.4585 5.07565 14.4566 5.02055 14.4375 4.99997C14.5459 5.04473 14.5805 4.89523 14.4688 4.90622C14.4311 4.87738 14.2211 4.80921 14.3125 4.78122C14.1736 4.70704 14.1414 4.77372 14.0938 4.87497C14.137 4.8781 14.0464 4.95976 14.0938 4.96872C14.0285 5.05931 14.0784 5.24473 14.0938 5.28122C14.0902 5.35332 13.9277 5.53107 13.875 5.43747C13.8467 5.50988 13.8034 5.6875 13.8438 5.62497C13.8658 5.70653 13.784 5.64621 13.75 5.65622C13.6672 5.58724 13.6744 5.5053 13.7188 5.37497C13.6947 5.25703 13.5638 5.35536 13.5 5.21872C13.4485 5.15176 13.3072 5.08948 13.25 5.09372C13.2828 4.90004 13.1193 5.07442 13.1875 4.93747C13.2137 4.83095 13.3028 4.73977 13.375 4.68747C13.428 4.64984 13.47 4.67768 13.4375 4.59372C13.564 4.71547 13.4968 4.57758 13.5 4.56247C13.6167 4.62961 13.5897 4.50027 13.6875 4.56247C13.7347 4.55576 13.7675 4.544 13.7813 4.53122C13.8056 4.5086 13.7791 4.46325 13.75 4.43747C13.8735 4.50166 13.8863 4.28611 13.9688 4.37497C13.9723 4.37903 13.9874 4.34596 14 4.37497C14.1203 4.39501 14.0985 4.18013 14.125 4.24997C14.1353 4.25163 14.1206 4.21961 14.125 4.21872C14.1003 4.19697 14.0761 4.17334 14.0625 4.15622C14.0183 4.191 13.9446 4.24506 13.9063 4.28122C13.8824 4.29367 13.8689 4.32094 13.875 4.31247C13.8175 4.30243 13.9285 4.06439 13.8125 4.15622C13.7854 4.17845 13.7652 4.18712 13.75 4.18747C13.7428 4.16353 13.7438 4.10956 13.7813 4.09372C13.6983 4.05233 13.852 4.05187 13.7813 3.93747C13.7349 3.8903 13.6346 4.05015 13.6563 3.99997C13.515 4.05004 13.8064 4.10443 13.625 4.12497C13.7538 4.14929 13.5472 4.32462 13.5313 4.24997C13.4647 4.31437 13.5874 4.09929 13.5313 4.15622C13.5131 4.15451 13.4624 4.16058 13.4375 4.15622C13.4367 4.16097 13.418 4.17072 13.4375 4.18747C13.4413 4.21401 13.2089 4.1617 13.1563 4.15622C13.1191 4.1201 13.1097 4.09196 13.0625 4.09372C12.9766 4.09783 12.9582 4.1973 12.9375 4.21872C12.8603 4.30241 12.8422 4.15154 12.9063 4.15622C12.8131 4.14064 12.7501 4.11462 12.7188 4.09372C12.7165 4.08213 12.7035 4.04148 12.6875 4.03122C12.6082 3.92659 12.5287 3.86267 12.4688 3.93747C12.3585 4.04968 12.4071 3.90363 12.375 3.90622C12.3691 3.9067 12.3583 3.89291 12.3438 3.90622ZM13.5313 4.15622H13.5625C13.6238 4.17139 13.5743 4.03239 13.5313 4.03122C13.5243 4.03103 13.5071 4.05574 13.5 4.06247C13.4214 4.09715 13.3886 4.07863 13.5 4.12497L13.5313 4.15622ZM13.7813 4.53122C13.7758 4.53823 13.7732 4.58146 13.7813 4.56247C13.7846 4.58664 13.8372 4.63959 13.8438 4.62497C13.9505 4.49011 13.9577 4.65664 14.0625 4.62497C14.0389 4.59663 13.9053 4.44435 13.9063 4.43747C13.8662 4.43728 13.7977 4.5102 13.7813 4.53122ZM14.75 6.18747C14.7511 6.19616 14.7589 6.18379 14.7813 6.18747C14.8018 6.15486 14.853 6.19798 14.8125 6.09372C14.8099 6.10277 14.7466 6.16141 14.75 6.18747ZM11.2188 5.65622C11.2341 5.688 11.2269 5.7354 11.2188 5.71872C11.2627 5.74158 11.2787 5.80571 11.3438 5.78122C11.3634 5.72508 11.2656 5.69366 11.2188 5.65622ZM14.4375 4.31247C14.3955 4.31238 14.2772 4.3776 14.4063 4.37497C14.4522 4.33004 14.458 4.31251 14.4375 4.31247ZM15.3438 4.37497C15.3066 4.37482 15.2965 4.47229 15.4063 4.46872C15.3779 4.40652 15.3619 4.37504 15.3438 4.37497ZM16.4063 5.03122C16.4203 5.04215 16.4256 5.08229 16.4375 5.09372C16.4167 5.06559 16.4196 5.031 16.4063 5.03122ZM16.4375 5.09372C16.4927 5.14118 16.4117 5.1764 16.5313 5.21872L16.5625 5.24997C16.6348 5.25751 16.5975 5.12381 16.5938 5.09372C16.5323 5.08373 16.4709 5.14234 16.4688 5.09372C16.461 5.08092 16.4445 5.1031 16.4375 5.09372ZM13.9375 5.21872C13.9168 5.22015 13.8612 5.30088 13.9375 5.28122C13.9616 5.2535 13.9463 5.21812 13.9375 5.21872ZM13.7188 5.49997C13.6866 5.50027 13.6896 5.54527 13.7813 5.53122C13.7704 5.50747 13.7323 5.49984 13.7188 5.49997ZM17.125 5.71872C17.1408 5.7642 17.1512 5.79994 17.1875 5.87497C17.1982 5.87144 17.2048 5.89317 17.2188 5.90622C17.1907 5.84184 17.1563 5.7813 17.125 5.71872ZM17 5.74997C16.9982 5.81051 17.0278 5.92627 17.0625 5.99997C17.0682 6.01207 17.0574 6.02136 17.0625 6.03122C17.0594 6.03165 17.053 6.06483 17.0625 6.06247C17.0646 6.06594 17.092 6.05986 17.0938 6.06247C17.0637 6.16427 17.1329 6.18096 17.0938 6.21872C17.2331 6.24752 17.1528 6.05645 17.125 5.99997C17.0897 5.88451 17.0093 5.78462 17 5.74997ZM14.6563 5.84372C14.6183 5.84386 14.6327 5.89941 14.7813 5.93747C14.743 5.88075 14.684 5.84362 14.6563 5.84372ZM15.0313 5.84372C14.9987 5.89894 14.9634 5.95976 14.9063 5.96872C14.8671 6.01986 14.9776 6.09399 15.0938 6.06247C15.0929 6.09154 15.0498 6.14365 15.1563 6.09372C15.1673 6.06791 15.1522 6.06134 15.1563 6.06247L15.1875 6.09372C15.1913 6.1218 15.1955 6.16074 15.2188 6.15622C15.3028 6.07395 15.1901 6.09142 15.1875 6.06247C15.1866 6.05282 15.1883 6.02463 15.2188 5.99997C15.1179 6.05647 15.0727 5.95879 15.1563 5.93747C15.0246 5.92633 15.1405 5.91634 15.0938 5.87497C15.0223 5.91764 15.0137 5.8838 15.0313 5.84372ZM16.9688 5.90622C16.9586 5.90685 16.9445 5.91658 16.9375 5.93747C16.9294 5.97776 16.954 6.13484 16.9688 6.09372C16.9791 6.10286 16.9784 6.13725 17 6.12497C17.098 6.11008 17.0177 5.9032 16.9688 5.90622ZM17.25 5.99997C17.2617 6.09749 17.2486 6.22228 17.25 6.24997C17.2107 6.30343 17.1498 6.33324 17.125 6.34372C17.1758 6.39852 17.1138 6.56966 17.1563 6.62497C17.0713 6.61374 17.059 6.78562 17.0625 6.84372C17.0524 7.00562 17.1663 7.06554 17.1875 7.06247C17.3019 7.06487 17.3219 6.72308 17.3125 6.81247C17.3275 6.65591 17.4352 6.61482 17.4688 6.81247C17.4193 6.52644 17.3562 6.26205 17.25 5.99997ZM17.25 7.06247C17.1989 7.07498 17.1747 7.10191 17.2188 7.12497C17.1114 7.10974 17.0322 7.59818 17.0313 7.49997C16.9102 7.61079 16.8417 7.7765 16.8125 7.93747C16.8765 8.07085 16.8471 8.46608 16.8125 8.40622C16.8407 8.48763 16.9111 8.69028 16.9063 8.59372C16.9426 8.70372 17.0587 8.81018 17.1563 8.68747C17.2923 8.5769 17.412 8.55059 17.3125 8.78122C17.4515 8.3725 17.5625 7.95568 17.5625 7.49997C17.5625 7.45635 17.5326 7.41825 17.5313 7.37497C17.4437 7.27562 17.2867 7.07036 17.4063 7.06247C17.3594 7.04816 17.3011 7.04996 17.25 7.06247ZM13.2813 7.84372C13.2318 7.8434 13.2057 7.87419 13.1563 7.90622C13.1285 7.94001 13.1707 7.94421 13.2188 7.93747H13.25C13.2829 7.92957 13.3114 7.91196 13.3125 7.90622C13.3187 7.91352 13.7374 8.08416 13.5625 8.03122C13.582 8.04483 13.5968 8.0537 13.5938 8.06247C13.5975 8.06767 13.6187 8.09613 13.7188 8.09372C13.8629 8.04831 13.587 7.96465 13.5938 7.96872C13.5802 7.96152 13.5764 7.94492 13.5625 7.93747C13.5448 7.91181 13.5407 7.90644 13.5313 7.90622C13.458 7.86879 13.3596 7.84422 13.2813 7.84372ZM9.71876 7.90622C9.70503 7.907 9.68314 7.94509 9.71876 7.96872C9.73156 7.92508 9.72816 7.90568 9.71876 7.90622ZM13.875 8.06247C13.8528 8.06286 13.837 8.08578 13.8438 8.09372C13.8597 8.10503 13.8369 8.11693 13.8438 8.12497C13.8373 8.12486 13.8306 8.16581 13.8438 8.15622C13.8291 8.15792 13.8244 8.18582 13.8125 8.18747C13.8971 8.14155 13.8893 8.24131 13.9375 8.21872C13.9573 8.15231 14.1971 8.19663 14.125 8.12497C14.1099 8.08996 13.9416 8.0613 13.875 8.06247ZM14.2813 8.15622C14.2409 8.15742 14.1518 8.23754 14.2813 8.21872C14.2936 8.19123 14.2983 8.15572 14.2813 8.15622ZM13.5313 8.18747C13.538 8.19357 13.5445 8.20911 13.5625 8.21872H13.5938C13.7132 8.20814 13.5841 8.1868 13.5313 8.18747ZM12.6875 9.31247C12.6762 9.31387 12.6867 9.39496 12.7188 9.37497C12.7134 9.33254 12.6925 9.31291 12.6875 9.31247Z" fill="url(#paint5_linear_335_90)"/>
<path d="M17.7404 7.50123C17.7404 8.05699 17.6309 8.60731 17.4183 9.12077C17.2056 9.63422 16.8938 10.1008 16.5009 10.4937C16.1079 10.8867 15.6413 11.1985 15.1279 11.4111C14.6144 11.6238 14.0641 11.7333 13.5083 11.7333C12.9526 11.7333 12.4023 11.6238 11.8888 11.4111C11.3753 11.1985 10.9088 10.8867 10.5158 10.4937C10.1228 10.1008 9.8111 9.63422 9.59842 9.12077C9.38574 8.60731 9.27628 8.05699 9.27628 7.50123C9.27628 6.94546 9.38574 6.39514 9.59842 5.88169C9.8111 5.36823 10.1228 4.90169 10.5158 4.50871C10.9088 4.11572 11.3753 3.80399 11.8888 3.59131C12.4023 3.37863 12.9526 3.26916 13.5083 3.26917C14.6308 3.26917 15.7072 3.71504 16.5009 4.50871C17.2945 5.30237 17.7404 6.37881 17.7404 7.50123Z" stroke="url(#paint6_linear_335_90)" stroke-width="0.523153"/>
<defs>
<linearGradient id="paint0_linear_335_90" x1="4.45985" y1="4.41046" x2="4.45985" y2="5.8604" gradientUnits="userSpaceOnUse">
<stop stop-color="#C48A4E"/>
<stop offset="1" stop-color="#AD6C24"/>
</linearGradient>
<linearGradient id="paint1_linear_335_90" x1="7.00978" y1="13.6541" x2="7.00978" y2="6.38486" gradientUnits="userSpaceOnUse">
<stop stop-color="#F8D078"/>
<stop offset="1" stop-color="#F8F0C8"/>
</linearGradient>
<linearGradient id="paint2_linear_335_90" x1="10.4622" y1="14.5673" x2="10.4622" y2="6.23904" gradientUnits="userSpaceOnUse">
<stop stop-color="#9E6627"/>
<stop offset="1" stop-color="#C38536"/>
</linearGradient>
<linearGradient id="paint3_linear_335_90" x1="-nan" y1="-nan" x2="-nan" y2="-nan" gradientUnits="userSpaceOnUse">
<stop stop-color="#C38536"/>
<stop offset="0.153812" stop-color="#F2DC91"/>
<stop offset="0.5" stop-color="#FBDC8B"/>
<stop offset="0.75" stop-color="#E6BD7A"/>
<stop offset="1" stop-color="#BA772F"/>
</linearGradient>
<radialGradient id="paint4_radial_335_90" cx="0" cy="0" r="1" gradientUnits="userSpaceOnUse" gradientTransform="translate(11.4312 5.99861) scale(5.59156)">
<stop stop-color="#6FD9FF"/>
<stop offset="1" stop-color="#4364A7"/>
</radialGradient>
<linearGradient id="paint5_linear_335_90" x1="11.3788" y1="4.2738" x2="16.0599" y2="9.66549" gradientUnits="userSpaceOnUse">
<stop stop-color="#FFFCF2"/>
<stop offset="0.35072" stop-color="#ADC977"/>
<stop offset="0.71202" stop-color="#7F9F3F"/>
<stop offset="1" stop-color="#77775C"/>
</linearGradient>
<linearGradient id="paint6_linear_335_90" x1="17.4412" y1="10.1469" x2="11.1887" y2="3.89446" gradientUnits="userSpaceOnUse">
<stop stop-color="#777777"/>
<stop offset="1" stop-color="#BFBF9F"/>
</linearGradient>
</defs>
</svg>
