<svg width="19" height="19" viewBox="0 0 19 19" fill="none" xmlns="http://www.w3.org/2000/svg">
<g clip-path="url(#clip0_344_44)">
<path d="M14.4375 2.5H4.5V16.5312H14.4375V2.5Z" fill="url(#paint0_linear_344_44)" stroke="url(#paint1_linear_344_44)"/>
<path d="M13 6H5.98917V7H13V6Z" fill="url(#paint2_linear_344_44)"/>
<path d="M4 8.01501V7.91052V4.97656V4.87207H4.5H14.4375H14.9375V4.97656V7.91052V8.01501H14.4375H4.5H4Z" fill="url(#paint3_linear_344_44)"/>
<path d="M13 4H5.98917V5H13V4Z" fill="url(#paint4_linear_344_44)"/>
<path d="M13 14H5.98917V15H13V14Z" fill="url(#paint5_linear_344_44)"/>
<path opacity="0.75" d="M4 12.8718V12.9429V14.9434V15.0143H4.5H14.4375H14.9375V14.9434V12.9429V12.8718H14.4375H4.5H4Z" fill="url(#paint6_linear_344_44)"/>
<path d="M15.5156 8.48438H3.51562V12.5002H15.5156V8.48438Z" fill="url(#paint7_linear_344_44)" stroke="url(#paint8_linear_344_44)"/>
<path d="M13 10H5.98917V11H13V10Z" fill="url(#paint9_linear_344_44)"/>
</g>
<defs>
<linearGradient id="paint0_linear_344_44" x1="9.8125" y1="3.14055" x2="9.8125" y2="16.0542" gradientUnits="userSpaceOnUse">
<stop stop-color="#F9FAFC"/>
<stop offset="1" stop-color="#DEE9F7"/>
</linearGradient>
<linearGradient id="paint1_linear_344_44" x1="15" y1="2.89061" x2="15" y2="16.6645" gradientUnits="userSpaceOnUse">
<stop stop-color="#BFB688"/>
<stop offset="1" stop-color="#8693AE"/>
</linearGradient>
<linearGradient id="paint2_linear_344_44" x1="6.09877" y1="6.50004" x2="13" y2="6.50004" gradientUnits="userSpaceOnUse">
<stop stop-color="#879CC0"/>
<stop offset="1" stop-color="#677DA9"/>
</linearGradient>
<linearGradient id="paint3_linear_344_44" x1="9.92202" y1="8.12324" x2="9.92202" y2="5.10428" gradientUnits="userSpaceOnUse">
<stop stop-color="white" stop-opacity="0.721461"/>
<stop offset="1" stop-color="white" stop-opacity="0"/>
</linearGradient>
<linearGradient id="paint4_linear_344_44" x1="6.09877" y1="4.50006" x2="13" y2="4.50006" gradientUnits="userSpaceOnUse">
<stop stop-color="#879CC0"/>
<stop offset="1" stop-color="#677DA9"/>
</linearGradient>
<linearGradient id="paint5_linear_344_44" x1="6.09877" y1="14.5001" x2="13" y2="14.5001" gradientUnits="userSpaceOnUse">
<stop stop-color="#879CC0"/>
<stop offset="1" stop-color="#677DA9"/>
</linearGradient>
<linearGradient id="paint6_linear_344_44" x1="9.92202" y1="12.7983" x2="9.92202" y2="14.8567" gradientUnits="userSpaceOnUse">
<stop/>
<stop offset="1" stop-opacity="0"/>
</linearGradient>
<linearGradient id="paint7_linear_344_44" x1="9.65625" y1="8.90559" x2="9.65625" y2="11.9284" gradientUnits="userSpaceOnUse">
<stop stop-color="#EEF4FA"/>
<stop offset="1" stop-color="#BDDFF4"/>
</linearGradient>
<linearGradient id="paint8_linear_344_44" x1="5.9375" y1="8.28076" x2="5.9375" y2="12.5004" gradientUnits="userSpaceOnUse">
<stop stop-color="#296FC4"/>
<stop offset="1" stop-color="#2B578F"/>
</linearGradient>
<linearGradient id="paint9_linear_344_44" x1="6.09877" y1="10.5" x2="13" y2="10.5" gradientUnits="userSpaceOnUse">
<stop stop-color="#879CC0"/>
<stop offset="1" stop-color="#677DA9"/>
</linearGradient>
<clipPath id="clip0_344_44">
<rect width="16" height="16" fill="white" transform="translate(1 1)"/>
</clipPath>
</defs>
</svg>
