<svg width="19" height="19" viewBox="0 0 19 19" fill="none" xmlns="http://www.w3.org/2000/svg">
<g clip-path="url(#clip0_335_112)">
<path d="M4.5 3.46277H11.5097L14.5717 6.46936V16.424H4.5V3.46277Z" fill="url(#paint0_linear_335_112)"/>
<path d="M10.9793 3V6.91125H14.9568L10.9793 3Z" fill="url(#paint1_linear_335_112)"/>
<path d="M4.5 3.46277H11.5097L14.5717 6.46936V16.424H4.5V3.46277Z" stroke="url(#paint2_linear_335_112)"/>
<path d="M10.0027 5.9104H6.00977V6.92078H10.0027V5.9104Z" fill="url(#paint3_linear_335_112)"/>
<path d="M13.0027 7.9104H6.00977V8.92078H13.0027V7.9104Z" fill="url(#paint4_linear_335_112)"/>
<path d="M13.0027 9.9104H6.00977V10.9208H13.0027V9.9104Z" fill="url(#paint5_linear_335_112)"/>
<path d="M13.0027 11.9104H6.00977V12.9208H13.0027V11.9104Z" fill="url(#paint6_linear_335_112)"/>
<path d="M11.0192 13.9104H6.00977V14.9208H11.0192V13.9104Z" fill="url(#paint7_linear_335_112)"/>
</g>
<defs>
<linearGradient id="paint0_linear_335_112" x1="8.89732" y1="3.71187" x2="8.89732" y2="16.3967" gradientUnits="userSpaceOnUse">
<stop stop-color="#F9FAFC"/>
<stop offset="1" stop-color="#DCE7F7"/>
</linearGradient>
<linearGradient id="paint1_linear_335_112" x1="11.0014" y1="6.78956" x2="12.9902" y2="4.88916" gradientUnits="userSpaceOnUse">
<stop stop-color="#E0C88F"/>
<stop offset="1" stop-color="#D5B269"/>
</linearGradient>
<linearGradient id="paint2_linear_335_112" x1="9.54745" y1="3.13678" x2="9.54745" y2="16.8817" gradientUnits="userSpaceOnUse">
<stop stop-color="#BFB688"/>
<stop offset="1" stop-color="#8392B0"/>
</linearGradient>
<linearGradient id="paint3_linear_335_112" x1="6.00977" y1="6.4159" x2="10.0027" y2="6.4159" gradientUnits="userSpaceOnUse">
<stop stop-color="#91A5C7"/>
<stop offset="1" stop-color="#5E76A3"/>
</linearGradient>
<linearGradient id="paint4_linear_335_112" x1="6.00977" y1="8.4159" x2="13.0027" y2="8.4159" gradientUnits="userSpaceOnUse">
<stop stop-color="#91A5C7"/>
<stop offset="1" stop-color="#637AA7"/>
</linearGradient>
<linearGradient id="paint5_linear_335_112" x1="6.00977" y1="10.4159" x2="13.0027" y2="10.4159" gradientUnits="userSpaceOnUse">
<stop stop-color="#91A5C7"/>
<stop offset="1" stop-color="#637AA7"/>
</linearGradient>
<linearGradient id="paint6_linear_335_112" x1="6.00977" y1="12.4159" x2="13.0027" y2="12.4159" gradientUnits="userSpaceOnUse">
<stop stop-color="#91A5C7"/>
<stop offset="1" stop-color="#637AA7"/>
</linearGradient>
<linearGradient id="paint7_linear_335_112" x1="6.00977" y1="14.4159" x2="11.0192" y2="14.4159" gradientUnits="userSpaceOnUse">
<stop stop-color="#91A5C7"/>
<stop offset="1" stop-color="#637AA7"/>
</linearGradient>
<clipPath id="clip0_335_112">
<rect width="16" height="16" fill="white" transform="translate(1.5 3)"/>
</clipPath>
</defs>
</svg>
