<svg width="19" height="19" viewBox="0 0 19 19" fill="none" xmlns="http://www.w3.org/2000/svg">
<path d="M15.4641 12.8527C15.0404 12.8527 14.6795 12.7442 14.3812 12.528C14.0539 12.2831 13.8795 11.9536 13.8579 11.5393C13.3749 12.4054 12.7426 12.8385 11.9612 12.8385C11.255 12.8385 10.6932 12.6221 10.2756 12.189C9.85777 11.7464 9.63836 11.1673 9.61737 10.4518C9.58838 9.46318 9.92007 8.57337 10.6124 7.78247C11.3048 6.99157 12.1359 6.59619 13.1057 6.59619C14.0378 6.59619 14.5531 6.99157 14.6516 7.78247L14.9321 6.75146H16.5421C16.3031 7.58956 16.0687 8.42748 15.8391 9.26538C15.5164 10.4613 15.3611 11.2662 15.3732 11.6805C15.3859 12.1136 15.5476 12.3302 15.8584 12.3302M14.203 7.89551C14.1895 7.43421 13.9756 7.20349 13.5613 7.20349C12.9775 7.20349 12.4662 7.74484 12.0271 8.82764C11.6402 9.75984 11.4567 10.5648 11.4766 11.2427C11.4956 11.8924 11.7594 12.2172 12.2678 12.2172C12.7762 12.2172 13.2481 11.6146 13.6836 10.4094C14.0486 9.37382 14.2218 8.53571 14.203 7.89551Z" fill="#236298"/>
<path d="M15.4641 12.8527C15.0404 12.8527 14.6795 12.7442 14.3812 12.528C14.0539 12.2831 13.8795 11.9536 13.8579 11.5393C13.3749 12.4054 12.7426 12.8385 11.9612 12.8385C11.255 12.8385 10.6932 12.6221 10.2756 12.189C9.85777 11.7464 9.63836 11.1673 9.61737 10.4518C9.58838 9.46318 9.92007 8.57337 10.6124 7.78247C11.3048 6.99157 12.1359 6.59619 13.1057 6.59619C14.0378 6.59619 14.5531 6.99157 14.6516 7.78247L14.9321 6.75146H16.5421C16.3031 7.58956 16.0687 8.42748 15.8391 9.26538C15.5164 10.4613 15.3611 11.2662 15.3732 11.6805C15.3859 12.1136 15.5476 12.3302 15.8584 12.3302M14.203 7.89551C14.1895 7.43421 13.9756 7.20349 13.5613 7.20349C12.9775 7.20349 12.4662 7.74484 12.0271 8.82764C11.6402 9.75984 11.4567 10.5648 11.4766 11.2427C11.4956 11.8924 11.7594 12.2172 12.2678 12.2172C12.7762 12.2172 13.2481 11.6146 13.6836 10.4094C14.0486 9.37382 14.2218 8.53571 14.203 7.89551Z" stroke="#236298" stroke-width="0.317688"/>
<path d="M1.463 13.0832L1.57109 12.4371H2.14447L6.04061 5.11194H7.16386L8.55501 12.4371H9.22238L9.11428 13.0832H5.82912L5.93721 12.4371H6.62339L6.3273 10.8088H3.69071L2.82124 12.4371H3.65781L3.54971 13.0832H1.463ZM4.02909 10.1627H6.2051L5.64583 7.1141L4.02909 10.1627Z" fill="#236298"/>
</svg>
