<svg width="19" height="19" viewBox="0 0 19 19" fill="none" xmlns="http://www.w3.org/2000/svg">
<path d="M15.0956 2.3717H4.09591C3.26476 2.3717 2.59099 3.04544 2.59099 3.87659V15.0531C2.59099 15.8842 3.26476 16.558 4.09591 16.558H15.0956C15.9268 16.558 16.6005 15.8842 16.6005 15.0531V3.87659C16.6005 3.04544 15.9268 2.3717 15.0956 2.3717Z" fill="url(#paint0_linear_355_2)" stroke="#6D7B93" stroke-width="0.8"/>
<path d="M16.6005 5.50952H5.46361V13.7296H16.6005V5.50952Z" stroke="#6D7B93" stroke-width="0.8"/>
<path d="M2.94454 3.03467L5.72878 5.68632" stroke="#6D7B93"/>
<path d="M5.5962 13.7738L2.98874 16.2045" stroke="#6D7B93"/>
<path d="M9.19809 11.7427H7.04186V7.99874H9.19809V8.64919H7.83572V9.47122H9.10334V10.1217H7.83572V11.0871H9.19809V11.7427ZM11.8281 10.8925C11.8281 11.0427 11.8007 11.1742 11.7461 11.2868C11.6915 11.3995 11.6138 11.4934 11.5131 11.5685C11.4124 11.6437 11.2903 11.7 11.1469 11.7376C11.0035 11.7751 10.843 11.7939 10.6654 11.7939C10.5715 11.7939 10.4845 11.7905 10.4042 11.7836C10.324 11.7785 10.248 11.7691 10.1763 11.7555C10.1046 11.7418 10.0355 11.7247 9.9689 11.7043C9.90232 11.6838 9.83488 11.6582 9.76659 11.6274V10.9821C9.8383 11.018 9.91341 11.0504 9.99195 11.0794C10.0722 11.1084 10.1516 11.1341 10.2301 11.1562C10.3086 11.1767 10.3846 11.1929 10.458 11.2049C10.5331 11.2169 10.6023 11.2228 10.6654 11.2228C10.7354 11.2228 10.7952 11.2169 10.8447 11.2049C10.8942 11.1912 10.9343 11.1733 10.9651 11.1511C10.9975 11.1272 11.0205 11.0999 11.0342 11.0692C11.0496 11.0367 11.0573 11.0026 11.0573 10.9667C11.0573 10.9309 11.0513 10.8993 11.0393 10.872C11.0291 10.843 11.0043 10.8131 10.9651 10.7824C10.9258 10.7499 10.8678 10.7141 10.7909 10.6748C10.7158 10.6338 10.6142 10.5843 10.4862 10.5263C10.3616 10.4699 10.2532 10.4145 10.161 10.3598C10.0705 10.3035 9.99536 10.2412 9.93561 10.1729C9.87756 10.1046 9.83403 10.0269 9.805 9.93985C9.77598 9.85107 9.76147 9.74608 9.76147 9.62487C9.76147 9.4917 9.78708 9.37561 9.8383 9.27659C9.88951 9.17587 9.96207 9.09221 10.056 9.02563C10.1499 8.95905 10.2625 8.90954 10.394 8.8771C10.5272 8.84296 10.6748 8.82589 10.837 8.82589C11.0077 8.82589 11.1699 8.84552 11.3236 8.88478C11.4772 8.92405 11.6351 8.98295 11.7973 9.06148L11.5617 9.61462C11.432 9.55316 11.3082 9.5028 11.1904 9.46353C11.0726 9.42427 10.9548 9.40463 10.837 9.40463C10.7312 9.40463 10.6543 9.42341 10.6065 9.46097C10.5605 9.49853 10.5374 9.54975 10.5374 9.61462C10.5374 9.64877 10.5434 9.6795 10.5553 9.70681C10.5673 9.73242 10.5912 9.75974 10.627 9.78876C10.6629 9.81607 10.7132 9.8468 10.7781 9.88095C10.843 9.91339 10.9275 9.95351 11.0316 10.0013C11.1529 10.0542 11.2621 10.1072 11.3594 10.1601C11.4567 10.2113 11.5404 10.2702 11.6104 10.3368C11.6804 10.4034 11.7342 10.481 11.7717 10.5698C11.8093 10.6586 11.8281 10.7661 11.8281 10.8925ZM13.636 11.7939C13.4311 11.7939 13.2459 11.7657 13.0803 11.7094C12.9164 11.653 12.7756 11.566 12.6578 11.4482C12.5417 11.3287 12.4521 11.1767 12.3889 10.9924C12.3274 10.8063 12.2967 10.5843 12.2967 10.3265C12.2967 10.0414 12.3283 9.80327 12.3914 9.61206C12.4563 9.41915 12.5468 9.26464 12.6629 9.14855C12.7807 9.03246 12.9215 8.94966 13.0854 8.90015C13.251 8.85064 13.4346 8.82589 13.636 8.82589C13.7828 8.82589 13.9288 8.84381 14.0739 8.87966C14.219 8.91551 14.3556 8.96588 14.4836 9.03075L14.2583 9.62487C14.1456 9.57536 14.0372 9.53524 13.9331 9.50451C13.8289 9.47207 13.7299 9.45585 13.636 9.45585C13.4465 9.45585 13.3091 9.52841 13.2237 9.67352C13.1384 9.81693 13.0957 10.0329 13.0957 10.3214C13.0957 10.6082 13.1384 10.8199 13.2237 10.9565C13.3091 11.0931 13.4431 11.1614 13.6258 11.1614C13.7743 11.1614 13.9092 11.1426 14.0304 11.105C14.1516 11.0658 14.2754 11.0163 14.4017 10.9565V11.607C14.3385 11.6377 14.2771 11.665 14.2173 11.6889C14.1576 11.7128 14.097 11.7324 14.0355 11.7478C13.9758 11.7632 13.9126 11.7743 13.846 11.7811C13.7811 11.7896 13.7111 11.7939 13.636 11.7939Z" fill="#5B6A7C"/>
<defs>
<linearGradient id="paint0_linear_355_2" x1="10.4553" y1="12.2933" x2="-12.595" y2="-1.88966" gradientUnits="userSpaceOnUse">
<stop stop-color="#E9EFF5"/>
<stop offset="1" stop-color="#B9CCEA"/>
</linearGradient>
</defs>
</svg>
