<svg width="19" height="19" viewBox="0 0 19 19" fill="none" xmlns="http://www.w3.org/2000/svg">
<path d="M9.48964 4.5C10.6073 4.5 11.5 5.46467 11.5 6.70117V8.85669C11.5 10.0931 10.6073 11.0808 9.48964 11.0808C8.37201 11.0808 7.5 10.0931 7.5 8.85669V6.70117C7.5 5.46467 8.37201 4.5 9.48964 4.5ZM9.48754 2.5C7.28755 2.5 5.5 4.23321 5.5 6.36621V8.63757C5.5 10.7705 7.28755 12.528 9.48754 12.528C11.6875 12.528 13.5 10.7705 13.5 8.63757V6.36621C13.5 4.23321 11.6875 2.5 9.48754 2.5Z" fill="url(#paint0_linear_335_134)" stroke="url(#paint1_linear_335_134)"/>
<path d="M13.4507 7.29626H5.29004C4.67984 7.29626 4.18518 7.79093 4.18518 8.40112V14.2284C4.18518 14.8386 4.67984 15.3333 5.29004 15.3333H13.4507C14.0609 15.3333 14.5556 14.8386 14.5556 14.2284V8.40112C14.5556 7.79093 14.0609 7.29626 13.4507 7.29626Z" fill="url(#paint2_linear_335_134)"/>
<path opacity="0.25" d="M15.0313 9H4V10H15.0313V9Z" fill="#A77E1C"/>
<path opacity="0.25" d="M15.0313 11H4V12H15.0313V11Z" fill="#A77E1C"/>
<path opacity="0.25" d="M15.0313 13H4V14H15.0313V13Z" fill="#A77E1C"/>
<path d="M9.5 11.033C10.0614 11.033 10.5165 10.5779 10.5165 10.0165C10.5165 9.4551 10.0614 9 9.5 9C8.93862 9 8.48354 9.4551 8.48354 10.0165C8.48354 10.5779 8.93862 11.033 9.5 11.033Z" fill="#785B13"/>
<path d="M10.0303 10H8.96967V13.8063H10.0303V10Z" fill="#785B13"/>
<path d="M13.3951 7.50012H5.60485C4.99466 7.50012 4.5 7.99479 4.5 8.60498V14.3951C4.5 15.0053 4.99466 15.5 5.60485 15.5H13.3951C14.0053 15.5 14.5 15.0053 14.5 14.3951V8.60498C14.5 7.99479 14.0053 7.50012 13.3951 7.50012Z" stroke="url(#paint3_linear_335_134)"/>
<defs>
<linearGradient id="paint0_linear_335_134" x1="6.94042" y1="3.40606" x2="6.94042" y2="7.60696" gradientUnits="userSpaceOnUse">
<stop stop-color="#FDF3CB"/>
<stop offset="1" stop-color="#FCE69E"/>
</linearGradient>
<linearGradient id="paint1_linear_335_134" x1="9.8627" y1="3.02098" x2="9.8627" y2="7.5363" gradientUnits="userSpaceOnUse">
<stop stop-color="#A77E1C"/>
<stop offset="1" stop-color="#B7912C"/>
</linearGradient>
<linearGradient id="paint2_linear_335_134" x1="11" y1="14" x2="7.83888" y2="8.08619" gradientUnits="userSpaceOnUse">
<stop stop-color="#DEC26F"/>
<stop offset="1" stop-color="#FDF3CB"/>
</linearGradient>
<linearGradient id="paint3_linear_335_134" x1="9.29218" y1="15.6142" x2="9.29218" y2="7.419" gradientUnits="userSpaceOnUse">
<stop stop-color="#A77E1C"/>
<stop offset="1" stop-color="#C19E38"/>
</linearGradient>
</defs>
</svg>
