<svg width="19" height="19" viewBox="0 0 19 19" fill="none" xmlns="http://www.w3.org/2000/svg">
<path d="M15.5 4.0238H1.5V14.5H15.5V4.0238Z" fill="url(#paint0_linear_335_139)" stroke="url(#paint1_linear_335_139)"/>
<path d="M15.5 3.5H1.5V5.59524H15.5V3.5Z" fill="url(#paint2_linear_335_139)" stroke="#C4894E"/>
<path d="M6.59187 10.3954H3.41644L3.41644 13.5709H6.59187L6.59187 10.3954Z" fill="#FFFF00" stroke="#727272" stroke-width="0.800344"/>
<path d="M10.018 10.3954H6.84253L6.84253 13.5709H10.018L10.018 10.3954Z" fill="#0F3081" stroke="#727272" stroke-width="0.800344"/>
<path d="M10.0179 13.8495H6.84251L6.84251 17.0248H10.0179L10.0179 13.8495Z" fill="#359B57" stroke="#727272" stroke-width="0.800344"/>
<path d="M6.59177 13.8495H3.41634L3.41634 17.0248H6.59177L6.59177 13.8495Z" fill="#FF6900" stroke="#727272" stroke-width="0.800344"/>
<path d="M16.4577 12.8288C15.9275 12.8288 15.4758 12.693 15.1026 12.4224C14.6931 12.116 14.4748 11.7037 14.4478 11.1852C13.8434 12.2691 13.0522 12.8111 12.0744 12.8111C11.1907 12.8111 10.4877 12.5402 9.96516 11.9982C9.4423 11.4445 9.16774 10.7198 9.1415 9.82452C9.1052 8.58748 9.52025 7.47395 10.3866 6.48429C11.253 5.49463 12.293 5 13.5065 5C14.6729 5 15.3177 5.49463 15.441 6.48429L15.7919 5.19422H17.8066C17.5075 6.24289 17.2142 7.29133 16.9269 8.33984C16.523 9.83624 16.3287 10.8435 16.3439 11.3619C16.3598 11.9038 16.5622 12.1749 16.951 12.1749M14.8796 6.62581C14.8627 6.04854 14.595 5.75991 14.0766 5.75991C13.3462 5.75991 12.7062 6.43723 12.1569 7.79211C11.6727 8.95863 11.4431 9.96587 11.4679 10.8142C11.4918 11.6271 11.8218 12.0336 12.458 12.0336C13.0942 12.0336 13.6848 11.2795 14.2296 9.77142C14.6864 8.47554 14.9031 7.42694 14.8796 6.62581Z" fill="white"/>
<path d="M15.6683 7.1597L14.2933 6.0347C13.6683 6.0347 11.7308 7.5972 11.7308 7.5972C11.4183 7.9097 11.6683 10.9722 11.6683 10.9722L12.8558 11.6597C13.1058 11.6597 14.4183 9.9722 14.4183 9.9722L15.6683 7.1597Z" fill="white"/>
<path d="M16.0182 11.9908C15.5945 11.9908 15.2335 11.8823 14.9353 11.6661C14.608 11.4212 14.4336 11.0917 14.412 10.6774C13.929 11.5435 13.2967 11.9766 12.5153 11.9766C11.8091 11.9766 11.2472 11.7602 10.8297 11.3271C10.4118 10.8846 10.1924 10.3054 10.1715 9.58994C10.1425 8.60136 10.4741 7.71163 11.1665 6.92074C11.8589 6.12984 12.69 5.73441 13.6598 5.73441C14.5919 5.73441 15.1072 6.12984 15.2057 6.92074L15.4862 5.88962H17.0962C16.8571 6.72767 16.6228 7.56569 16.3932 8.40361C16.0704 9.59947 15.9152 10.4044 15.9273 10.8187C15.94 11.2518 16.1017 11.4683 16.4124 11.4683M14.7571 7.03368C14.7436 6.57235 14.5296 6.34169 14.1154 6.34169C13.5316 6.34169 13.0202 6.88297 12.5812 7.96574C12.1943 8.89797 12.0108 9.70291 12.0307 10.3808C12.0497 11.0305 12.3134 11.3553 12.8219 11.3553C13.3303 11.3553 13.8022 10.7527 14.2377 9.54751C14.6027 8.5119 14.7759 7.6739 14.7571 7.03368Z" fill="#236298"/>
<path d="M16.0182 11.9908C15.5945 11.9908 15.2335 11.8823 14.9353 11.6661C14.608 11.4212 14.4336 11.0917 14.412 10.6774C13.929 11.5435 13.2967 11.9766 12.5153 11.9766C11.8091 11.9766 11.2472 11.7602 10.8297 11.3271C10.4118 10.8846 10.1924 10.3054 10.1715 9.58994C10.1425 8.60136 10.4741 7.71163 11.1665 6.92074C11.8589 6.12984 12.69 5.73441 13.6598 5.73441C14.5919 5.73441 15.1072 6.12984 15.2057 6.92074L15.4862 5.88962H17.0962C16.8571 6.72767 16.6228 7.56569 16.3932 8.40361C16.0704 9.59947 15.9152 10.4044 15.9273 10.8187C15.94 11.2518 16.1017 11.4683 16.4124 11.4683M14.7571 7.03368C14.7436 6.57235 14.5296 6.34169 14.1154 6.34169C13.5316 6.34169 13.0202 6.88297 12.5812 7.96574C12.1943 8.89797 12.0108 9.70291 12.0307 10.3808C12.0497 11.0305 12.3134 11.3553 12.8219 11.3553C13.3303 11.3553 13.8022 10.7527 14.2377 9.54751C14.6027 8.5119 14.7759 7.6739 14.7571 7.03368Z" stroke="#236298" stroke-width="0.317756"/>
<defs>
<linearGradient id="paint0_linear_335_139" x1="2.66667" y1="8.38887" x2="12.3243" y2="16.1326" gradientUnits="userSpaceOnUse">
<stop stop-color="#D0F1FF"/>
<stop offset="1" stop-color="#F1F9FE"/>
</linearGradient>
<linearGradient id="paint1_linear_335_139" x1="9.66667" y1="15.373" x2="9.66667" y2="10.1349" gradientUnits="userSpaceOnUse">
<stop stop-color="#75673B"/>
<stop offset="1" stop-color="#9D7C2F"/>
</linearGradient>
<linearGradient id="paint2_linear_335_139" x1="2.66667" y1="4.0238" x2="14.3333" y2="4.0238" gradientUnits="userSpaceOnUse">
<stop stop-color="#FEC056"/>
<stop offset="1" stop-color="#F8EBBB"/>
</linearGradient>
</defs>
</svg>
