<svg width="19" height="19" viewBox="0 0 19 19" fill="none" xmlns="http://www.w3.org/2000/svg">
<path d="M3 3V14H14V3H3ZM4 4H13V13H4V4Z" fill="#A6AFC4"/>
<path d="M4 4H12.9719L13 13H4.02812L4 4Z" fill="url(#paint0_linear_335_220)"/>
<path d="M6 6V13H4V4L6 6Z" fill="url(#paint1_linear_335_220)"/>
<path d="M6 6H13V4H4L6 6Z" fill="url(#paint2_linear_335_220)"/>
<path d="M5 5V16H16V5H5ZM6 6H15V15H6V6Z" fill="#8B96AB"/>
<path d="M6 6H14.9719L15 15H6.02812L6 6Z" fill="url(#paint3_linear_335_220)"/>
<path d="M9 12H14C15 12 15 11 14 11H9C8 11 8 12 9 12Z" fill="url(#paint4_linear_335_220)"/>
<path d="M8 8V15H6V6L8 8Z" fill="url(#paint5_linear_335_220)"/>
<path d="M8 8H15V6H6L8 8Z" fill="url(#paint6_linear_335_220)"/>
<path d="M14 11V10H7V11H14Z" fill="#01467A"/>
<defs>
<linearGradient id="paint0_linear_335_220" x1="8.5" y1="4" x2="8.5" y2="13" gradientUnits="userSpaceOnUse">
<stop stop-color="#EBF9FF"/>
<stop offset="1" stop-color="#FCFFFF"/>
</linearGradient>
<linearGradient id="paint1_linear_335_220" x1="7" y1="9" x2="4" y2="9" gradientUnits="userSpaceOnUse">
<stop stop-color="white" stop-opacity="0"/>
<stop offset="1" stop-color="#C3E9FF"/>
</linearGradient>
<linearGradient id="paint2_linear_335_220" x1="8" y1="4" x2="8" y2="7" gradientUnits="userSpaceOnUse">
<stop stop-color="#C3E9FF"/>
<stop offset="1" stop-color="white" stop-opacity="0"/>
</linearGradient>
<linearGradient id="paint3_linear_335_220" x1="10.5" y1="6" x2="10.5" y2="15" gradientUnits="userSpaceOnUse">
<stop stop-color="#EBF9FF"/>
<stop offset="1" stop-color="#FCFFFF"/>
</linearGradient>
<linearGradient id="paint4_linear_335_220" x1="12" y1="11" x2="12" y2="12" gradientUnits="userSpaceOnUse">
<stop stop-color="#C3E9FF" stop-opacity="0.490196"/>
<stop offset="0.5" stop-color="#C3E9FF"/>
<stop offset="1" stop-color="#C3E9FF" stop-opacity="0.490196"/>
</linearGradient>
<linearGradient id="paint5_linear_335_220" x1="9" y1="11" x2="6" y2="11" gradientUnits="userSpaceOnUse">
<stop stop-color="white" stop-opacity="0"/>
<stop offset="1" stop-color="#C3E9FF"/>
</linearGradient>
<linearGradient id="paint6_linear_335_220" x1="10" y1="6" x2="10" y2="9" gradientUnits="userSpaceOnUse">
<stop stop-color="#C3E9FF"/>
<stop offset="1" stop-color="white" stop-opacity="0"/>
</linearGradient>
</defs>
</svg>
