<svg width="19" height="19" viewBox="0 0 19 19" fill="none" xmlns="http://www.w3.org/2000/svg">
<path d="M10 9H18V10H14V12H13V10H6V12H5V10H1V9H9V7H10V9Z" fill="url(#paint0_linear_335_225)"/>
<path d="M12 5C12 5.66304 11.7366 6.29892 11.2678 6.76776C10.7989 7.2366 10.163 7.5 9.5 7.5C8.83696 7.5 8.20108 7.2366 7.73224 6.76776C7.2634 6.29892 7 5.66304 7 5C7 4.33696 7.2634 3.70108 7.73224 3.23224C8.20108 2.7634 8.83696 2.5 9.5 2.5C10.163 2.5 10.7989 2.7634 11.2678 3.23224C11.7366 3.70108 12 4.33696 12 5Z" fill="url(#paint1_linear_335_225)" stroke="#268048" stroke-width="0.953422" stroke-linecap="round" stroke-linejoin="round"/>
<path d="M8 14C8 14.663 7.7366 15.2989 7.26776 15.7678C6.79892 16.2366 6.16304 16.5 5.5 16.5C4.83696 16.5 4.20108 16.2366 3.73224 15.7678C3.2634 15.2989 3 14.663 3 14C3 13.337 3.2634 12.7011 3.73224 12.2322C4.20108 11.7634 4.83696 11.5 5.5 11.5C6.16304 11.5 6.79892 11.7634 7.26776 12.2322C7.7366 12.7011 8 13.337 8 14Z" fill="url(#paint2_linear_335_225)" stroke="#268048" stroke-width="0.953422" stroke-linecap="round" stroke-linejoin="round"/>
<path d="M16 14C16 14.663 15.7366 15.2989 15.2678 15.7678C14.7989 16.2366 14.163 16.5 13.5 16.5C12.837 16.5 12.2011 16.2366 11.7322 15.7678C11.2634 15.2989 11 14.663 11 14C11 13.337 11.2634 12.7011 11.7322 12.2322C12.2011 11.7634 12.837 11.5 13.5 11.5C14.163 11.5 14.7989 11.7634 15.2678 12.2322C15.7366 12.7011 16 13.337 16 14Z" fill="url(#paint3_linear_335_225)" stroke="#268048" stroke-width="0.953422" stroke-linecap="round" stroke-linejoin="round"/>
<defs>
<linearGradient id="paint0_linear_335_225" x1="1" y1="9.5" x2="18" y2="9.5" gradientUnits="userSpaceOnUse">
<stop stop-color="#B3A785"/>
<stop offset="1" stop-color="#8E94A5"/>
</linearGradient>
<linearGradient id="paint1_linear_335_225" x1="9.63318" y1="7.58652" x2="9.63318" y2="3.74709" gradientUnits="userSpaceOnUse">
<stop stop-color="#4F9E55"/>
<stop offset="0.5" stop-color="#4A9C57"/>
<stop offset="1" stop-color="#B5DA96"/>
</linearGradient>
<linearGradient id="paint2_linear_335_225" x1="5.63318" y1="16.5865" x2="5.63318" y2="12.7471" gradientUnits="userSpaceOnUse">
<stop stop-color="#4F9E55"/>
<stop offset="0.5" stop-color="#4A9C57"/>
<stop offset="1" stop-color="#B5DA96"/>
</linearGradient>
<linearGradient id="paint3_linear_335_225" x1="13.6332" y1="16.5865" x2="13.6332" y2="12.7471" gradientUnits="userSpaceOnUse">
<stop stop-color="#4F9E55"/>
<stop offset="0.5" stop-color="#4A9C57"/>
<stop offset="1" stop-color="#B5DA96"/>
</linearGradient>
</defs>
</svg>
