<svg width="19" height="19" viewBox="0 0 19 19" fill="none" xmlns="http://www.w3.org/2000/svg">
<g clip-path="url(#clip0_335_234)">
<g opacity="0.75" filter="url(#filter0_f_335_234)">
<path d="M2 10L5 4L17 13L9 16L2 10Z" fill="url(#paint0_linear_335_234)"/>
</g>
<path d="M3 11H8V15H3V11Z" fill="url(#paint1_linear_335_234)"/>
<path d="M4 12V15H3V11L4 12Z" fill="url(#paint2_linear_335_234)"/>
<path d="M4 12H8V11H3L4 12Z" fill="url(#paint3_linear_335_234)"/>
<path d="M2 10V16H9V10H2ZM3 11H8V15H3V11Z" fill="#557CAC"/>
<path d="M4 16H7V17H4V16Z" fill="#557CAC"/>
<path d="M3 17H8V18H3V17Z" fill="#557CAC"/>
<path d="M6 5H16V12H6V5Z" fill="url(#paint4_linear_335_234)"/>
<path d="M7 6V12H6V5L7 6Z" fill="url(#paint5_linear_335_234)"/>
<path d="M7 6H16V5H6L7 6Z" fill="url(#paint6_linear_335_234)"/>
<path d="M5 4V13H17V4H5ZM6 5H16V12H6V5Z" fill="#548CD0"/>
<path d="M13 6.99988V8H7V6.99988H13Z" fill="url(#paint7_linear_335_234)"/>
<path d="M15 8.99988V10H7V8.99988H15Z" fill="url(#paint8_linear_335_234)"/>
<path opacity="0.25" d="M4 16H7V17H4V16Z" fill="url(#paint9_linear_335_234)"/>
</g>
<defs>
<filter id="filter0_f_335_234" x="0.65" y="2.65" width="17.7" height="14.7" filterUnits="userSpaceOnUse" color-interpolation-filters="sRGB">
<feFlood flood-opacity="0" result="BackgroundImageFix"/>
<feBlend mode="normal" in="SourceGraphic" in2="BackgroundImageFix" result="shape"/>
<feGaussianBlur stdDeviation="0.675" result="effect1_foregroundBlur_335_234"/>
</filter>
<linearGradient id="paint0_linear_335_234" x1="10" y1="7" x2="5" y2="13" gradientUnits="userSpaceOnUse">
<stop stop-opacity="0.502"/>
<stop offset="1" stop-opacity="0.25"/>
</linearGradient>
<linearGradient id="paint1_linear_335_234" x1="7.5" y1="15" x2="7.5" y2="11.5714" gradientUnits="userSpaceOnUse">
<stop stop-color="#E7EEF9"/>
<stop offset="1" stop-color="#F1F5FB"/>
</linearGradient>
<linearGradient id="paint2_linear_335_234" x1="5" y1="16" x2="3" y2="16" gradientUnits="userSpaceOnUse">
<stop stop-color="white" stop-opacity="0"/>
<stop offset="1" stop-color="#D1EEFF"/>
</linearGradient>
<linearGradient id="paint3_linear_335_234" x1="6" y1="11" x2="6" y2="13" gradientUnits="userSpaceOnUse">
<stop stop-color="#D1EEFF"/>
<stop offset="1" stop-color="white" stop-opacity="0"/>
</linearGradient>
<linearGradient id="paint4_linear_335_234" x1="15" y1="12" x2="15" y2="6" gradientUnits="userSpaceOnUse">
<stop stop-color="#E7EEF9"/>
<stop offset="1" stop-color="#F1F5FB"/>
</linearGradient>
<linearGradient id="paint5_linear_335_234" x1="8" y1="9.99996" x2="6" y2="9.99996" gradientUnits="userSpaceOnUse">
<stop stop-color="white" stop-opacity="0"/>
<stop offset="1" stop-color="#D1EEFF"/>
</linearGradient>
<linearGradient id="paint6_linear_335_234" x1="9" y1="4.99996" x2="9" y2="6.99996" gradientUnits="userSpaceOnUse">
<stop stop-color="#D1EEFF"/>
<stop offset="1" stop-color="white" stop-opacity="0"/>
</linearGradient>
<linearGradient id="paint7_linear_335_234" x1="13" y1="7.49989" x2="7" y2="7.49989" gradientUnits="userSpaceOnUse">
<stop stop-color="#61719A"/>
<stop offset="1" stop-color="#8599BF"/>
</linearGradient>
<linearGradient id="paint8_linear_335_234" x1="15" y1="9.49989" x2="7" y2="9.49989" gradientUnits="userSpaceOnUse">
<stop stop-color="#61719A"/>
<stop offset="1" stop-color="#8599BF"/>
</linearGradient>
<linearGradient id="paint9_linear_335_234" x1="6" y1="16" x2="6" y2="17" gradientUnits="userSpaceOnUse">
<stop/>
<stop offset="0.5" stop-opacity="0.252101"/>
<stop offset="0.75" stop-opacity="0"/>
<stop offset="1"/>
</linearGradient>
<clipPath id="clip0_335_234">
<rect width="16" height="16" fill="white" transform="translate(1 3)"/>
</clipPath>
</defs>
</svg>
