<svg width="19" height="19" viewBox="0 0 19 19" fill="none" xmlns="http://www.w3.org/2000/svg">
<path d="M8.60741 3.49939H5.38739C4.9086 3.49939 4.52046 3.88753 4.52046 4.36632V8.12301C4.52046 8.6018 4.9086 8.98994 5.38739 8.98994H8.60741C9.0862 8.98994 9.47434 8.6018 9.47434 8.12301V4.36632C9.47434 3.88753 9.0862 3.49939 8.60741 3.49939Z" fill="#FDF7EB" stroke="url(#paint0_linear_335_238)" stroke-linecap="round" stroke-linejoin="round"/>
<path d="M4.35712 5.53146H14.6393C15.1196 5.53146 15.5063 5.91811 15.5063 6.39839V12.6792C15.5063 13.1595 15.1196 13.5485 14.6393 13.5461L4.35712 13.4952C3.87685 13.4929 3.49019 13.1085 3.49019 12.6283V6.39839C3.49019 5.91811 3.87684 5.53146 4.35712 5.53146Z" fill="url(#paint1_linear_335_238)" stroke="url(#paint2_linear_335_238)" stroke-linecap="round" stroke-linejoin="round"/>
<path d="M4.03114 5.53146H10.6673" stroke="url(#paint3_linear_335_238)"/>
<path d="M13.5048 16.4712C15.1724 16.4712 16.5242 15.1374 16.5242 13.4922C16.5242 11.8469 15.1724 10.5132 13.5048 10.5132C11.8373 10.5132 10.4855 11.8469 10.4855 13.4922C10.4855 15.1374 11.8373 16.4712 13.5048 16.4712Z" fill="url(#paint4_linear_335_238)" stroke="#71AC4B" stroke-width="1.00447" stroke-linecap="round" stroke-linejoin="round"/>
<defs>
<linearGradient id="paint0_linear_335_238" x1="6.49627" y1="3.41315" x2="6.49627" y2="4.86309" gradientUnits="userSpaceOnUse">
<stop stop-color="#C48A4E"/>
<stop offset="1" stop-color="#AD6C24"/>
</linearGradient>
<linearGradient id="paint1_linear_335_238" x1="9.04622" y1="12.6567" x2="9.04622" y2="5.38748" gradientUnits="userSpaceOnUse">
<stop stop-color="#F8D078"/>
<stop offset="1" stop-color="#F8F0C8"/>
</linearGradient>
<linearGradient id="paint2_linear_335_238" x1="12.4986" y1="13.5699" x2="12.4986" y2="5.24166" gradientUnits="userSpaceOnUse">
<stop stop-color="#9E6627"/>
<stop offset="1" stop-color="#C38536"/>
</linearGradient>
<linearGradient id="paint3_linear_335_238" x1="-nan" y1="-nan" x2="-nan" y2="-nan" gradientUnits="userSpaceOnUse">
<stop stop-color="#C38536"/>
<stop offset="0.153812" stop-color="#F2DC91"/>
<stop offset="0.5" stop-color="#FBDC8B"/>
<stop offset="0.75" stop-color="#E6BD7A"/>
<stop offset="1" stop-color="#BA772F"/>
</linearGradient>
<linearGradient id="paint4_linear_335_238" x1="13.4906" y1="16.1073" x2="13.4452" y2="11.3942" gradientUnits="userSpaceOnUse">
<stop stop-color="white"/>
<stop offset="0.472704" stop-color="#E4F173"/>
<stop offset="1" stop-color="#F4F4CB"/>
</linearGradient>
</defs>
</svg>
