<svg width="19" height="19" viewBox="0 0 19 19" fill="none" xmlns="http://www.w3.org/2000/svg">
<g clip-path="url(#clip0_335_250)">
<g filter="url(#filter0_f_335_250)">
<path d="M9.5 2.5C7.29273 2.5 5.5 4.2927 5.5 6.5C5.5 9.0493 7.50791 7.88167 7.53125 10.5314H11.4688C11.4688 8.00347 13.5 9.1069 13.5 6.5C13.5 4.2927 11.7073 2.5 9.5 2.5Z" stroke="#EDAA2B" stroke-linecap="round" stroke-linejoin="round"/>
</g>
<path d="M9.5 2.5C7.29273 2.5 5.5 4.2927 5.5 6.5C5.5 9.0493 7.50791 9.88167 7.53125 12.5314H11.4688C11.4688 10.0035 13.5 9.1069 13.5 6.5C13.5 4.2927 11.7073 2.5 9.5 2.5Z" fill="url(#paint0_radial_335_250)" stroke="url(#paint1_linear_335_250)" stroke-linecap="round" stroke-linejoin="round"/>
<path d="M10.5 13.0625H8.46875V16.5H10.5V13.0625Z" fill="#4A607A" stroke="#4A607A" stroke-linecap="round" stroke-linejoin="round"/>
<path d="M11.4688 12.5H7.53125V15.5H11.4688V12.5Z" fill="url(#paint2_linear_335_250)" stroke="url(#paint3_linear_335_250)" stroke-linecap="round" stroke-linejoin="round"/>
</g>
<defs>
<filter id="filter0_f_335_250" x="3.19687" y="0.19687" width="12.6063" height="12.6376" filterUnits="userSpaceOnUse" color-interpolation-filters="sRGB">
<feFlood flood-opacity="0" result="BackgroundImageFix"/>
<feBlend mode="normal" in="SourceGraphic" in2="BackgroundImageFix" result="shape"/>
<feGaussianBlur stdDeviation="0.901565" result="effect1_foregroundBlur_335_250"/>
</filter>
<radialGradient id="paint0_radial_335_250" cx="0" cy="0" r="1" gradientUnits="userSpaceOnUse" gradientTransform="translate(9.6875 11.7032) scale(6.44049 8.57912)">
<stop stop-color="white"/>
<stop offset="0.383126" stop-color="#FDFBEB"/>
<stop offset="0.594708" stop-color="#F8EB99"/>
<stop offset="1" stop-color="#FFE4B1"/>
</radialGradient>
<linearGradient id="paint1_linear_335_250" x1="4.29021" y1="3.0307" x2="4.29021" y2="11.5382" gradientUnits="userSpaceOnUse">
<stop stop-color="#E9A328"/>
<stop offset="1" stop-color="#F9C537"/>
</linearGradient>
<linearGradient id="paint2_linear_335_250" x1="8.73966" y1="13.5978" x2="9.3392" y2="14.7513" gradientUnits="userSpaceOnUse">
<stop stop-color="white"/>
<stop offset="1" stop-color="#ABB6C2"/>
</linearGradient>
<linearGradient id="paint3_linear_335_250" x1="7.3848" y1="11.9891" x2="9.89868" y2="15.6797" gradientUnits="userSpaceOnUse">
<stop stop-color="#9EACBC"/>
<stop offset="1" stop-color="#667480"/>
</linearGradient>
<clipPath id="clip0_335_250">
<rect width="16" height="16" fill="white" transform="translate(1 1)"/>
</clipPath>
</defs>
</svg>
