<svg width="19" height="19" viewBox="0 0 19 19" fill="none" xmlns="http://www.w3.org/2000/svg">
<path d="M8.98181 16.4757C12.5616 16.4757 15.4636 13.571 15.4636 9.98784C15.4636 6.40471 12.5616 3.5 8.98181 3.5C5.402 3.5 2.5 6.40471 2.5 9.98784C2.5 13.571 5.402 16.4757 8.98181 16.4757Z" fill="url(#paint0_linear_335_262)" stroke="url(#paint1_linear_335_262)" stroke-width="1.03047" stroke-linecap="round" stroke-linejoin="round"/>
<path d="M9.01093 10.0172V5.60187" stroke="#1F4A83" stroke-width="0.824379" stroke-linecap="round" stroke-linejoin="round"/>
<path d="M9.01093 10.0172L11.5144 13.5012" stroke="#1F4A83" stroke-width="0.824379" stroke-linecap="round" stroke-linejoin="round"/>
<path d="M5.95361 7.2101C6.10239 7.2101 6.223 7.07734 6.223 6.91358C6.223 6.74982 6.10239 6.61707 5.95361 6.61707C5.80482 6.61707 5.68421 6.74982 5.68421 6.91358C5.68421 7.07734 5.80482 7.2101 5.95361 7.2101Z" fill="#125385" stroke="#105285" stroke-width="0.741069"/>
<path d="M4.75348 11.054C4.90226 11.054 5.02287 10.9213 5.02287 10.7575C5.02287 10.5938 4.90226 10.461 4.75348 10.461C4.60469 10.461 4.48408 10.5938 4.48408 10.7575C4.48408 10.9213 4.60469 11.054 4.75348 11.054Z" fill="#125385" stroke="#105285" stroke-width="0.741069"/>
<path d="M6.28453 13.4275C6.43331 13.4275 6.55392 13.2947 6.55392 13.131C6.55392 12.9672 6.43331 12.8345 6.28453 12.8345C6.13574 12.8345 6.01513 12.9672 6.01513 13.131C6.01513 13.2947 6.13574 13.4275 6.28453 13.4275Z" fill="#125385" stroke="#105285" stroke-width="0.741069"/>
<path d="M8.95394 15.0182C9.10272 15.0182 9.22333 14.8854 9.22333 14.7217C9.22333 14.5579 9.10272 14.4252 8.95394 14.4252C8.80516 14.4252 8.68454 14.5579 8.68454 14.7217C8.68454 14.8854 8.80516 15.0182 8.95394 15.0182Z" fill="#125385" stroke="#105285" stroke-width="0.741069"/>
<path d="M12.1787 7.20363C12.3275 7.20363 12.4481 7.07087 12.4481 6.90711C12.4481 6.74335 12.3275 6.6106 12.1787 6.6106C12.0299 6.6106 11.9093 6.74335 11.9093 6.90711C11.9093 7.07087 12.0299 7.20363 12.1787 7.20363Z" fill="#125385" stroke="#105285" stroke-width="0.741069"/>
<path d="M13.3668 10.6862C13.5155 10.6862 13.6362 10.5535 13.6362 10.3897C13.6362 10.226 13.5155 10.0932 13.3668 10.0932C13.218 10.0932 13.0974 10.226 13.0974 10.3897C13.0974 10.5535 13.218 10.6862 13.3668 10.6862Z" fill="#125385" stroke="#105285" stroke-width="0.741069"/>
<defs>
<linearGradient id="paint0_linear_335_262" x1="11.3821" y1="5.6635" x2="11.3821" y2="14.3125" gradientUnits="userSpaceOnUse">
<stop stop-color="#F1FDFC"/>
<stop offset="0.454545" stop-color="#DBEFF9"/>
<stop offset="0.545455" stop-color="#CEE4F0"/>
<stop offset="1" stop-color="#DEF1FA"/>
</linearGradient>
<linearGradient id="paint1_linear_335_262" x1="13.8112" y1="5.06126" x2="13.8112" y2="14.6723" gradientUnits="userSpaceOnUse">
<stop stop-color="#055797"/>
<stop offset="1" stop-color="#184785"/>
</linearGradient>
</defs>
</svg>
