<svg width="19" height="19" viewBox="0 0 19 19" fill="none" xmlns="http://www.w3.org/2000/svg">
<g clip-path="url(#clip0_335_269)">
<path d="M7.44581 13.2855C10.6739 13.2855 13.2908 10.6687 13.2908 7.44056C13.2908 4.21247 10.6739 1.59558 7.44581 1.59558C4.21772 1.59558 1.60083 4.21247 1.60083 7.44056C1.60083 10.6687 4.21772 13.2855 7.44581 13.2855Z" fill="url(#paint0_radial_335_269)"/>
<path d="M8.06604 1.90845C7.98246 1.90835 7.91935 1.93349 8.06604 1.95349C8.16789 1.96749 8.00786 2.01441 8.15636 1.99841C8.23155 1.93341 8.13978 1.90845 8.06604 1.90845ZM6.25969 1.95349C6.17884 1.96949 6.1135 2.02446 6.0339 2.04346C6.2011 2.00146 6.35807 1.98049 6.53065 1.95349C6.442 1.96749 6.34698 1.93649 6.25969 1.95349ZM6.98223 1.95349C6.88139 1.97249 6.85665 1.99141 6.98223 1.99841C7.068 1.95941 7.07184 1.95049 7.11771 1.95349C7.06745 1.95349 7.02459 1.93949 6.98223 1.95349ZM8.60794 1.95349C8.59884 1.95269 8.57109 1.99941 8.56278 1.99841C8.54673 2.02841 8.43345 2.04746 8.60794 2.04346C8.61274 2.06246 8.62225 2.1105 8.6531 2.0885C8.66466 2.0695 8.67293 2.01141 8.69826 1.99841C8.66643 1.99841 8.63997 1.95949 8.60794 1.95349ZM7.47898 1.99841C7.45482 1.99901 7.4448 2.0495 7.43382 2.0885C7.3372 2.0235 7.13647 2.03346 7.07255 2.04346C7.01703 2.07046 7.02255 2.0985 7.20802 2.0885C7.31198 2.0885 7.19306 2.12042 7.1177 2.13342C7.14021 2.13342 7.13543 2.13442 7.20802 2.13342C7.30685 2.13342 7.82987 2.07846 7.52413 2.04346C7.54766 2.00346 7.49761 1.99841 7.47898 1.99841ZM8.20151 1.99841C8.19024 2.01241 8.22334 2.04646 8.33699 2.04346C8.36842 2.00146 8.37365 1.99741 8.33699 1.99841C8.29946 1.99891 8.21283 1.98441 8.20151 1.99841ZM7.74993 2.04346C7.73492 2.04406 7.75001 2.0825 7.74993 2.0885H7.79509L7.74993 2.04346ZM7.79509 2.0885C7.74878 2.1025 7.75141 2.12142 7.88541 2.13342C7.85307 2.13342 7.76155 2.19547 7.93057 2.17847C8.06314 2.13847 8.10673 2.0411 7.97573 2.0426C7.96215 2.0427 7.9479 2.08565 7.93057 2.08765C7.94729 2.10465 7.8414 2.0745 7.79509 2.0885ZM8.92405 2.04346C8.91018 2.06046 8.88522 2.0705 8.87889 2.0885C8.86989 2.1145 8.88915 2.16547 8.87889 2.17847C8.87169 2.17847 8.84737 2.17847 8.83373 2.17847C8.77934 2.17817 8.67164 2.19247 8.6531 2.17847C8.49932 2.16447 8.57791 2.20339 8.60794 2.22339C8.7462 2.23739 8.90504 2.30348 8.92405 2.31348C9.06075 2.32748 8.96067 2.15499 9.195 2.22339C9.1891 2.19939 9.1961 2.18447 9.24016 2.17847C9.13503 2.14347 9.0317 2.07236 8.92405 2.04346ZM8.20151 2.0885C8.2171 2.1025 8.20351 2.12142 8.24667 2.13342C8.31176 2.09642 8.25357 2.0885 8.20151 2.0885ZM6.57581 2.13342C6.32246 2.24762 6.14962 2.31512 6.16938 2.40442C6.34941 2.38542 6.54071 2.23276 6.75644 2.22376C6.98034 2.14876 6.70372 2.13842 6.57581 2.13342ZM8.02088 2.17847C7.97998 2.19447 8.0036 2.25243 8.1112 2.26843C8.14085 2.21543 8.1021 2.17747 8.06604 2.17847C8.051 2.17867 8.03451 2.17847 8.02088 2.17847ZM7.3435 2.22339C7.29869 2.22339 7.28679 2.25948 7.3435 2.31348C7.51596 2.28148 7.409 2.22239 7.3435 2.22339ZM7.65961 2.26843C7.52178 2.30643 7.70889 2.2934 7.56929 2.3584C7.36182 2.2904 7.53766 2.52428 7.56929 2.53918C7.61195 2.53918 7.7003 2.4511 7.74993 2.4032C7.71367 2.3772 7.76559 2.33223 7.79509 2.31323C7.79546 2.29923 7.7844 2.27319 7.74993 2.26819C7.73033 2.26819 7.68932 2.26933 7.65961 2.26843ZM9.37564 2.26843C9.37164 2.26843 9.35619 2.29748 9.37564 2.31348C9.45382 2.34648 9.4007 2.3484 9.42079 2.3584C9.4568 2.4294 9.73446 2.52339 9.60143 2.49439C9.73711 2.52139 10.0176 2.83159 9.9627 2.72009C10.0043 2.78909 10.0742 3.0445 10.053 2.9458C10.0634 2.9458 10.1467 3.00789 10.1433 3.03589C10.2164 3.05289 10.2353 3.10185 10.2337 3.12585C10.2475 3.12585 10.2732 3.1849 10.2337 3.1709H10.1885C10.1951 3.1709 10.1824 3.21382 10.1885 3.21582C10.3121 3.26082 10.1941 3.34451 10.2337 3.35181C10.1887 3.35221 10.1876 3.38773 10.1885 3.39673C10.1963 3.39673 10.1827 3.43877 10.1885 3.44177C10.2084 3.44177 10.158 3.48769 10.2788 3.48669C10.2561 3.48579 10.1766 3.50069 10.1433 3.48669C10.1543 3.48669 10.1499 3.51374 10.1885 3.53174C10.1317 3.54574 10.1006 3.5997 10.0982 3.6217C10.2543 3.5687 10.193 3.64375 10.1433 3.66675C10.1919 3.66675 10.2323 3.68579 10.2337 3.71179C10.2486 3.71179 10.2723 3.74471 10.2337 3.75671C10.2315 3.75671 10.2377 3.79576 10.2337 3.80176C10.2409 3.80176 10.2291 3.8428 10.2337 3.8468C10.1462 3.8768 10.199 3.95087 10.2337 3.98267C10.2317 3.98337 10.2761 3.99667 10.2788 3.98267C10.2704 4.07267 10.324 4.20341 10.324 4.16321C10.4127 4.24721 10.5001 4.2804 10.5046 4.2533C10.5342 4.2533 10.6457 4.32426 10.6401 4.34326C10.6852 4.35726 10.7145 4.34322 10.6853 4.29822C10.6895 4.27822 10.6756 4.24325 10.6853 4.20825C10.698 4.16025 10.7013 4.14221 10.6853 4.16321C10.6428 4.12521 10.7711 4.08824 10.7304 4.07324C10.7705 4.03424 10.7529 3.7652 10.7756 3.8927C10.9003 3.8477 10.943 3.93466 10.9562 3.84766C10.9566 3.91666 11.0199 3.86166 11.0465 3.84766C11.0529 3.84766 11.0872 3.84766 11.0917 3.84766C11.1261 3.82066 11.0768 3.66289 11.1368 3.71179C11.2107 3.82889 11.4702 3.83171 11.5433 3.75671C11.4765 3.72171 11.4427 3.68575 11.4078 3.66675C11.3517 3.64675 11.3326 3.58878 11.3175 3.57678C11.3324 3.57678 11.3513 3.6057 11.4078 3.6217C11.4316 3.6437 11.4389 3.6077 11.453 3.6217C11.4096 3.5627 11.369 3.47726 11.3626 3.48596C11.3146 3.44096 11.3039 3.43292 11.3175 3.44092C11.2428 3.38892 11.3106 3.36992 11.4078 3.44092C10.9042 2.97442 10.3358 2.57891 9.69177 2.31201C9.6531 2.31201 9.45577 2.27309 9.37566 2.26709L9.37564 2.26843ZM6.75644 2.31348C6.69839 2.34848 6.65328 2.37944 6.57581 2.40344C6.65847 2.40344 6.13978 2.52191 6.62097 2.49341C6.55768 2.52941 6.08042 2.55247 6.44033 2.67407C6.31208 2.87797 7.02721 2.60607 6.84676 2.67407C6.90857 2.65707 6.94498 2.76504 7.07255 2.76404C7.23505 2.73404 7.2021 2.6413 7.16287 2.6283C7.19507 2.6083 7.23179 2.58025 7.25319 2.58325C7.20134 2.52425 7.16926 2.49619 7.25319 2.40259C7.19368 2.44259 7.05901 2.49059 7.07256 2.40259C7.08076 2.34359 7.09032 2.22872 7.0274 2.31262C6.93542 2.33662 6.85079 2.32662 6.8016 2.31262C6.7912 2.31262 6.75787 2.31348 6.75644 2.31348ZM8.29183 2.40344C8.184 2.43644 7.94719 2.62494 8.20151 2.67444C8.15795 2.66044 8.12966 2.67444 8.11119 2.67444C8.15537 2.71144 8.22334 2.7813 8.20151 2.7644C8.24832 2.7784 8.34905 2.79645 8.4273 2.80945C8.53262 2.82845 8.62074 2.84249 8.56278 2.85449C8.69298 2.91249 8.62055 2.66511 8.69825 2.89941C8.82633 2.91941 8.97342 3.01358 8.83373 3.03528C8.82683 3.03538 8.81806 3.1162 8.83373 3.0802C8.87393 3.1422 8.98423 3.23819 8.96921 3.17029C9.05236 3.23529 8.85866 3.32713 8.78857 3.35083C8.80627 3.40983 8.74973 3.46209 8.69825 3.48669C8.76089 3.47269 8.9447 3.73276 8.87889 3.66736C8.85022 3.68136 8.8559 3.6894 8.87889 3.7124C8.86909 3.7124 8.90074 3.77332 8.92405 3.75732C9.02147 3.82232 9.16974 3.88309 9.195 3.89319C9.205 3.85719 9.15069 3.76742 9.10468 3.71252C9.11653 3.71252 9.1286 3.69852 9.14984 3.71252C9.19751 3.72652 9.29684 3.73949 9.28531 3.80249C9.327 3.76649 9.28041 3.62183 9.28531 3.62183C9.17021 3.46073 9.17675 3.52382 9.14984 3.39612C9.12273 3.37312 9.31742 3.38212 9.28531 3.39612C9.30579 3.42812 9.32571 3.45821 9.33047 3.48621C9.31472 3.48621 9.47053 3.41813 9.46595 3.53113C9.50232 3.50813 9.50056 3.47016 9.51111 3.44116C9.67981 3.44116 9.45722 3.38912 9.51111 3.39612C9.52513 3.29502 9.3927 3.34318 9.42079 3.26038C9.37602 3.20938 9.28995 3.14473 9.33047 3.21533C9.31294 3.21533 9.2604 3.15737 9.24015 3.12537C9.24795 3.10537 9.23845 3.06732 9.37562 3.08032C9.32001 3.06332 9.29176 3.0484 9.2853 3.0354C9.30328 3.0194 9.31738 2.98036 9.19498 2.99036C9.16508 2.96036 9.21336 2.95231 9.24014 2.94531C9.23953 2.93131 9.22843 2.92539 9.19498 2.90039C9.08584 2.94839 9.18518 2.88335 9.14982 2.85535C9.12827 2.86935 9.10319 2.86935 9.10466 2.85535C9.19849 2.81235 9.12184 2.74988 9.0595 2.76538C9.07982 2.74638 9.02992 2.69934 8.96919 2.72034C8.86283 2.69634 8.98504 2.72037 8.87887 2.63037C8.86211 2.59237 8.86386 2.54041 8.83371 2.54041C8.77864 2.54061 8.7549 2.58333 8.74339 2.58533C8.72686 2.53933 8.70849 2.52341 8.69823 2.54041C8.70283 2.48441 8.66275 2.43486 8.51759 2.49536C8.4418 2.51536 8.46632 2.65303 8.42727 2.58533C8.38757 2.55333 8.359 2.55833 8.33695 2.58533C8.3149 2.61333 8.31133 2.65629 8.33695 2.67529C8.25309 2.69229 8.29037 2.64033 8.33695 2.58533C8.40682 2.50133 8.48113 2.40229 8.38211 2.40479C8.36184 2.40519 8.33314 2.39079 8.29179 2.40479L8.29183 2.40344ZM5.76295 2.49341C5.72127 2.50941 5.62409 2.5545 5.53716 2.5835C5.45268 2.6035 5.3597 2.5975 5.40168 2.5835C5.36726 2.5695 5.17643 2.68745 5.08557 2.53845C4.93082 2.55245 4.85559 2.53845 4.76946 2.53845C4.75774 2.53845 4.73598 2.53845 4.7243 2.53845C4.20621 2.81285 3.73535 3.16615 3.32439 3.57715C3.27293 3.62515 3.23127 3.70001 3.18891 3.75781C3.1284 3.84181 3.11729 3.9024 3.18891 3.8479C3.1087 3.9359 3.08216 4.10714 3.23407 3.98364C3.1063 4.17844 2.90926 4.34407 2.78249 4.48047C2.9896 4.31157 3.17315 4.1218 3.36955 3.9386C3.3853 3.8546 3.50365 3.80563 3.59534 3.75793C3.5041 3.84193 3.41515 3.9811 3.50502 3.8938C3.59322 3.8588 3.71757 3.72699 3.77597 3.66809C3.77487 3.66809 3.82029 3.66809 3.82113 3.66809C3.83512 3.66769 3.84284 3.66801 3.82113 3.71301C3.86362 3.72701 4.00643 3.7901 4.04692 3.8031C4.09254 3.7801 4.1948 3.88804 4.1824 3.93884C4.1948 3.92484 4.21484 3.91688 4.22756 3.84888C4.23746 3.80988 4.19615 4.05454 4.22756 4.02954C4.21481 4.05854 4.19226 4.09051 4.1824 4.11951L4.13724 4.16455C4.12914 4.18355 4.13084 4.20359 4.13724 4.20959L4.1824 4.16455C4.179 4.17855 4.1809 4.19959 4.1824 4.20959C4.1774 4.21009 4.15851 4.26852 4.1824 4.25452C4.187 4.25452 4.22004 4.25412 4.22756 4.25452C4.20103 4.28152 4.21118 4.29056 4.22756 4.29956C4.24244 4.31356 4.22762 4.34053 4.1824 4.38953C4.16786 4.40353 4.20611 4.41457 4.1824 4.43457C4.15354 4.52957 4.19582 4.57043 4.22756 4.57043C4.20958 4.64943 4.20889 4.7284 4.22756 4.7511C4.18606 4.8101 4.15087 4.89266 4.1824 4.84106C4.25618 4.82706 4.1835 4.96671 4.13724 5.02161C4.16558 5.00761 4.21398 4.99564 4.31787 4.93164C4.30967 4.95664 4.44169 5.01361 4.36303 5.06751C4.39566 5.11851 4.39198 5.19617 4.36303 5.24817C4.34395 5.28117 4.32063 5.28609 4.31787 5.29309C4.26738 5.06869 4.13575 5.6532 4.13724 5.5188C4.04443 5.7359 3.95316 5.9198 3.91145 6.151C3.83006 6.3249 3.89069 6.6221 3.95661 6.5575C3.99662 6.7104 3.97369 6.92789 4.13724 6.96399C4.29256 7.11599 4.24541 7.39503 4.40819 7.55103C4.42867 7.67103 4.27943 7.74416 4.45335 7.77686C4.56656 8.02696 4.58647 8.18776 4.7243 8.13806C4.63261 8.03256 4.46799 7.61978 4.49851 7.64148C4.4192 7.51278 4.32489 7.15875 4.49851 7.28015C4.57084 7.43225 4.63142 7.64316 4.76946 7.77686C4.77376 7.93316 4.99502 8.08533 5.04041 8.31873C5.00259 8.47593 5.0657 8.58793 5.22105 8.67993C5.43941 8.74093 5.65716 8.9713 5.89843 8.8606C6.05478 8.8336 6.18759 9.16699 6.39517 9.13159C6.62417 9.15459 6.6158 9.21259 6.75644 9.40259C6.74488 9.58539 6.86862 9.35453 6.89192 9.58313C6.96401 9.56913 7.19938 9.6451 7.25318 9.6731C7.26118 9.4847 7.5226 9.54454 7.47898 9.71814C7.55368 9.87554 7.54139 10.0893 7.38866 10.2148C7.28747 10.2548 7.18805 10.4494 7.16286 10.531C7.39074 10.507 7.29398 10.8594 7.20802 10.8922C7.41373 11.0093 7.4841 11.2633 7.61445 11.4342C7.70066 11.6199 8.00299 11.6198 8.1112 11.7954C8.13934 11.9957 8.09733 12.1455 8.1112 12.3374C8.02431 12.4875 8.1289 12.6579 8.06604 12.7889C7.99131 12.9074 7.95067 13.1392 8.1112 13.1501C8.1028 13.1891 8.03854 13.2421 8.02088 13.286C8.01528 13.3 8.02088 13.3231 8.02088 13.3311C7.90848 13.3311 7.9359 13.3531 7.97572 13.3761L8.02088 13.421C8.03417 13.4215 8.04984 13.435 8.06604 13.421C8.08006 13.435 8.05604 13.4591 8.06604 13.4661C8.20212 13.4521 8.33935 13.444 8.47246 13.421C8.29014 13.395 8.71009 13.2795 8.47246 13.2404C8.57116 13.2144 8.54986 13.1493 8.6531 13.1045C8.6615 13.0625 8.8492 12.8818 9.01436 12.8789C9.4255 12.8079 8.81069 12.5436 9.195 12.653C9.31196 12.718 9.48823 12.5142 9.55627 12.4272C9.49688 12.5857 9.83801 12.0808 9.82722 12.0659C9.97993 11.9518 10.4367 11.7955 10.2788 11.795C10.4862 11.6505 10.5604 11.3696 10.5949 11.1176C10.7696 10.9718 10.8908 10.6899 10.911 10.6208C10.8753 10.4966 10.4066 10.3836 10.5498 10.395C10.4522 10.349 10.3162 10.327 10.2788 10.395C10.2694 10.304 9.9743 10.2751 10.053 10.3051C10.003 10.3411 9.9854 10.3241 9.96269 10.3501C9.88223 10.4411 9.9244 10.4902 9.82722 10.395C9.90314 10.381 9.94373 10.3731 9.96269 10.3501C9.99112 10.3151 9.96379 10.266 9.91753 10.26C9.90983 10.2606 9.87636 10.26 9.87237 10.26C9.86677 10.26 9.82947 10.26 9.82721 10.26C9.7967 10.274 9.76607 10.3111 9.73689 10.3501C9.65237 10.3251 9.67714 9.94641 9.82721 10.0338C9.78513 9.86941 9.64651 9.78804 9.46594 9.76294C9.23899 9.81594 9.19816 9.67491 9.05951 9.53711C8.93483 9.56611 8.83298 9.36307 8.83372 9.35657C8.66279 9.47647 8.23166 9.34252 8.15634 9.31152C8.08589 9.31152 8.04309 9.36259 8.06602 9.49219C7.85965 9.57319 8.17451 9.15238 7.9757 9.26648C7.84675 9.42848 7.69528 9.28649 7.65959 9.49219C7.52581 9.69239 7.56174 9.57419 7.34348 9.49219C7.09184 9.62949 6.89064 9.46912 6.93706 9.31152C6.99128 9.17712 6.9268 8.9661 6.93706 8.9502C6.87612 8.9362 6.74172 8.86327 6.57579 8.90527C6.32933 8.98527 6.64343 8.75354 6.57579 8.67944C6.5596 8.60444 6.45489 8.3662 6.62095 8.3634C6.37334 8.3244 6.3565 8.53794 6.25968 8.67944C6.17338 8.60544 5.95672 8.75448 5.85325 8.58948C5.6738 8.42208 5.68968 8.16328 5.76293 7.95728C5.83163 7.87828 5.75883 7.60935 5.94357 7.59595C6.11607 7.49895 6.06196 7.46878 6.30484 7.50598C6.35983 7.51998 6.43108 7.40478 6.53063 7.50598C6.54003 7.36118 6.96996 7.42089 6.84674 7.41589C6.93261 7.52569 7.09353 7.42995 7.11769 7.64185C7.10425 7.71685 7.25983 7.88449 7.29832 7.95789C7.46831 7.74759 7.11131 7.41365 7.38864 7.23535C7.5481 7.12835 7.81733 6.93639 7.79507 6.91919C7.80808 6.91919 7.82107 6.87727 7.84023 6.87427C7.82679 6.86027 7.82997 6.84422 7.79507 6.82922C7.88026 6.76522 7.80955 6.59385 7.79507 6.55835C7.80057 6.55835 7.89623 6.36319 7.88539 6.60339C7.92 6.84979 7.95298 6.50071 7.97571 6.42261C8.02091 6.39261 8.05793 6.34867 8.11119 6.28687C8.11889 6.27287 8.14373 6.28687 8.15635 6.28687C8.20147 6.24387 8.25844 6.1785 8.33698 6.1969C8.50396 6.1829 8.4111 6.18284 8.4273 6.01624C8.54061 5.88324 8.68605 5.83947 8.74341 5.83557C8.69731 5.76357 8.89972 5.82153 8.9692 5.79053C8.89322 5.82953 8.7456 5.96608 8.92404 6.01648C8.95771 5.87488 9.26756 5.87623 9.24015 5.79053C9.23625 5.77653 9.21547 5.80953 9.19499 5.79053C8.98417 5.88153 8.86503 5.58032 8.92404 5.56482C8.7118 5.51882 9.30855 5.43338 8.92404 5.38428C8.6063 5.47528 8.32645 5.73618 8.69825 5.38428C8.87575 5.32928 8.89448 5.16281 9.10468 5.24841C9.24074 5.26841 9.4519 5.36409 9.55626 5.20349C9.66061 5.23249 9.78965 5.12141 9.7369 5.06751C9.79586 4.98751 9.70778 4.90186 9.69174 4.93176C9.68119 4.85776 9.5761 4.89676 9.5111 4.93176C9.5164 4.91776 9.49253 4.90672 9.5111 4.88672C9.56127 4.85672 9.75929 4.84175 9.55626 4.75085C9.49 4.77585 9.39907 4.69881 9.46594 4.70581C9.33328 4.62181 9.39363 4.4157 9.37562 4.4801C9.42318 4.4111 9.45691 4.29254 9.37562 4.34424C9.25957 4.36024 9.38042 4.2753 9.2853 4.1637C9.2827 4.1337 9.24572 4.12765 9.24014 4.11865C9.21401 4.16465 9.14898 4.23852 9.14982 4.20862C9.14592 4.27962 8.97534 4.31851 8.96919 4.29871C8.89643 4.32871 9.00362 4.22762 8.83371 4.20862C8.81894 4.18262 8.81617 4.10315 8.78855 4.07275C8.94523 4.13775 8.99512 3.92139 8.83371 3.93689C8.77932 3.89489 8.47582 3.79673 8.60792 3.75623C8.40724 3.64933 8.3607 3.74219 8.29181 3.89209C8.35427 3.89209 8.2234 4.01495 8.29181 4.02795C8.19747 4.15945 8.26967 4.42679 8.29181 4.47949C8.28661 4.58359 8.05189 4.8405 7.9757 4.7052C7.93478 4.8093 7.87215 5.0665 7.93054 4.9762C7.96232 5.0947 7.84421 5.00624 7.79506 5.02124C7.67538 4.92124 7.6858 4.80305 7.7499 4.61475C7.71512 4.44435 7.52603 4.58574 7.43379 4.38904C7.35941 4.29204 7.1552 4.20217 7.07253 4.20837C7.11993 3.92847 6.8837 4.18134 6.98221 3.98254C7.02006 3.82864 7.1488 3.69682 7.25316 3.62122C7.32979 3.56622 7.39042 3.60727 7.34348 3.48547C7.52633 3.66127 7.42919 3.46243 7.4338 3.44043C7.60236 3.53743 7.56333 3.35043 7.70475 3.44043C7.77291 3.42643 7.82035 3.41351 7.84022 3.39551C7.87538 3.36251 7.83702 3.29742 7.79506 3.25952C7.97348 3.35152 7.99195 3.04076 8.11117 3.16956C8.11627 3.16956 8.13814 3.12756 8.15633 3.16956C8.33014 3.19856 8.29863 2.88799 8.33697 2.98889C8.35181 2.98889 8.33057 2.94597 8.33697 2.94397C8.30126 2.91197 8.26629 2.879 8.24665 2.854C8.18273 2.905 8.0762 2.98255 8.02086 3.03455C7.98641 3.05155 7.96686 3.09259 7.9757 3.07959C7.89265 3.06559 8.05303 2.72108 7.88538 2.85388C7.8462 2.88588 7.81702 2.8988 7.79505 2.8988C7.78465 2.8638 7.78606 2.78616 7.84022 2.76306C7.72038 2.70406 7.94248 2.70201 7.84022 2.53711C7.77318 2.46911 7.62834 2.7001 7.65958 2.6272C7.45547 2.6992 7.87656 2.77814 7.61442 2.80774C7.80049 2.84274 7.50195 3.0962 7.47895 2.9884C7.38274 3.0804 7.56 2.77064 7.47895 2.85254C7.45263 2.85254 7.37937 2.85254 7.34347 2.85254C7.34227 2.85254 7.3152 2.87258 7.34347 2.89758C7.34897 2.93558 7.01309 2.86054 6.93704 2.85254C6.8833 2.80054 6.8698 2.75957 6.80157 2.76257C6.67736 2.76257 6.6509 2.91214 6.62093 2.94324C6.50942 3.06464 6.4832 2.84627 6.57577 2.85327C6.44116 2.83027 6.35018 2.79231 6.30482 2.76331C6.30152 2.74631 6.28274 2.68822 6.25966 2.67322C6.14507 2.52192 6.03021 2.42958 5.94355 2.53748C5.7842 2.69958 5.85442 2.48843 5.80808 2.49243C5.79958 2.49293 5.78396 2.47441 5.76295 2.49341ZM7.47898 2.85474H7.52414C7.61265 2.87674 7.54111 2.67567 7.47898 2.67407C7.46887 2.67387 7.444 2.70899 7.43382 2.71899C7.32018 2.76999 7.27285 2.74208 7.43382 2.80908L7.47898 2.85474ZM7.84025 3.39661C7.83235 3.41061 7.82855 3.46865 7.84025 3.44165C7.84505 3.47665 7.92101 3.55282 7.93057 3.53162C8.08481 3.33662 8.09523 3.57762 8.24668 3.53162C8.21253 3.49162 8.01947 3.27062 8.02088 3.26062C7.96302 3.26032 7.86396 3.36621 7.84025 3.39661ZM9.24015 5.79053C9.24175 5.80453 9.25302 5.78992 9.28532 5.78992C9.31493 5.74192 9.38895 5.80398 9.33048 5.65418C9.32668 5.66818 9.23528 5.75273 9.24015 5.79053ZM4.13724 5.02161C4.15943 5.06761 4.14896 5.1364 4.13724 5.1123C4.2008 5.1453 4.22381 5.23809 4.31788 5.20239C4.34624 5.12139 4.205 5.07511 4.13724 5.02161ZM8.78857 3.08044C8.72785 3.08034 8.55691 3.17441 8.74341 3.17041C8.80975 3.10541 8.81822 3.08044 8.78857 3.08044ZM10.0982 3.17041C10.0444 3.17021 10.0299 3.31067 10.1885 3.30627C10.1474 3.21627 10.1244 3.17041 10.0982 3.17041ZM11.6336 4.1189C11.6539 4.1349 11.6614 4.19286 11.6787 4.20886C11.6487 4.16786 11.6528 4.1179 11.6336 4.1189ZM11.6787 4.20886C11.7585 4.27686 11.6415 4.3287 11.8142 4.3894L11.8594 4.43445C11.9639 4.44845 11.9099 4.25214 11.9045 4.20874C11.8158 4.19474 11.727 4.27974 11.7239 4.20874C11.7126 4.18974 11.6888 4.22286 11.6787 4.20886ZM8.06604 4.3894C8.03608 4.3894 7.95582 4.50799 8.06604 4.47949C8.1009 4.43949 8.07876 4.3884 8.06604 4.3894ZM7.74993 4.7959C7.70344 4.7963 7.70773 4.86082 7.84025 4.84082C7.82463 4.80582 7.76956 4.7959 7.74993 4.7959ZM12.6722 5.11206C12.6951 5.17706 12.71 5.22907 12.7625 5.33777C12.778 5.33777 12.7875 5.36369 12.8077 5.38269C12.7672 5.29069 12.7174 5.20236 12.6722 5.11206ZM12.4916 5.1571C12.489 5.2451 12.5317 5.41169 12.5819 5.51819C12.5901 5.53519 12.5745 5.54823 12.5819 5.56323C12.5774 5.56383 12.5682 5.61228 12.5819 5.60828C12.5849 5.60828 12.6245 5.60828 12.6271 5.60828C12.5835 5.75538 12.6835 5.77951 12.6271 5.83411C12.8284 5.87611 12.7124 5.59964 12.6722 5.51794C12.6212 5.35104 12.505 5.2073 12.4916 5.1571ZM9.10469 5.29285C9.04982 5.29295 9.07067 5.37379 9.28532 5.42859C9.23005 5.34659 9.14473 5.29285 9.10469 5.29285ZM9.64659 5.29285C9.59951 5.37285 9.54851 5.46039 9.46595 5.47339C9.40933 5.54739 9.569 5.65448 9.73691 5.60938C9.73561 5.65138 9.67344 5.7263 9.82723 5.6543C9.8432 5.6163 9.82133 5.60838 9.82723 5.60938L9.87239 5.6543C9.87789 5.6943 9.88395 5.75139 9.91755 5.74439C10.039 5.62589 9.87616 5.6503 9.87239 5.6084C9.87109 5.5944 9.87359 5.55343 9.91755 5.51843C9.77175 5.59943 9.70642 5.45947 9.82723 5.42847C9.63698 5.41247 9.80444 5.3985 9.73691 5.3385C9.6336 5.4005 9.62123 5.35185 9.64659 5.29285ZM12.4464 5.38281C12.4317 5.38371 12.4114 5.39686 12.4013 5.42786C12.3895 5.48586 12.425 5.71311 12.4464 5.65381C12.4614 5.66781 12.4603 5.71573 12.4916 5.69873C12.6331 5.67673 12.5172 5.37831 12.4464 5.38281ZM12.8528 5.51868C12.8697 5.66028 12.8508 5.84001 12.8528 5.88001C12.796 5.95701 12.708 5.99985 12.6722 6.01575C12.7456 6.09575 12.656 6.34222 12.7174 6.42212C12.5946 6.40612 12.5768 6.6544 12.5819 6.7384C12.5673 6.9722 12.7319 7.05882 12.7625 7.05432C12.9278 7.05432 12.9568 6.56379 12.9432 6.69299C12.9649 6.46669 13.1205 6.40749 13.169 6.69299C13.0974 6.27969 13.0063 5.89748 12.8528 5.51868ZM12.8528 7.05408C12.779 7.07308 12.7441 7.11004 12.8077 7.14404C12.6526 7.12204 12.538 7.82781 12.5367 7.68591C12.3619 7.84601 12.2628 8.08552 12.2206 8.31812C12.3131 8.51092 12.2706 9.08201 12.2206 8.99561C12.2613 9.11261 12.3631 9.4061 12.3561 9.2666C12.4086 9.4256 12.5764 9.57937 12.7174 9.40247C12.914 9.24257 13.087 9.20451 12.9432 9.53821C13.1439 8.94751 13.3044 8.34525 13.3044 7.68665C13.3044 7.62365 13.2612 7.5682 13.2593 7.5061C13.1327 7.363 12.9058 7.06584 13.0786 7.05444C13.0108 7.03444 12.9267 7.03508 12.8528 7.05408ZM7.11771 8.18311C7.04622 8.18251 7.00849 8.2261 6.93707 8.2721C6.89693 8.3211 6.958 8.32714 7.02739 8.31714H7.07255C7.12002 8.30314 7.16122 8.2811 7.16287 8.2721C7.17187 8.2861 7.77686 8.52928 7.52414 8.45288C7.55223 8.47288 7.57369 8.4848 7.5693 8.4978C7.5746 8.5118 7.60531 8.54685 7.74994 8.54285C7.95823 8.47785 7.55957 8.35628 7.5693 8.36218C7.54973 8.34818 7.54426 8.32714 7.52414 8.31714C7.4986 8.27914 7.49256 8.2721 7.47898 8.2721C7.37306 8.2191 7.23094 8.18311 7.11771 8.18311ZM1.96963 8.2721C1.94978 8.2721 1.91816 8.32818 1.96963 8.36218C1.98813 8.29918 1.98321 8.2711 1.96963 8.2721ZM7.97572 8.49793C7.94363 8.49843 7.92073 8.53097 7.93056 8.54297C7.95354 8.55897 7.92056 8.57589 7.93056 8.58789C7.92116 8.58769 7.9116 8.64694 7.93056 8.63294C7.90942 8.63294 7.90264 8.67598 7.8854 8.67798C8.00761 8.61098 7.99635 8.7559 8.06604 8.7229C8.09462 8.6279 8.44117 8.69094 8.33699 8.58704C8.31517 8.53604 8.07199 8.49593 7.97572 8.49793ZM8.56278 8.63379C8.50443 8.63379 8.37574 8.75086 8.56278 8.72376C8.58061 8.68476 8.58742 8.63279 8.56278 8.63379ZM7.47898 8.67871C7.48868 8.69271 7.4981 8.71076 7.52414 8.72376H7.5693C7.74183 8.70776 7.55528 8.67771 7.47898 8.67871ZM6.2597 10.3044C6.2434 10.3044 6.2586 10.4229 6.30486 10.3944C6.29706 10.3334 6.26684 10.3044 6.2597 10.3044Z" fill="url(#paint1_linear_335_269)"/>
<path d="M7.79509 2.0885H7.74993C7.75001 2.0825 7.73492 2.04406 7.74993 2.04346L7.79509 2.0885ZM7.79509 2.0885C7.74878 2.1025 7.75141 2.12142 7.88541 2.13342C7.85307 2.13342 7.76155 2.19547 7.93057 2.17847C8.06314 2.13847 8.10673 2.0411 7.97573 2.0426C7.96215 2.0427 7.9479 2.08565 7.93057 2.08765C7.94729 2.10465 7.8414 2.0745 7.79509 2.0885ZM8.33695 2.58533C8.359 2.55833 8.38757 2.55333 8.42727 2.58533C8.46632 2.65303 8.4418 2.51536 8.51759 2.49536C8.66275 2.43486 8.70283 2.48441 8.69823 2.54041C8.70849 2.52341 8.72686 2.53933 8.74339 2.58533C8.7549 2.58333 8.77864 2.54061 8.83371 2.54041C8.86386 2.54041 8.86211 2.59237 8.87887 2.63037C8.98504 2.72037 8.86283 2.69634 8.96919 2.72034C9.02992 2.69934 9.07982 2.74638 9.0595 2.76538C9.12184 2.74988 9.19849 2.81235 9.10466 2.85535C9.10319 2.86935 9.12827 2.86935 9.14982 2.85535C9.18518 2.88335 9.08584 2.94839 9.19498 2.90039C9.22843 2.92539 9.23953 2.93131 9.24014 2.94531C9.21336 2.95231 9.16508 2.96036 9.19498 2.99036C9.31738 2.98036 9.30328 3.0194 9.2853 3.0354C9.29176 3.0484 9.32001 3.06332 9.37562 3.08032C9.23845 3.06732 9.24795 3.10537 9.24015 3.12537C9.2604 3.15737 9.31294 3.21533 9.33047 3.21533C9.28995 3.14473 9.37602 3.20938 9.42079 3.26038C9.3927 3.34318 9.52513 3.29502 9.51111 3.39612C9.45722 3.38912 9.67981 3.44116 9.51111 3.44116C9.50056 3.47016 9.50232 3.50813 9.46595 3.53113C9.47053 3.41813 9.31472 3.48621 9.33047 3.48621C9.32571 3.45821 9.30579 3.42812 9.28531 3.39612C9.31742 3.38212 9.12273 3.37312 9.14984 3.39612C9.17675 3.52382 9.17021 3.46073 9.28531 3.62183C9.28041 3.62183 9.327 3.76649 9.28531 3.80249C9.29684 3.73949 9.19751 3.72652 9.14984 3.71252C9.1286 3.69852 9.11653 3.71252 9.10468 3.71252C9.15069 3.76742 9.205 3.85719 9.195 3.89319C9.16974 3.88309 9.02147 3.82232 8.92405 3.75732C8.90074 3.77332 8.86909 3.7124 8.87889 3.7124C8.8559 3.6894 8.85022 3.68136 8.87889 3.66736C8.9447 3.73276 8.76089 3.47269 8.69825 3.48669C8.74973 3.46209 8.80627 3.40983 8.78857 3.35083C8.85866 3.32713 9.05236 3.23529 8.96921 3.17029C8.98423 3.23819 8.87393 3.1422 8.83373 3.0802C8.81806 3.1162 8.82683 3.03538 8.83373 3.03528C8.97342 3.01358 8.82633 2.91941 8.69825 2.89941C8.62055 2.66511 8.69298 2.91249 8.56278 2.85449C8.62074 2.84249 8.53262 2.82845 8.4273 2.80945C8.34905 2.79645 8.24832 2.7784 8.20151 2.7644C8.22334 2.7813 8.15537 2.71144 8.11119 2.67444C8.12966 2.67444 8.15795 2.66044 8.20151 2.67444C7.94719 2.62494 8.184 2.43644 8.29183 2.40344L8.29179 2.40479C8.33314 2.39079 8.36184 2.40519 8.38211 2.40479C8.48113 2.40229 8.40682 2.50133 8.33695 2.58533ZM8.33695 2.58533C8.3149 2.61333 8.31133 2.65629 8.33695 2.67529C8.25309 2.69229 8.29037 2.64033 8.33695 2.58533ZM4.13724 5.02161C4.1835 4.96671 4.25618 4.82706 4.1824 4.84106C4.15087 4.89266 4.18606 4.8101 4.22756 4.7511C4.20889 4.7284 4.20958 4.64943 4.22756 4.57043C4.19582 4.57043 4.15354 4.52957 4.1824 4.43457C4.20611 4.41457 4.16786 4.40353 4.1824 4.38953C4.22762 4.34053 4.24244 4.31356 4.22756 4.29956C4.21118 4.29056 4.20103 4.28152 4.22756 4.25452C4.22004 4.25412 4.187 4.25452 4.1824 4.25452C4.15851 4.26852 4.1774 4.21009 4.1824 4.20959C4.1809 4.19959 4.179 4.17855 4.1824 4.16455L4.13724 4.20959C4.13084 4.20359 4.12914 4.18355 4.13724 4.16455L4.1824 4.11951C4.19226 4.09051 4.21481 4.05854 4.22756 4.02954C4.19615 4.05454 4.23746 3.80988 4.22756 3.84888C4.21484 3.91688 4.1948 3.92484 4.1824 3.93884C4.1948 3.88804 4.09254 3.7801 4.04692 3.8031C4.00643 3.7901 3.86362 3.72701 3.82113 3.71301C3.84284 3.66801 3.83512 3.66769 3.82113 3.66809C3.82029 3.66809 3.77487 3.66809 3.77597 3.66809C3.71757 3.72699 3.59322 3.8588 3.50502 3.8938C3.41515 3.9811 3.5041 3.84193 3.59534 3.75793C3.50365 3.80563 3.3853 3.8546 3.36955 3.9386C3.17315 4.1218 2.9896 4.31157 2.78249 4.48047C2.90926 4.34407 3.1063 4.17844 3.23407 3.98364C3.08216 4.10714 3.1087 3.9359 3.18891 3.8479C3.11729 3.9024 3.1284 3.84181 3.18891 3.75781C3.23127 3.70001 3.27293 3.62515 3.32439 3.57715C3.73535 3.16615 4.20621 2.81285 4.7243 2.53845C4.73598 2.53845 4.75774 2.53845 4.76946 2.53845C4.85559 2.53845 4.93082 2.55245 5.08557 2.53845C5.17643 2.68745 5.36726 2.5695 5.40168 2.5835C5.3597 2.5975 5.45268 2.6035 5.53716 2.5835C5.62409 2.5545 5.72127 2.50941 5.76295 2.49341C5.78396 2.47441 5.79958 2.49293 5.80808 2.49243C5.85442 2.48843 5.7842 2.69958 5.94355 2.53748C6.03021 2.42958 6.14507 2.52192 6.25966 2.67322C6.28274 2.68822 6.30152 2.74631 6.30482 2.76331C6.35018 2.79231 6.44116 2.83027 6.57577 2.85327C6.4832 2.84627 6.50942 3.06464 6.62093 2.94324C6.6509 2.91214 6.67736 2.76257 6.80157 2.76257C6.8698 2.75957 6.8833 2.80054 6.93704 2.85254C7.01309 2.86054 7.34897 2.93558 7.34347 2.89758C7.3152 2.87258 7.34227 2.85254 7.34347 2.85254C7.37937 2.85254 7.45263 2.85254 7.47895 2.85254C7.56 2.77064 7.38274 3.0804 7.47895 2.9884C7.50195 3.0962 7.80049 2.84274 7.61442 2.80774C7.87656 2.77814 7.45547 2.6992 7.65958 2.6272C7.62834 2.7001 7.77318 2.46911 7.84022 2.53711C7.94248 2.70201 7.72038 2.70406 7.84022 2.76306C7.78606 2.78616 7.78465 2.8638 7.79505 2.8988C7.81702 2.8988 7.8462 2.88588 7.88538 2.85388C8.05303 2.72108 7.89265 3.06559 7.9757 3.07959C7.96686 3.09259 7.98641 3.05155 8.02086 3.03455C8.0762 2.98255 8.18273 2.905 8.24665 2.854C8.26629 2.879 8.30126 2.91197 8.33697 2.94397C8.33057 2.94597 8.35181 2.98889 8.33697 2.98889C8.29863 2.88799 8.33014 3.19856 8.15633 3.16956C8.13814 3.12756 8.11627 3.16956 8.11117 3.16956C7.99195 3.04076 7.97348 3.35152 7.79506 3.25952C7.83702 3.29742 7.87538 3.36251 7.84022 3.39551C7.82035 3.41351 7.77291 3.42643 7.70475 3.44043C7.56333 3.35043 7.60236 3.53743 7.4338 3.44043C7.42919 3.46243 7.52633 3.66127 7.34348 3.48547C7.39042 3.60727 7.32979 3.56622 7.25316 3.62122C7.1488 3.69682 7.02006 3.82864 6.98221 3.98254C6.8837 4.18134 7.11993 3.92847 7.07253 4.20837C7.1552 4.20217 7.35941 4.29204 7.43379 4.38904C7.52603 4.58574 7.71512 4.44435 7.7499 4.61475C7.6858 4.80305 7.67538 4.92124 7.79506 5.02124C7.84421 5.00624 7.96232 5.0947 7.93054 4.9762C7.87215 5.0665 7.93478 4.8093 7.9757 4.7052C8.05189 4.8405 8.28661 4.58359 8.29181 4.47949C8.26967 4.42679 8.19747 4.15945 8.29181 4.02795C8.2234 4.01495 8.35427 3.89209 8.29181 3.89209C8.3607 3.74219 8.40724 3.64933 8.60792 3.75623C8.47582 3.79673 8.77932 3.89489 8.83371 3.93689C8.99512 3.92139 8.94523 4.13775 8.78855 4.07275C8.81617 4.10315 8.81894 4.18262 8.83371 4.20862C9.00362 4.22762 8.89643 4.32871 8.96919 4.29871C8.97534 4.31851 9.14592 4.27962 9.14982 4.20862C9.14898 4.23852 9.21401 4.16465 9.24014 4.11865C9.24572 4.12765 9.2827 4.1337 9.2853 4.1637C9.38042 4.2753 9.25957 4.36024 9.37562 4.34424C9.45691 4.29254 9.42318 4.4111 9.37562 4.4801C9.39363 4.4157 9.33328 4.62181 9.46594 4.70581C9.39907 4.69881 9.49 4.77585 9.55626 4.75085C9.75929 4.84175 9.56127 4.85672 9.5111 4.88672C9.49253 4.90672 9.5164 4.91776 9.5111 4.93176C9.5761 4.89676 9.68119 4.85776 9.69174 4.93176C9.70778 4.90186 9.79586 4.98751 9.7369 5.06751C9.78965 5.12141 9.66061 5.23249 9.55626 5.20349C9.4519 5.36409 9.24074 5.26841 9.10468 5.24841C8.89448 5.16281 8.87575 5.32928 8.69825 5.38428C8.32645 5.73618 8.6063 5.47528 8.92404 5.38428C9.30855 5.43338 8.7118 5.51882 8.92404 5.56482C8.86503 5.58032 8.98417 5.88153 9.19499 5.79053C9.21547 5.80953 9.23625 5.77653 9.24015 5.79053M4.13724 5.02161C4.16558 5.00761 4.21398 4.99564 4.31787 4.93164C4.30967 4.95664 4.44169 5.01361 4.36303 5.06751C4.39566 5.11851 4.39198 5.19617 4.36303 5.24817C4.34395 5.28117 4.32063 5.28609 4.31787 5.29309C4.26738 5.06869 4.13575 5.6532 4.13724 5.5188C4.04443 5.7359 3.95316 5.9198 3.91145 6.151C3.83006 6.3249 3.89069 6.6221 3.95661 6.5575C3.99662 6.7104 3.97369 6.92789 4.13724 6.96399C4.29256 7.11599 4.24541 7.39503 4.40819 7.55103C4.42867 7.67103 4.27943 7.74416 4.45335 7.77686C4.56656 8.02696 4.58647 8.18776 4.7243 8.13806C4.63261 8.03256 4.46799 7.61978 4.49851 7.64148C4.4192 7.51278 4.32489 7.15875 4.49851 7.28015C4.57084 7.43225 4.63142 7.64316 4.76946 7.77686C4.77376 7.93316 4.99502 8.08533 5.04041 8.31873C5.00259 8.47593 5.0657 8.58793 5.22105 8.67993C5.43941 8.74093 5.65716 8.9713 5.89843 8.8606C6.05478 8.8336 6.18759 9.16699 6.39517 9.13159C6.62417 9.15459 6.6158 9.21259 6.75644 9.40259C6.74488 9.58539 6.86862 9.35453 6.89192 9.58313C6.96401 9.56913 7.19938 9.6451 7.25318 9.6731C7.26118 9.4847 7.5226 9.54454 7.47898 9.71814C7.55368 9.87554 7.54139 10.0893 7.38866 10.2148C7.28747 10.2548 7.18805 10.4494 7.16286 10.531C7.39074 10.507 7.29398 10.8594 7.20802 10.8922C7.41373 11.0093 7.4841 11.2633 7.61445 11.4342C7.70066 11.6199 8.00299 11.6198 8.1112 11.7954C8.13934 11.9957 8.09733 12.1455 8.1112 12.3374C8.02431 12.4875 8.1289 12.6579 8.06604 12.7889C7.99131 12.9074 7.95067 13.1392 8.1112 13.1501C8.1028 13.1891 8.03854 13.2421 8.02088 13.286C8.01528 13.3 8.02088 13.3231 8.02088 13.3311C7.90848 13.3311 7.9359 13.3531 7.97572 13.3761L8.02088 13.421C8.03417 13.4215 8.04984 13.435 8.06604 13.421C8.08006 13.435 8.05604 13.4591 8.06604 13.4661C8.20212 13.4521 8.33935 13.444 8.47246 13.421C8.29014 13.395 8.71009 13.2795 8.47246 13.2404C8.57116 13.2144 8.54986 13.1493 8.6531 13.1045C8.6615 13.0625 8.8492 12.8818 9.01436 12.8789C9.4255 12.8079 8.81069 12.5436 9.195 12.653C9.31196 12.718 9.48823 12.5142 9.55627 12.4272C9.49688 12.5857 9.83801 12.0808 9.82722 12.0659C9.97993 11.9518 10.4367 11.7955 10.2788 11.795C10.4862 11.6505 10.5604 11.3696 10.5949 11.1176C10.7696 10.9718 10.8908 10.6899 10.911 10.6208C10.8753 10.4966 10.4066 10.3836 10.5498 10.395C10.4522 10.349 10.3162 10.327 10.2788 10.395C10.2694 10.304 9.9743 10.2751 10.053 10.3051C10.003 10.3411 9.9854 10.3241 9.96269 10.3501M4.13724 5.02161C4.15943 5.06761 4.14896 5.1364 4.13724 5.1123C4.2008 5.1453 4.22381 5.23809 4.31788 5.20239C4.34624 5.12139 4.205 5.07511 4.13724 5.02161ZM9.96269 10.3501C9.88223 10.4411 9.9244 10.4902 9.82722 10.395C9.90314 10.381 9.94373 10.3731 9.96269 10.3501ZM9.96269 10.3501C9.99112 10.3151 9.96379 10.266 9.91753 10.26C9.90983 10.2606 9.87636 10.26 9.87237 10.26C9.86677 10.26 9.82947 10.26 9.82721 10.26C9.7967 10.274 9.76607 10.3111 9.73689 10.3501C9.65237 10.3251 9.67714 9.94641 9.82721 10.0338C9.78513 9.86941 9.64651 9.78804 9.46594 9.76294C9.23899 9.81594 9.19816 9.67491 9.05951 9.53711C8.93483 9.56611 8.83298 9.36307 8.83372 9.35657C8.66279 9.47647 8.23166 9.34252 8.15634 9.31152C8.08589 9.31152 8.04309 9.36259 8.06602 9.49219C7.85965 9.57319 8.17451 9.15238 7.9757 9.26648C7.84675 9.42848 7.69528 9.28649 7.65959 9.49219C7.52581 9.69239 7.56174 9.57419 7.34348 9.49219C7.09184 9.62949 6.89064 9.46912 6.93706 9.31152C6.99128 9.17712 6.9268 8.9661 6.93706 8.9502C6.87612 8.9362 6.74172 8.86327 6.57579 8.90527C6.32933 8.98527 6.64343 8.75354 6.57579 8.67944C6.5596 8.60444 6.45489 8.3662 6.62095 8.3634C6.37334 8.3244 6.3565 8.53794 6.25968 8.67944C6.17338 8.60544 5.95672 8.75448 5.85325 8.58948C5.6738 8.42208 5.68968 8.16328 5.76293 7.95728C5.83163 7.87828 5.75883 7.60935 5.94357 7.59595C6.11607 7.49895 6.06196 7.46878 6.30484 7.50598C6.35983 7.51998 6.43108 7.40478 6.53063 7.50598C6.54003 7.36118 6.96996 7.42089 6.84674 7.41589C6.93261 7.52569 7.09353 7.42995 7.11769 7.64185C7.10425 7.71685 7.25983 7.88449 7.29832 7.95789C7.46831 7.74759 7.11131 7.41365 7.38864 7.23535C7.5481 7.12835 7.81733 6.93639 7.79507 6.91919C7.80808 6.91919 7.82107 6.87727 7.84023 6.87427C7.82679 6.86027 7.82997 6.84422 7.79507 6.82922C7.88026 6.76522 7.80955 6.59385 7.79507 6.55835C7.80057 6.55835 7.89623 6.36319 7.88539 6.60339C7.92 6.84979 7.95298 6.50071 7.97571 6.42261C8.02091 6.39261 8.05793 6.34867 8.11119 6.28687C8.11889 6.27287 8.14373 6.28687 8.15635 6.28687C8.20147 6.24387 8.25844 6.1785 8.33698 6.1969C8.50396 6.1829 8.4111 6.18284 8.4273 6.01624C8.54061 5.88324 8.68605 5.83947 8.74341 5.83557C8.69731 5.76357 8.89972 5.82153 8.9692 5.79053C8.89322 5.82953 8.7456 5.96608 8.92404 6.01648C8.95771 5.87488 9.26756 5.87623 9.24015 5.79053M9.24015 5.79053C9.24175 5.80453 9.25302 5.78992 9.28532 5.78992C9.31493 5.74192 9.38895 5.80398 9.33048 5.65418C9.32668 5.66818 9.23528 5.75273 9.24015 5.79053ZM11.6787 4.20886C11.6614 4.19286 11.6539 4.1349 11.6336 4.1189C11.6528 4.1179 11.6487 4.16786 11.6787 4.20886ZM11.6787 4.20886C11.7585 4.27686 11.6415 4.3287 11.8142 4.3894L11.8594 4.43445C11.9639 4.44845 11.9099 4.25214 11.9045 4.20874C11.8158 4.19474 11.727 4.27974 11.7239 4.20874C11.7126 4.18974 11.6888 4.22286 11.6787 4.20886ZM8.06604 1.90845C7.98246 1.90835 7.91935 1.93349 8.06604 1.95349C8.16789 1.96749 8.00786 2.01441 8.15636 1.99841C8.23155 1.93341 8.13978 1.90845 8.06604 1.90845ZM6.25969 1.95349C6.17884 1.96949 6.1135 2.02446 6.0339 2.04346C6.2011 2.00146 6.35807 1.98049 6.53065 1.95349C6.442 1.96749 6.34698 1.93649 6.25969 1.95349ZM6.98223 1.95349C6.88139 1.97249 6.85665 1.99141 6.98223 1.99841C7.068 1.95941 7.07184 1.95049 7.11771 1.95349C7.06745 1.95349 7.02459 1.93949 6.98223 1.95349ZM8.60794 1.95349C8.59884 1.95269 8.57109 1.99941 8.56278 1.99841C8.54673 2.02841 8.43345 2.04746 8.60794 2.04346C8.61274 2.06246 8.62225 2.1105 8.6531 2.0885C8.66466 2.0695 8.67293 2.01141 8.69826 1.99841C8.66643 1.99841 8.63997 1.95949 8.60794 1.95349ZM7.47898 1.99841C7.45482 1.99901 7.4448 2.0495 7.43382 2.0885C7.3372 2.0235 7.13647 2.03346 7.07255 2.04346C7.01703 2.07046 7.02255 2.0985 7.20802 2.0885C7.31198 2.0885 7.19306 2.12042 7.1177 2.13342C7.14021 2.13342 7.13543 2.13442 7.20802 2.13342C7.30685 2.13342 7.82987 2.07846 7.52413 2.04346C7.54766 2.00346 7.49761 1.99841 7.47898 1.99841ZM8.20151 1.99841C8.19024 2.01241 8.22334 2.04646 8.33699 2.04346C8.36842 2.00146 8.37365 1.99741 8.33699 1.99841C8.29946 1.99891 8.21283 1.98441 8.20151 1.99841ZM8.92405 2.04346C8.91018 2.06046 8.88522 2.0705 8.87889 2.0885C8.86989 2.1145 8.88915 2.16547 8.87889 2.17847C8.87169 2.17847 8.84737 2.17847 8.83373 2.17847C8.77934 2.17817 8.67164 2.19247 8.6531 2.17847C8.49932 2.16447 8.57791 2.20339 8.60794 2.22339C8.7462 2.23739 8.90504 2.30348 8.92405 2.31348C9.06075 2.32748 8.96067 2.15499 9.195 2.22339C9.1891 2.19939 9.1961 2.18447 9.24016 2.17847C9.13503 2.14347 9.0317 2.07236 8.92405 2.04346ZM8.20151 2.0885C8.2171 2.1025 8.20351 2.12142 8.24667 2.13342C8.31176 2.09642 8.25357 2.0885 8.20151 2.0885ZM6.57581 2.13342C6.32246 2.24762 6.14962 2.31512 6.16938 2.40442C6.34941 2.38542 6.54071 2.23276 6.75644 2.22376C6.98034 2.14876 6.70372 2.13842 6.57581 2.13342ZM8.02088 2.17847C7.97998 2.19447 8.0036 2.25243 8.1112 2.26843C8.14085 2.21543 8.1021 2.17747 8.06604 2.17847C8.051 2.17867 8.03451 2.17847 8.02088 2.17847ZM7.3435 2.22339C7.29869 2.22339 7.28679 2.25948 7.3435 2.31348C7.51596 2.28148 7.409 2.22239 7.3435 2.22339ZM7.65961 2.26843C7.52178 2.30643 7.70889 2.2934 7.56929 2.3584C7.36182 2.2904 7.53766 2.52428 7.56929 2.53918C7.61195 2.53918 7.7003 2.4511 7.74993 2.4032C7.71367 2.3772 7.76559 2.33223 7.79509 2.31323C7.79546 2.29923 7.7844 2.27319 7.74993 2.26819C7.73033 2.26819 7.68932 2.26933 7.65961 2.26843ZM9.37564 2.26843C9.37164 2.26843 9.35619 2.29748 9.37564 2.31348C9.45382 2.34648 9.4007 2.3484 9.42079 2.3584C9.4568 2.4294 9.73446 2.52339 9.60143 2.49439C9.73711 2.52139 10.0176 2.83159 9.9627 2.72009C10.0043 2.78909 10.0742 3.0445 10.053 2.9458C10.0634 2.9458 10.1467 3.00789 10.1433 3.03589C10.2164 3.05289 10.2353 3.10185 10.2337 3.12585C10.2475 3.12585 10.2732 3.1849 10.2337 3.1709H10.1885C10.1951 3.1709 10.1824 3.21382 10.1885 3.21582C10.3121 3.26082 10.1941 3.34451 10.2337 3.35181C10.1887 3.35221 10.1876 3.38773 10.1885 3.39673C10.1963 3.39673 10.1827 3.43877 10.1885 3.44177C10.2084 3.44177 10.158 3.48769 10.2788 3.48669C10.2561 3.48579 10.1766 3.50069 10.1433 3.48669C10.1543 3.48669 10.1499 3.51374 10.1885 3.53174C10.1317 3.54574 10.1006 3.5997 10.0982 3.6217C10.2543 3.5687 10.193 3.64375 10.1433 3.66675C10.1919 3.66675 10.2323 3.68579 10.2337 3.71179C10.2486 3.71179 10.2723 3.74471 10.2337 3.75671C10.2315 3.75671 10.2377 3.79576 10.2337 3.80176C10.2409 3.80176 10.2291 3.8428 10.2337 3.8468C10.1462 3.8768 10.199 3.95087 10.2337 3.98267C10.2317 3.98337 10.2761 3.99667 10.2788 3.98267C10.2704 4.07267 10.324 4.20341 10.324 4.16321C10.4127 4.24721 10.5001 4.2804 10.5046 4.2533C10.5342 4.2533 10.6457 4.32426 10.6401 4.34326C10.6852 4.35726 10.7145 4.34322 10.6853 4.29822C10.6895 4.27822 10.6756 4.24325 10.6853 4.20825C10.698 4.16025 10.7013 4.14221 10.6853 4.16321C10.6428 4.12521 10.7711 4.08824 10.7304 4.07324C10.7705 4.03424 10.7529 3.7652 10.7756 3.8927C10.9003 3.8477 10.943 3.93466 10.9562 3.84766C10.9566 3.91666 11.0199 3.86166 11.0465 3.84766C11.0529 3.84766 11.0872 3.84766 11.0917 3.84766C11.1261 3.82066 11.0768 3.66289 11.1368 3.71179C11.2107 3.82889 11.4702 3.83171 11.5433 3.75671C11.4765 3.72171 11.4427 3.68575 11.4078 3.66675C11.3517 3.64675 11.3326 3.58878 11.3175 3.57678C11.3324 3.57678 11.3513 3.6057 11.4078 3.6217C11.4316 3.6437 11.4389 3.6077 11.453 3.6217C11.4096 3.5627 11.369 3.47726 11.3626 3.48596C11.3146 3.44096 11.3039 3.43292 11.3175 3.44092C11.2428 3.38892 11.3106 3.36992 11.4078 3.44092C10.9042 2.97442 10.3358 2.57891 9.69177 2.31201C9.6531 2.31201 9.45577 2.27309 9.37566 2.26709L9.37564 2.26843ZM6.75644 2.31348C6.69839 2.34848 6.65328 2.37944 6.57581 2.40344C6.65847 2.40344 6.13978 2.52191 6.62097 2.49341C6.55768 2.52941 6.08042 2.55247 6.44033 2.67407C6.31208 2.87797 7.02721 2.60607 6.84676 2.67407C6.90857 2.65707 6.94498 2.76504 7.07255 2.76404C7.23505 2.73404 7.2021 2.6413 7.16287 2.6283C7.19507 2.6083 7.23179 2.58025 7.25319 2.58325C7.20134 2.52425 7.16926 2.49619 7.25319 2.40259C7.19368 2.44259 7.05901 2.49059 7.07256 2.40259C7.08076 2.34359 7.09032 2.22872 7.0274 2.31262C6.93542 2.33662 6.85079 2.32662 6.8016 2.31262C6.7912 2.31262 6.75787 2.31348 6.75644 2.31348ZM7.47898 2.85474H7.52414C7.61265 2.87674 7.54111 2.67567 7.47898 2.67407C7.46887 2.67387 7.444 2.70899 7.43382 2.71899C7.32018 2.76999 7.27285 2.74208 7.43382 2.80908L7.47898 2.85474ZM7.84025 3.39661C7.83235 3.41061 7.82855 3.46865 7.84025 3.44165C7.84505 3.47665 7.92101 3.55282 7.93057 3.53162C8.08481 3.33662 8.09523 3.57762 8.24668 3.53162C8.21253 3.49162 8.01947 3.27062 8.02088 3.26062C7.96302 3.26032 7.86396 3.36621 7.84025 3.39661ZM8.78857 3.08044C8.72785 3.08034 8.55691 3.17441 8.74341 3.17041C8.80975 3.10541 8.81822 3.08044 8.78857 3.08044ZM10.0982 3.17041C10.0444 3.17021 10.0299 3.31067 10.1885 3.30627C10.1474 3.21627 10.1244 3.17041 10.0982 3.17041ZM8.06604 4.3894C8.03608 4.3894 7.95582 4.50799 8.06604 4.47949C8.1009 4.43949 8.07876 4.3884 8.06604 4.3894ZM7.74993 4.7959C7.70344 4.7963 7.70773 4.86082 7.84025 4.84082C7.82463 4.80582 7.76956 4.7959 7.74993 4.7959ZM12.6722 5.11206C12.6951 5.17706 12.71 5.22907 12.7625 5.33777C12.778 5.33777 12.7875 5.36369 12.8077 5.38269C12.7672 5.29069 12.7174 5.20236 12.6722 5.11206ZM12.4916 5.1571C12.489 5.2451 12.5317 5.41169 12.5819 5.51819C12.5901 5.53519 12.5745 5.54823 12.5819 5.56323C12.5774 5.56383 12.5682 5.61228 12.5819 5.60828C12.5849 5.60828 12.6245 5.60828 12.6271 5.60828C12.5835 5.75538 12.6835 5.77951 12.6271 5.83411C12.8284 5.87611 12.7124 5.59964 12.6722 5.51794C12.6212 5.35104 12.505 5.2073 12.4916 5.1571ZM9.10469 5.29285C9.04982 5.29295 9.07067 5.37379 9.28532 5.42859C9.23005 5.34659 9.14473 5.29285 9.10469 5.29285ZM9.64659 5.29285C9.59951 5.37285 9.54851 5.46039 9.46595 5.47339C9.40933 5.54739 9.569 5.65448 9.73691 5.60938C9.73561 5.65138 9.67344 5.7263 9.82723 5.6543C9.8432 5.6163 9.82133 5.60838 9.82723 5.60938L9.87239 5.6543C9.87789 5.6943 9.88395 5.75139 9.91755 5.74439C10.039 5.62589 9.87616 5.6503 9.87239 5.6084C9.87109 5.5944 9.87359 5.55343 9.91755 5.51843C9.77175 5.59943 9.70642 5.45947 9.82723 5.42847C9.63698 5.41247 9.80444 5.3985 9.73691 5.3385C9.6336 5.4005 9.62123 5.35185 9.64659 5.29285ZM12.4464 5.38281C12.4317 5.38371 12.4114 5.39686 12.4013 5.42786C12.3895 5.48586 12.425 5.71311 12.4464 5.65381C12.4614 5.66781 12.4603 5.71573 12.4916 5.69873C12.6331 5.67673 12.5172 5.37831 12.4464 5.38281ZM12.8528 5.51868C12.8697 5.66028 12.8508 5.84001 12.8528 5.88001C12.796 5.95701 12.708 5.99985 12.6722 6.01575C12.7456 6.09575 12.656 6.34222 12.7174 6.42212C12.5946 6.40612 12.5768 6.6544 12.5819 6.7384C12.5673 6.9722 12.7319 7.05882 12.7625 7.05432C12.9278 7.05432 12.9568 6.56379 12.9432 6.69299C12.9649 6.46669 13.1205 6.40749 13.169 6.69299C13.0974 6.27969 13.0063 5.89748 12.8528 5.51868ZM12.8528 7.05408C12.779 7.07308 12.7441 7.11004 12.8077 7.14404C12.6526 7.12204 12.538 7.82781 12.5367 7.68591C12.3619 7.84601 12.2628 8.08552 12.2206 8.31812C12.3131 8.51092 12.2706 9.08201 12.2206 8.99561C12.2613 9.11261 12.3631 9.4061 12.3561 9.2666C12.4086 9.4256 12.5764 9.57937 12.7174 9.40247C12.914 9.24257 13.087 9.20451 12.9432 9.53821C13.1439 8.94751 13.3044 8.34525 13.3044 7.68665C13.3044 7.62365 13.2612 7.5682 13.2593 7.5061C13.1327 7.363 12.9058 7.06584 13.0786 7.05444C13.0108 7.03444 12.9267 7.03508 12.8528 7.05408ZM7.11771 8.18311C7.04622 8.18251 7.00849 8.2261 6.93707 8.2721C6.89693 8.3211 6.958 8.32714 7.02739 8.31714H7.07255C7.12002 8.30314 7.16122 8.2811 7.16287 8.2721C7.17187 8.2861 7.77686 8.52928 7.52414 8.45288C7.55223 8.47288 7.57369 8.4848 7.5693 8.4978C7.5746 8.5118 7.60531 8.54685 7.74994 8.54285C7.95823 8.47785 7.55957 8.35628 7.5693 8.36218C7.54973 8.34818 7.54426 8.32714 7.52414 8.31714C7.4986 8.27914 7.49256 8.2721 7.47898 8.2721C7.37306 8.2191 7.23094 8.18311 7.11771 8.18311ZM1.96963 8.2721C1.94978 8.2721 1.91816 8.32818 1.96963 8.36218C1.98813 8.29918 1.98321 8.2711 1.96963 8.2721ZM7.97572 8.49793C7.94363 8.49843 7.92073 8.53097 7.93056 8.54297C7.95354 8.55897 7.92056 8.57589 7.93056 8.58789C7.92116 8.58769 7.9116 8.64694 7.93056 8.63294C7.90942 8.63294 7.90264 8.67598 7.8854 8.67798C8.00761 8.61098 7.99635 8.7559 8.06604 8.7229C8.09462 8.6279 8.44117 8.69094 8.33699 8.58704C8.31517 8.53604 8.07199 8.49593 7.97572 8.49793ZM8.56278 8.63379C8.50443 8.63379 8.37574 8.75086 8.56278 8.72376C8.58061 8.68476 8.58742 8.63279 8.56278 8.63379ZM7.47898 8.67871C7.48868 8.69271 7.4981 8.71076 7.52414 8.72376H7.5693C7.74183 8.70776 7.55528 8.67771 7.47898 8.67871ZM6.2597 10.3044C6.2434 10.3044 6.2586 10.4229 6.30486 10.3944C6.29706 10.3334 6.26684 10.3044 6.2597 10.3044Z" stroke="#767554" stroke-width="0.5" stroke-linecap="round" stroke-linejoin="round"/>
<path d="M8.06604 1.65845C7.98246 1.65835 7.91935 1.68349 8.06604 1.70349C8.16789 1.71749 8.00786 1.76441 8.15636 1.74841C8.23155 1.68341 8.13978 1.65845 8.06604 1.65845ZM6.25969 1.70349C6.17884 1.71949 6.1135 1.77446 6.0339 1.79346C6.2011 1.75146 6.35807 1.73049 6.53065 1.70349C6.442 1.71749 6.34698 1.68649 6.25969 1.70349ZM6.98223 1.70349C6.88139 1.72249 6.85665 1.74141 6.98223 1.74841C7.068 1.70941 7.07184 1.70049 7.11771 1.70349C7.06745 1.70349 7.02459 1.68949 6.98223 1.70349ZM8.60794 1.70349C8.59884 1.70269 8.57109 1.74941 8.56278 1.74841C8.54673 1.77841 8.43345 1.79746 8.60794 1.79346C8.61274 1.81246 8.62225 1.8605 8.6531 1.8385C8.66466 1.8195 8.67293 1.76141 8.69826 1.74841C8.66643 1.74841 8.63997 1.70949 8.60794 1.70349ZM7.47898 1.74841C7.45482 1.74901 7.4448 1.7995 7.43382 1.8385C7.3372 1.7735 7.13647 1.78346 7.07255 1.79346C7.01703 1.82046 7.02255 1.8485 7.20802 1.8385C7.31198 1.8385 7.19306 1.87042 7.1177 1.88342C7.14021 1.88342 7.13543 1.88442 7.20802 1.88342C7.30685 1.88342 7.82987 1.82846 7.52413 1.79346C7.54766 1.75346 7.49761 1.74841 7.47898 1.74841ZM8.20151 1.74841C8.19024 1.76241 8.22334 1.79646 8.33699 1.79346C8.36842 1.75146 8.37365 1.74741 8.33699 1.74841C8.29946 1.74891 8.21283 1.73441 8.20151 1.74841ZM7.74993 1.79346C7.73492 1.79406 7.75001 1.8325 7.74993 1.8385H7.79509L7.74993 1.79346ZM7.79509 1.8385C7.74878 1.8525 7.75141 1.87142 7.88541 1.88342C7.85307 1.88342 7.76155 1.94547 7.93057 1.92847C8.06314 1.88847 8.10673 1.7911 7.97573 1.7926C7.96215 1.7927 7.9479 1.83565 7.93057 1.83765C7.94729 1.85465 7.8414 1.8245 7.79509 1.8385ZM8.92405 1.79346C8.91018 1.81046 8.88522 1.8205 8.87889 1.8385C8.86989 1.8645 8.88915 1.91547 8.87889 1.92847C8.87169 1.92847 8.84737 1.92847 8.83373 1.92847C8.77934 1.92817 8.67164 1.94247 8.6531 1.92847C8.49932 1.91447 8.57791 1.95339 8.60794 1.97339C8.7462 1.98739 8.90504 2.05348 8.92405 2.06348C9.06075 2.07748 8.96067 1.90499 9.195 1.97339C9.1891 1.94939 9.1961 1.93447 9.24016 1.92847C9.13503 1.89347 9.0317 1.82236 8.92405 1.79346ZM8.20151 1.8385C8.2171 1.8525 8.20351 1.87142 8.24667 1.88342C8.31176 1.84642 8.25357 1.8385 8.20151 1.8385ZM6.57581 1.88342C6.32246 1.99762 6.14962 2.06512 6.16938 2.15442C6.34941 2.13542 6.54071 1.98276 6.75644 1.97376C6.98034 1.89876 6.70372 1.88842 6.57581 1.88342ZM8.02088 1.92847C7.97998 1.94447 8.0036 2.00243 8.1112 2.01843C8.14085 1.96543 8.1021 1.92747 8.06604 1.92847C8.051 1.92867 8.03451 1.92847 8.02088 1.92847ZM7.3435 1.97339C7.29869 1.97339 7.28679 2.00948 7.3435 2.06348C7.51596 2.03148 7.409 1.97239 7.3435 1.97339ZM7.65961 2.01843C7.52178 2.05643 7.70889 2.0434 7.56929 2.1084C7.36182 2.0404 7.53766 2.27428 7.56929 2.28918C7.61195 2.28918 7.7003 2.2011 7.74993 2.1532C7.71367 2.1272 7.76559 2.08223 7.79509 2.06323C7.79546 2.04923 7.7844 2.02319 7.74993 2.01819C7.73033 2.01819 7.68932 2.01933 7.65961 2.01843ZM9.37564 2.01843C9.37164 2.01843 9.35619 2.04748 9.37564 2.06348C9.45382 2.09648 9.4007 2.0984 9.42079 2.1084C9.4568 2.1794 9.73446 2.27339 9.60143 2.24439C9.73711 2.27139 10.0176 2.58159 9.9627 2.47009C10.0043 2.53909 10.0742 2.7945 10.053 2.6958C10.0634 2.6958 10.1467 2.75789 10.1433 2.78589C10.2164 2.80289 10.2353 2.85185 10.2337 2.87585C10.2475 2.87585 10.2732 2.9349 10.2337 2.9209H10.1885C10.1951 2.9209 10.1824 2.96382 10.1885 2.96582C10.3121 3.01082 10.1941 3.09451 10.2337 3.10181C10.1887 3.10221 10.1876 3.13773 10.1885 3.14673C10.1963 3.14673 10.1827 3.18877 10.1885 3.19177C10.2084 3.19177 10.158 3.23769 10.2788 3.23669C10.2561 3.23579 10.1766 3.25069 10.1433 3.23669C10.1543 3.23669 10.1499 3.26374 10.1885 3.28174C10.1317 3.29574 10.1006 3.3497 10.0982 3.3717C10.2543 3.3187 10.193 3.39375 10.1433 3.41675C10.1919 3.41675 10.2323 3.43579 10.2337 3.46179C10.2486 3.46179 10.2723 3.49471 10.2337 3.50671C10.2315 3.50671 10.2377 3.54576 10.2337 3.55176C10.2409 3.55176 10.2291 3.5928 10.2337 3.5968C10.1462 3.6268 10.199 3.70087 10.2337 3.73267C10.2317 3.73337 10.2761 3.74667 10.2788 3.73267C10.2704 3.82267 10.324 3.95341 10.324 3.91321C10.4127 3.99721 10.5001 4.0304 10.5046 4.0033C10.5342 4.0033 10.6457 4.07426 10.6401 4.09326C10.6852 4.10726 10.7145 4.09322 10.6853 4.04822C10.6895 4.02822 10.6756 3.99325 10.6853 3.95825C10.698 3.91025 10.7013 3.89221 10.6853 3.91321C10.6428 3.87521 10.7711 3.83824 10.7304 3.82324C10.7705 3.78424 10.7529 3.5152 10.7756 3.6427C10.9003 3.5977 10.943 3.68466 10.9562 3.59766C10.9566 3.66666 11.0199 3.61166 11.0465 3.59766C11.0529 3.59766 11.0872 3.59766 11.0917 3.59766C11.1261 3.57066 11.0768 3.41289 11.1368 3.46179C11.2107 3.57889 11.4702 3.58171 11.5433 3.50671C11.4765 3.47171 11.4427 3.43575 11.4078 3.41675C11.3517 3.39675 11.3326 3.33878 11.3175 3.32678C11.3324 3.32678 11.3513 3.3557 11.4078 3.3717C11.4316 3.3937 11.4389 3.3577 11.453 3.3717C11.4096 3.3127 11.369 3.22726 11.3626 3.23596C11.3146 3.19096 11.3039 3.18292 11.3175 3.19092C11.2428 3.13892 11.3106 3.11992 11.4078 3.19092C10.9042 2.72442 10.3358 2.32891 9.69177 2.06201C9.6531 2.06201 9.45577 2.02309 9.37566 2.01709L9.37564 2.01843ZM6.75644 2.06348C6.69839 2.09848 6.65328 2.12944 6.57581 2.15344C6.65847 2.15344 6.13978 2.27191 6.62097 2.24341C6.55768 2.27941 6.08042 2.30247 6.44033 2.42407C6.31208 2.62797 7.02721 2.35607 6.84676 2.42407C6.90857 2.40707 6.94498 2.51504 7.07255 2.51404C7.23505 2.48404 7.2021 2.3913 7.16287 2.3783C7.19507 2.3583 7.23179 2.33025 7.25319 2.33325C7.20134 2.27425 7.16926 2.24619 7.25319 2.15259C7.19368 2.19259 7.05901 2.24059 7.07256 2.15259C7.08076 2.09359 7.09032 1.97872 7.0274 2.06262C6.93542 2.08662 6.85079 2.07662 6.8016 2.06262C6.7912 2.06262 6.75787 2.06348 6.75644 2.06348ZM8.29183 2.15344C8.184 2.18644 7.94719 2.37494 8.20151 2.42444C8.15795 2.41044 8.12966 2.42344 8.11119 2.42444C8.15537 2.46144 8.22334 2.5313 8.20151 2.5144C8.24832 2.5284 8.34905 2.54645 8.4273 2.55945C8.53262 2.57845 8.62074 2.59249 8.56278 2.60449C8.69298 2.66249 8.62055 2.41511 8.69825 2.64941C8.82633 2.66941 8.97342 2.76358 8.83373 2.78528C8.82683 2.78538 8.81806 2.8662 8.83373 2.8302C8.87393 2.8922 8.98423 2.98819 8.96921 2.92029C9.05236 2.98529 8.85866 3.07713 8.78857 3.10083C8.80627 3.15983 8.74973 3.21209 8.69825 3.23669C8.76089 3.22269 8.9447 3.48276 8.87889 3.41736C8.85022 3.43136 8.8559 3.4394 8.87889 3.4624C8.86909 3.4624 8.90074 3.52332 8.92405 3.50732C9.02147 3.57232 9.16974 3.63309 9.195 3.64319C9.205 3.60719 9.15069 3.51742 9.10468 3.46252C9.11653 3.46252 9.1286 3.44852 9.14984 3.46252C9.19751 3.47652 9.29684 3.48949 9.28531 3.55249C9.327 3.51649 9.28041 3.37183 9.28531 3.37183C9.17021 3.21073 9.17675 3.27382 9.14984 3.14612C9.12273 3.12312 9.31742 3.13212 9.28531 3.14612C9.30579 3.17812 9.32571 3.20821 9.33047 3.23621C9.31472 3.23621 9.47053 3.16813 9.46595 3.28113C9.50232 3.25813 9.50056 3.22016 9.51111 3.19116C9.67981 3.19116 9.45722 3.13912 9.51111 3.14612C9.52513 3.04502 9.3927 3.09318 9.42079 3.01038C9.37602 2.95938 9.28995 2.89473 9.33047 2.96533C9.31294 2.96533 9.2604 2.90737 9.24015 2.87537C9.24795 2.85537 9.23845 2.81732 9.37562 2.83032C9.32001 2.81332 9.29176 2.7984 9.2853 2.7854C9.30328 2.7694 9.31738 2.73036 9.19498 2.74036C9.16508 2.71036 9.21336 2.70231 9.24014 2.69531C9.23953 2.68131 9.22843 2.67539 9.19498 2.65039C9.08584 2.69839 9.18518 2.63335 9.14982 2.60535C9.12827 2.61935 9.10319 2.61935 9.10466 2.60535C9.19849 2.56235 9.12184 2.49988 9.0595 2.51538C9.07982 2.49638 9.02992 2.44934 8.96919 2.47034C8.86283 2.44634 8.98504 2.47037 8.87887 2.38037C8.86211 2.34237 8.86386 2.29041 8.83371 2.29041C8.77864 2.29061 8.7549 2.33333 8.74339 2.33533C8.72686 2.28933 8.70849 2.27341 8.69823 2.29041C8.70283 2.23441 8.66275 2.18486 8.51759 2.24536C8.4418 2.26536 8.46632 2.40303 8.42727 2.33533C8.38757 2.30333 8.359 2.30833 8.33695 2.33533C8.3149 2.36333 8.31133 2.40629 8.33695 2.42529C8.25309 2.44229 8.29037 2.39033 8.33695 2.33533C8.40682 2.25133 8.48113 2.15229 8.38211 2.15479C8.36184 2.15519 8.33314 2.14079 8.29179 2.15479L8.29183 2.15344ZM5.76295 2.24341C5.72127 2.25941 5.62409 2.3045 5.53716 2.3335C5.45268 2.3535 5.3597 2.3475 5.40168 2.3335C5.36726 2.3195 5.17643 2.43745 5.08557 2.28845C4.93082 2.30245 4.85559 2.28845 4.76946 2.28845C4.75774 2.28845 4.73598 2.28845 4.7243 2.28845C4.20621 2.56285 3.73535 2.91615 3.32439 3.32715C3.27293 3.37515 3.23127 3.45001 3.18891 3.50781C3.1284 3.59181 3.11729 3.6524 3.18891 3.5979C3.1087 3.6859 3.08216 3.85714 3.23407 3.73364C3.1063 3.92844 2.90926 4.09407 2.78249 4.23047C2.9896 4.06157 3.17315 3.8718 3.36955 3.6886C3.3853 3.6046 3.50365 3.55563 3.59534 3.50793C3.5041 3.59193 3.41515 3.7311 3.50502 3.6438C3.59322 3.6088 3.71757 3.47699 3.77597 3.41809C3.77487 3.41809 3.82029 3.41809 3.82113 3.41809C3.83512 3.41769 3.84284 3.41801 3.82113 3.46301C3.86362 3.47701 4.00643 3.5401 4.04692 3.5531C4.09254 3.5301 4.1948 3.63804 4.1824 3.68884C4.1948 3.67484 4.21484 3.66688 4.22756 3.59888C4.23746 3.55988 4.19615 3.80454 4.22756 3.77954C4.21481 3.80854 4.19226 3.84051 4.1824 3.86951L4.13724 3.91455C4.12914 3.93355 4.13084 3.95359 4.13724 3.95959L4.1824 3.91455C4.179 3.92855 4.1809 3.94959 4.1824 3.95959C4.1774 3.96009 4.15851 4.01852 4.1824 4.00452C4.187 4.00452 4.22004 4.00412 4.22756 4.00452C4.20103 4.03152 4.21118 4.04056 4.22756 4.04956C4.24244 4.06356 4.22762 4.09053 4.1824 4.13953C4.16786 4.15353 4.20611 4.16457 4.1824 4.18457C4.15354 4.27957 4.19582 4.32043 4.22756 4.32043C4.20958 4.39943 4.20889 4.4784 4.22756 4.5011C4.18606 4.5601 4.15087 4.64266 4.1824 4.59106C4.25618 4.57706 4.1835 4.71671 4.13724 4.77161C4.16558 4.75761 4.21398 4.74564 4.31787 4.68164C4.30967 4.70664 4.44169 4.76361 4.36303 4.81751C4.39566 4.86851 4.39198 4.94617 4.36303 4.99817C4.34395 5.03117 4.32063 5.03609 4.31787 5.04309C4.26738 4.81869 4.13575 5.4032 4.13724 5.2688C4.04443 5.4859 3.95316 5.6698 3.91145 5.901C3.83006 6.0749 3.89069 6.3721 3.95661 6.3075C3.99662 6.4604 3.97369 6.67789 4.13724 6.71399C4.29256 6.86599 4.24541 7.14503 4.40819 7.30103C4.42867 7.42103 4.27943 7.49416 4.45335 7.52686C4.56656 7.77696 4.58647 7.93776 4.7243 7.88806C4.63261 7.78256 4.46799 7.36978 4.49851 7.39148C4.4192 7.26278 4.32489 6.90875 4.49851 7.03015C4.57084 7.18225 4.63142 7.39316 4.76946 7.52686C4.77376 7.68316 4.99502 7.83533 5.04041 8.06873C5.00259 8.22593 5.0657 8.33793 5.22105 8.42993C5.43941 8.49093 5.65716 8.7213 5.89843 8.6106C6.05478 8.5836 6.18759 8.91699 6.39517 8.88159C6.62417 8.90459 6.6158 8.96259 6.75644 9.15259C6.74488 9.33539 6.86862 9.10453 6.89192 9.33313C6.96401 9.31913 7.19938 9.3951 7.25318 9.4231C7.26118 9.2347 7.5226 9.29454 7.47898 9.46814C7.55368 9.62554 7.54139 9.83934 7.38866 9.96484C7.28747 10.0048 7.18805 10.1994 7.16286 10.281C7.39074 10.257 7.29398 10.6094 7.20802 10.6422C7.41373 10.7593 7.4841 11.0133 7.61445 11.1842C7.70066 11.3699 8.00299 11.3698 8.1112 11.5454C8.13934 11.7457 8.09733 11.8955 8.1112 12.0874C8.02431 12.2375 8.1289 12.4079 8.06604 12.5389C7.99131 12.6574 7.95067 12.8892 8.1112 12.9001C8.1028 12.9391 8.03854 12.9921 8.02088 13.036C8.01528 13.05 8.02088 13.0731 8.02088 13.0811C7.90848 13.0811 7.9359 13.1031 7.97572 13.1261L8.02088 13.171C8.03417 13.1715 8.04984 13.185 8.06604 13.171C8.08006 13.185 8.05604 13.2091 8.06604 13.2161C8.20212 13.2021 8.33935 13.194 8.47246 13.171C8.29014 13.145 8.71009 13.0295 8.47246 12.9904C8.57116 12.9644 8.54986 12.8993 8.6531 12.8545C8.6615 12.8125 8.8492 12.6318 9.01436 12.6289C9.4255 12.5579 8.81069 12.2936 9.195 12.403C9.31196 12.468 9.48823 12.2642 9.55627 12.1772C9.49688 12.3357 9.83801 11.8308 9.82722 11.8159C9.97993 11.7018 10.4367 11.5455 10.2788 11.545C10.4862 11.4005 10.5604 11.1196 10.5949 10.8676C10.7696 10.7218 10.8908 10.4399 10.911 10.3708C10.8753 10.2466 10.4066 10.1336 10.5498 10.145C10.4522 10.099 10.3162 10.077 10.2788 10.145C10.2694 10.054 9.9743 10.0251 10.053 10.0551C10.003 10.0911 9.9854 10.0741 9.96269 10.1001C9.88223 10.1911 9.9244 10.2402 9.82722 10.145C9.90314 10.131 9.94373 10.1231 9.96269 10.1001C9.99112 10.0651 9.96379 10.016 9.91753 10.01C9.90983 10.0106 9.87636 10.01 9.87237 10.01C9.86677 10.01 9.82947 10.01 9.82721 10.01C9.7967 10.024 9.76607 10.0611 9.73689 10.1001C9.65237 10.0751 9.67714 9.69641 9.82721 9.78381C9.78513 9.61941 9.64651 9.53804 9.46594 9.51294C9.23899 9.56594 9.19816 9.42491 9.05951 9.28711C8.93483 9.31611 8.83298 9.11307 8.83372 9.10657C8.66279 9.22647 8.23166 9.09252 8.15634 9.06152C8.08589 9.06152 8.04309 9.11259 8.06602 9.24219C7.85965 9.32319 8.17451 8.90238 7.9757 9.01648C7.84675 9.17848 7.69528 9.03649 7.65959 9.24219C7.52581 9.44239 7.56174 9.32419 7.34348 9.24219C7.09184 9.37949 6.89064 9.21912 6.93706 9.06152C6.99128 8.92712 6.9268 8.7161 6.93706 8.7002C6.87612 8.6862 6.74172 8.61327 6.57579 8.65527C6.32933 8.73527 6.64343 8.50354 6.57579 8.42944C6.5596 8.35444 6.45489 8.1162 6.62095 8.1134C6.37334 8.0744 6.3565 8.28794 6.25968 8.42944C6.17338 8.35544 5.95672 8.50448 5.85325 8.33948C5.6738 8.17208 5.68968 7.91328 5.76293 7.70728C5.83163 7.62828 5.75883 7.35935 5.94357 7.34595C6.11607 7.24895 6.06196 7.21878 6.30484 7.25598C6.35983 7.26998 6.43108 7.15478 6.53063 7.25598C6.54003 7.11118 6.96996 7.17089 6.84674 7.16589C6.93261 7.27569 7.09353 7.17995 7.11769 7.39185C7.10425 7.46685 7.25983 7.63449 7.29832 7.70789C7.46831 7.49759 7.11131 7.16365 7.38864 6.98535C7.5481 6.87835 7.81733 6.68639 7.79507 6.66919C7.80808 6.66919 7.82107 6.62727 7.84023 6.62427C7.82679 6.61027 7.82997 6.59422 7.79507 6.57922C7.88026 6.51522 7.80955 6.34385 7.79507 6.30835C7.80057 6.30835 7.89623 6.11319 7.88539 6.35339C7.92 6.59979 7.95298 6.25071 7.97571 6.17261C8.02091 6.14261 8.05793 6.09867 8.11119 6.03687C8.11889 6.02287 8.14373 6.03687 8.15635 6.03687C8.20147 5.99387 8.25844 5.9285 8.33698 5.9469C8.50396 5.9329 8.4111 5.93284 8.4273 5.76624C8.54061 5.63324 8.68605 5.58947 8.74341 5.58557C8.69731 5.51357 8.89972 5.57153 8.9692 5.54053C8.89322 5.57953 8.7456 5.71608 8.92404 5.76648C8.95771 5.62488 9.26756 5.62623 9.24015 5.54053C9.23625 5.52653 9.21547 5.55953 9.19499 5.54053C8.98417 5.63153 8.86503 5.33032 8.92404 5.31482C8.7118 5.26882 9.30855 5.18338 8.92404 5.13428C8.6063 5.22528 8.32645 5.48618 8.69825 5.13428C8.87575 5.07928 8.89448 4.91281 9.10468 4.99841C9.24074 5.01841 9.4519 5.11409 9.55626 4.95349C9.66061 4.98249 9.78965 4.87141 9.7369 4.81751C9.79586 4.73751 9.70778 4.65186 9.69174 4.68176C9.68119 4.60776 9.5761 4.64676 9.5111 4.68176C9.5164 4.66776 9.49253 4.65672 9.5111 4.63672C9.56127 4.60672 9.75929 4.59175 9.55626 4.50085C9.49 4.52585 9.39907 4.44881 9.46594 4.45581C9.33328 4.37181 9.39363 4.1657 9.37562 4.2301C9.42318 4.1611 9.45691 4.04254 9.37562 4.09424C9.25957 4.11024 9.38042 4.0253 9.2853 3.9137C9.2827 3.8837 9.24572 3.87765 9.24014 3.86865C9.21401 3.91465 9.14898 3.98852 9.14982 3.95862C9.14592 4.02962 8.97534 4.06851 8.96919 4.04871C8.89643 4.07871 9.00362 3.97762 8.83371 3.95862C8.81894 3.93262 8.81617 3.85315 8.78855 3.82275C8.94523 3.88775 8.99512 3.67139 8.83371 3.68689C8.77932 3.64489 8.47582 3.54673 8.60792 3.50623C8.40724 3.39933 8.3607 3.49219 8.29181 3.64209C8.35427 3.64209 8.2234 3.76495 8.29181 3.77795C8.19747 3.90945 8.26967 4.17679 8.29181 4.22949C8.28661 4.33359 8.05189 4.5905 7.9757 4.4552C7.93478 4.5593 7.87215 4.8165 7.93054 4.7262C7.96232 4.8447 7.84421 4.75624 7.79506 4.77124C7.67538 4.67124 7.6858 4.55305 7.7499 4.36475C7.71512 4.19435 7.52603 4.33574 7.43379 4.13904C7.35941 4.04204 7.1552 3.95217 7.07253 3.95837C7.11993 3.67847 6.8837 3.93134 6.98221 3.73254C7.02006 3.57864 7.1488 3.44682 7.25316 3.37122C7.32979 3.31622 7.39042 3.35727 7.34348 3.23547C7.52633 3.41127 7.42919 3.21243 7.4338 3.19043C7.60236 3.28743 7.56333 3.10043 7.70475 3.19043C7.77291 3.17643 7.82035 3.16351 7.84022 3.14551C7.87538 3.11251 7.83702 3.04742 7.79506 3.00952C7.97348 3.10152 7.99195 2.79076 8.11117 2.91956C8.11627 2.91956 8.13814 2.87756 8.15633 2.91956C8.33014 2.94856 8.29863 2.63799 8.33697 2.73889C8.35181 2.73889 8.33057 2.69597 8.33697 2.69397C8.30126 2.66197 8.26629 2.629 8.24665 2.604C8.18273 2.655 8.0762 2.73255 8.02086 2.78455C7.98641 2.80155 7.96686 2.84259 7.9757 2.82959C7.89265 2.81559 8.05303 2.47108 7.88538 2.60388C7.8462 2.63588 7.81702 2.6488 7.79505 2.6488C7.78465 2.6138 7.78606 2.53616 7.84022 2.51306C7.72038 2.45406 7.94248 2.45201 7.84022 2.28711C7.77318 2.21911 7.62834 2.4501 7.65958 2.3772C7.45547 2.4492 7.87656 2.52814 7.61442 2.55774C7.80049 2.59274 7.50195 2.8462 7.47895 2.7384C7.38274 2.8304 7.56 2.52064 7.47895 2.60254C7.45263 2.60254 7.37937 2.60254 7.34347 2.60254C7.34227 2.60254 7.3152 2.62258 7.34347 2.64758C7.34897 2.68558 7.01309 2.61054 6.93704 2.60254C6.8833 2.55054 6.8698 2.50957 6.80157 2.51257C6.67736 2.51257 6.6509 2.66214 6.62093 2.69324C6.50942 2.81464 6.4832 2.59627 6.57577 2.60327C6.44116 2.58027 6.35018 2.54231 6.30482 2.51331C6.30152 2.49631 6.28274 2.43822 6.25966 2.42322C6.14507 2.27192 6.03021 2.17958 5.94355 2.28748C5.7842 2.44958 5.85442 2.23843 5.80808 2.24243C5.79958 2.24293 5.78396 2.22441 5.76295 2.24341ZM7.47898 2.60474H7.52414C7.61265 2.62674 7.54111 2.42567 7.47898 2.42407C7.46887 2.42387 7.444 2.45899 7.43382 2.46899C7.32018 2.51999 7.27285 2.49208 7.43382 2.55908L7.47898 2.60474ZM7.84025 3.14661C7.83235 3.16061 7.82855 3.21865 7.84025 3.19165C7.84505 3.22665 7.92101 3.30282 7.93057 3.28162C8.08481 3.08662 8.09523 3.32762 8.24668 3.28162C8.21253 3.24162 8.01947 3.02062 8.02088 3.01062C7.96302 3.01032 7.86396 3.11621 7.84025 3.14661ZM9.24015 5.54053C9.24175 5.55453 9.25302 5.53992 9.28532 5.53992C9.31493 5.49192 9.38895 5.55398 9.33048 5.40418C9.32668 5.41818 9.23528 5.50273 9.24015 5.54053ZM4.13724 4.77161C4.15943 4.81761 4.14896 4.8864 4.13724 4.8623C4.2008 4.8953 4.22381 4.98809 4.31788 4.95239C4.34624 4.87139 4.205 4.82511 4.13724 4.77161ZM8.78857 2.83044C8.72785 2.83034 8.55691 2.92441 8.74341 2.92041C8.80975 2.85541 8.81822 2.83044 8.78857 2.83044ZM10.0982 2.92041C10.0444 2.92021 10.0299 3.06067 10.1885 3.05627C10.1474 2.96627 10.1244 2.92041 10.0982 2.92041ZM11.6336 3.8689C11.6539 3.8849 11.6614 3.94286 11.6787 3.95886C11.6487 3.91786 11.6528 3.8679 11.6336 3.8689ZM11.6787 3.95886C11.7585 4.02686 11.6415 4.0787 11.8142 4.1394L11.8594 4.18445C11.9639 4.19845 11.9099 4.00214 11.9045 3.95874C11.8158 3.94474 11.727 4.02974 11.7239 3.95874C11.7126 3.93974 11.6888 3.97286 11.6787 3.95886ZM8.06604 4.1394C8.03608 4.1394 7.95582 4.25799 8.06604 4.22949C8.1009 4.18949 8.07876 4.1384 8.06604 4.1394ZM7.74993 4.5459C7.70344 4.5463 7.70773 4.61082 7.84025 4.59082C7.82463 4.55582 7.76956 4.5459 7.74993 4.5459ZM12.6722 4.86206C12.6951 4.92706 12.71 4.97907 12.7625 5.08777C12.778 5.08777 12.7875 5.11369 12.8077 5.13269C12.7672 5.04069 12.7174 4.95236 12.6722 4.86206ZM12.4916 4.9071C12.489 4.9951 12.5317 5.16169 12.5819 5.26819C12.5901 5.28519 12.5745 5.29823 12.5819 5.31323C12.5774 5.31383 12.5682 5.36228 12.5819 5.35828C12.5849 5.35828 12.6245 5.35828 12.6271 5.35828C12.5835 5.50538 12.6835 5.52951 12.6271 5.58411C12.8284 5.62611 12.7124 5.34964 12.6722 5.26794C12.6212 5.10104 12.505 4.9573 12.4916 4.9071ZM9.10469 5.04285C9.04982 5.04295 9.07067 5.12379 9.28532 5.17859C9.23005 5.09659 9.14473 5.04285 9.10469 5.04285ZM9.64659 5.04285C9.59951 5.12285 9.54851 5.21039 9.46595 5.22339C9.40933 5.29739 9.569 5.40448 9.73691 5.35938C9.73561 5.40138 9.67344 5.4763 9.82723 5.4043C9.8432 5.3663 9.82133 5.35838 9.82723 5.35938L9.87239 5.4043C9.87789 5.4443 9.88395 5.50139 9.91755 5.49439C10.039 5.37589 9.87616 5.4003 9.87239 5.3584C9.87109 5.3444 9.87359 5.30343 9.91755 5.26843C9.77175 5.34943 9.70642 5.20947 9.82723 5.17847C9.63698 5.16247 9.80444 5.1485 9.73691 5.0885C9.6336 5.1505 9.62123 5.10185 9.64659 5.04285ZM12.4464 5.13281C12.4317 5.13371 12.4114 5.14686 12.4013 5.17786C12.3895 5.23586 12.425 5.46311 12.4464 5.40381C12.4614 5.41781 12.4603 5.46573 12.4916 5.44873C12.6331 5.42673 12.5172 5.12831 12.4464 5.13281ZM12.8528 5.26868C12.8697 5.41028 12.8508 5.59001 12.8528 5.63001C12.796 5.70701 12.708 5.74985 12.6722 5.76575C12.7456 5.84575 12.656 6.09222 12.7174 6.17212C12.5946 6.15612 12.5768 6.4044 12.5819 6.4884C12.5673 6.7222 12.7319 6.80882 12.7625 6.80432C12.9278 6.80432 12.9568 6.31379 12.9432 6.44299C12.9649 6.21669 13.1205 6.15749 13.169 6.44299C13.0974 6.02969 13.0063 5.64748 12.8528 5.26868ZM12.8528 6.80408C12.779 6.82308 12.7441 6.86004 12.8077 6.89404C12.6526 6.87204 12.538 7.57781 12.5367 7.43591C12.3619 7.59601 12.2628 7.83552 12.2206 8.06812C12.3131 8.26092 12.2706 8.83201 12.2206 8.74561C12.2613 8.86261 12.3631 9.1561 12.3561 9.0166C12.4086 9.1756 12.5764 9.32937 12.7174 9.15247C12.914 8.99257 13.087 8.95451 12.9432 9.28821C13.1439 8.69751 13.3044 8.09525 13.3044 7.43665C13.3044 7.37365 13.2612 7.3182 13.2593 7.2561C13.1327 7.113 12.9058 6.81584 13.0786 6.80444C13.0108 6.78444 12.9267 6.78508 12.8528 6.80408ZM7.11771 7.93311C7.04622 7.93251 7.00849 7.9761 6.93707 8.0221C6.89693 8.0711 6.958 8.07714 7.02739 8.06714H7.07255C7.12002 8.05314 7.16122 8.0311 7.16287 8.0221C7.17187 8.0361 7.77686 8.27928 7.52414 8.20288C7.55223 8.22288 7.57369 8.2348 7.5693 8.2478C7.5746 8.2618 7.60531 8.29685 7.74994 8.29285C7.95823 8.22785 7.55957 8.10628 7.5693 8.11218C7.54973 8.09818 7.54426 8.07714 7.52414 8.06714C7.4986 8.02914 7.49256 8.0221 7.47898 8.0221C7.37306 7.9691 7.23094 7.93311 7.11771 7.93311ZM1.96963 8.0221C1.94978 8.0221 1.91816 8.07818 1.96963 8.11218C1.98813 8.04918 1.98321 8.0211 1.96963 8.0221ZM7.97572 8.24793C7.94363 8.24843 7.92073 8.28097 7.93056 8.29297C7.95354 8.30897 7.92056 8.32589 7.93056 8.33789C7.92116 8.33769 7.9116 8.39694 7.93056 8.38294C7.90942 8.38294 7.90264 8.42598 7.8854 8.42798C8.00761 8.36098 7.99635 8.5059 8.06604 8.4729C8.09462 8.3779 8.44117 8.44094 8.33699 8.33704C8.31517 8.28604 8.07199 8.24593 7.97572 8.24793ZM8.56278 8.38379C8.50443 8.38379 8.37574 8.50086 8.56278 8.47376C8.58061 8.43476 8.58742 8.38279 8.56278 8.38379ZM7.47898 8.42871C7.48868 8.44271 7.4981 8.46076 7.52414 8.47376H7.5693C7.74183 8.45776 7.55528 8.42771 7.47898 8.42871ZM6.2597 10.0544C6.2434 10.0544 6.2586 10.1729 6.30486 10.1444C6.29706 10.0834 6.26684 10.0544 6.2597 10.0544Z" fill="url(#paint2_linear_335_269)"/>
<path d="M7.44584 13.5564C10.8234 13.5564 13.5615 10.8183 13.5615 7.44071C13.5615 4.06314 10.8234 1.32507 7.44584 1.32507C4.06826 1.32507 1.3302 4.06314 1.3302 7.44071C1.3302 10.8183 4.06826 13.5564 7.44584 13.5564Z" stroke="url(#paint3_linear_335_269)" stroke-width="0.755995"/>
<path opacity="0.17" d="M7.44584 13.2855C10.6739 13.2855 13.2908 10.6687 13.2908 7.44056C13.2908 4.21247 10.6739 1.59558 7.44584 1.59558C4.21775 1.59558 1.60086 4.21247 1.60086 7.44056C1.60086 10.6687 4.21775 13.2855 7.44584 13.2855Z" fill="url(#paint4_radial_335_269)"/>
<path d="M12.5 17.5C15.2614 17.5 17.5 15.2615 17.5 12.5001C17.5 9.73866 15.2614 7.5 12.5 7.5C9.73858 7.5 7.5 9.73866 7.5 12.5001C7.5 15.2615 9.73858 17.5 12.5 17.5Z" fill="url(#paint5_linear_335_269)" stroke="url(#paint6_linear_335_269)" stroke-width="1.03047" stroke-linecap="round" stroke-linejoin="round"/>
<path d="M12.5 13.4292V10.4526" stroke="#1F4A83" stroke-linecap="round" stroke-linejoin="round"/>
<path d="M12.5046 13.5085L13.4985 14.5009" stroke="#1F4A83" stroke-linecap="round" stroke-linejoin="round"/>
</g>
<defs>
<radialGradient id="paint0_radial_335_269" cx="0" cy="0" r="1" gradientUnits="userSpaceOnUse" gradientTransform="translate(5.3281 5.35758) rotate(-16.9525) scale(9.0941 8.08022)">
<stop stop-color="#6FD9FF"/>
<stop offset="0.5" stop-color="#55ADD0"/>
<stop offset="1" stop-color="#4364A7"/>
</radialGradient>
<linearGradient id="paint1_linear_335_269" x1="4.3685" y1="3.02676" x2="11.1331" y2="10.8182" gradientUnits="userSpaceOnUse">
<stop stop-color="#FFFCF2"/>
<stop offset="0.35072" stop-color="#ADC977"/>
<stop offset="0.71202" stop-color="#7F9F3F"/>
<stop offset="1" stop-color="#77775C"/>
</linearGradient>
<linearGradient id="paint2_linear_335_269" x1="4.3685" y1="2.77676" x2="11.1331" y2="10.5682" gradientUnits="userSpaceOnUse">
<stop stop-color="#FFFCF2"/>
<stop offset="0.35072" stop-color="#ADC977"/>
<stop offset="0.71202" stop-color="#7F9F3F"/>
<stop offset="1" stop-color="#77775C"/>
</linearGradient>
<linearGradient id="paint3_linear_335_269" x1="13.1291" y1="11.264" x2="4.09384" y2="2.22867" gradientUnits="userSpaceOnUse">
<stop stop-color="#4F4D70"/>
<stop offset="1" stop-color="#4FA8CA"/>
</linearGradient>
<radialGradient id="paint4_radial_335_269" cx="0" cy="0" r="1" gradientUnits="userSpaceOnUse" gradientTransform="translate(5.18791 4.14399) rotate(-32.326) scale(5.49542 4.2861)">
<stop stop-color="white"/>
<stop offset="1" stop-color="white" stop-opacity="0"/>
</radialGradient>
<linearGradient id="paint5_linear_335_269" x1="14.3515" y1="9.16754" x2="14.3515" y2="15.8331" gradientUnits="userSpaceOnUse">
<stop stop-color="#F1FDFC"/>
<stop offset="0.454545" stop-color="#DBEFF9"/>
<stop offset="0.545455" stop-color="#CEE4F0"/>
<stop offset="1" stop-color="#DEF1FA"/>
</linearGradient>
<linearGradient id="paint6_linear_335_269" x1="16.2254" y1="8.70341" x2="16.2254" y2="16.1104" gradientUnits="userSpaceOnUse">
<stop stop-color="#055797"/>
<stop offset="1" stop-color="#184785"/>
</linearGradient>
<clipPath id="clip0_335_269">
<rect width="19" height="19" fill="white"/>
</clipPath>
</defs>
</svg>
