<svg width="19" height="19" viewBox="0 0 19 19" fill="none" xmlns="http://www.w3.org/2000/svg">
<path fill-rule="evenodd" clip-rule="evenodd" d="M16.8856 6.83881C16.6804 6.53889 16.27 6.45996 15.9701 6.66517C15.5597 6.94931 15.0704 7.21766 14.8178 7.29659C14.6441 7.13873 14.3284 6.80724 14.139 6.58624C13.5234 5.92326 13.3182 5.70226 13.0025 5.65491L11.9291 5.4497C11.5028 5.37077 9.65594 5.78119 9.15081 6.19161C8.7246 6.53889 8.03004 7.64387 7.82483 7.97536C7.63541 8.29107 7.7459 8.70149 8.04583 8.89092C8.15632 8.95406 8.26682 8.98563 8.39311 8.98563C8.6141 8.98563 8.8351 8.87513 8.96138 8.66992C9.34023 8.02272 9.8138 7.35973 9.95587 7.23345C10.0506 7.17031 10.2874 7.09138 10.5557 7.01245C10.2558 8.18057 9.89272 9.47498 9.73487 9.98011C9.56123 10.4853 9.26131 11.4955 9.08767 11.7639C8.45625 11.7165 7.36705 11.3535 6.78299 11.1167C6.37257 10.9588 5.91479 11.1482 5.75694 11.5587C5.59908 11.9691 5.78851 12.4269 6.19893 12.5847C6.40414 12.6636 8.15632 13.3424 9.24552 13.3424H9.26131C10.2874 13.3266 10.7294 12.1269 11.0293 11.164C11.6291 11.827 12.1343 12.4742 12.2132 12.7426C12.3553 13.2319 12.4658 14.8263 12.4973 15.726C12.5131 16.1523 12.8604 16.4995 13.2866 16.4995H13.3182C13.7602 16.4837 14.1074 16.1207 14.0917 15.6787C14.0759 15.4261 13.9969 13.153 13.7444 12.3006C13.5707 11.7323 12.9393 10.9272 12.3395 10.2485L13.2866 7.62808C13.8075 8.18057 14.0759 8.44893 14.3442 8.57521C14.3462 8.57603 14.3482 8.57687 14.3502 8.57772C14.5446 8.65891 15.0717 8.87914 16.712 7.75437C17.0119 7.54916 17.0908 7.13873 16.8856 6.83881Z" fill="#02468C"/>
<path fill-rule="evenodd" clip-rule="evenodd" d="M14.3299 4.11367C14.5194 3.32536 14.034 2.53266 13.2457 2.34311C12.4574 2.15356 11.6647 2.63895 11.4751 3.42726C11.2856 4.21558 11.771 5.00829 12.5593 5.19784C13.3476 5.38739 14.1403 4.90199 14.3299 4.11367Z" fill="#02468C"/>
<mask id="mask0_335_277" style="mask-type:luminance" maskUnits="userSpaceOnUse" x="2" y="8" width="4" height="1">
<path fill-rule="evenodd" clip-rule="evenodd" d="M6 8.5C6 8.23437 5.77328 8 5.48178 8H2.51822C2.24292 8 2 8.21875 2 8.5C2 8.78125 2.22672 9 2.51822 9H5.48178C5.77328 8.98437 6 8.76562 6 8.5Z" fill="white"/>
</mask>
<g mask="url(#mask0_335_277)">
<path d="M5.48178 9V10H5.50856L5.53531 9.99857L5.48178 9ZM7 8.5C7 7.66866 6.31203 7 5.48178 7V9C5.23452 9 5 8.80009 5 8.5H7ZM5.48178 7H2.51822V9H5.48178V7ZM2.51822 7C1.74539 7 1 7.61326 1 8.5H3C3 8.82424 2.74044 9 2.51822 9V7ZM1 8.5C1 9.36696 1.70847 10 2.51822 10V8C2.74497 8 3 8.19554 3 8.5H1ZM2.51822 10H5.48178V8H2.51822V10ZM5.53531 9.99857C6.27367 9.95898 7 9.37722 7 8.5H5C5 8.15403 5.27288 8.00976 5.42825 8.00143L5.53531 9.99857Z" fill="url(#paint0_linear_335_277)"/>
</g>
<mask id="mask1_335_277" style="mask-type:luminance" maskUnits="userSpaceOnUse" x="3" y="6" width="4" height="1">
<path fill-rule="evenodd" clip-rule="evenodd" d="M7 6.5C7 6.23437 6.77328 6 6.48178 6H3.51822C3.24292 6 3 6.21875 3 6.5C3 6.78125 3.22672 7 3.51822 7H6.48178C6.77328 6.98437 7 6.76562 7 6.5Z" fill="white"/>
</mask>
<g mask="url(#mask1_335_277)">
<path d="M6.48178 7V8H6.50856L6.53531 7.99857L6.48178 7ZM8 6.5C8 5.66866 7.31203 5 6.48178 5V7C6.23452 7 6 6.80009 6 6.5H8ZM6.48178 5H3.51822V7H6.48178V5ZM3.51822 5C2.74539 5 2 5.61326 2 6.5H4C4 6.82424 3.74044 7 3.51822 7V5ZM2 6.5C2 7.36696 2.70847 8 3.51822 8V6C3.74497 6 4 6.19554 4 6.5H2ZM3.51822 8H6.48178V6H3.51822V8ZM6.53531 7.99857C7.27367 7.95898 8 7.37722 8 6.5H6C6 6.15403 6.27288 6.00976 6.42825 6.00143L6.53531 7.99857Z" fill="url(#paint1_linear_335_277)"/>
</g>
<mask id="mask2_335_277" style="mask-type:luminance" maskUnits="userSpaceOnUse" x="4" y="4" width="4" height="1">
<path fill-rule="evenodd" clip-rule="evenodd" d="M8 4.5C8 4.23437 7.77328 4 7.48178 4H4.51822C4.24292 4 4 4.21875 4 4.5C4 4.78125 4.22672 5 4.51822 5H7.48178C7.77328 4.98437 8 4.76562 8 4.5Z" fill="white"/>
</mask>
<g mask="url(#mask2_335_277)">
<path d="M7.48178 5V6H7.50856L7.53531 5.99857L7.48178 5ZM9 4.5C9 3.66866 8.31203 3 7.48178 3V5C7.23452 5 7 4.80009 7 4.5H9ZM7.48178 3H4.51822V5H7.48178V3ZM4.51822 3C3.74539 3 3 3.61326 3 4.5H5C5 4.82424 4.74044 5 4.51822 5V3ZM3 4.5C3 5.36696 3.70847 6 4.51822 6V4C4.74497 4 5 4.19554 5 4.5H3ZM4.51822 6H7.48178V4H4.51822V6ZM7.53531 5.99857C8.27367 5.95898 9 5.37722 9 4.5H7C7 4.15403 7.27288 4.00976 7.42825 4.00143L7.53531 5.99857Z" fill="url(#paint2_linear_335_277)"/>
</g>
<defs>
<linearGradient id="paint0_linear_335_277" x1="1" y1="8.5" x2="7" y2="8.5" gradientUnits="userSpaceOnUse">
<stop stop-color="#1D68B8"/>
<stop offset="1" stop-color="#0E4F8F"/>
</linearGradient>
<linearGradient id="paint1_linear_335_277" x1="2" y1="6.5" x2="8" y2="6.5" gradientUnits="userSpaceOnUse">
<stop stop-color="#1D68B8"/>
<stop offset="1" stop-color="#0E4F8F"/>
</linearGradient>
<linearGradient id="paint2_linear_335_277" x1="3" y1="4.5" x2="9" y2="4.5" gradientUnits="userSpaceOnUse">
<stop stop-color="#1D68B8"/>
<stop offset="1" stop-color="#0E4F8F"/>
</linearGradient>
</defs>
</svg>
