<svg width="19" height="19" viewBox="0 0 19 19" fill="none" xmlns="http://www.w3.org/2000/svg">
<g clip-path="url(#clip0_335_296)">
<path fill-rule="evenodd" clip-rule="evenodd" d="M16.5943 6.03381H14.5231L16.8806 3.68831C17.1364 3.4339 16.9522 2.99997 16.5943 2.99997H13.5449C13.3212 2.99997 13.1393 3.18096 13.1393 3.40348C13.1393 3.62601 13.3205 3.80699 13.5449 3.80699H15.6162L13.2617 6.14945C13.003 6.40462 13.1849 6.84075 13.5457 6.84075H16.5952C16.8188 6.84075 17 6.66051 17 6.43798C17 6.21546 16.818 6.03381 16.5943 6.03381ZM11.8592 9.19221H10.3837L12.1455 7.43945C12.4012 7.18504 12.2171 6.75111 11.8592 6.75111H9.40567C9.18199 6.75111 9.00008 6.93135 9.00008 7.15462C9.00008 7.37715 9.18125 7.55813 9.40567 7.55813H10.8811L9.1216 9.30866C8.86289 9.56384 9.04481 9.99997 9.40567 9.99997H11.8592C12.0829 9.99997 12.2648 9.81972 12.2648 9.59646C12.2648 9.37393 12.0836 9.19221 11.8592 9.19221Z" fill="#0E62A4"/>
<path d="M9.20537 2.68811C8.88467 2.98842 8.59649 3.31747 8.3499 3.66272C6.88219 5.70218 6.65379 8.33182 7.73662 10.5778L7.84502 10.7936C9.03815 13.0617 11.3734 14.4615 13.9456 14.4615H14.0198C14.4467 14.4572 14.8841 14.4121 15.3177 14.3229H15.3206L15.3226 14.3248C14.8573 14.7624 14.3323 15.1348 13.7601 15.4303H13.7591C12.8005 15.9272 11.7239 16.1953 10.6497 16.2067H10.5774C7.99512 16.2067 5.65978 14.8016 4.46709 12.5328C3.26283 10.2432 3.45495 7.51625 4.96904 5.41077C5.592 4.54422 6.4302 3.82445 7.39091 3.32678L7.38994 3.32581C7.96256 3.02972 8.57387 2.8159 9.20146 2.68811C9.20297 2.6879 9.2043 2.6879 9.20537 2.68811Z" fill="url(#paint0_linear_335_296)" stroke="url(#paint1_linear_335_296)"/>
</g>
<defs>
<linearGradient id="paint0_linear_335_296" x1="9.5037" y1="2.18811" x2="9.5037" y2="16.7068" gradientUnits="userSpaceOnUse">
<stop stop-color="#FFEAB7"/>
<stop offset="1" stop-color="#F9CC5F"/>
</linearGradient>
<linearGradient id="paint1_linear_335_296" x1="9.5037" y1="2.18811" x2="9.5037" y2="16.7068" gradientUnits="userSpaceOnUse">
<stop stop-color="#BD8416"/>
<stop offset="1" stop-color="#573D0A"/>
</linearGradient>
<clipPath id="clip0_335_296">
<rect width="19" height="19" fill="white"/>
</clipPath>
</defs>
</svg>
