<svg width="19" height="19" viewBox="0 0 19 19" fill="none" xmlns="http://www.w3.org/2000/svg">
<path d="M2 2L2.03125 16.983H17.0163L16.985 2H2ZM3 3H15.985L16.0163 15.983H3.03125L3 3Z" fill="#8B96AB"/>
<path d="M3 3.00159H15.8856L15.9168 16.0162H3.03125L3 3.00159Z" fill="url(#paint0_linear_335_180)"/>
<path d="M5 4.97791V16.0162H3V2.97791L5 4.97791Z" fill="url(#paint1_linear_335_180)"/>
<path d="M5 5.01025H15.9922V3.01025H3L5 5.01025Z" fill="url(#paint2_linear_335_180)"/>
<path d="M6.48008 8.55652C7.57411 8.55652 8.46099 7.65481 8.46099 6.54248C8.46099 5.43015 7.57411 4.52844 6.48008 4.52844C5.38605 4.52844 4.49916 5.43015 4.49916 6.54248C4.49916 7.65481 5.38605 8.55652 6.48008 8.55652Z" fill="white" stroke="url(#paint3_linear_335_180)" stroke-width="1.01565"/>
<path d="M6.47455 14.5039C7.56893 14.5039 8.45609 13.6242 8.45609 12.5389C8.45609 11.4537 7.56893 10.574 6.47455 10.574C5.38018 10.574 4.49302 11.4537 4.49302 12.5389C4.49302 13.6242 5.38018 14.5039 6.47455 14.5039Z" fill="white" stroke="#14733C" stroke-width="1.00335"/>
<path d="M6.48569 13.4884C7.00828 13.4884 7.43193 13.0683 7.43193 12.55C7.43193 12.0318 7.00828 11.6117 6.48569 11.6117C5.96309 11.6117 5.53945 12.0318 5.53945 12.55C5.53945 13.0683 5.96309 13.4884 6.48569 13.4884Z" fill="#83C666"/>
<path d="M14.9875 6.02307H9.99352V7.02844H14.9875V6.02307Z" fill="url(#paint4_linear_335_180)"/>
<path d="M14.9875 12.0004H9.99352V13.0057H14.9875V12.0004Z" fill="url(#paint5_linear_335_180)"/>
<defs>
<linearGradient id="paint0_linear_335_180" x1="8" y1="6.09352" x2="8" y2="16.0935" gradientUnits="userSpaceOnUse">
<stop stop-color="#EBF9FF"/>
<stop offset="1" stop-color="#FCFFFF"/>
</linearGradient>
<linearGradient id="paint1_linear_335_180" x1="6" y1="11.0935" x2="3" y2="11.0935" gradientUnits="userSpaceOnUse">
<stop stop-color="white" stop-opacity="0"/>
<stop offset="1" stop-color="#C3E9FF"/>
</linearGradient>
<linearGradient id="paint2_linear_335_180" x1="7" y1="3.01018" x2="7" y2="6.01017" gradientUnits="userSpaceOnUse">
<stop stop-color="#C3E9FF"/>
<stop offset="1" stop-color="white" stop-opacity="0"/>
</linearGradient>
<linearGradient id="paint3_linear_335_180" x1="6.3605" y1="9.0317" x2="6.3605" y2="4.21156" gradientUnits="userSpaceOnUse">
<stop stop-color="#5F5A79"/>
<stop offset="1" stop-color="#83727C"/>
</linearGradient>
<linearGradient id="paint4_linear_335_180" x1="9.99351" y1="6.52572" x2="14.9875" y2="6.52572" gradientUnits="userSpaceOnUse">
<stop stop-color="#869AC2"/>
<stop offset="1" stop-color="#566B8F"/>
</linearGradient>
<linearGradient id="paint5_linear_335_180" x1="9.99351" y1="12.503" x2="14.9875" y2="12.503" gradientUnits="userSpaceOnUse">
<stop stop-color="#869AC2"/>
<stop offset="1" stop-color="#566B8F"/>
</linearGradient>
</defs>
</svg>
