<svg width="19" height="19" viewBox="0 0 19 19" fill="none" xmlns="http://www.w3.org/2000/svg">
<path d="M11.6395 4.47761V2.88655C11.6395 2.88655 11.2859 2.0469 10.2694 2.8426C9.25298 3.6381 8.05973 4.91976 7.88296 5.27326C7.70618 5.62686 6.95488 6.24554 7.97135 7.21784C8.98781 8.19004 10.0927 9.20661 10.0927 9.20661C10.0927 9.20661 11.6395 10.6649 11.6395 9.2945C11.6395 7.9245 11.6395 7.48261 11.6395 7.48261C13.0059 7.41961 13.3343 7.83777 13.6793 8.17097C14.0248 8.50457 14.4918 10.1397 14.8981 10.2647C15.3043 10.3897 15.5231 8.07722 15.5231 7.63972C15.5231 7.20222 15.3483 6.39577 14.8043 5.67097C14.5108 5.27987 13.7977 4.71542 13.2731 4.57112C12.7484 4.42672 11.6395 4.47761 11.6395 4.47761Z" fill="url(#paint0_linear_335_304)" stroke="url(#paint1_linear_335_304)" stroke-width="0.8"/>
<path opacity="0.857143" d="M11.1237 3.88097V3.28435C11.1237 3.28435 11.2342 2.9087 10.9027 3.04128C10.5712 3.17386 9.93043 3.70419 9.86414 3.81468C9.79785 3.92516 9.11284 4.4113 9.26752 4.63227C9.4222 4.85324 10.7259 4.69856 10.7259 4.69856L11.1237 3.88097Z" fill="white"/>
<path d="M6.38359 14.9211V16.5121C6.38359 16.5121 6.73715 17.3518 7.75361 16.5561C8.77008 15.7606 9.96332 14.4789 10.1401 14.1254C10.3169 13.7718 11.0682 13.1531 10.0517 12.1808C9.03524 11.2086 7.93039 10.1921 7.93039 10.1921C7.93039 10.1921 7.52612 9.81089 7.13093 9.62139C6.75311 9.44029 6.38359 9.43438 6.38359 10.1042C6.38359 11.4742 6.38359 11.9161 6.38359 11.9161C5.01719 11.9791 4.65625 11.5715 4.34375 11.2277C4.03125 10.884 3.53125 9.25896 3.125 9.13396C2.71875 9.00896 2.5 11.3215 2.5 11.759C2.5 12.1965 2.59375 13.0715 3.21875 13.7277C3.84375 14.384 4.22532 14.6833 4.75 14.8276C5.27468 14.972 6.38359 14.9211 6.38359 14.9211Z" fill="url(#paint2_linear_335_304)" stroke="url(#paint3_linear_335_304)" stroke-width="0.8"/>
<path opacity="0.857143" d="M6.89938 11.2729V10.6763C6.89938 10.6763 6.7889 10.3007 7.12036 10.4333C7.45181 10.5659 8.09263 11.0961 8.15892 11.2066C8.22521 11.3171 8.91022 11.8032 8.75554 12.0242C8.60086 12.2452 7.29713 12.0903 7.29713 12.0903L6.89938 11.2729Z" fill="white"/>
<defs>
<linearGradient id="paint0_linear_335_304" x1="10.5737" y1="7.18101" x2="10.5737" y2="5.8872" gradientUnits="userSpaceOnUse">
<stop stop-color="#F9CD5F"/>
<stop offset="1" stop-color="#FFEBB7"/>
</linearGradient>
<linearGradient id="paint1_linear_335_304" x1="11.6055" y1="2.51489" x2="11.6055" y2="10.5149" gradientUnits="userSpaceOnUse">
<stop stop-color="#BD8416"/>
<stop offset="1" stop-color="#A66B10"/>
</linearGradient>
<linearGradient id="paint2_linear_335_304" x1="7.03813" y1="14.5478" x2="7.03813" y2="12.5104" gradientUnits="userSpaceOnUse">
<stop stop-color="#F9CD5F"/>
<stop offset="1" stop-color="#FFEBB7"/>
</linearGradient>
<linearGradient id="paint3_linear_335_304" x1="4.60546" y1="9.51486" x2="4.60546" y2="16.5149" gradientUnits="userSpaceOnUse">
<stop stop-color="#BD8416"/>
<stop offset="1" stop-color="#A66B10"/>
</linearGradient>
</defs>
</svg>
