<svg width="19" height="19" viewBox="0 0 19 19" fill="none" xmlns="http://www.w3.org/2000/svg">
<path d="M15.4684 9.98421C15.4684 10.8357 15.3007 11.6789 14.9748 12.4656C14.649 13.2523 14.1714 13.9671 13.5692 14.5692C12.9671 15.1714 12.2523 15.649 11.4656 15.9748C10.6789 16.3007 9.83573 16.4684 8.98421 16.4684C8.13269 16.4684 7.28951 16.3007 6.50281 15.9748C5.71611 15.649 5.0013 15.1714 4.39918 14.5692C3.79707 13.9671 3.31944 13.2523 2.99358 12.4656C2.66772 11.6789 2.5 10.8357 2.5 9.98421C2.5 9.13269 2.66772 8.28951 2.99358 7.50281C3.31944 6.71611 3.79707 6.0013 4.39918 5.39918C5.0013 4.79707 5.71611 4.31944 6.50281 3.99358C7.28951 3.66772 8.13269 3.5 8.98421 3.5C9.83573 3.5 10.6789 3.66772 11.4656 3.99358C12.2523 4.31944 12.9671 4.79707 13.5692 5.39918C14.1714 6.0013 14.649 6.71611 14.9748 7.50281C15.3007 8.28951 15.4684 9.13269 15.4684 9.98421Z" fill="#F8FDFF" stroke="#02468C"/>
<path d="M9.00374 4.91296C8.69379 4.92099 8.43642 5.01659 8.23162 5.20783C8.02682 5.39906 7.92058 5.65149 7.91292 5.96527C7.92059 6.28474 8.02682 6.54086 8.23162 6.73338C8.43642 6.9259 8.69379 7.02464 9.00374 7.02962C9.31997 7.02159 9.58118 6.9259 9.78736 6.73338C9.99352 6.54086 10.1003 6.28474 10.1077 5.96527C10.1027 5.66208 10.0009 5.41265 9.80214 5.21684C9.60336 5.02103 9.33722 4.91979 9.00374 4.91296ZM9.83171 7.63443C8.92488 7.9832 8.07062 8.18071 7.26894 8.2271V8.71093C7.64897 8.69488 7.88773 8.74225 7.9852 8.85307C8.08267 8.9639 8.12429 9.23502 8.11005 9.66645V12.4363C8.12347 12.8697 8.08021 13.1489 7.98027 13.274C7.88033 13.3989 7.64322 13.4543 7.26894 13.4402V13.9482H10.8305V13.4402C10.4935 13.4539 10.2772 13.3994 10.1816 13.2754C10.0861 13.1518 10.0439 12.876 10.0551 12.4485V7.74327L9.83171 7.63443Z" fill="url(#paint0_linear_335_310)"/>
<defs>
<linearGradient id="paint0_linear_335_310" x1="9.05724" y1="8.20338" x2="9.05724" y2="12.7467" gradientUnits="userSpaceOnUse">
<stop stop-color="#0E62A4"/>
<stop offset="1" stop-color="#02468C"/>
</linearGradient>
</defs>
</svg>
