<svg width="19" height="19" viewBox="0 0 19 19" fill="none" xmlns="http://www.w3.org/2000/svg">
<g clip-path="url(#clip0_335_317)">
<path d="M14.2977 4.50659H5.72541C5.05231 4.50659 4.50666 5.05224 4.50666 5.72534V15.2812C4.50666 15.9543 5.05231 16.5 5.72541 16.5H14.2977C14.9708 16.5 15.5165 15.9543 15.5165 15.2812V5.72534C15.5165 5.05224 14.9708 4.50659 14.2977 4.50659Z" fill="#D4B07B" stroke="url(#paint0_linear_335_317)"/>
<path d="M6.00084 5.98438L7.53209 4.61719L8.46959 2.5H9.96959H11.4696L12.4227 4.61719L13.9696 5.98438" fill="url(#paint1_linear_335_317)"/>
<path d="M5.67266 5.97998H14.5582L14.5881 9.7157V15.514H5.67266L5.67266 5.97998Z" fill="url(#paint2_linear_335_317)"/>
<path d="M14.5073 5.98511L14.5165 9.71545V15.5138L5.48519 15.4918L5.50079 5.99011" stroke="url(#paint3_linear_335_317)"/>
<path d="M9.69619 8.01575H12.9932V9.02612H9.69619V8.01575Z" fill="url(#paint4_linear_335_317)"/>
<path d="M8.96904 10.0157H12.9932V11.0261H8.96904V10.0157Z" fill="url(#paint5_linear_335_317)"/>
<path d="M7.93779 12.0157H12.9932V13.0261H7.93779V12.0157Z" fill="url(#paint6_linear_335_317)"/>
<path d="M8.32812 2.01373C8.18991 2.05673 8.07251 2.16198 8.01562 2.29498L7.14062 4.29498L6.17578 5.15826C5.95633 5.37766 6.01388 5.48295 5.98438 5.99615C6.18979 5.99615 6.46872 5.99645 6.73047 5.99615L7.85938 4.98248C7.91098 4.93948 7.95377 4.88543 7.98438 4.82623L8.79688 3.01373H9.98438H11.1406L11.9531 4.82623C11.9837 4.88623 12.0265 4.93948 12.0781 4.98248L13.252 6.01373C13.3655 6.01373 13.7247 5.99348 13.9688 5.98248C13.9688 5.76958 14.0502 5.40763 13.8438 5.20123L12.8281 4.29302L11.9219 2.29302C11.8421 2.12902 11.6666 2.01813 11.4844 2.01373H9.98438H8.48438C8.43271 2.00373 8.37978 2.00373 8.32812 2.01373Z" fill="url(#paint7_linear_335_317)"/>
<g filter="url(#filter0_f_335_317)">
<path d="M2.79771 10.8125L5.29771 13.3439L10.7977 7.90637" stroke="white" stroke-width="1.8"/>
</g>
<path d="M1.51646 11.0624L4.01646 13.5938L9.51647 8.15625" stroke="#0073FF" stroke-width="1.8"/>
</g>
<defs>
<filter id="filter0_f_335_317" x="1.47733" y="6.58632" width="10.6332" height="8.71069" filterUnits="userSpaceOnUse" color-interpolation-filters="sRGB">
<feFlood flood-opacity="0" result="BackgroundImageFix"/>
<feBlend mode="normal" in="SourceGraphic" in2="BackgroundImageFix" result="shape"/>
<feGaussianBlur stdDeviation="0.340018" result="effect1_foregroundBlur_335_317"/>
</filter>
<linearGradient id="paint0_linear_335_317" x1="5.67272" y1="16.5823" x2="5.64147" y2="4.72199" gradientUnits="userSpaceOnUse">
<stop stop-color="#B68E69"/>
<stop offset="0.942388" stop-color="#D5AE7D"/>
<stop offset="1" stop-color="#C69863"/>
</linearGradient>
<linearGradient id="paint1_linear_335_317" x1="10.0633" y1="2.9609" x2="10.0633" y2="6.02917" gradientUnits="userSpaceOnUse">
<stop stop-color="#AFB8CD"/>
<stop offset="1" stop-color="#8192B5"/>
</linearGradient>
<linearGradient id="paint2_linear_335_317" x1="10.07" y1="6.95848" x2="10.07" y2="19.6432" gradientUnits="userSpaceOnUse">
<stop stop-color="#F9FAFC"/>
<stop offset="1" stop-color="#DCE7F7"/>
</linearGradient>
<linearGradient id="paint3_linear_335_317" x1="10.7201" y1="6.38331" x2="10.6759" y2="12.9687" gradientUnits="userSpaceOnUse">
<stop stop-color="#C7B571"/>
<stop offset="1" stop-color="#8794AD"/>
</linearGradient>
<linearGradient id="paint4_linear_335_317" x1="12.9932" y1="8.52097" x2="9.69619" y2="8.52097" gradientUnits="userSpaceOnUse">
<stop stop-color="#66769A"/>
<stop offset="1" stop-color="#5E76A3"/>
</linearGradient>
<linearGradient id="paint5_linear_335_317" x1="12.9932" y1="10.521" x2="8.96904" y2="10.521" gradientUnits="userSpaceOnUse">
<stop stop-color="#68789C"/>
<stop offset="1" stop-color="#637AA7"/>
</linearGradient>
<linearGradient id="paint6_linear_335_317" x1="12.9932" y1="12.521" x2="7.93779" y2="12.521" gradientUnits="userSpaceOnUse">
<stop stop-color="#647499"/>
<stop offset="1" stop-color="#637AA7"/>
</linearGradient>
<linearGradient id="paint7_linear_335_317" x1="10.0156" y1="2.13498" x2="10.0156" y2="3.60373" gradientUnits="userSpaceOnUse">
<stop stop-color="#ABB5CB"/>
<stop offset="1" stop-color="#67789D"/>
</linearGradient>
<clipPath id="clip0_335_317">
<rect width="16" height="16" fill="white" transform="translate(0 2)"/>
</clipPath>
</defs>
</svg>
