<svg width="19" height="19" viewBox="0 0 19 19" fill="none" xmlns="http://www.w3.org/2000/svg">
<path d="M8.5 2.5H2.5V8.5H8.5V2.5Z" fill="url(#paint0_linear_335_340)" stroke="url(#paint1_linear_335_340)"/>
<path d="M8.5 2.5H2.5V4.5H8.5V2.5Z" fill="url(#paint2_linear_335_340)" stroke="#C4894E"/>
<path d="M16.5 2.5H10.5V8.5H16.5V2.5Z" fill="url(#paint3_linear_335_340)" stroke="url(#paint4_linear_335_340)"/>
<path d="M16.5 2.5H10.5V4.5H16.5V2.5Z" fill="url(#paint5_linear_335_340)" stroke="#C4894E"/>
<path d="M8.5 10.5H2.5V16.5H8.5V10.5Z" fill="url(#paint6_linear_335_340)" stroke="url(#paint7_linear_335_340)"/>
<path d="M8.5 10.5H2.5V12.5H8.5V10.5Z" fill="url(#paint8_linear_335_340)" stroke="#C4894E"/>
<path d="M16.5 10.5H10.5V16.5H16.5V10.5Z" fill="url(#paint9_linear_335_340)" stroke="url(#paint10_linear_335_340)"/>
<path d="M16.5 10.5H10.5V12.5H16.5V10.5Z" fill="url(#paint11_linear_335_340)" stroke="#C4894E"/>
<defs>
<linearGradient id="paint0_linear_335_340" x1="3" y1="4.99999" x2="7.99999" y2="8" gradientUnits="userSpaceOnUse">
<stop stop-color="#D0F1FF"/>
<stop offset="1" stop-color="#F1F9FE"/>
</linearGradient>
<linearGradient id="paint1_linear_335_340" x1="6" y1="8.99998" x2="6" y2="5.99999" gradientUnits="userSpaceOnUse">
<stop stop-color="#75673B"/>
<stop offset="1" stop-color="#9D7C2F"/>
</linearGradient>
<linearGradient id="paint2_linear_335_340" x1="3" y1="3" x2="8" y2="3" gradientUnits="userSpaceOnUse">
<stop stop-color="#FEC056"/>
<stop offset="1" stop-color="#F8EBBB"/>
</linearGradient>
<linearGradient id="paint3_linear_335_340" x1="11" y1="4.99999" x2="16" y2="8" gradientUnits="userSpaceOnUse">
<stop stop-color="#D0F1FF"/>
<stop offset="1" stop-color="#F1F9FE"/>
</linearGradient>
<linearGradient id="paint4_linear_335_340" x1="14" y1="8.99998" x2="14" y2="5.99999" gradientUnits="userSpaceOnUse">
<stop stop-color="#75673B"/>
<stop offset="1" stop-color="#9D7C2F"/>
</linearGradient>
<linearGradient id="paint5_linear_335_340" x1="11" y1="3" x2="16" y2="3" gradientUnits="userSpaceOnUse">
<stop stop-color="#FEC056"/>
<stop offset="1" stop-color="#F8EBBB"/>
</linearGradient>
<linearGradient id="paint6_linear_335_340" x1="3" y1="13" x2="7.99999" y2="16" gradientUnits="userSpaceOnUse">
<stop stop-color="#D0F1FF"/>
<stop offset="1" stop-color="#F1F9FE"/>
</linearGradient>
<linearGradient id="paint7_linear_335_340" x1="6" y1="17" x2="6" y2="14" gradientUnits="userSpaceOnUse">
<stop stop-color="#75673B"/>
<stop offset="1" stop-color="#9D7C2F"/>
</linearGradient>
<linearGradient id="paint8_linear_335_340" x1="3" y1="11" x2="8" y2="11" gradientUnits="userSpaceOnUse">
<stop stop-color="#FEC056"/>
<stop offset="1" stop-color="#F8EBBB"/>
</linearGradient>
<linearGradient id="paint9_linear_335_340" x1="11" y1="13" x2="16" y2="16" gradientUnits="userSpaceOnUse">
<stop stop-color="#D0F1FF"/>
<stop offset="1" stop-color="#F1F9FE"/>
</linearGradient>
<linearGradient id="paint10_linear_335_340" x1="14" y1="17" x2="14" y2="14" gradientUnits="userSpaceOnUse">
<stop stop-color="#75673B"/>
<stop offset="1" stop-color="#9D7C2F"/>
</linearGradient>
<linearGradient id="paint11_linear_335_340" x1="11" y1="11" x2="16" y2="11" gradientUnits="userSpaceOnUse">
<stop stop-color="#FEC056"/>
<stop offset="1" stop-color="#F8EBBB"/>
</linearGradient>
</defs>
</svg>
