<svg width="19" height="19" viewBox="0 0 19 19" fill="none" xmlns="http://www.w3.org/2000/svg">
<path fill-rule="evenodd" clip-rule="evenodd" d="M4.50012 8.96524V14.5H7.49994V9L4.50012 8.96524Z" fill="url(#paint0_linear_335_382)" stroke="url(#paint1_linear_335_382)"/>
<path d="M8.5007 10.0024V7.80634C8.5007 6.53938 7.61912 5.4946 6.39193 5.4946H5.63446C4.40726 5.4946 3.49958 6.16321 3.49958 7.43017V10.0024" fill="url(#paint2_radial_335_382)"/>
<path d="M8.5007 10.0024V7.80634C8.5007 6.53938 7.61912 5.4946 6.39193 5.4946H5.63446C4.40726 5.4946 3.49958 6.16321 3.49958 7.43017V10.0024" stroke="url(#paint3_linear_335_382)" stroke-linejoin="round"/>
<path d="M6 4.5C6.82843 4.5 7.5 3.82843 7.5 3C7.5 2.17157 6.82843 1.5 6 1.5C5.17157 1.5 4.5 2.17157 4.5 3C4.5 3.82843 5.17157 4.5 6 4.5Z" fill="url(#paint4_radial_335_382)" stroke="url(#paint5_linear_335_382)" stroke-linecap="round" stroke-linejoin="round"/>
<path fill-rule="evenodd" clip-rule="evenodd" d="M11.5005 11.9652V17.5H14.5004V12L11.5005 11.9652Z" fill="url(#paint6_linear_335_382)" stroke="url(#paint7_linear_335_382)"/>
<path d="M15.5011 13.0024V10.8063C15.5011 9.53938 14.6195 8.4946 13.3924 8.4946H12.6349C11.4077 8.4946 10.5 9.16321 10.5 10.4302V13.0024" fill="url(#paint8_radial_335_382)"/>
<path d="M15.5011 13.0024V10.8063C15.5011 9.53938 14.6195 8.4946 13.3924 8.4946H12.6349C11.4077 8.4946 10.5 9.16321 10.5 10.4302V13.0024" stroke="url(#paint9_linear_335_382)" stroke-linejoin="round"/>
<path d="M13.0004 7.5C13.8289 7.5 14.5004 6.82843 14.5004 6C14.5004 5.17157 13.8289 4.5 13.0004 4.5C12.172 4.5 11.5004 5.17157 11.5004 6C11.5004 6.82843 12.172 7.5 13.0004 7.5Z" fill="url(#paint10_radial_335_382)" stroke="url(#paint11_linear_335_382)" stroke-linecap="round" stroke-linejoin="round"/>
<defs>
<linearGradient id="paint0_linear_335_382" x1="5.91464" y1="11.7304" x2="5.1212" y2="11.7304" gradientUnits="userSpaceOnUse">
<stop stop-color="#84A7CB"/>
<stop offset="1" stop-color="white"/>
</linearGradient>
<linearGradient id="paint1_linear_335_382" x1="4.12395" y1="11.7304" x2="7.87611" y2="11.7304" gradientUnits="userSpaceOnUse">
<stop stop-color="#5680A8"/>
<stop offset="1" stop-color="#285089"/>
</linearGradient>
<radialGradient id="paint2_radial_335_382" cx="0" cy="0" r="1" gradientUnits="userSpaceOnUse" gradientTransform="translate(4.60962 8.20641) scale(1.59575 4.32027)">
<stop stop-color="white"/>
<stop offset="1" stop-color="#778EB6"/>
</radialGradient>
<linearGradient id="paint3_linear_335_382" x1="3.06818" y1="9.25351" x2="7.99447" y2="5.93382" gradientUnits="userSpaceOnUse">
<stop stop-color="#7890B8"/>
<stop offset="1" stop-color="#3F6FA1"/>
</linearGradient>
<radialGradient id="paint4_radial_335_382" cx="0" cy="0" r="1" gradientTransform="matrix(1.36304 0.0114488 -0.0208932 2.47158 5.29901 2.73654)" gradientUnits="userSpaceOnUse">
<stop stop-color="#F7F9FC"/>
<stop offset="1" stop-color="#7890B8"/>
</radialGradient>
<linearGradient id="paint5_linear_335_382" x1="4.139" y1="3.00018" x2="6.98251" y2="3.94553" gradientUnits="userSpaceOnUse">
<stop stop-color="#6C96C1"/>
<stop offset="1" stop-color="#2F5786"/>
</linearGradient>
<linearGradient id="paint6_linear_335_382" x1="12.9151" y1="14.7304" x2="12.1216" y2="14.7304" gradientUnits="userSpaceOnUse">
<stop stop-color="#84A7CB"/>
<stop offset="1" stop-color="white"/>
</linearGradient>
<linearGradient id="paint7_linear_335_382" x1="11.1244" y1="14.7304" x2="14.8765" y2="14.7304" gradientUnits="userSpaceOnUse">
<stop stop-color="#5680A8"/>
<stop offset="1" stop-color="#285089"/>
</linearGradient>
<radialGradient id="paint8_radial_335_382" cx="0" cy="0" r="1" gradientUnits="userSpaceOnUse" gradientTransform="translate(11.61 11.2064) scale(1.59575 4.32027)">
<stop stop-color="white"/>
<stop offset="1" stop-color="#778EB6"/>
</radialGradient>
<linearGradient id="paint9_linear_335_382" x1="10.0686" y1="12.2535" x2="14.9949" y2="8.93382" gradientUnits="userSpaceOnUse">
<stop stop-color="#7890B8"/>
<stop offset="1" stop-color="#3F6FA1"/>
</linearGradient>
<radialGradient id="paint10_radial_335_382" cx="0" cy="0" r="1" gradientTransform="matrix(1.36304 0.0114488 -0.0208932 2.47158 12.2994 5.73654)" gradientUnits="userSpaceOnUse">
<stop stop-color="#F7F9FC"/>
<stop offset="1" stop-color="#7890B8"/>
</radialGradient>
<linearGradient id="paint11_linear_335_382" x1="11.1394" y1="6.00018" x2="13.9829" y2="6.94553" gradientUnits="userSpaceOnUse">
<stop stop-color="#6C96C1"/>
<stop offset="1" stop-color="#2F5786"/>
</linearGradient>
</defs>
</svg>
