<svg width="19" height="19" viewBox="0 0 19 19" fill="none" xmlns="http://www.w3.org/2000/svg">
<path d="M3.0019 5.04245V14.9998H15.9999V5.04245H3.0019ZM4.40099 6.11798H14.6008V13.9242H4.40099V6.11798Z" fill="#F4FCFF"/>
<path d="M4.44423 6.11022L4.44618 15H3.00195L3 5L4.44423 6.11022Z" fill="url(#paint0_linear_335_146)"/>
<path d="M4.44423 6.11022L16 6.12134V5.01111L3 5L4.44423 6.11022Z" fill="url(#paint1_linear_335_146)"/>
<path d="M2.5 4.5H16.5V15.5H2.5V4.5Z" stroke="url(#paint2_linear_335_146)"/>
<mask id="mask0_335_146" style="mask-type:alpha" maskUnits="userSpaceOnUse" x="4" y="6" width="11" height="8">
<rect x="4" y="6" width="11" height="8" fill="#D9D9D9"/>
</mask>
<g mask="url(#mask0_335_146)">
<g opacity="0.5" filter="url(#filter0_f_335_146)">
<path d="M16.0047 5.3923H3.21921V15.2092H16.0047V5.3923Z" fill="black" fill-opacity="0.739362"/>
</g>
<path d="M15.2157 6.01263H4.00815V14.3351H15.2157V6.01263Z" fill="url(#paint3_linear_335_146)"/>
<path d="M15.2391 9.08715C14.7721 8.7702 14.7021 8.56637 14.2117 8.56637C13.7214 8.56637 13.6513 8.47578 13.4412 8.56637C13.2311 8.65696 13.0676 8.77019 12.7641 8.77019C12.4605 8.77019 12.227 8.74736 12.0169 8.74736C11.8068 8.74736 11.8301 8.6115 11.4799 8.81516C11.1296 9.01897 11.0129 9.10945 10.6627 9.17741C10.3124 9.24522 10.4525 9.2003 10.0089 9.06423C9.56525 8.92838 9.4952 8.88304 9.21501 8.56609C8.93482 8.24913 8.72468 8.24914 8.32774 8.27177C7.93081 8.29463 7.88411 8.43025 7.79071 8.43025C7.69732 8.43025 7.62727 8.45308 7.32373 8.24912C7.02019 8.04531 6.8801 8.15856 6.90345 7.97745C6.9268 7.79627 6.69331 7.68303 6.38977 7.70574C6.08623 7.72859 6.06288 7.70573 5.75934 7.77354C5.4558 7.84135 5.33906 7.68296 5.05887 7.88677C4.77868 8.0905 5.24566 7.81897 4.49849 8.20374C3.75132 8.58865 3.65792 8.47543 3.70462 8.63398C3.75132 8.79246 3.75132 9.13203 3.75132 9.47169C3.75132 9.81127 3.75132 12.7774 3.75132 12.7774H15.4959L15.2391 9.08715Z" fill="url(#paint4_linear_335_146)" stroke="white" stroke-width="0.166416"/>
<path d="M8.42114 11.6344C8.49118 11.5887 9.09826 11.1815 9.20333 11.091C9.3084 11.0004 9.23836 10.774 9.41348 10.7513C9.58859 10.7285 9.97385 10.695 10.0672 10.7628C10.1606 10.8306 10.219 10.8873 10.3241 10.8306C10.4292 10.7742 10.686 10.6834 10.7794 10.7513C10.8728 10.8191 10.9195 10.8872 11.0246 10.8985C11.1296 10.9099 11.2464 10.8756 11.3515 10.8193C11.4565 10.7629 11.5733 10.7287 11.7017 10.7287C11.8301 10.7287 11.9469 10.7851 12.0403 10.8646C12.1336 10.9438 12.2737 11.0457 12.3788 11.0344C12.4839 11.023 12.5306 10.9894 12.624 11.0687C12.7174 11.148 12.9042 11.3064 13.091 11.3403C13.2778 11.3746 13.628 11.4197 13.7097 11.4649C13.7914 11.5099 13.8615 11.5668 13.9432 11.6121C14.0249 11.6571 14.3752 11.9291 14.3752 11.9291L14.5153 12.0989C14.5153 12.0989 13.4762 12.314 13.3712 12.314C13.2661 12.314 8.94649 12.3704 8.89979 12.3704C8.85309 12.3704 8.35109 12.0533 8.35109 12.0533L8.42114 11.6344Z" fill="url(#paint5_linear_335_146)" stroke="#BBE4F7" stroke-width="0.0832078"/>
<path d="M3.70461 9.20038C3.70461 9.20038 4.84872 9.58527 5.08221 9.56264C5.3157 9.53978 5.43245 9.155 5.80604 9.35881C6.17962 9.56262 6.38976 10.1287 6.81005 10.2419C7.23033 10.3551 7.06689 10.1741 7.46382 10.3777C7.86076 10.5815 8.00085 10.6268 8.1643 10.6268C8.32774 10.6268 8.38187 10.6261 8.59626 10.8192C8.7597 10.9664 8.82975 11.023 8.89979 11.1815C8.96984 11.3399 9.21501 11.3513 9.37845 11.4645C9.98743 11.8436 11.0777 11.7924 11.69 11.7362C12.0636 11.7362 13.0676 11.8494 13.3712 11.8721C13.6747 11.8949 13.8381 11.8949 14.1417 11.8949C14.4452 11.8949 14.5153 11.872 14.7487 11.8949C14.9822 11.9178 15.4025 11.9178 15.4025 11.9178L15.5193 12.28L14.8655 12.7102H3.70461V9.20038Z" fill="#537C7B" stroke="#649093" stroke-width="0.0832078"/>
<path d="M3.98481 10.6268C4.33504 10.6268 4.61523 10.7853 4.77868 10.7627C4.94212 10.7398 5.57255 10.4004 6.06288 10.5815C6.55321 10.7627 6.99684 11.1702 7.23033 11.2155C7.46382 11.2604 8.14095 11.3739 8.56123 11.3739C8.98152 11.3739 9.3551 11.1249 9.70534 11.1476C10.0556 11.1704 10.3124 11.3287 10.5226 11.3739C10.7327 11.4197 10.9662 11.2834 11.1296 11.329C11.2931 11.3739 11.5032 11.578 11.5032 11.578C11.5032 11.578 12.3905 11.329 12.6006 11.4422C12.8108 11.5554 13.0676 11.7592 13.4412 11.7592C13.8148 11.7592 13.7681 11.6007 14.095 11.7363C14.4219 11.8721 14.7954 12.2571 14.7954 12.2571L14.8888 12.5061C14.8888 12.5061 12.0169 12.5061 11.9235 12.529C11.8301 12.5518 6.45981 12.6648 6.31972 12.6648C6.17962 12.6648 4.73198 12.642 4.61523 12.6199C4.49849 12.597 3.68127 12.5067 3.68127 12.5067C3.68127 12.5067 3.44778 10.7633 3.56452 10.7633C3.68127 10.7633 3.98481 10.6268 3.98481 10.6268Z" fill="url(#paint6_linear_335_146)" stroke="#5E8F71" stroke-width="0.0832078"/>
<path d="M15.5552 12.2733H3.79987V14.4507H15.5552V12.2733Z" fill="url(#paint7_linear_335_146)" stroke="#316493" stroke-width="0.0832078" stroke-linecap="round" stroke-linejoin="round"/>
<path d="M12.3671 8.18144C12.1336 8.33992 11.8068 8.45314 11.4799 8.43051C11.153 8.40765 10.686 8.56636 10.6393 8.22678C10.5926 7.88713 10.4292 8.02298 10.3124 7.75129C10.1957 7.47959 10.1256 7.32113 10.219 7.16265C10.3124 7.0041 10.4992 7.02671 10.616 6.89094C10.7327 6.75501 10.8261 6.48332 11.0362 6.46069C11.2464 6.43784 11.4332 6.46067 11.5499 6.43781C11.6667 6.41496 11.9702 6.09824 12.157 6.23408C12.3438 6.36993 12.2971 6.64165 12.4839 6.66428C12.6707 6.68714 12.6473 6.77751 12.9042 6.52845C13.161 6.27938 13.2778 6.09825 13.5579 6.00766C13.8381 5.91707 14.1183 5.84919 14.3752 5.91707C14.632 5.98488 14.7487 6.00766 14.9589 6.09825C15.169 6.18876 14.8888 6.57366 14.4919 6.68688C14.095 6.8001 14.095 6.7547 13.7914 7.00385C13.4879 7.25291 12.9742 7.32089 13.0443 7.45674C13.1143 7.59259 13.0443 7.59257 13.3011 7.59257C13.5579 7.59257 13.9782 7.56974 13.8148 7.7737C13.6513 7.97751 13.8848 8.11332 13.5112 8.18121C13.1377 8.24902 13.0443 8.06803 13.0443 8.24906C13.0443 8.43016 12.9275 8.72446 12.7874 8.43014C12.6473 8.13582 12.3671 8.18144 12.3671 8.18144Z" fill="url(#paint8_linear_335_146)" stroke="url(#paint9_linear_335_146)" stroke-width="0.166416"/>
<path d="M3.21429 5.2381V15.1101H16.0099V5.2381H3.21429ZM4.00903 6.01265H15.2151V14.3355H4.00903V6.01265Z" fill="white"/>
</g>
<defs>
<filter id="filter0_f_335_146" x="2.92764" y="5.10073" width="13.3686" height="10.4" filterUnits="userSpaceOnUse" color-interpolation-filters="sRGB">
<feFlood flood-opacity="0" result="BackgroundImageFix"/>
<feBlend mode="normal" in="SourceGraphic" in2="BackgroundImageFix" result="shape"/>
<feGaussianBlur stdDeviation="0.145785" result="effect1_foregroundBlur_335_146"/>
</filter>
<linearGradient id="paint0_linear_335_146" x1="5.88845" y1="3.85628" x2="3" y2="3.85628" gradientUnits="userSpaceOnUse">
<stop stop-color="white" stop-opacity="0"/>
<stop offset="1" stop-color="#C5DFF4"/>
</linearGradient>
<linearGradient id="paint1_linear_335_146" x1="7.43655" y1="5.00114" x2="7.43655" y2="7.22161" gradientUnits="userSpaceOnUse">
<stop stop-color="#C5DFF4"/>
<stop offset="1" stop-color="white" stop-opacity="0"/>
</linearGradient>
<linearGradient id="paint2_linear_335_146" x1="6.12411" y1="7.2616" x2="6.12411" y2="15.7725" gradientUnits="userSpaceOnUse">
<stop stop-color="#A79C68"/>
<stop offset="1" stop-color="#687692"/>
</linearGradient>
<linearGradient id="paint3_linear_335_146" x1="8.86477" y1="6.0532" x2="8.86477" y2="12.2198" gradientUnits="userSpaceOnUse">
<stop stop-color="#4291FA"/>
<stop offset="1" stop-color="#F8FDFF"/>
</linearGradient>
<linearGradient id="paint4_linear_335_146" x1="10.3071" y1="9.0178" x2="10.3071" y2="12.3426" gradientUnits="userSpaceOnUse">
<stop stop-color="#D1F7FE"/>
<stop offset="1" stop-color="white"/>
</linearGradient>
<linearGradient id="paint5_linear_335_146" x1="8.3184" y1="11.5464" x2="14.5479" y2="11.5464" gradientUnits="userSpaceOnUse">
<stop stop-color="#92C2EF"/>
<stop offset="1" stop-color="#83B3E2"/>
</linearGradient>
<linearGradient id="paint6_linear_335_146" x1="4.45645" y1="12.5928" x2="4.72461" y2="10.5981" gradientUnits="userSpaceOnUse">
<stop stop-color="#294844"/>
<stop offset="1" stop-color="#5A8D6A"/>
</linearGradient>
<linearGradient id="paint7_linear_335_146" x1="5.47332" y1="15.0341" x2="15.2059" y2="12.2611" gradientUnits="userSpaceOnUse">
<stop stop-color="#316493"/>
<stop offset="1" stop-color="#E5ECF3"/>
</linearGradient>
<linearGradient id="paint8_linear_335_146" x1="11.6077" y1="6.44818" x2="11.6077" y2="7.99243" gradientUnits="userSpaceOnUse">
<stop stop-color="#E5FDFA"/>
<stop offset="1" stop-color="#94D1FD"/>
</linearGradient>
<linearGradient id="paint9_linear_335_146" x1="13.7762" y1="6.04525" x2="13.7762" y2="8.35934" gradientUnits="userSpaceOnUse">
<stop stop-color="white"/>
<stop offset="1" stop-color="#80B6FC"/>
</linearGradient>
</defs>
</svg>
