<svg width="19" height="19" viewBox="0 0 19 19" fill="none" xmlns="http://www.w3.org/2000/svg">
<path d="M9.44581 15.2855C12.6739 15.2855 15.2908 12.6687 15.2908 9.44056C15.2908 6.21247 12.6739 3.59558 9.44581 3.59558C6.21772 3.59558 3.60083 6.21247 3.60083 9.44056C3.60083 12.6687 6.21772 15.2855 9.44581 15.2855Z" fill="url(#paint0_radial_335_362)"/>
<path d="M10.066 3.90845C9.98243 3.90835 9.91932 3.93349 10.066 3.95349C10.1679 3.96749 10.0078 4.01441 10.1563 3.99841C10.2315 3.93341 10.1397 3.90845 10.066 3.90845ZM8.25966 3.95349C8.17881 3.96949 8.11347 4.02446 8.03387 4.04346C8.20107 4.00146 8.35804 3.98049 8.53061 3.95349C8.44196 3.96749 8.34695 3.93649 8.25966 3.95349ZM8.9822 3.95349C8.88136 3.97249 8.85662 3.99141 8.9822 3.99841C9.06797 3.95941 9.07181 3.95049 9.11768 3.95349C9.06742 3.95349 9.02456 3.93949 8.9822 3.95349ZM10.6079 3.95349C10.5988 3.95269 10.5711 3.99941 10.5627 3.99841C10.5467 4.02841 10.4334 4.04746 10.6079 4.04346C10.6127 4.06246 10.6222 4.1105 10.6531 4.0885C10.6646 4.0695 10.6729 4.01141 10.6982 3.99841C10.6664 3.99841 10.6399 3.95949 10.6079 3.95349ZM9.47895 3.99841C9.45479 3.99901 9.44477 4.0495 9.43378 4.0885C9.33716 4.0235 9.13644 4.03346 9.07252 4.04346C9.017 4.07046 9.02252 4.0985 9.20799 4.0885C9.31195 4.0885 9.19303 4.12042 9.11767 4.13342C9.14018 4.13342 9.1354 4.13442 9.20799 4.13342C9.30682 4.13342 9.82984 4.07846 9.5241 4.04346C9.54763 4.00346 9.49758 3.99841 9.47895 3.99841ZM10.2015 3.99841C10.1902 4.01241 10.2233 4.04646 10.337 4.04346C10.3684 4.00146 10.3736 3.99741 10.337 3.99841C10.2994 3.99891 10.2128 3.98441 10.2015 3.99841ZM9.7499 4.04346C9.73489 4.04406 9.74998 4.0825 9.7499 4.0885H9.79506L9.7499 4.04346ZM9.79506 4.0885C9.74875 4.1025 9.75138 4.12142 9.88538 4.13342C9.85304 4.13342 9.76152 4.19547 9.93054 4.17847C10.0631 4.13847 10.1067 4.0411 9.9757 4.0426C9.96212 4.0427 9.94787 4.08565 9.93054 4.08765C9.94726 4.10465 9.84137 4.0745 9.79506 4.0885ZM10.924 4.04346C10.9102 4.06046 10.8852 4.0705 10.8789 4.0885C10.8699 4.1145 10.8891 4.16547 10.8789 4.17847C10.8717 4.17847 10.8473 4.17847 10.8337 4.17847C10.7793 4.17817 10.6716 4.19247 10.6531 4.17847C10.4993 4.16447 10.5779 4.20339 10.6079 4.22339C10.7462 4.23739 10.905 4.30348 10.924 4.31348C11.0607 4.32748 10.9606 4.15499 11.195 4.22339C11.1891 4.19939 11.1961 4.18447 11.2401 4.17847C11.135 4.14347 11.0317 4.07236 10.924 4.04346ZM10.2015 4.0885C10.2171 4.1025 10.2035 4.12142 10.2466 4.13342C10.3117 4.09642 10.2535 4.0885 10.2015 4.0885ZM8.57577 4.13342C8.32243 4.24762 8.14959 4.31512 8.16935 4.40442C8.34937 4.38542 8.54068 4.23276 8.75641 4.22376C8.98031 4.14876 8.70369 4.13842 8.57577 4.13342ZM10.0208 4.17847C9.97995 4.19447 10.0036 4.25243 10.1112 4.26843C10.1408 4.21543 10.1021 4.17747 10.066 4.17847C10.051 4.17867 10.0345 4.17847 10.0208 4.17847ZM9.34347 4.22339C9.29866 4.22339 9.28676 4.25948 9.34347 4.31348C9.51593 4.28148 9.40897 4.22239 9.34347 4.22339ZM9.65958 4.26843C9.52175 4.30643 9.70886 4.2934 9.56926 4.3584C9.36179 4.2904 9.53763 4.52428 9.56926 4.53918C9.61192 4.53918 9.70027 4.4511 9.74989 4.4032C9.71363 4.3772 9.76555 4.33223 9.79505 4.31323C9.79543 4.29923 9.78436 4.27319 9.74989 4.26819C9.73029 4.26819 9.68929 4.26933 9.65958 4.26843ZM11.3756 4.26843C11.3716 4.26843 11.3562 4.29748 11.3756 4.31348C11.4538 4.34648 11.4007 4.3484 11.4208 4.3584C11.4568 4.4294 11.7344 4.52339 11.6014 4.49439C11.7371 4.52139 12.0176 4.83159 11.9627 4.72009C12.0043 4.78909 12.0742 5.0445 12.053 4.9458C12.0634 4.9458 12.1466 5.00789 12.1433 5.03589C12.2163 5.05289 12.2352 5.10185 12.2336 5.12585C12.2475 5.12585 12.2731 5.1849 12.2336 5.1709H12.1885C12.1951 5.1709 12.1824 5.21382 12.1885 5.21582C12.3121 5.26082 12.1941 5.34451 12.2336 5.35181C12.1887 5.35221 12.1876 5.38773 12.1885 5.39673C12.1963 5.39673 12.1827 5.43877 12.1885 5.44177C12.2083 5.44177 12.1579 5.48769 12.2788 5.48669C12.2561 5.48579 12.1765 5.50069 12.1433 5.48669C12.1543 5.48669 12.1499 5.51374 12.1885 5.53174C12.1316 5.54574 12.1006 5.5997 12.0982 5.6217C12.2543 5.5687 12.193 5.64375 12.1433 5.66675C12.1919 5.66675 12.2323 5.68579 12.2336 5.71179C12.2486 5.71179 12.2723 5.74471 12.2336 5.75671C12.2314 5.75671 12.2376 5.79576 12.2336 5.80176C12.2408 5.80176 12.229 5.8428 12.2336 5.8468C12.1462 5.8768 12.199 5.95087 12.2336 5.98267C12.2316 5.98337 12.276 5.99667 12.2788 5.98267C12.2704 6.07267 12.324 6.20341 12.324 6.16321C12.4127 6.24721 12.5001 6.2804 12.5046 6.2533C12.5342 6.2533 12.6456 6.32426 12.6401 6.34326C12.6852 6.35726 12.7145 6.34322 12.6852 6.29822C12.6894 6.27822 12.6755 6.24325 12.6852 6.20825C12.6979 6.16025 12.7013 6.14221 12.6852 6.16321C12.6428 6.12521 12.7711 6.08824 12.7304 6.07324C12.7704 6.03424 12.7529 5.7652 12.7755 5.8927C12.9002 5.8477 12.943 5.93466 12.9562 5.84766C12.9565 5.91666 13.0199 5.86166 13.0465 5.84766C13.0529 5.84766 13.0871 5.84766 13.0917 5.84766C13.1261 5.82066 13.0768 5.66289 13.1368 5.71179C13.2107 5.82889 13.4702 5.83171 13.5432 5.75671C13.4765 5.72171 13.4427 5.68575 13.4078 5.66675C13.3517 5.64675 13.3326 5.58878 13.3174 5.57678C13.3323 5.57678 13.3513 5.6057 13.4078 5.6217C13.4315 5.6437 13.4388 5.6077 13.4529 5.6217C13.4096 5.5627 13.369 5.47726 13.3626 5.48596C13.3146 5.44096 13.3039 5.43292 13.3174 5.44092C13.2427 5.38892 13.3105 5.36992 13.4078 5.44092C12.9041 4.97442 12.3358 4.57891 11.6917 4.31201C11.6531 4.31201 11.4557 4.27309 11.3756 4.26709L11.3756 4.26843ZM8.75641 4.31348C8.69836 4.34848 8.65324 4.37944 8.57577 4.40344C8.65843 4.40344 8.13975 4.52191 8.62093 4.49341C8.55764 4.52941 8.08039 4.55247 8.4403 4.67407C8.31205 4.87797 9.02718 4.60607 8.84673 4.67407C8.90854 4.65707 8.94495 4.76504 9.07252 4.76404C9.23502 4.73404 9.20207 4.6413 9.16284 4.6283C9.19504 4.6083 9.23176 4.58025 9.25316 4.58325C9.20131 4.52425 9.16923 4.49619 9.25316 4.40259C9.19365 4.44259 9.05898 4.49059 9.07253 4.40259C9.08073 4.34359 9.09029 4.22872 9.02737 4.31262C8.93539 4.33662 8.85076 4.32662 8.80157 4.31262C8.79117 4.31262 8.75784 4.31348 8.75641 4.31348ZM10.2918 4.40344C10.184 4.43644 9.94716 4.62494 10.2015 4.67444C10.1579 4.66044 10.1296 4.67444 10.1112 4.67444C10.1553 4.71144 10.2233 4.7813 10.2015 4.7644C10.2483 4.7784 10.349 4.79645 10.4273 4.80945C10.5326 4.82845 10.6207 4.84249 10.5627 4.85449C10.6929 4.91249 10.6205 4.66511 10.6982 4.89941C10.8263 4.91941 10.9734 5.01358 10.8337 5.03528C10.8268 5.03538 10.818 5.1162 10.8337 5.0802C10.8739 5.1422 10.9842 5.23819 10.9692 5.17029C11.0523 5.23529 10.8586 5.32713 10.7885 5.35083C10.8062 5.40983 10.7497 5.46209 10.6982 5.48669C10.7609 5.47269 10.9447 5.73276 10.8789 5.66736C10.8502 5.68136 10.8559 5.6894 10.8789 5.7124C10.8691 5.7124 10.9007 5.77332 10.924 5.75732C11.0214 5.82232 11.1697 5.88309 11.195 5.89319C11.205 5.85719 11.1507 5.76742 11.1046 5.71252C11.1165 5.71252 11.1286 5.69852 11.1498 5.71252C11.1975 5.72652 11.2968 5.73949 11.2853 5.80249C11.327 5.76649 11.2804 5.62183 11.2853 5.62183C11.1702 5.46073 11.1767 5.52382 11.1498 5.39612C11.1227 5.37312 11.3174 5.38212 11.2853 5.39612C11.3058 5.42812 11.3257 5.45821 11.3304 5.48621C11.3147 5.48621 11.4705 5.41813 11.4659 5.53113C11.5023 5.50813 11.5005 5.47016 11.5111 5.44116C11.6798 5.44116 11.4572 5.38912 11.5111 5.39612C11.5251 5.29502 11.3927 5.34318 11.4208 5.26038C11.376 5.20938 11.2899 5.14473 11.3304 5.21533C11.3129 5.21533 11.2604 5.15737 11.2401 5.12537C11.2479 5.10537 11.2384 5.06732 11.3756 5.08032C11.32 5.06332 11.2917 5.0484 11.2853 5.0354C11.3033 5.0194 11.3174 4.98036 11.195 4.99036C11.1651 4.96036 11.2133 4.95231 11.2401 4.94531C11.2395 4.93131 11.2284 4.92539 11.195 4.90039C11.0858 4.94839 11.1852 4.88335 11.1498 4.85535C11.1282 4.86935 11.1032 4.86935 11.1046 4.85535C11.1985 4.81235 11.1218 4.74988 11.0595 4.76538C11.0798 4.74638 11.0299 4.69934 10.9692 4.72034C10.8628 4.69634 10.985 4.72037 10.8788 4.63037C10.8621 4.59237 10.8638 4.54041 10.8337 4.54041C10.7786 4.54061 10.7549 4.58333 10.7434 4.58533C10.7268 4.53933 10.7085 4.52341 10.6982 4.54041C10.7028 4.48441 10.6627 4.43486 10.5176 4.49536C10.4418 4.51536 10.4663 4.65303 10.4272 4.58533C10.3875 4.55333 10.359 4.55833 10.3369 4.58533C10.3149 4.61333 10.3113 4.65629 10.3369 4.67529C10.2531 4.69229 10.2903 4.64033 10.3369 4.58533C10.4068 4.50133 10.4811 4.40229 10.3821 4.40479C10.3618 4.40519 10.3331 4.39079 10.2918 4.40479L10.2918 4.40344ZM7.76292 4.49341C7.72124 4.50941 7.62406 4.5545 7.53713 4.5835C7.45265 4.6035 7.35967 4.5975 7.40165 4.5835C7.36723 4.5695 7.1764 4.68745 7.08554 4.53845C6.93079 4.55245 6.85556 4.53845 6.76943 4.53845C6.75771 4.53845 6.73595 4.53845 6.72427 4.53845C6.20618 4.81285 5.73532 5.16615 5.32436 5.57715C5.2729 5.62515 5.23124 5.70001 5.18888 5.75781C5.12837 5.84181 5.11726 5.9024 5.18888 5.8479C5.10867 5.9359 5.08213 6.10714 5.23404 5.98364C5.10627 6.17844 4.90922 6.34407 4.78246 6.48047C4.98957 6.31157 5.17312 6.1218 5.36952 5.9386C5.38527 5.8546 5.50362 5.80563 5.59531 5.75793C5.50407 5.84193 5.41512 5.9811 5.50499 5.8938C5.59319 5.8588 5.71754 5.72699 5.77594 5.66809C5.77484 5.66809 5.82026 5.66809 5.8211 5.66809C5.83509 5.66769 5.84281 5.66801 5.8211 5.71301C5.86359 5.72701 6.0064 5.7901 6.04689 5.8031C6.09251 5.7801 6.19477 5.88804 6.18237 5.93884C6.19477 5.92484 6.21481 5.91688 6.22753 5.84888C6.23743 5.80988 6.19612 6.05454 6.22753 6.02954C6.21478 6.05854 6.19223 6.09051 6.18237 6.11951L6.13721 6.16455C6.12911 6.18355 6.13081 6.20359 6.13721 6.20959L6.18237 6.16455C6.17897 6.17855 6.18087 6.19959 6.18237 6.20959C6.17737 6.21009 6.15848 6.26852 6.18237 6.25452C6.18697 6.25452 6.22001 6.25412 6.22753 6.25452C6.201 6.28152 6.21115 6.29056 6.22753 6.29956C6.24241 6.31356 6.22758 6.34053 6.18237 6.38953C6.16783 6.40353 6.20608 6.41457 6.18237 6.43457C6.15351 6.52957 6.19579 6.57043 6.22753 6.57043C6.20955 6.64943 6.20886 6.7284 6.22753 6.7511C6.18603 6.8101 6.15084 6.89266 6.18237 6.84106C6.25615 6.82706 6.18347 6.96671 6.13721 7.02161C6.16555 7.00761 6.21395 6.99564 6.31784 6.93164C6.30964 6.95664 6.44166 7.01361 6.363 7.06751C6.39563 7.11851 6.39195 7.19617 6.363 7.24817C6.34392 7.28117 6.3206 7.28609 6.31784 7.29309C6.26735 7.06869 6.13572 7.6532 6.13721 7.5188C6.0444 7.7359 5.95313 7.9198 5.91142 8.151C5.83003 8.3249 5.89066 8.6221 5.95658 8.5575C5.99659 8.7104 5.97366 8.92789 6.13721 8.96399C6.29253 9.11599 6.24538 9.39503 6.40816 9.55103C6.42864 9.67103 6.27939 9.74416 6.45332 9.77686C6.56653 10.027 6.58644 10.1878 6.72427 10.1381C6.63258 10.0326 6.46796 9.61978 6.49848 9.64148C6.41917 9.51278 6.32486 9.15875 6.49848 9.28015C6.57081 9.43225 6.63139 9.64316 6.76943 9.77686C6.77373 9.93316 6.99499 10.0853 7.04038 10.3187C7.00256 10.4759 7.06567 10.5879 7.22102 10.6799C7.43938 10.7409 7.65713 10.9713 7.8984 10.8606C8.05475 10.8336 8.18756 11.167 8.39514 11.1316C8.62414 11.1546 8.61577 11.2126 8.75641 11.4026C8.74485 11.5854 8.86859 11.3545 8.89188 11.5831C8.96397 11.5691 9.19935 11.6451 9.25315 11.6731C9.26115 11.4847 9.52257 11.5445 9.47895 11.7181C9.55365 11.8755 9.54136 12.0893 9.38863 12.2148C9.28744 12.2548 9.18802 12.4494 9.16283 12.531C9.39071 12.507 9.29394 12.8594 9.20799 12.8922C9.4137 13.0093 9.48407 13.2633 9.61442 13.4342C9.70063 13.6199 10.003 13.6198 10.1112 13.7954C10.1393 13.9957 10.0973 14.1455 10.1112 14.3374C10.0243 14.4875 10.1289 14.6579 10.066 14.7889C9.99128 14.9074 9.95064 15.1392 10.1112 15.1501C10.1028 15.1891 10.0385 15.2421 10.0208 15.286C10.0152 15.3 10.0208 15.3231 10.0208 15.3311C9.90845 15.3311 9.93586 15.3531 9.97568 15.3761L10.0208 15.421C10.0341 15.4215 10.0498 15.435 10.066 15.421C10.08 15.435 10.056 15.4591 10.066 15.4661C10.2021 15.4521 10.3393 15.444 10.4724 15.421C10.2901 15.395 10.7101 15.2795 10.4724 15.2404C10.5711 15.2144 10.5498 15.1493 10.6531 15.1045C10.6615 15.0625 10.8492 14.8818 11.0143 14.8789C11.4255 14.8079 10.8107 14.5436 11.195 14.653C11.3119 14.718 11.4882 14.5142 11.5562 14.4272C11.4968 14.5857 11.838 14.0808 11.8272 14.0659C11.9799 13.9518 12.4367 13.7955 12.2788 13.795C12.4862 13.6505 12.5604 13.3696 12.5949 13.1176C12.7696 12.9718 12.8908 12.6899 12.911 12.6208C12.8753 12.4966 12.4066 12.3836 12.5497 12.395C12.4522 12.349 12.3161 12.327 12.2788 12.395C12.2694 12.304 11.9743 12.2751 12.053 12.3051C12.003 12.3411 11.9854 12.3241 11.9627 12.3501C11.8822 12.4411 11.9244 12.4902 11.8272 12.395C11.9031 12.381 11.9437 12.3731 11.9627 12.3501C11.9911 12.3151 11.9638 12.266 11.9175 12.26C11.9098 12.2606 11.8763 12.26 11.8723 12.26C11.8667 12.26 11.8294 12.26 11.8272 12.26C11.7967 12.274 11.766 12.3111 11.7369 12.3501C11.6523 12.3251 11.6771 11.9464 11.8272 12.0338C11.7851 11.8694 11.6465 11.788 11.4659 11.7629C11.239 11.8159 11.1981 11.6749 11.0595 11.5371C10.9348 11.5661 10.833 11.3631 10.8337 11.3566C10.6628 11.4765 10.2316 11.3425 10.1563 11.3115C10.0859 11.3115 10.0431 11.3626 10.066 11.4922C9.85961 11.5732 10.1745 11.1524 9.97567 11.2665C9.84671 11.4285 9.69525 11.2865 9.65956 11.4922C9.52578 11.6924 9.56171 11.5742 9.34345 11.4922C9.09181 11.6295 8.89061 11.4691 8.93703 11.3115C8.99125 11.1771 8.92677 10.9661 8.93703 10.9502C8.87609 10.9362 8.74169 10.8633 8.57576 10.9053C8.3293 10.9853 8.6434 10.7535 8.57576 10.6794C8.55957 10.6044 8.45486 10.3662 8.62092 10.3634C8.37331 10.3244 8.35647 10.5379 8.25965 10.6794C8.17335 10.6054 7.95669 10.7545 7.85322 10.5895C7.67377 10.4221 7.68965 10.1633 7.7629 9.95728C7.8316 9.87828 7.7588 9.60935 7.94354 9.59595C8.11603 9.49895 8.06193 9.46878 8.3048 9.50598C8.35979 9.51998 8.43105 9.40478 8.5306 9.50598C8.54 9.36118 8.96993 9.42089 8.84671 9.41589C8.93258 9.52569 9.0935 9.42995 9.11766 9.64185C9.10422 9.71685 9.2598 9.88449 9.29829 9.95789C9.46828 9.74759 9.11128 9.41365 9.38861 9.23535C9.54807 9.12835 9.8173 8.93639 9.79504 8.91919C9.80805 8.91919 9.82104 8.87727 9.8402 8.87427C9.82676 8.86027 9.82994 8.84422 9.79504 8.82922C9.88023 8.76522 9.80952 8.59385 9.79504 8.55835C9.80054 8.55835 9.8962 8.36319 9.88536 8.60339C9.91997 8.84979 9.95295 8.50071 9.97568 8.42261C10.0209 8.39261 10.0579 8.34867 10.1112 8.28687C10.1189 8.27287 10.1437 8.28687 10.1563 8.28687C10.2014 8.24387 10.2584 8.1785 10.337 8.1969C10.5039 8.1829 10.4111 8.18284 10.4273 8.01624C10.5406 7.88324 10.686 7.83947 10.7434 7.83557C10.6973 7.76357 10.8997 7.82153 10.9692 7.79053C10.8932 7.82953 10.7456 7.96608 10.924 8.01648C10.9577 7.87488 11.2675 7.87623 11.2401 7.79053C11.2362 7.77653 11.2154 7.80953 11.195 7.79053C10.9841 7.88153 10.865 7.58032 10.924 7.56482C10.7118 7.51882 11.3085 7.43338 10.924 7.38428C10.6063 7.47528 10.3264 7.73618 10.6982 7.38428C10.8757 7.32928 10.8945 7.16281 11.1046 7.24841C11.2407 7.26841 11.4519 7.36409 11.5562 7.20349C11.6606 7.23249 11.7896 7.12141 11.7369 7.06751C11.7958 6.98751 11.7077 6.90186 11.6917 6.93176C11.6812 6.85776 11.5761 6.89676 11.5111 6.93176C11.5164 6.91776 11.4925 6.90672 11.5111 6.88672C11.5612 6.85672 11.7593 6.84175 11.5562 6.75085C11.49 6.77585 11.399 6.69881 11.4659 6.70581C11.3333 6.62181 11.3936 6.4157 11.3756 6.4801C11.4232 6.4111 11.4569 6.29254 11.3756 6.34424C11.2595 6.36024 11.3804 6.2753 11.2853 6.1637C11.2827 6.1337 11.2457 6.12765 11.2401 6.11865C11.214 6.16465 11.149 6.23852 11.1498 6.20862C11.1459 6.27962 10.9753 6.31851 10.9692 6.29871C10.8964 6.32871 11.0036 6.22762 10.8337 6.20862C10.8189 6.18262 10.8161 6.10315 10.7885 6.07275C10.9452 6.13775 10.9951 5.92139 10.8337 5.93689C10.7793 5.89489 10.4758 5.79673 10.6079 5.75623C10.4072 5.64933 10.3607 5.74219 10.2918 5.89209C10.3542 5.89209 10.2234 6.01495 10.2918 6.02795C10.1974 6.15945 10.2696 6.42679 10.2918 6.47949C10.2866 6.58359 10.0519 6.8405 9.97567 6.7052C9.93475 6.8093 9.87212 7.0665 9.93051 6.9762C9.96229 7.0947 9.84418 7.00624 9.79503 7.02124C9.67535 6.92124 9.68577 6.80305 9.74987 6.61475C9.71509 6.44435 9.526 6.58574 9.43376 6.38904C9.35938 6.29204 9.15517 6.20217 9.07249 6.20837C9.11989 5.92847 8.88367 6.18134 8.98217 5.98254C9.02002 5.82864 9.14876 5.69682 9.25313 5.62122C9.32976 5.56622 9.39039 5.60727 9.34345 5.48547C9.5263 5.66127 9.42916 5.46243 9.43377 5.44043C9.60233 5.53743 9.5633 5.35043 9.70472 5.44043C9.77288 5.42643 9.82032 5.41351 9.84019 5.39551C9.87535 5.36251 9.83699 5.29742 9.79503 5.25952C9.97345 5.35152 9.99192 5.04076 10.1111 5.16956C10.1162 5.16956 10.1381 5.12756 10.1563 5.16956C10.3301 5.19856 10.2986 4.88799 10.3369 4.98889C10.3518 4.98889 10.3305 4.94597 10.3369 4.94397C10.3012 4.91197 10.2663 4.879 10.2466 4.854C10.1827 4.905 10.0762 4.98255 10.0208 5.03455C9.98637 5.05155 9.96682 5.09259 9.97566 5.07959C9.89261 5.06559 10.053 4.72108 9.88534 4.85388C9.84617 4.88588 9.81699 4.8988 9.79502 4.8988C9.78462 4.8638 9.78602 4.78616 9.84018 4.76306C9.72034 4.70406 9.94245 4.70201 9.84018 4.53711C9.77314 4.46911 9.62831 4.7001 9.65955 4.6272C9.45544 4.6992 9.87653 4.77814 9.61439 4.80774C9.80046 4.84274 9.50192 5.0962 9.47891 4.9884C9.3827 5.0804 9.55996 4.77064 9.47891 4.85254C9.45259 4.85254 9.37933 4.85254 9.34344 4.85254C9.34224 4.85254 9.31517 4.87258 9.34344 4.89758C9.34894 4.93558 9.01305 4.86054 8.93701 4.85254C8.88327 4.80054 8.86977 4.75957 8.80154 4.76257C8.67733 4.76257 8.65087 4.91214 8.6209 4.94324C8.50939 5.06464 8.48317 4.84627 8.57574 4.85327C8.44113 4.83027 8.35014 4.79231 8.30479 4.76331C8.30149 4.74631 8.28271 4.68822 8.25963 4.67322C8.14504 4.52192 8.03018 4.42958 7.94352 4.53748C7.78417 4.69958 7.85439 4.48843 7.80805 4.49243C7.79955 4.49293 7.78393 4.47441 7.76292 4.49341ZM9.47895 4.85474H9.52411C9.61262 4.87674 9.54108 4.67567 9.47895 4.67407C9.46884 4.67387 9.44397 4.70899 9.43379 4.71899C9.32015 4.76999 9.27282 4.74208 9.43379 4.80908L9.47895 4.85474ZM9.84022 5.39661C9.83232 5.41061 9.82852 5.46865 9.84022 5.44165C9.84502 5.47665 9.92097 5.55282 9.93053 5.53162C10.0848 5.33662 10.0952 5.57762 10.2466 5.53162C10.2125 5.49162 10.0194 5.27062 10.0209 5.26062C9.96299 5.26032 9.86393 5.36621 9.84022 5.39661ZM11.2401 7.79053C11.2417 7.80453 11.253 7.78992 11.2853 7.78992C11.3149 7.74192 11.3889 7.80398 11.3304 7.65418C11.3266 7.66817 11.2353 7.75273 11.2401 7.79053ZM6.13721 7.02161C6.1594 7.06761 6.14893 7.1364 6.13721 7.1123C6.20077 7.1453 6.22378 7.23809 6.31785 7.20239C6.34621 7.12139 6.20497 7.07511 6.13721 7.02161ZM10.7885 5.08044C10.7278 5.08034 10.5569 5.17441 10.7434 5.17041C10.8097 5.10541 10.8182 5.08044 10.7885 5.08044ZM12.0981 5.17041C12.0444 5.17021 12.0299 5.31067 12.1885 5.30627C12.1474 5.21627 12.1244 5.17041 12.0981 5.17041ZM13.6335 6.1189C13.6539 6.1349 13.6614 6.19286 13.6787 6.20886C13.6486 6.16786 13.6527 6.1179 13.6335 6.1189ZM13.6787 6.20886C13.7585 6.27686 13.6415 6.3287 13.8142 6.3894L13.8593 6.43445C13.9638 6.44845 13.9099 6.25214 13.9045 6.20874C13.8157 6.19474 13.727 6.27974 13.7239 6.20874C13.7126 6.18974 13.6887 6.22286 13.6787 6.20886ZM10.066 6.3894C10.036 6.3894 9.95579 6.50799 10.066 6.47949C10.1009 6.43949 10.0787 6.3884 10.066 6.3894ZM9.7499 6.7959C9.70341 6.7963 9.7077 6.86082 9.84022 6.84082C9.8246 6.80582 9.76953 6.7959 9.7499 6.7959ZM14.6722 7.11206C14.695 7.17706 14.71 7.22907 14.7625 7.33777C14.778 7.33777 14.7875 7.36369 14.8077 7.38269C14.7671 7.29069 14.7173 7.20236 14.6722 7.11206ZM14.4915 7.1571C14.4889 7.2451 14.5317 7.41169 14.5819 7.51819C14.5901 7.53519 14.5745 7.54823 14.5819 7.56323C14.5774 7.56383 14.5681 7.61228 14.5819 7.60828C14.5849 7.60828 14.6245 7.60828 14.627 7.60828C14.5835 7.75538 14.6835 7.77951 14.627 7.83411C14.8283 7.87611 14.7123 7.59964 14.6722 7.51794C14.6212 7.35104 14.5049 7.2073 14.4915 7.1571ZM11.1047 7.29285C11.0498 7.29295 11.0706 7.37379 11.2853 7.42859C11.23 7.34659 11.1447 7.29285 11.1047 7.29285ZM11.6466 7.29285C11.5995 7.37285 11.5485 7.46039 11.4659 7.47339C11.4093 7.54739 11.569 7.65448 11.7369 7.60938C11.7356 7.65138 11.6734 7.7263 11.8272 7.6543C11.8432 7.6163 11.8213 7.60838 11.8272 7.60938L11.8724 7.6543C11.8779 7.6943 11.8839 7.75138 11.9175 7.74439C12.039 7.62589 11.8761 7.6503 11.8724 7.6084C11.8711 7.5944 11.8736 7.55343 11.9175 7.51843C11.7717 7.59943 11.7064 7.45947 11.8272 7.42847C11.6369 7.41247 11.8044 7.3985 11.7369 7.3385C11.6336 7.4005 11.6212 7.35185 11.6466 7.29285ZM14.4464 7.38281C14.4317 7.38371 14.4114 7.39686 14.4012 7.42786C14.3895 7.48586 14.425 7.71311 14.4464 7.65381C14.4613 7.66781 14.4603 7.71573 14.4915 7.69873C14.6331 7.67673 14.5171 7.37831 14.4464 7.38281ZM14.8528 7.51868C14.8697 7.66028 14.8508 7.84001 14.8528 7.88001C14.796 7.95701 14.7079 7.99985 14.6722 8.01575C14.7456 8.09575 14.6559 8.34222 14.7173 8.42212C14.5946 8.40612 14.5768 8.6544 14.5819 8.7384C14.5673 8.9722 14.7319 9.05882 14.7625 9.05432C14.9278 9.05432 14.9568 8.56379 14.9431 8.69299C14.9648 8.46669 15.1205 8.40749 15.1689 8.69299C15.0974 8.27969 15.0063 7.89748 14.8528 7.51868ZM14.8528 9.05408C14.779 9.07308 14.744 9.11004 14.8077 9.14404C14.6526 9.12204 14.538 9.82781 14.5367 9.68591C14.3618 9.84601 14.2628 10.0855 14.2206 10.3181C14.3131 10.5109 14.2706 11.082 14.2206 10.9956C14.2613 11.1126 14.3631 11.4061 14.3561 11.2666C14.4085 11.4256 14.5764 11.5794 14.7173 11.4025C14.914 11.2426 15.0869 11.2045 14.9431 11.5382C15.1439 10.9475 15.3044 10.3452 15.3044 9.68665C15.3044 9.62365 15.2612 9.5682 15.2592 9.5061C15.1327 9.363 14.9058 9.06584 15.0786 9.05444C15.0108 9.03444 14.9266 9.03508 14.8528 9.05408ZM9.11768 10.1831C9.04619 10.1825 9.00846 10.2261 8.93704 10.2721C8.8969 10.3211 8.95797 10.3271 9.02736 10.3171H9.07252C9.11999 10.3031 9.16119 10.2811 9.16284 10.2721C9.17184 10.2861 9.77682 10.5293 9.52411 10.4529C9.5522 10.4729 9.57366 10.4848 9.56927 10.4978C9.57457 10.5118 9.60528 10.5468 9.74991 10.5428C9.9582 10.4778 9.55954 10.3563 9.56927 10.3622C9.5497 10.3482 9.54423 10.3271 9.52411 10.3171C9.49857 10.2791 9.49253 10.2721 9.47895 10.2721C9.37303 10.2191 9.23091 10.1831 9.11768 10.1831ZM3.9696 10.2721C3.94975 10.2721 3.91813 10.3282 3.9696 10.3622C3.9881 10.2992 3.98318 10.2711 3.9696 10.2721ZM9.97569 10.4979C9.9436 10.4984 9.9207 10.531 9.93053 10.543C9.95351 10.559 9.92053 10.5759 9.93053 10.5879C9.92113 10.5877 9.91157 10.6469 9.93053 10.6329C9.90939 10.6329 9.90261 10.676 9.88537 10.678C10.0076 10.611 9.99632 10.7559 10.066 10.7229C10.0946 10.6279 10.4411 10.6909 10.337 10.587C10.3151 10.536 10.072 10.4959 9.97569 10.4979ZM10.5628 10.6338C10.5044 10.6338 10.3757 10.7509 10.5628 10.7238C10.5806 10.6848 10.5874 10.6328 10.5628 10.6338ZM9.47895 10.6787C9.48865 10.6927 9.49807 10.7108 9.52411 10.7238H9.56927C9.7418 10.7078 9.55525 10.6777 9.47895 10.6787ZM8.25967 12.3044C8.24337 12.3044 8.25857 12.4229 8.30483 12.3944C8.29703 12.3334 8.26681 12.3044 8.25967 12.3044Z" fill="url(#paint1_linear_335_362)"/>
<path d="M9.79506 4.0885H9.7499C9.74998 4.0825 9.73489 4.04406 9.7499 4.04346L9.79506 4.0885ZM9.79506 4.0885C9.74875 4.1025 9.75138 4.12142 9.88538 4.13342C9.85304 4.13342 9.76152 4.19547 9.93054 4.17847C10.0631 4.13847 10.1067 4.0411 9.9757 4.0426C9.96212 4.0427 9.94787 4.08565 9.93054 4.08765C9.94726 4.10465 9.84137 4.0745 9.79506 4.0885ZM10.3369 4.58533C10.359 4.55833 10.3875 4.55333 10.4272 4.58533C10.4663 4.65303 10.4418 4.51536 10.5176 4.49536C10.6627 4.43486 10.7028 4.48441 10.6982 4.54041C10.7085 4.52341 10.7268 4.53933 10.7434 4.58533C10.7549 4.58333 10.7786 4.54061 10.8337 4.54041C10.8638 4.54041 10.8621 4.59237 10.8788 4.63037C10.985 4.72037 10.8628 4.69634 10.9692 4.72034C11.0299 4.69934 11.0798 4.74638 11.0595 4.76538C11.1218 4.74988 11.1985 4.81235 11.1046 4.85535C11.1032 4.86935 11.1282 4.86935 11.1498 4.85535C11.1852 4.88335 11.0858 4.94839 11.195 4.90039C11.2284 4.92539 11.2395 4.93131 11.2401 4.94531C11.2133 4.95231 11.1651 4.96036 11.195 4.99036C11.3174 4.98036 11.3033 5.0194 11.2853 5.0354C11.2917 5.0484 11.32 5.06332 11.3756 5.08032C11.2384 5.06732 11.2479 5.10537 11.2401 5.12537C11.2604 5.15737 11.3129 5.21533 11.3304 5.21533C11.2899 5.14473 11.376 5.20938 11.4208 5.26038C11.3927 5.34318 11.5251 5.29502 11.5111 5.39612C11.4572 5.38912 11.6798 5.44116 11.5111 5.44116C11.5005 5.47016 11.5023 5.50813 11.4659 5.53113C11.4705 5.41813 11.3147 5.48621 11.3304 5.48621C11.3257 5.45821 11.3058 5.42812 11.2853 5.39612C11.3174 5.38212 11.1227 5.37312 11.1498 5.39612C11.1767 5.52382 11.1702 5.46073 11.2853 5.62183C11.2804 5.62183 11.327 5.76649 11.2853 5.80249C11.2968 5.73949 11.1975 5.72652 11.1498 5.71252C11.1286 5.69852 11.1165 5.71252 11.1046 5.71252C11.1507 5.76742 11.205 5.85719 11.195 5.89319C11.1697 5.88309 11.0214 5.82232 10.924 5.75732C10.9007 5.77332 10.8691 5.7124 10.8789 5.7124C10.8559 5.6894 10.8502 5.68136 10.8789 5.66736C10.9447 5.73276 10.7609 5.47269 10.6982 5.48669C10.7497 5.46209 10.8062 5.40983 10.7885 5.35083C10.8586 5.32713 11.0523 5.23529 10.9692 5.17029C10.9842 5.23819 10.8739 5.1422 10.8337 5.0802C10.818 5.1162 10.8268 5.03538 10.8337 5.03528C10.9734 5.01358 10.8263 4.91941 10.6982 4.89941C10.6205 4.66511 10.6929 4.91249 10.5627 4.85449C10.6207 4.84249 10.5326 4.82845 10.4273 4.80945C10.349 4.79645 10.2483 4.7784 10.2015 4.7644C10.2233 4.7813 10.1553 4.71144 10.1112 4.67444C10.1296 4.67444 10.1579 4.66044 10.2015 4.67444C9.94716 4.62494 10.184 4.43644 10.2918 4.40344L10.2918 4.40479C10.3331 4.39079 10.3618 4.40519 10.3821 4.40479C10.4811 4.40229 10.4068 4.50133 10.3369 4.58533ZM10.3369 4.58533C10.3149 4.61333 10.3113 4.65629 10.3369 4.67529C10.2531 4.69229 10.2903 4.64033 10.3369 4.58533ZM6.13721 7.02161C6.18347 6.96671 6.25615 6.82706 6.18237 6.84106C6.15084 6.89266 6.18603 6.8101 6.22753 6.7511C6.20886 6.7284 6.20955 6.64943 6.22753 6.57043C6.19579 6.57043 6.15351 6.52957 6.18237 6.43457C6.20608 6.41457 6.16783 6.40353 6.18237 6.38953C6.22758 6.34053 6.24241 6.31356 6.22753 6.29956C6.21115 6.29056 6.201 6.28152 6.22753 6.25452C6.22001 6.25412 6.18697 6.25452 6.18237 6.25452C6.15848 6.26852 6.17737 6.21009 6.18237 6.20959C6.18087 6.19959 6.17897 6.17855 6.18237 6.16455L6.13721 6.20959C6.13081 6.20359 6.12911 6.18355 6.13721 6.16455L6.18237 6.11951C6.19223 6.09051 6.21478 6.05854 6.22753 6.02954C6.19612 6.05454 6.23743 5.80988 6.22753 5.84888C6.21481 5.91688 6.19477 5.92484 6.18237 5.93884C6.19477 5.88804 6.09251 5.7801 6.04689 5.8031C6.0064 5.7901 5.86359 5.72701 5.8211 5.71301C5.84281 5.66801 5.83509 5.66769 5.8211 5.66809C5.82026 5.66809 5.77484 5.66809 5.77594 5.66809C5.71754 5.72699 5.59319 5.8588 5.50499 5.8938C5.41512 5.9811 5.50407 5.84193 5.59531 5.75793C5.50362 5.80563 5.38527 5.8546 5.36952 5.9386C5.17312 6.1218 4.98957 6.31157 4.78246 6.48047C4.90922 6.34407 5.10627 6.17844 5.23404 5.98364C5.08213 6.10714 5.10867 5.9359 5.18888 5.8479C5.11726 5.9024 5.12837 5.84181 5.18888 5.75781C5.23124 5.70001 5.2729 5.62515 5.32436 5.57715C5.73532 5.16615 6.20618 4.81285 6.72427 4.53845C6.73595 4.53845 6.75771 4.53845 6.76943 4.53845C6.85556 4.53845 6.93079 4.55245 7.08554 4.53845C7.1764 4.68745 7.36723 4.5695 7.40165 4.5835C7.35967 4.5975 7.45265 4.6035 7.53713 4.5835C7.62406 4.5545 7.72124 4.50941 7.76292 4.49341C7.78393 4.47441 7.79955 4.49293 7.80805 4.49243C7.85439 4.48843 7.78417 4.69958 7.94352 4.53748C8.03018 4.42958 8.14504 4.52192 8.25963 4.67322C8.28271 4.68822 8.30149 4.74631 8.30479 4.76331C8.35014 4.79231 8.44113 4.83027 8.57574 4.85327C8.48317 4.84627 8.50939 5.06464 8.6209 4.94324C8.65087 4.91214 8.67733 4.76257 8.80154 4.76257C8.86977 4.75957 8.88327 4.80054 8.93701 4.85254C9.01305 4.86054 9.34894 4.93558 9.34344 4.89758C9.31517 4.87258 9.34224 4.85254 9.34344 4.85254C9.37933 4.85254 9.45259 4.85254 9.47891 4.85254C9.55996 4.77064 9.3827 5.0804 9.47891 4.9884C9.50192 5.0962 9.80046 4.84274 9.61439 4.80774C9.87653 4.77814 9.45544 4.6992 9.65955 4.6272C9.62831 4.7001 9.77314 4.46911 9.84018 4.53711C9.94245 4.70201 9.72034 4.70406 9.84018 4.76306C9.78602 4.78616 9.78462 4.8638 9.79502 4.8988C9.81699 4.8988 9.84616 4.88588 9.88534 4.85388C10.053 4.72108 9.89261 5.06559 9.97566 5.07959C9.96682 5.09259 9.98637 5.05155 10.0208 5.03455C10.0762 4.98255 10.1827 4.905 10.2466 4.854C10.2663 4.879 10.3012 4.91197 10.3369 4.94397C10.3305 4.94597 10.3518 4.98889 10.3369 4.98889C10.2986 4.88799 10.3301 5.19856 10.1563 5.16956C10.1381 5.12756 10.1162 5.16956 10.1111 5.16956C9.99192 5.04076 9.97345 5.35152 9.79503 5.25952C9.83699 5.29742 9.87535 5.36251 9.84019 5.39551C9.82032 5.41351 9.77288 5.42643 9.70472 5.44043C9.5633 5.35043 9.60233 5.53743 9.43377 5.44043C9.42916 5.46243 9.5263 5.66127 9.34345 5.48547C9.39039 5.60727 9.32976 5.56622 9.25313 5.62122C9.14876 5.69682 9.02002 5.82864 8.98217 5.98254C8.88367 6.18134 9.11989 5.92847 9.07249 6.20837C9.15517 6.20217 9.35938 6.29204 9.43376 6.38904C9.526 6.58574 9.71509 6.44435 9.74987 6.61475C9.68577 6.80305 9.67535 6.92124 9.79503 7.02124C9.84418 7.00624 9.96229 7.0947 9.93051 6.9762C9.87212 7.0665 9.93475 6.8093 9.97567 6.7052C10.0519 6.8405 10.2866 6.58359 10.2918 6.47949C10.2696 6.42679 10.1974 6.15945 10.2918 6.02795C10.2234 6.01495 10.3542 5.89209 10.2918 5.89209C10.3607 5.74219 10.4072 5.64933 10.6079 5.75623C10.4758 5.79673 10.7793 5.89489 10.8337 5.93689C10.9951 5.92139 10.9452 6.13775 10.7885 6.07275C10.8161 6.10315 10.8189 6.18262 10.8337 6.20862C11.0036 6.22762 10.8964 6.32871 10.9692 6.29871C10.9753 6.31851 11.1459 6.27962 11.1498 6.20862C11.149 6.23852 11.214 6.16465 11.2401 6.11865C11.2457 6.12765 11.2827 6.1337 11.2853 6.1637C11.3804 6.2753 11.2595 6.36024 11.3756 6.34424C11.4569 6.29254 11.4232 6.4111 11.3756 6.4801C11.3936 6.4157 11.3333 6.62181 11.4659 6.70581C11.399 6.69881 11.49 6.77585 11.5562 6.75085C11.7593 6.84175 11.5612 6.85672 11.5111 6.88672C11.4925 6.90672 11.5164 6.91776 11.5111 6.93176C11.5761 6.89676 11.6812 6.85776 11.6917 6.93176C11.7077 6.90186 11.7958 6.98751 11.7369 7.06751C11.7896 7.12141 11.6606 7.23249 11.5562 7.20349C11.4519 7.36409 11.2407 7.26841 11.1046 7.24841C10.8945 7.16281 10.8757 7.32928 10.6982 7.38428C10.3264 7.73618 10.6063 7.47528 10.924 7.38428C11.3085 7.43338 10.7118 7.51882 10.924 7.56482C10.865 7.58032 10.9841 7.88153 11.195 7.79053C11.2154 7.80953 11.2362 7.77653 11.2401 7.79053M6.13721 7.02161C6.16555 7.00761 6.21395 6.99564 6.31784 6.93164C6.30964 6.95664 6.44166 7.01361 6.363 7.06751C6.39563 7.11851 6.39195 7.19617 6.363 7.24817C6.34392 7.28117 6.3206 7.28609 6.31784 7.29309C6.26735 7.06869 6.13572 7.6532 6.13721 7.5188C6.0444 7.7359 5.95313 7.9198 5.91142 8.151C5.83003 8.3249 5.89066 8.6221 5.95658 8.5575C5.99659 8.7104 5.97366 8.92789 6.13721 8.96399C6.29253 9.11599 6.24538 9.39503 6.40816 9.55103C6.42864 9.67103 6.27939 9.74416 6.45332 9.77686C6.56653 10.027 6.58644 10.1878 6.72427 10.1381C6.63258 10.0326 6.46796 9.61978 6.49848 9.64148C6.41917 9.51278 6.32486 9.15875 6.49848 9.28015C6.57081 9.43225 6.63139 9.64316 6.76943 9.77686C6.77373 9.93316 6.99499 10.0853 7.04038 10.3187C7.00256 10.4759 7.06567 10.5879 7.22102 10.6799C7.43938 10.7409 7.65713 10.9713 7.8984 10.8606C8.05475 10.8336 8.18756 11.167 8.39514 11.1316C8.62414 11.1546 8.61577 11.2126 8.75641 11.4026C8.74485 11.5854 8.86859 11.3545 8.89188 11.5831C8.96397 11.5691 9.19935 11.6451 9.25315 11.6731C9.26115 11.4847 9.52257 11.5445 9.47895 11.7181C9.55365 11.8755 9.54136 12.0893 9.38863 12.2148C9.28744 12.2548 9.18802 12.4494 9.16283 12.531C9.39071 12.507 9.29395 12.8594 9.20799 12.8922C9.4137 13.0093 9.48407 13.2633 9.61442 13.4342C9.70063 13.6199 10.003 13.6198 10.1112 13.7954C10.1393 13.9957 10.0973 14.1455 10.1112 14.3374C10.0243 14.4875 10.1289 14.6579 10.066 14.7889C9.99128 14.9074 9.95064 15.1392 10.1112 15.1501C10.1028 15.1891 10.0385 15.2421 10.0208 15.286C10.0152 15.3 10.0208 15.3231 10.0208 15.3311C9.90845 15.3311 9.93586 15.3531 9.97568 15.3761L10.0208 15.421C10.0341 15.4215 10.0498 15.435 10.066 15.421C10.08 15.435 10.056 15.4591 10.066 15.4661C10.2021 15.4521 10.3393 15.444 10.4724 15.421C10.2901 15.395 10.7101 15.2795 10.4724 15.2404C10.5711 15.2144 10.5498 15.1493 10.6531 15.1045C10.6615 15.0625 10.8492 14.8818 11.0143 14.8789C11.4255 14.8079 10.8107 14.5436 11.195 14.653C11.3119 14.718 11.4882 14.5142 11.5562 14.4272C11.4968 14.5857 11.838 14.0808 11.8272 14.0659C11.9799 13.9518 12.4367 13.7955 12.2788 13.795C12.4862 13.6505 12.5604 13.3696 12.5949 13.1176C12.7696 12.9718 12.8908 12.6899 12.911 12.6208C12.8753 12.4966 12.4066 12.3836 12.5497 12.395C12.4522 12.349 12.3161 12.327 12.2788 12.395C12.2694 12.304 11.9743 12.2751 12.053 12.3051C12.003 12.3411 11.9854 12.3241 11.9627 12.3501M6.13721 7.02161C6.1594 7.06761 6.14893 7.1364 6.13721 7.1123C6.20077 7.1453 6.22378 7.23809 6.31785 7.20239C6.34621 7.12139 6.20497 7.07511 6.13721 7.02161ZM11.9627 12.3501C11.8822 12.4411 11.9244 12.4902 11.8272 12.395C11.9031 12.381 11.9437 12.3731 11.9627 12.3501ZM11.9627 12.3501C11.9911 12.3151 11.9638 12.266 11.9175 12.26C11.9098 12.2606 11.8763 12.26 11.8723 12.26C11.8667 12.26 11.8294 12.26 11.8272 12.26C11.7967 12.274 11.766 12.3111 11.7369 12.3501C11.6523 12.3251 11.6771 11.9464 11.8272 12.0338C11.7851 11.8694 11.6465 11.788 11.4659 11.7629C11.239 11.8159 11.1981 11.6749 11.0595 11.5371C10.9348 11.5661 10.833 11.3631 10.8337 11.3566C10.6628 11.4765 10.2316 11.3425 10.1563 11.3115C10.0859 11.3115 10.0431 11.3626 10.066 11.4922C9.85961 11.5732 10.1745 11.1524 9.97567 11.2665C9.84672 11.4285 9.69525 11.2865 9.65956 11.4922C9.52578 11.6924 9.56171 11.5742 9.34345 11.4922C9.09181 11.6295 8.89061 11.4691 8.93703 11.3115C8.99125 11.1771 8.92677 10.9661 8.93703 10.9502C8.87609 10.9362 8.74169 10.8633 8.57576 10.9053C8.3293 10.9853 8.6434 10.7535 8.57576 10.6794C8.55957 10.6044 8.45486 10.3662 8.62092 10.3634C8.37331 10.3244 8.35647 10.5379 8.25965 10.6794C8.17335 10.6054 7.95669 10.7545 7.85322 10.5895C7.67377 10.4221 7.68965 10.1633 7.7629 9.95728C7.8316 9.87828 7.7588 9.60935 7.94354 9.59595C8.11603 9.49895 8.06193 9.46878 8.3048 9.50598C8.35979 9.51998 8.43105 9.40478 8.5306 9.50598C8.54 9.36118 8.96993 9.42089 8.84671 9.41589C8.93258 9.52569 9.0935 9.42995 9.11766 9.64185C9.10422 9.71685 9.2598 9.88449 9.29829 9.95789C9.46828 9.74759 9.11128 9.41365 9.38861 9.23535C9.54807 9.12835 9.8173 8.93639 9.79504 8.91919C9.80805 8.91919 9.82104 8.87727 9.8402 8.87427C9.82676 8.86027 9.82994 8.84422 9.79504 8.82922C9.88023 8.76522 9.80952 8.59385 9.79504 8.55835C9.80054 8.55835 9.8962 8.36319 9.88536 8.60339C9.91997 8.84979 9.95295 8.50071 9.97568 8.42261C10.0209 8.39261 10.0579 8.34867 10.1112 8.28687C10.1189 8.27287 10.1437 8.28687 10.1563 8.28687C10.2014 8.24387 10.2584 8.1785 10.337 8.1969C10.5039 8.1829 10.4111 8.18284 10.4273 8.01624C10.5406 7.88324 10.686 7.83947 10.7434 7.83557C10.6973 7.76357 10.8997 7.82153 10.9692 7.79053C10.8932 7.82953 10.7456 7.96608 10.924 8.01648C10.9577 7.87488 11.2675 7.87623 11.2401 7.79053M11.2401 7.79053C11.2417 7.80453 11.253 7.78992 11.2853 7.78992C11.3149 7.74192 11.3889 7.80398 11.3304 7.65418C11.3266 7.66818 11.2353 7.75273 11.2401 7.79053ZM13.6787 6.20886C13.6614 6.19286 13.6539 6.1349 13.6335 6.1189C13.6527 6.1179 13.6486 6.16786 13.6787 6.20886ZM13.6787 6.20886C13.7585 6.27686 13.6415 6.3287 13.8142 6.3894L13.8593 6.43445C13.9638 6.44845 13.9099 6.25214 13.9045 6.20874C13.8157 6.19474 13.727 6.27974 13.7239 6.20874C13.7126 6.18974 13.6887 6.22286 13.6787 6.20886ZM10.066 3.90845C9.98243 3.90835 9.91932 3.93349 10.066 3.95349C10.1679 3.96749 10.0078 4.01441 10.1563 3.99841C10.2315 3.93341 10.1397 3.90845 10.066 3.90845ZM8.25966 3.95349C8.17881 3.96949 8.11347 4.02446 8.03387 4.04346C8.20107 4.00146 8.35804 3.98049 8.53061 3.95349C8.44196 3.96749 8.34695 3.93649 8.25966 3.95349ZM8.9822 3.95349C8.88136 3.97249 8.85662 3.99141 8.9822 3.99841C9.06797 3.95941 9.07181 3.95049 9.11768 3.95349C9.06742 3.95349 9.02456 3.93949 8.9822 3.95349ZM10.6079 3.95349C10.5988 3.95269 10.5711 3.99941 10.5627 3.99841C10.5467 4.02841 10.4334 4.04746 10.6079 4.04346C10.6127 4.06246 10.6222 4.1105 10.6531 4.0885C10.6646 4.0695 10.6729 4.01141 10.6982 3.99841C10.6664 3.99841 10.6399 3.95949 10.6079 3.95349ZM9.47895 3.99841C9.45479 3.99901 9.44476 4.0495 9.43378 4.0885C9.33716 4.0235 9.13643 4.03346 9.07252 4.04346C9.017 4.07046 9.02252 4.0985 9.20799 4.0885C9.31195 4.0885 9.19303 4.12042 9.11767 4.13342C9.14018 4.13342 9.1354 4.13442 9.20799 4.13342C9.30682 4.13342 9.82984 4.07846 9.5241 4.04346C9.54763 4.00346 9.49758 3.99841 9.47895 3.99841ZM10.2015 3.99841C10.1902 4.01241 10.2233 4.04646 10.337 4.04346C10.3684 4.00146 10.3736 3.99741 10.337 3.99841C10.2994 3.99891 10.2128 3.98441 10.2015 3.99841ZM10.924 4.04346C10.9102 4.06046 10.8852 4.0705 10.8789 4.0885C10.8699 4.1145 10.8891 4.16547 10.8789 4.17847C10.8717 4.17847 10.8473 4.17847 10.8337 4.17847C10.7793 4.17817 10.6716 4.19247 10.6531 4.17847C10.4993 4.16447 10.5779 4.20339 10.6079 4.22339C10.7462 4.23739 10.905 4.30348 10.924 4.31348C11.0607 4.32748 10.9606 4.15499 11.195 4.22339C11.1891 4.19939 11.1961 4.18447 11.2401 4.17847C11.135 4.14347 11.0317 4.07236 10.924 4.04346ZM10.2015 4.0885C10.2171 4.1025 10.2035 4.12142 10.2466 4.13342C10.3117 4.09642 10.2535 4.0885 10.2015 4.0885ZM8.57577 4.13342C8.32243 4.24762 8.14959 4.31512 8.16935 4.40442C8.34937 4.38542 8.54068 4.23276 8.75641 4.22376C8.98031 4.14876 8.70369 4.13842 8.57577 4.13342ZM10.0208 4.17847C9.97995 4.19447 10.0036 4.25243 10.1112 4.26843C10.1408 4.21543 10.1021 4.17747 10.066 4.17847C10.051 4.17867 10.0345 4.17847 10.0208 4.17847ZM9.34347 4.22339C9.29866 4.22339 9.28676 4.25948 9.34347 4.31348C9.51593 4.28148 9.40897 4.22239 9.34347 4.22339ZM9.65958 4.26843C9.52175 4.30643 9.70886 4.2934 9.56926 4.3584C9.36179 4.2904 9.53763 4.52428 9.56926 4.53918C9.61192 4.53918 9.70027 4.4511 9.74989 4.4032C9.71363 4.3772 9.76555 4.33223 9.79505 4.31323C9.79543 4.29923 9.78436 4.27319 9.74989 4.26819C9.73029 4.26819 9.68929 4.26933 9.65958 4.26843ZM11.3756 4.26843C11.3716 4.26843 11.3562 4.29748 11.3756 4.31348C11.4538 4.34648 11.4007 4.3484 11.4208 4.3584C11.4568 4.4294 11.7344 4.52339 11.6014 4.49439C11.7371 4.52139 12.0176 4.83159 11.9627 4.72009C12.0043 4.78909 12.0742 5.0445 12.053 4.9458C12.0634 4.9458 12.1466 5.00789 12.1433 5.03589C12.2163 5.05289 12.2352 5.10185 12.2336 5.12585C12.2475 5.12585 12.2731 5.1849 12.2336 5.1709H12.1885C12.1951 5.1709 12.1824 5.21382 12.1885 5.21582C12.3121 5.26082 12.1941 5.34451 12.2336 5.35181C12.1887 5.35221 12.1876 5.38773 12.1885 5.39673C12.1963 5.39673 12.1827 5.43877 12.1885 5.44177C12.2083 5.44177 12.1579 5.48769 12.2788 5.48669C12.2561 5.48579 12.1765 5.50069 12.1433 5.48669C12.1543 5.48669 12.1499 5.51374 12.1885 5.53174C12.1316 5.54574 12.1006 5.5997 12.0982 5.6217C12.2543 5.5687 12.193 5.64375 12.1433 5.66675C12.1919 5.66675 12.2323 5.68579 12.2336 5.71179C12.2486 5.71179 12.2723 5.74471 12.2336 5.75671C12.2314 5.75671 12.2376 5.79576 12.2336 5.80176C12.2408 5.80176 12.229 5.8428 12.2336 5.8468C12.1462 5.8768 12.199 5.95087 12.2336 5.98267C12.2316 5.98337 12.276 5.99667 12.2788 5.98267C12.2704 6.07267 12.324 6.20341 12.324 6.16321C12.4127 6.24721 12.5001 6.2804 12.5046 6.2533C12.5342 6.2533 12.6456 6.32426 12.6401 6.34326C12.6852 6.35726 12.7145 6.34322 12.6852 6.29822C12.6894 6.27822 12.6755 6.24325 12.6852 6.20825C12.6979 6.16025 12.7013 6.14221 12.6852 6.16321C12.6428 6.12521 12.7711 6.08824 12.7304 6.07324C12.7704 6.03424 12.7529 5.7652 12.7755 5.8927C12.9002 5.8477 12.943 5.93466 12.9562 5.84766C12.9565 5.91666 13.0199 5.86166 13.0465 5.84766C13.0529 5.84766 13.0871 5.84766 13.0917 5.84766C13.1261 5.82066 13.0768 5.66289 13.1368 5.71179C13.2107 5.82889 13.4702 5.83171 13.5432 5.75671C13.4765 5.72171 13.4427 5.68575 13.4078 5.66675C13.3517 5.64675 13.3326 5.58878 13.3174 5.57678C13.3323 5.57678 13.3513 5.6057 13.4078 5.6217C13.4315 5.6437 13.4388 5.6077 13.4529 5.6217C13.4096 5.5627 13.369 5.47726 13.3626 5.48596C13.3146 5.44096 13.3039 5.43292 13.3174 5.44092C13.2427 5.38892 13.3105 5.36992 13.4078 5.44092C12.9041 4.97442 12.3358 4.57891 11.6917 4.31201C11.6531 4.31201 11.4557 4.27309 11.3756 4.26709L11.3756 4.26843ZM8.75641 4.31348C8.69836 4.34848 8.65324 4.37944 8.57577 4.40344C8.65843 4.40344 8.13975 4.52191 8.62093 4.49341C8.55764 4.52941 8.08039 4.55247 8.4403 4.67407C8.31205 4.87797 9.02718 4.60607 8.84673 4.67407C8.90854 4.65707 8.94495 4.76504 9.07252 4.76404C9.23502 4.73404 9.20207 4.6413 9.16284 4.6283C9.19504 4.6083 9.23176 4.58025 9.25316 4.58325C9.20131 4.52425 9.16923 4.49619 9.25316 4.40259C9.19365 4.44259 9.05898 4.49059 9.07253 4.40259C9.08073 4.34359 9.09029 4.22872 9.02737 4.31262C8.93539 4.33662 8.85076 4.32662 8.80157 4.31262C8.79117 4.31262 8.75784 4.31348 8.75641 4.31348ZM9.47895 4.85474H9.52411C9.61262 4.87674 9.54108 4.67567 9.47895 4.67407C9.46884 4.67387 9.44397 4.70899 9.43379 4.71899C9.32015 4.76999 9.27282 4.74208 9.43379 4.80908L9.47895 4.85474ZM9.84022 5.39661C9.83232 5.41061 9.82852 5.46865 9.84022 5.44165C9.84502 5.47665 9.92097 5.55282 9.93053 5.53162C10.0848 5.33662 10.0952 5.57762 10.2466 5.53162C10.2125 5.49162 10.0194 5.27062 10.0209 5.26062C9.96299 5.26032 9.86393 5.36621 9.84022 5.39661ZM10.7885 5.08044C10.7278 5.08034 10.5569 5.17441 10.7434 5.17041C10.8097 5.10541 10.8182 5.08044 10.7885 5.08044ZM12.0981 5.17041C12.0444 5.17021 12.0299 5.31067 12.1885 5.30627C12.1474 5.21627 12.1244 5.17041 12.0981 5.17041ZM10.066 6.3894C10.036 6.3894 9.95579 6.50799 10.066 6.47949C10.1009 6.43949 10.0787 6.3884 10.066 6.3894ZM9.7499 6.7959C9.70341 6.7963 9.7077 6.86082 9.84022 6.84082C9.8246 6.80582 9.76953 6.7959 9.7499 6.7959ZM14.6722 7.11206C14.695 7.17706 14.71 7.22907 14.7625 7.33777C14.778 7.33777 14.7875 7.36369 14.8077 7.38269C14.7671 7.29069 14.7173 7.20236 14.6722 7.11206ZM14.4915 7.1571C14.4889 7.2451 14.5317 7.41169 14.5819 7.51819C14.5901 7.53519 14.5745 7.54823 14.5819 7.56323C14.5774 7.56383 14.5681 7.61228 14.5819 7.60828C14.5849 7.60828 14.6245 7.60828 14.627 7.60828C14.5835 7.75538 14.6835 7.77951 14.627 7.83411C14.8283 7.87611 14.7123 7.59964 14.6722 7.51794C14.6212 7.35104 14.5049 7.2073 14.4915 7.1571ZM11.1047 7.29285C11.0498 7.29295 11.0706 7.37379 11.2853 7.42859C11.23 7.34659 11.1447 7.29285 11.1047 7.29285ZM11.6466 7.29285C11.5995 7.37285 11.5485 7.46039 11.4659 7.47339C11.4093 7.54739 11.569 7.65448 11.7369 7.60938C11.7356 7.65138 11.6734 7.7263 11.8272 7.6543C11.8432 7.6163 11.8213 7.60838 11.8272 7.60938L11.8724 7.6543C11.8779 7.6943 11.8839 7.75139 11.9175 7.74439C12.039 7.62589 11.8761 7.6503 11.8724 7.6084C11.8711 7.5944 11.8736 7.55343 11.9175 7.51843C11.7717 7.59943 11.7064 7.45947 11.8272 7.42847C11.6369 7.41247 11.8044 7.3985 11.7369 7.3385C11.6336 7.4005 11.6212 7.35185 11.6466 7.29285ZM14.4464 7.38281C14.4317 7.38371 14.4114 7.39686 14.4012 7.42786C14.3895 7.48586 14.425 7.71311 14.4464 7.65381C14.4613 7.66781 14.4603 7.71573 14.4915 7.69873C14.6331 7.67673 14.5171 7.37831 14.4464 7.38281ZM14.8528 7.51868C14.8697 7.66028 14.8508 7.84001 14.8528 7.88001C14.796 7.95701 14.7079 7.99985 14.6722 8.01575C14.7456 8.09575 14.6559 8.34222 14.7173 8.42212C14.5946 8.40612 14.5768 8.6544 14.5819 8.7384C14.5673 8.9722 14.7319 9.05882 14.7625 9.05432C14.9278 9.05432 14.9568 8.56379 14.9431 8.69299C14.9648 8.46669 15.1205 8.40749 15.1689 8.69299C15.0974 8.27969 15.0063 7.89748 14.8528 7.51868ZM14.8528 9.05408C14.779 9.07308 14.744 9.11004 14.8077 9.14404C14.6526 9.12204 14.538 9.82781 14.5367 9.68591C14.3618 9.84601 14.2628 10.0855 14.2206 10.3181C14.3131 10.5109 14.2706 11.082 14.2206 10.9956C14.2613 11.1126 14.3631 11.4061 14.3561 11.2666C14.4085 11.4256 14.5764 11.5794 14.7173 11.4025C14.914 11.2426 15.0869 11.2045 14.9431 11.5382C15.1439 10.9475 15.3044 10.3452 15.3044 9.68665C15.3044 9.62365 15.2612 9.5682 15.2592 9.5061C15.1327 9.363 14.9058 9.06584 15.0786 9.05444C15.0108 9.03444 14.9266 9.03508 14.8528 9.05408ZM9.11768 10.1831C9.04619 10.1825 9.00846 10.2261 8.93704 10.2721C8.8969 10.3211 8.95797 10.3271 9.02736 10.3171H9.07252C9.11999 10.3031 9.16119 10.2811 9.16284 10.2721C9.17184 10.2861 9.77683 10.5293 9.52411 10.4529C9.5522 10.4729 9.57366 10.4848 9.56927 10.4978C9.57457 10.5118 9.60528 10.5468 9.74991 10.5428C9.9582 10.4778 9.55954 10.3563 9.56927 10.3622C9.5497 10.3482 9.54423 10.3271 9.52411 10.3171C9.49857 10.2791 9.49253 10.2721 9.47895 10.2721C9.37303 10.2191 9.23091 10.1831 9.11768 10.1831ZM3.9696 10.2721C3.94975 10.2721 3.91813 10.3282 3.9696 10.3622C3.9881 10.2992 3.98318 10.2711 3.9696 10.2721ZM9.97569 10.4979C9.9436 10.4984 9.9207 10.531 9.93053 10.543C9.95351 10.559 9.92053 10.5759 9.93053 10.5879C9.92113 10.5877 9.91157 10.6469 9.93053 10.6329C9.90939 10.6329 9.90261 10.676 9.88537 10.678C10.0076 10.611 9.99632 10.7559 10.066 10.7229C10.0946 10.6279 10.4411 10.6909 10.337 10.587C10.3151 10.536 10.072 10.4959 9.97569 10.4979ZM10.5628 10.6338C10.5044 10.6338 10.3757 10.7509 10.5628 10.7238C10.5806 10.6848 10.5874 10.6328 10.5628 10.6338ZM9.47895 10.6787C9.48865 10.6927 9.49807 10.7108 9.52411 10.7238H9.56927C9.7418 10.7078 9.55525 10.6777 9.47895 10.6787ZM8.25967 12.3044C8.24337 12.3044 8.25857 12.4229 8.30483 12.3944C8.29703 12.3334 8.26681 12.3044 8.25967 12.3044Z" stroke="#767554" stroke-width="0.5" stroke-linecap="round" stroke-linejoin="round"/>
<path d="M10.066 3.65845C9.98243 3.65835 9.91932 3.68349 10.066 3.70349C10.1679 3.71749 10.0078 3.76441 10.1563 3.74841C10.2315 3.68341 10.1397 3.65845 10.066 3.65845ZM8.25966 3.70349C8.17881 3.71949 8.11347 3.77446 8.03387 3.79346C8.20107 3.75146 8.35804 3.73049 8.53061 3.70349C8.44196 3.71749 8.34695 3.68649 8.25966 3.70349ZM8.9822 3.70349C8.88136 3.72249 8.85662 3.74141 8.9822 3.74841C9.06797 3.70941 9.07181 3.70049 9.11768 3.70349C9.06742 3.70349 9.02456 3.68949 8.9822 3.70349ZM10.6079 3.70349C10.5988 3.70269 10.5711 3.74941 10.5627 3.74841C10.5467 3.77841 10.4334 3.79746 10.6079 3.79346C10.6127 3.81246 10.6222 3.8605 10.6531 3.8385C10.6646 3.8195 10.6729 3.76141 10.6982 3.74841C10.6664 3.74841 10.6399 3.70949 10.6079 3.70349ZM9.47895 3.74841C9.45479 3.74901 9.44477 3.7995 9.43378 3.8385C9.33716 3.7735 9.13644 3.78346 9.07252 3.79346C9.017 3.82046 9.02252 3.8485 9.20799 3.8385C9.31195 3.8385 9.19303 3.87042 9.11767 3.88342C9.14018 3.88342 9.1354 3.88442 9.20799 3.88342C9.30682 3.88342 9.82984 3.82846 9.5241 3.79346C9.54763 3.75346 9.49758 3.74841 9.47895 3.74841ZM10.2015 3.74841C10.1902 3.76241 10.2233 3.79646 10.337 3.79346C10.3684 3.75146 10.3736 3.74741 10.337 3.74841C10.2994 3.74891 10.2128 3.73441 10.2015 3.74841ZM9.7499 3.79346C9.73489 3.79406 9.74998 3.8325 9.7499 3.8385H9.79506L9.7499 3.79346ZM9.79506 3.8385C9.74875 3.8525 9.75138 3.87142 9.88538 3.88342C9.85304 3.88342 9.76152 3.94547 9.93054 3.92847C10.0631 3.88847 10.1067 3.7911 9.9757 3.7926C9.96212 3.7927 9.94787 3.83565 9.93054 3.83765C9.94726 3.85465 9.84137 3.8245 9.79506 3.8385ZM10.924 3.79346C10.9102 3.81046 10.8852 3.8205 10.8789 3.8385C10.8699 3.8645 10.8891 3.91547 10.8789 3.92847C10.8717 3.92847 10.8473 3.92847 10.8337 3.92847C10.7793 3.92817 10.6716 3.94247 10.6531 3.92847C10.4993 3.91447 10.5779 3.95339 10.6079 3.97339C10.7462 3.98739 10.905 4.05348 10.924 4.06348C11.0607 4.07748 10.9606 3.90499 11.195 3.97339C11.1891 3.94939 11.1961 3.93447 11.2401 3.92847C11.135 3.89347 11.0317 3.82236 10.924 3.79346ZM10.2015 3.8385C10.2171 3.8525 10.2035 3.87142 10.2466 3.88342C10.3117 3.84642 10.2535 3.8385 10.2015 3.8385ZM8.57577 3.88342C8.32243 3.99762 8.14959 4.06512 8.16935 4.15442C8.34937 4.13542 8.54068 3.98276 8.75641 3.97376C8.98031 3.89876 8.70369 3.88842 8.57577 3.88342ZM10.0208 3.92847C9.97995 3.94447 10.0036 4.00243 10.1112 4.01843C10.1408 3.96543 10.1021 3.92747 10.066 3.92847C10.051 3.92867 10.0345 3.92847 10.0208 3.92847ZM9.34347 3.97339C9.29866 3.97339 9.28676 4.00948 9.34347 4.06348C9.51593 4.03148 9.40897 3.97239 9.34347 3.97339ZM9.65958 4.01843C9.52175 4.05643 9.70886 4.0434 9.56926 4.1084C9.36179 4.0404 9.53763 4.27428 9.56926 4.28918C9.61192 4.28918 9.70027 4.2011 9.74989 4.1532C9.71363 4.1272 9.76555 4.08223 9.79505 4.06323C9.79543 4.04923 9.78436 4.02319 9.74989 4.01819C9.73029 4.01819 9.68929 4.01933 9.65958 4.01843ZM11.3756 4.01843C11.3716 4.01843 11.3562 4.04748 11.3756 4.06348C11.4538 4.09648 11.4007 4.0984 11.4208 4.1084C11.4568 4.1794 11.7344 4.27339 11.6014 4.24439C11.7371 4.27139 12.0176 4.58159 11.9627 4.47009C12.0043 4.53909 12.0742 4.7945 12.053 4.6958C12.0634 4.6958 12.1466 4.75789 12.1433 4.78589C12.2163 4.80289 12.2352 4.85185 12.2336 4.87585C12.2475 4.87585 12.2731 4.9349 12.2336 4.9209H12.1885C12.1951 4.9209 12.1824 4.96382 12.1885 4.96582C12.3121 5.01082 12.1941 5.09451 12.2336 5.10181C12.1887 5.10221 12.1876 5.13773 12.1885 5.14673C12.1963 5.14673 12.1827 5.18877 12.1885 5.19177C12.2083 5.19177 12.1579 5.23769 12.2788 5.23669C12.2561 5.23579 12.1765 5.25069 12.1433 5.23669C12.1543 5.23669 12.1499 5.26374 12.1885 5.28174C12.1316 5.29574 12.1006 5.3497 12.0982 5.3717C12.2543 5.3187 12.193 5.39375 12.1433 5.41675C12.1919 5.41675 12.2323 5.43579 12.2336 5.46179C12.2486 5.46179 12.2723 5.49471 12.2336 5.50671C12.2314 5.50671 12.2376 5.54576 12.2336 5.55176C12.2408 5.55176 12.229 5.5928 12.2336 5.5968C12.1462 5.6268 12.199 5.70087 12.2336 5.73267C12.2316 5.73337 12.276 5.74667 12.2788 5.73267C12.2704 5.82267 12.324 5.95341 12.324 5.91321C12.4127 5.99721 12.5001 6.0304 12.5046 6.0033C12.5342 6.0033 12.6456 6.07426 12.6401 6.09326C12.6852 6.10726 12.7145 6.09322 12.6852 6.04822C12.6894 6.02822 12.6755 5.99325 12.6852 5.95825C12.6979 5.91025 12.7013 5.89221 12.6852 5.91321C12.6428 5.87521 12.7711 5.83824 12.7304 5.82324C12.7704 5.78424 12.7529 5.5152 12.7755 5.6427C12.9002 5.5977 12.943 5.68466 12.9562 5.59766C12.9565 5.66666 13.0199 5.61166 13.0465 5.59766C13.0529 5.59766 13.0871 5.59766 13.0917 5.59766C13.1261 5.57066 13.0768 5.41289 13.1368 5.46179C13.2107 5.57889 13.4702 5.58171 13.5432 5.50671C13.4765 5.47171 13.4427 5.43575 13.4078 5.41675C13.3517 5.39675 13.3326 5.33878 13.3174 5.32678C13.3323 5.32678 13.3513 5.3557 13.4078 5.3717C13.4315 5.3937 13.4388 5.3577 13.4529 5.3717C13.4096 5.3127 13.369 5.22726 13.3626 5.23596C13.3146 5.19096 13.3039 5.18292 13.3174 5.19092C13.2427 5.13892 13.3105 5.11992 13.4078 5.19092C12.9041 4.72442 12.3358 4.32891 11.6917 4.06201C11.6531 4.06201 11.4557 4.02309 11.3756 4.01709L11.3756 4.01843ZM8.75641 4.06348C8.69836 4.09848 8.65324 4.12944 8.57577 4.15344C8.65843 4.15344 8.13975 4.27191 8.62093 4.24341C8.55764 4.27941 8.08039 4.30247 8.4403 4.42407C8.31205 4.62797 9.02718 4.35607 8.84673 4.42407C8.90854 4.40707 8.94495 4.51504 9.07252 4.51404C9.23502 4.48404 9.20207 4.3913 9.16284 4.3783C9.19504 4.3583 9.23176 4.33025 9.25316 4.33325C9.20131 4.27425 9.16923 4.24619 9.25316 4.15259C9.19365 4.19259 9.05898 4.24059 9.07253 4.15259C9.08073 4.09359 9.09029 3.97872 9.02737 4.06262C8.93539 4.08662 8.85076 4.07662 8.80157 4.06262C8.79117 4.06262 8.75784 4.06348 8.75641 4.06348ZM10.2918 4.15344C10.184 4.18644 9.94716 4.37494 10.2015 4.42444C10.1579 4.41044 10.1296 4.42344 10.1112 4.42444C10.1553 4.46144 10.2233 4.5313 10.2015 4.5144C10.2483 4.5284 10.349 4.54645 10.4273 4.55945C10.5326 4.57845 10.6207 4.59249 10.5627 4.60449C10.6929 4.66249 10.6205 4.41511 10.6982 4.64941C10.8263 4.66941 10.9734 4.76358 10.8337 4.78528C10.8268 4.78538 10.818 4.8662 10.8337 4.8302C10.8739 4.8922 10.9842 4.98819 10.9692 4.92029C11.0523 4.98529 10.8586 5.07713 10.7885 5.10083C10.8062 5.15983 10.7497 5.21209 10.6982 5.23669C10.7609 5.22269 10.9447 5.48276 10.8789 5.41736C10.8502 5.43136 10.8559 5.4394 10.8789 5.4624C10.8691 5.4624 10.9007 5.52332 10.924 5.50732C11.0214 5.57232 11.1697 5.63309 11.195 5.64319C11.205 5.60719 11.1507 5.51742 11.1046 5.46252C11.1165 5.46252 11.1286 5.44852 11.1498 5.46252C11.1975 5.47652 11.2968 5.48949 11.2853 5.55249C11.327 5.51649 11.2804 5.37183 11.2853 5.37183C11.1702 5.21073 11.1767 5.27382 11.1498 5.14612C11.1227 5.12312 11.3174 5.13212 11.2853 5.14612C11.3058 5.17812 11.3257 5.20821 11.3304 5.23621C11.3147 5.23621 11.4705 5.16813 11.4659 5.28113C11.5023 5.25813 11.5005 5.22016 11.5111 5.19116C11.6798 5.19116 11.4572 5.13912 11.5111 5.14612C11.5251 5.04502 11.3927 5.09318 11.4208 5.01038C11.376 4.95938 11.2899 4.89473 11.3304 4.96533C11.3129 4.96533 11.2604 4.90737 11.2401 4.87537C11.2479 4.85537 11.2384 4.81732 11.3756 4.83032C11.32 4.81332 11.2917 4.7984 11.2853 4.7854C11.3033 4.7694 11.3174 4.73036 11.195 4.74036C11.1651 4.71036 11.2133 4.70231 11.2401 4.69531C11.2395 4.68131 11.2284 4.67539 11.195 4.65039C11.0858 4.69839 11.1852 4.63335 11.1498 4.60535C11.1282 4.61935 11.1032 4.61935 11.1046 4.60535C11.1985 4.56235 11.1218 4.49988 11.0595 4.51538C11.0798 4.49638 11.0299 4.44934 10.9692 4.47034C10.8628 4.44634 10.985 4.47037 10.8788 4.38037C10.8621 4.34237 10.8638 4.29041 10.8337 4.29041C10.7786 4.29061 10.7549 4.33333 10.7434 4.33533C10.7268 4.28933 10.7085 4.27341 10.6982 4.29041C10.7028 4.23441 10.6627 4.18486 10.5176 4.24536C10.4418 4.26536 10.4663 4.40303 10.4272 4.33533C10.3875 4.30333 10.359 4.30833 10.3369 4.33533C10.3149 4.36333 10.3113 4.40629 10.3369 4.42529C10.2531 4.44229 10.2903 4.39033 10.3369 4.33533C10.4068 4.25133 10.4811 4.15229 10.3821 4.15479C10.3618 4.15519 10.3331 4.14079 10.2918 4.15479L10.2918 4.15344ZM7.76292 4.24341C7.72124 4.25941 7.62406 4.3045 7.53713 4.3335C7.45265 4.3535 7.35967 4.3475 7.40165 4.3335C7.36723 4.3195 7.1764 4.43745 7.08554 4.28845C6.93079 4.30245 6.85556 4.28845 6.76943 4.28845C6.75771 4.28845 6.73595 4.28845 6.72427 4.28845C6.20618 4.56285 5.73532 4.91615 5.32436 5.32715C5.2729 5.37515 5.23124 5.45001 5.18888 5.50781C5.12837 5.59181 5.11726 5.6524 5.18888 5.5979C5.10867 5.6859 5.08213 5.85714 5.23404 5.73364C5.10627 5.92844 4.90922 6.09407 4.78246 6.23047C4.98957 6.06157 5.17312 5.8718 5.36952 5.6886C5.38527 5.6046 5.50362 5.55563 5.59531 5.50793C5.50407 5.59193 5.41512 5.7311 5.50499 5.6438C5.59319 5.6088 5.71754 5.47699 5.77594 5.41809C5.77484 5.41809 5.82026 5.41809 5.8211 5.41809C5.83509 5.41769 5.84281 5.41801 5.8211 5.46301C5.86359 5.47701 6.0064 5.5401 6.04689 5.5531C6.09251 5.5301 6.19477 5.63804 6.18237 5.68884C6.19477 5.67484 6.21481 5.66688 6.22753 5.59888C6.23743 5.55988 6.19612 5.80454 6.22753 5.77954C6.21478 5.80854 6.19223 5.84051 6.18237 5.86951L6.13721 5.91455C6.12911 5.93355 6.13081 5.95359 6.13721 5.95959L6.18237 5.91455C6.17897 5.92855 6.18087 5.94959 6.18237 5.95959C6.17737 5.96009 6.15848 6.01852 6.18237 6.00452C6.18697 6.00452 6.22001 6.00412 6.22753 6.00452C6.201 6.03152 6.21115 6.04056 6.22753 6.04956C6.24241 6.06356 6.22758 6.09053 6.18237 6.13953C6.16783 6.15353 6.20608 6.16457 6.18237 6.18457C6.15351 6.27957 6.19579 6.32043 6.22753 6.32043C6.20955 6.39943 6.20886 6.4784 6.22753 6.5011C6.18603 6.5601 6.15084 6.64266 6.18237 6.59106C6.25615 6.57706 6.18347 6.71671 6.13721 6.77161C6.16555 6.75761 6.21395 6.74564 6.31784 6.68164C6.30964 6.70664 6.44166 6.76361 6.363 6.81751C6.39563 6.86851 6.39195 6.94617 6.363 6.99817C6.34392 7.03117 6.3206 7.03609 6.31784 7.04309C6.26735 6.81869 6.13572 7.4032 6.13721 7.2688C6.0444 7.4859 5.95313 7.6698 5.91142 7.901C5.83003 8.0749 5.89066 8.3721 5.95658 8.3075C5.99659 8.4604 5.97366 8.67789 6.13721 8.71399C6.29253 8.86599 6.24538 9.14503 6.40816 9.30103C6.42864 9.42103 6.27939 9.49416 6.45332 9.52686C6.56653 9.77696 6.58644 9.93776 6.72427 9.88806C6.63258 9.78256 6.46796 9.36978 6.49848 9.39148C6.41917 9.26278 6.32486 8.90875 6.49848 9.03015C6.57081 9.18225 6.63139 9.39316 6.76943 9.52686C6.77373 9.68316 6.99499 9.83533 7.04038 10.0687C7.00256 10.2259 7.06567 10.3379 7.22102 10.4299C7.43938 10.4909 7.65713 10.7213 7.8984 10.6106C8.05475 10.5836 8.18756 10.917 8.39514 10.8816C8.62414 10.9046 8.61577 10.9626 8.75641 11.1526C8.74485 11.3354 8.86859 11.1045 8.89188 11.3331C8.96397 11.3191 9.19935 11.3951 9.25315 11.4231C9.26115 11.2347 9.52257 11.2945 9.47895 11.4681C9.55365 11.6255 9.54136 11.8393 9.38863 11.9648C9.28744 12.0048 9.18802 12.1994 9.16283 12.281C9.39071 12.257 9.29394 12.6094 9.20799 12.6422C9.4137 12.7593 9.48407 13.0133 9.61442 13.1842C9.70063 13.3699 10.003 13.3698 10.1112 13.5454C10.1393 13.7457 10.0973 13.8955 10.1112 14.0874C10.0243 14.2375 10.1289 14.4079 10.066 14.5389C9.99128 14.6574 9.95064 14.8892 10.1112 14.9001C10.1028 14.9391 10.0385 14.9921 10.0208 15.036C10.0152 15.05 10.0208 15.0731 10.0208 15.0811C9.90845 15.0811 9.93586 15.1031 9.97568 15.1261L10.0208 15.171C10.0341 15.1715 10.0498 15.185 10.066 15.171C10.08 15.185 10.056 15.2091 10.066 15.2161C10.2021 15.2021 10.3393 15.194 10.4724 15.171C10.2901 15.145 10.7101 15.0295 10.4724 14.9904C10.5711 14.9644 10.5498 14.8993 10.6531 14.8545C10.6615 14.8125 10.8492 14.6318 11.0143 14.6289C11.4255 14.5579 10.8107 14.2936 11.195 14.403C11.3119 14.468 11.4882 14.2642 11.5562 14.1772C11.4968 14.3357 11.838 13.8308 11.8272 13.8159C11.9799 13.7018 12.4367 13.5455 12.2788 13.545C12.4862 13.4005 12.5604 13.1196 12.5949 12.8676C12.7696 12.7218 12.8908 12.4399 12.911 12.3708C12.8753 12.2466 12.4066 12.1336 12.5497 12.145C12.4522 12.099 12.3161 12.077 12.2788 12.145C12.2694 12.054 11.9743 12.0251 12.053 12.0551C12.003 12.0911 11.9854 12.0741 11.9627 12.1001C11.8822 12.1911 11.9244 12.2402 11.8272 12.145C11.9031 12.131 11.9437 12.1231 11.9627 12.1001C11.9911 12.0651 11.9638 12.016 11.9175 12.01C11.9098 12.0106 11.8763 12.01 11.8723 12.01C11.8667 12.01 11.8294 12.01 11.8272 12.01C11.7967 12.024 11.766 12.0611 11.7369 12.1001C11.6523 12.0751 11.6771 11.6964 11.8272 11.7838C11.7851 11.6194 11.6465 11.538 11.4659 11.5129C11.239 11.5659 11.1981 11.4249 11.0595 11.2871C10.9348 11.3161 10.833 11.1131 10.8337 11.1066C10.6628 11.2265 10.2316 11.0925 10.1563 11.0615C10.0859 11.0615 10.0431 11.1126 10.066 11.2422C9.85961 11.3232 10.1745 10.9024 9.97567 11.0165C9.84671 11.1785 9.69525 11.0365 9.65956 11.2422C9.52578 11.4424 9.56171 11.3242 9.34345 11.2422C9.09181 11.3795 8.89061 11.2191 8.93703 11.0615C8.99125 10.9271 8.92677 10.7161 8.93703 10.7002C8.87609 10.6862 8.74169 10.6133 8.57576 10.6553C8.3293 10.7353 8.6434 10.5035 8.57576 10.4294C8.55957 10.3544 8.45486 10.1162 8.62092 10.1134C8.37331 10.0744 8.35647 10.2879 8.25965 10.4294C8.17335 10.3554 7.95669 10.5045 7.85322 10.3395C7.67377 10.1721 7.68965 9.91328 7.7629 9.70728C7.8316 9.62828 7.7588 9.35935 7.94354 9.34595C8.11603 9.24895 8.06193 9.21878 8.3048 9.25598C8.35979 9.26998 8.43105 9.15478 8.5306 9.25598C8.54 9.11118 8.96993 9.17089 8.84671 9.16589C8.93258 9.27569 9.0935 9.17995 9.11766 9.39185C9.10422 9.46685 9.2598 9.63449 9.29829 9.70789C9.46828 9.49759 9.11128 9.16365 9.38861 8.98535C9.54807 8.87835 9.8173 8.68639 9.79504 8.66919C9.80805 8.66919 9.82104 8.62727 9.8402 8.62427C9.82676 8.61027 9.82994 8.59422 9.79504 8.57922C9.88023 8.51522 9.80952 8.34385 9.79504 8.30835C9.80054 8.30835 9.8962 8.11319 9.88536 8.35339C9.91997 8.59979 9.95295 8.25071 9.97568 8.17261C10.0209 8.14261 10.0579 8.09867 10.1112 8.03687C10.1189 8.02287 10.1437 8.03687 10.1563 8.03687C10.2014 7.99387 10.2584 7.9285 10.337 7.9469C10.5039 7.9329 10.4111 7.93284 10.4273 7.76624C10.5406 7.63324 10.686 7.58947 10.7434 7.58557C10.6973 7.51357 10.8997 7.57153 10.9692 7.54053C10.8932 7.57953 10.7456 7.71608 10.924 7.76648C10.9577 7.62488 11.2675 7.62623 11.2401 7.54053C11.2362 7.52653 11.2154 7.55953 11.195 7.54053C10.9841 7.63153 10.865 7.33032 10.924 7.31482C10.7118 7.26882 11.3085 7.18338 10.924 7.13428C10.6063 7.22528 10.3264 7.48618 10.6982 7.13428C10.8757 7.07928 10.8945 6.91281 11.1046 6.99841C11.2407 7.01841 11.4519 7.11409 11.5562 6.95349C11.6606 6.98249 11.7896 6.87141 11.7369 6.81751C11.7958 6.73751 11.7077 6.65186 11.6917 6.68176C11.6812 6.60776 11.5761 6.64676 11.5111 6.68176C11.5164 6.66776 11.4925 6.65672 11.5111 6.63672C11.5612 6.60672 11.7593 6.59175 11.5562 6.50085C11.49 6.52585 11.399 6.44881 11.4659 6.45581C11.3333 6.37181 11.3936 6.1657 11.3756 6.2301C11.4232 6.1611 11.4569 6.04254 11.3756 6.09424C11.2595 6.11024 11.3804 6.0253 11.2853 5.9137C11.2827 5.8837 11.2457 5.87765 11.2401 5.86865C11.214 5.91465 11.149 5.98852 11.1498 5.95862C11.1459 6.02962 10.9753 6.06851 10.9692 6.04871C10.8964 6.07871 11.0036 5.97762 10.8337 5.95862C10.8189 5.93262 10.8161 5.85315 10.7885 5.82275C10.9452 5.88775 10.9951 5.67139 10.8337 5.68689C10.7793 5.64489 10.4758 5.54673 10.6079 5.50623C10.4072 5.39933 10.3607 5.49219 10.2918 5.64209C10.3542 5.64209 10.2234 5.76495 10.2918 5.77795C10.1974 5.90945 10.2696 6.17679 10.2918 6.22949C10.2866 6.33359 10.0519 6.5905 9.97567 6.4552C9.93475 6.5593 9.87212 6.8165 9.93051 6.7262C9.96229 6.8447 9.84418 6.75624 9.79503 6.77124C9.67535 6.67124 9.68577 6.55305 9.74987 6.36475C9.71509 6.19435 9.526 6.33574 9.43376 6.13904C9.35938 6.04204 9.15517 5.95217 9.07249 5.95837C9.11989 5.67847 8.88367 5.93134 8.98217 5.73254C9.02002 5.57864 9.14876 5.44682 9.25313 5.37122C9.32976 5.31622 9.39039 5.35727 9.34345 5.23547C9.5263 5.41127 9.42916 5.21243 9.43377 5.19043C9.60233 5.28743 9.5633 5.10043 9.70472 5.19043C9.77288 5.17643 9.82032 5.16351 9.84019 5.14551C9.87535 5.11251 9.83699 5.04742 9.79503 5.00952C9.97345 5.10152 9.99192 4.79076 10.1111 4.91956C10.1162 4.91956 10.1381 4.87756 10.1563 4.91956C10.3301 4.94856 10.2986 4.63799 10.3369 4.73889C10.3518 4.73889 10.3305 4.69597 10.3369 4.69397C10.3012 4.66197 10.2663 4.629 10.2466 4.604C10.1827 4.655 10.0762 4.73255 10.0208 4.78455C9.98637 4.80155 9.96682 4.84259 9.97566 4.82959C9.89261 4.81559 10.053 4.47108 9.88534 4.60388C9.84617 4.63588 9.81699 4.6488 9.79502 4.6488C9.78462 4.6138 9.78602 4.53616 9.84018 4.51306C9.72034 4.45406 9.94245 4.45201 9.84018 4.28711C9.77314 4.21911 9.62831 4.4501 9.65955 4.3772C9.45544 4.4492 9.87653 4.52814 9.61439 4.55774C9.80046 4.59274 9.50192 4.8462 9.47891 4.7384C9.3827 4.8304 9.55996 4.52064 9.47891 4.60254C9.45259 4.60254 9.37933 4.60254 9.34344 4.60254C9.34224 4.60254 9.31517 4.62258 9.34344 4.64758C9.34894 4.68558 9.01305 4.61054 8.93701 4.60254C8.88327 4.55054 8.86977 4.50957 8.80154 4.51257C8.67733 4.51257 8.65087 4.66214 8.6209 4.69324C8.50939 4.81464 8.48317 4.59627 8.57574 4.60327C8.44113 4.58027 8.35014 4.54231 8.30479 4.51331C8.30149 4.49631 8.28271 4.43822 8.25963 4.42322C8.14504 4.27192 8.03018 4.17958 7.94352 4.28748C7.78417 4.44958 7.85439 4.23843 7.80805 4.24243C7.79955 4.24293 7.78393 4.22441 7.76292 4.24341ZM9.47895 4.60474H9.52411C9.61262 4.62674 9.54108 4.42567 9.47895 4.42407C9.46884 4.42387 9.44397 4.45899 9.43379 4.46899C9.32015 4.51999 9.27282 4.49208 9.43379 4.55908L9.47895 4.60474ZM9.84022 5.14661C9.83232 5.16061 9.82852 5.21865 9.84022 5.19165C9.84502 5.22665 9.92097 5.30282 9.93053 5.28162C10.0848 5.08662 10.0952 5.32762 10.2466 5.28162C10.2125 5.24162 10.0194 5.02062 10.0209 5.01062C9.96299 5.01032 9.86393 5.11621 9.84022 5.14661ZM11.2401 7.54053C11.2417 7.55453 11.253 7.53992 11.2853 7.53992C11.3149 7.49192 11.3889 7.55398 11.3304 7.40418C11.3266 7.41817 11.2353 7.50273 11.2401 7.54053ZM6.13721 6.77161C6.1594 6.81761 6.14893 6.8864 6.13721 6.8623C6.20077 6.8953 6.22378 6.98809 6.31785 6.95239C6.34621 6.87139 6.20497 6.82511 6.13721 6.77161ZM10.7885 4.83044C10.7278 4.83034 10.5569 4.92441 10.7434 4.92041C10.8097 4.85541 10.8182 4.83044 10.7885 4.83044ZM12.0981 4.92041C12.0444 4.92021 12.0299 5.06067 12.1885 5.05627C12.1474 4.96627 12.1244 4.92041 12.0981 4.92041ZM13.6335 5.8689C13.6539 5.8849 13.6614 5.94286 13.6787 5.95886C13.6486 5.91786 13.6527 5.8679 13.6335 5.8689ZM13.6787 5.95886C13.7585 6.02686 13.6415 6.0787 13.8142 6.1394L13.8593 6.18445C13.9638 6.19845 13.9099 6.00214 13.9045 5.95874C13.8157 5.94474 13.727 6.02974 13.7239 5.95874C13.7126 5.93974 13.6887 5.97286 13.6787 5.95886ZM10.066 6.1394C10.036 6.1394 9.95579 6.25799 10.066 6.22949C10.1009 6.18949 10.0787 6.1384 10.066 6.1394ZM9.7499 6.5459C9.70341 6.5463 9.7077 6.61082 9.84022 6.59082C9.8246 6.55582 9.76953 6.5459 9.7499 6.5459ZM14.6722 6.86206C14.695 6.92706 14.71 6.97907 14.7625 7.08777C14.778 7.08777 14.7875 7.11369 14.8077 7.13269C14.7671 7.04069 14.7173 6.95236 14.6722 6.86206ZM14.4915 6.9071C14.4889 6.9951 14.5317 7.16169 14.5819 7.26819C14.5901 7.28519 14.5745 7.29823 14.5819 7.31323C14.5774 7.31383 14.5681 7.36228 14.5819 7.35828C14.5849 7.35828 14.6245 7.35828 14.627 7.35828C14.5835 7.50538 14.6835 7.52951 14.627 7.58411C14.8283 7.62611 14.7123 7.34964 14.6722 7.26794C14.6212 7.10104 14.5049 6.9573 14.4915 6.9071ZM11.1047 7.04285C11.0498 7.04295 11.0706 7.12379 11.2853 7.17859C11.23 7.09659 11.1447 7.04285 11.1047 7.04285ZM11.6466 7.04285C11.5995 7.12285 11.5485 7.21039 11.4659 7.22339C11.4093 7.29739 11.569 7.40448 11.7369 7.35938C11.7356 7.40138 11.6734 7.4763 11.8272 7.4043C11.8432 7.3663 11.8213 7.35838 11.8272 7.35938L11.8724 7.4043C11.8779 7.4443 11.8839 7.50138 11.9175 7.49439C12.039 7.37589 11.8761 7.4003 11.8724 7.3584C11.8711 7.3444 11.8736 7.30343 11.9175 7.26843C11.7717 7.34943 11.7064 7.20947 11.8272 7.17847C11.6369 7.16247 11.8044 7.1485 11.7369 7.0885C11.6336 7.1505 11.6212 7.10185 11.6466 7.04285ZM14.4464 7.13281C14.4317 7.13371 14.4114 7.14686 14.4012 7.17786C14.3895 7.23586 14.425 7.46311 14.4464 7.40381C14.4613 7.41781 14.4603 7.46573 14.4915 7.44873C14.6331 7.42673 14.5171 7.12831 14.4464 7.13281ZM14.8528 7.26868C14.8697 7.41028 14.8508 7.59001 14.8528 7.63001C14.796 7.70701 14.7079 7.74985 14.6722 7.76575C14.7456 7.84575 14.6559 8.09222 14.7173 8.17212C14.5946 8.15612 14.5768 8.4044 14.5819 8.4884C14.5673 8.7222 14.7319 8.80882 14.7625 8.80432C14.9278 8.80432 14.9568 8.31379 14.9431 8.44299C14.9648 8.21669 15.1205 8.15749 15.1689 8.44299C15.0974 8.02969 15.0063 7.64748 14.8528 7.26868ZM14.8528 8.80408C14.779 8.82308 14.744 8.86004 14.8077 8.89404C14.6526 8.87204 14.538 9.57781 14.5367 9.43591C14.3618 9.59601 14.2628 9.83552 14.2206 10.0681C14.3131 10.2609 14.2706 10.832 14.2206 10.7456C14.2613 10.8626 14.3631 11.1561 14.3561 11.0166C14.4085 11.1756 14.5764 11.3294 14.7173 11.1525C14.914 10.9926 15.0869 10.9545 14.9431 11.2882C15.1439 10.6975 15.3044 10.0952 15.3044 9.43665C15.3044 9.37365 15.2612 9.3182 15.2592 9.2561C15.1327 9.113 14.9058 8.81584 15.0786 8.80444C15.0108 8.78444 14.9266 8.78508 14.8528 8.80408ZM9.11768 9.93311C9.04619 9.93251 9.00846 9.9761 8.93704 10.0221C8.8969 10.0711 8.95797 10.0771 9.02736 10.0671H9.07252C9.11999 10.0531 9.16119 10.0311 9.16284 10.0221C9.17184 10.0361 9.77682 10.2793 9.52411 10.2029C9.5522 10.2229 9.57366 10.2348 9.56927 10.2478C9.57457 10.2618 9.60528 10.2968 9.74991 10.2928C9.9582 10.2278 9.55954 10.1063 9.56927 10.1122C9.5497 10.0982 9.54423 10.0771 9.52411 10.0671C9.49857 10.0291 9.49253 10.0221 9.47895 10.0221C9.37303 9.9691 9.23091 9.93311 9.11768 9.93311ZM3.9696 10.0221C3.94975 10.0221 3.91813 10.0782 3.9696 10.1122C3.9881 10.0492 3.98318 10.0211 3.9696 10.0221ZM9.97569 10.2479C9.9436 10.2484 9.9207 10.281 9.93053 10.293C9.95351 10.309 9.92053 10.3259 9.93053 10.3379C9.92113 10.3377 9.91157 10.3969 9.93053 10.3829C9.90939 10.3829 9.90261 10.426 9.88537 10.428C10.0076 10.361 9.99632 10.5059 10.066 10.4729C10.0946 10.3779 10.4411 10.4409 10.337 10.337C10.3151 10.286 10.072 10.2459 9.97569 10.2479ZM10.5628 10.3838C10.5044 10.3838 10.3757 10.5009 10.5628 10.4738C10.5806 10.4348 10.5874 10.3828 10.5628 10.3838ZM9.47895 10.4287C9.48865 10.4427 9.49807 10.4608 9.52411 10.4738H9.56927C9.7418 10.4578 9.55525 10.4277 9.47895 10.4287ZM8.25967 12.0544C8.24337 12.0544 8.25857 12.1729 8.30483 12.1444C8.29703 12.0834 8.26681 12.0544 8.25967 12.0544Z" fill="url(#paint2_linear_335_362)"/>
<path d="M9.44582 15.5564C12.8234 15.5564 15.5615 12.8183 15.5615 9.44071C15.5615 6.06314 12.8234 3.32507 9.44582 3.32507C6.06825 3.32507 3.33018 6.06314 3.33018 9.44071C3.33018 12.8183 6.06825 15.5564 9.44582 15.5564Z" stroke="url(#paint3_linear_335_362)" stroke-width="0.755995"/>
<path opacity="0.17" d="M9.44581 15.2855C12.6739 15.2855 15.2908 12.6687 15.2908 9.44056C15.2908 6.21247 12.6739 3.59558 9.44581 3.59558C6.21772 3.59558 3.60083 6.21247 3.60083 9.44056C3.60083 12.6687 6.21772 15.2855 9.44581 15.2855Z" fill="url(#paint4_radial_335_362)"/>
<defs>
<radialGradient id="paint0_radial_335_362" cx="0" cy="0" r="1" gradientUnits="userSpaceOnUse" gradientTransform="translate(7.3281 7.35758) rotate(-16.9525) scale(9.0941 8.08022)">
<stop stop-color="#6FD9FF"/>
<stop offset="0.5" stop-color="#55ADD0"/>
<stop offset="1" stop-color="#4364A7"/>
</radialGradient>
<linearGradient id="paint1_linear_335_362" x1="6.36847" y1="5.02676" x2="13.133" y2="12.8182" gradientUnits="userSpaceOnUse">
<stop stop-color="#FFFCF2"/>
<stop offset="0.35072" stop-color="#ADC977"/>
<stop offset="0.71202" stop-color="#7F9F3F"/>
<stop offset="1" stop-color="#77775C"/>
</linearGradient>
<linearGradient id="paint2_linear_335_362" x1="6.36847" y1="4.77676" x2="13.133" y2="12.5682" gradientUnits="userSpaceOnUse">
<stop stop-color="#FFFCF2"/>
<stop offset="0.35072" stop-color="#ADC977"/>
<stop offset="0.71202" stop-color="#7F9F3F"/>
<stop offset="1" stop-color="#77775C"/>
</linearGradient>
<linearGradient id="paint3_linear_335_362" x1="15.1291" y1="13.264" x2="6.09383" y2="4.22867" gradientUnits="userSpaceOnUse">
<stop stop-color="#4F4D70"/>
<stop offset="1" stop-color="#4FA8CA"/>
</linearGradient>
<radialGradient id="paint4_radial_335_362" cx="0" cy="0" r="1" gradientUnits="userSpaceOnUse" gradientTransform="translate(7.18788 6.14399) rotate(-32.326) scale(5.49542 4.2861)">
<stop stop-color="white"/>
<stop offset="1" stop-color="white" stop-opacity="0"/>
</radialGradient>
</defs>
</svg>
