<svg width="19" height="19" viewBox="0 0 19 19" fill="none" xmlns="http://www.w3.org/2000/svg">
<path d="M4.96335 2.52417H12.465L15.527 5.53076V16.1412H4.96335V2.52417Z" fill="url(#paint0_linear_335_366)"/>
<path d="M11.9346 3.13782V7.04907H15.9121L11.9346 3.13782Z" fill="url(#paint1_linear_335_366)"/>
<path d="M5.479 3.48499H12.465L15.527 6.49158V16.516H5.479V3.48499Z" stroke="url(#paint2_linear_335_366)"/>
<path d="M10.5268 10.482C10.5268 11.0132 10.4222 11.5392 10.2189 12.0299C10.0157 12.5206 9.71774 12.9665 9.34214 13.3421C8.96655 13.7177 8.52066 14.0157 8.02993 14.2189C7.5392 14.4222 7.01323 14.5268 6.48207 14.5268C5.9509 14.5268 5.42494 14.4222 4.9342 14.2189C4.44347 14.0157 3.99758 13.7177 3.62199 13.3421C3.2464 12.9665 2.94846 12.5206 2.74519 12.0299C2.54192 11.5392 2.4373 11.0132 2.4373 10.482C2.4373 9.95088 2.54192 9.42492 2.74519 8.93419C2.94846 8.44345 3.2464 7.99756 3.62199 7.62197C3.99758 7.24638 4.44347 6.94844 4.9342 6.74518C5.42494 6.54191 5.9509 6.43729 6.48207 6.43729C7.5548 6.43729 8.5836 6.86343 9.34214 7.62197C10.1007 8.38051 10.5268 9.40931 10.5268 10.482Z" fill="url(#paint3_radial_335_366)"/>
<path d="M6.91123 6.48081C6.85339 6.48067 6.80973 6.49768 6.91123 6.51206C6.98171 6.52163 6.87097 6.55376 6.97373 6.54331C7.02576 6.49854 6.96226 6.48092 6.91123 6.48081ZM5.66123 6.51206C5.60528 6.52351 5.56007 6.56082 5.50498 6.57456C5.62069 6.54547 5.72931 6.53093 5.84873 6.51206C5.78738 6.52169 5.72164 6.49969 5.66123 6.51206ZM6.16123 6.51206C6.09145 6.52544 6.07433 6.53762 6.16123 6.54331C6.22058 6.51589 6.22324 6.51013 6.25498 6.51206C6.2202 6.51654 6.19054 6.50644 6.16123 6.51206ZM7.28623 6.51206C7.27993 6.51153 7.26073 6.54374 7.25498 6.54331C7.24387 6.5644 7.16548 6.57703 7.28623 6.57456C7.28953 6.58778 7.29613 6.62026 7.31748 6.60581C7.32548 6.59317 7.3312 6.55279 7.34873 6.54331C7.3267 6.53841 7.30839 6.51659 7.28623 6.51206ZM6.50498 6.54331C6.48826 6.54366 6.48133 6.57878 6.47373 6.60581C6.40687 6.56028 6.26797 6.56828 6.22373 6.57456C6.18531 6.59327 6.18913 6.61272 6.31748 6.60581C6.38942 6.60429 6.30713 6.62777 6.25498 6.63706C6.27056 6.63844 6.26725 6.63776 6.31748 6.63706C6.38587 6.63633 6.74781 6.59914 6.53623 6.57456C6.55251 6.54639 6.51787 6.54394 6.50498 6.54331ZM7.00498 6.54331C6.99718 6.55323 7.02009 6.57651 7.09873 6.57456C7.12048 6.54551 7.1241 6.54297 7.09873 6.54331C7.07276 6.54364 7.01281 6.53339 7.00498 6.54331ZM6.69248 6.57456C6.68209 6.57496 6.69254 6.60148 6.69248 6.60581H6.72373L6.69248 6.57456ZM6.72373 6.60581C6.69168 6.61137 6.6935 6.62834 6.78623 6.63706C6.76385 6.64099 6.70052 6.67959 6.81748 6.66831C6.90922 6.6402 6.93939 6.57357 6.84873 6.57456C6.83933 6.57466 6.82947 6.60442 6.81748 6.60581C6.82905 6.61766 6.75578 6.60025 6.72373 6.60581ZM7.50498 6.57456C7.49538 6.58675 7.47811 6.59336 7.47373 6.60581C7.46753 6.62397 7.48083 6.65911 7.47373 6.66831C7.46873 6.67139 7.45192 6.67115 7.44248 6.66831C7.40484 6.66813 7.33032 6.67702 7.31748 6.66831C7.21107 6.66103 7.26545 6.68517 7.28623 6.69956C7.38191 6.70775 7.49183 6.75421 7.50498 6.76206C7.59958 6.76919 7.53032 6.65252 7.69248 6.69956C7.68838 6.68256 7.69322 6.67224 7.72373 6.66831C7.65098 6.64463 7.57948 6.59415 7.50498 6.57456ZM7.00498 6.60581C7.01577 6.61147 7.00638 6.62884 7.03623 6.63706C7.08127 6.61091 7.04103 6.60612 7.00498 6.60581ZM5.87998 6.63706C5.70467 6.7161 5.58506 6.76279 5.59873 6.82456C5.72331 6.81127 5.8557 6.70585 6.00498 6.69956C6.15993 6.64762 5.9685 6.64065 5.87998 6.63706ZM6.87998 6.66831C6.85168 6.67922 6.86802 6.71942 6.94248 6.73081C6.963 6.69372 6.93618 6.66805 6.91123 6.66831C6.90082 6.66841 6.88941 6.66467 6.87998 6.66831ZM6.41123 6.69956C6.38022 6.69958 6.37199 6.72477 6.41123 6.76206C6.53058 6.73966 6.45656 6.69951 6.41123 6.69956ZM6.62998 6.73081C6.5346 6.75682 6.66408 6.74764 6.56748 6.79331C6.42391 6.74622 6.54559 6.90799 6.56748 6.91831C6.597 6.91681 6.65814 6.8574 6.69248 6.82456C6.66739 6.80667 6.70332 6.77598 6.72373 6.76206C6.724 6.75677 6.71633 6.73396 6.69248 6.73081C6.67892 6.72969 6.65054 6.73145 6.62998 6.73081ZM7.81748 6.73081C7.81468 6.73477 7.80402 6.75114 7.81748 6.76206C7.87158 6.78472 7.83483 6.78556 7.84873 6.79331C7.87365 6.84237 8.06579 6.90745 7.97373 6.88706C8.06762 6.90608 8.26175 7.12054 8.22373 7.04331C8.25254 7.09096 8.30092 7.26789 8.28623 7.19956C8.29343 7.20422 8.35103 7.24233 8.34873 7.26206C8.39927 7.27377 8.41234 7.30758 8.41123 7.32456C8.42083 7.32837 8.43857 7.36602 8.41123 7.35581H8.37998C8.38458 7.35777 8.37578 7.38543 8.37998 7.38706C8.46552 7.41803 8.38388 7.47571 8.41123 7.48081C8.38012 7.48107 8.37939 7.50579 8.37998 7.51206C8.38538 7.51551 8.37598 7.54069 8.37998 7.54331C8.39374 7.54821 8.35885 7.57554 8.44248 7.57456C8.42675 7.57397 8.37172 7.58063 8.34873 7.57456C8.35633 7.57905 8.35333 7.59329 8.37998 7.60581C8.34065 7.61169 8.31916 7.65333 8.31748 7.66831C8.42552 7.63149 8.38312 7.68326 8.34873 7.69956C8.38235 7.70289 8.4103 7.71229 8.41123 7.73081C8.42159 7.72851 8.43798 7.75412 8.41123 7.76206C8.40973 7.76694 8.41403 7.7894 8.41123 7.79331C8.41623 7.79642 8.40803 7.8213 8.41123 7.82456C8.3507 7.84581 8.38726 7.89631 8.41123 7.91831C8.40983 7.91885 8.44057 7.9241 8.44248 7.91831C8.43668 7.98066 8.47373 8.07113 8.47373 8.04331C8.53512 8.10123 8.59562 8.12451 8.59873 8.10581C8.6192 8.10327 8.69633 8.15514 8.69248 8.16831C8.72372 8.17789 8.74399 8.17334 8.72373 8.13706C8.72663 8.12339 8.71703 8.0995 8.72373 8.07456C8.73253 8.04142 8.73485 8.02871 8.72373 8.04331C8.69436 8.01737 8.78315 7.99143 8.75498 7.98081C8.7827 7.95374 8.77053 7.76765 8.78623 7.85581C8.87251 7.82439 8.90209 7.88467 8.91123 7.82456C8.91148 7.8724 8.95533 7.83132 8.97373 7.82456C8.97813 7.82632 9.00185 7.82711 9.00498 7.82456C9.02882 7.80514 8.99469 7.69667 9.03623 7.73081C9.08734 7.8113 9.26694 7.81351 9.31748 7.76206C9.27126 7.73854 9.24789 7.71272 9.22373 7.69956C9.18492 7.68575 9.17172 7.64531 9.16123 7.63706C9.17154 7.63609 9.18465 7.6568 9.22373 7.66831C9.24017 7.6832 9.24523 7.66062 9.25498 7.66831C9.22497 7.62748 9.19689 7.56865 9.19248 7.57456C9.15923 7.5439 9.15183 7.53746 9.16123 7.54331C9.10953 7.50732 9.15643 7.49415 9.22373 7.54331C8.87522 7.22054 8.48189 6.94682 8.03623 6.76206C8.00947 6.76207 7.87292 6.73458 7.81748 6.73081ZM6.00498 6.76206C5.96481 6.78577 5.93359 6.80766 5.87998 6.82456C5.93718 6.82936 5.57825 6.9065 5.91123 6.88706C5.86743 6.9119 5.53717 6.9277 5.78623 7.01206C5.69748 7.15316 6.19236 6.96505 6.06748 7.01206C6.11025 7.0003 6.13545 7.07512 6.22373 7.07456C6.33619 7.05313 6.31338 6.99 6.28623 6.98081C6.30851 6.96679 6.33392 6.94827 6.34873 6.94956C6.31285 6.90901 6.29065 6.88985 6.34873 6.82456C6.30755 6.85222 6.21436 6.88543 6.22373 6.82456C6.22943 6.78355 6.23602 6.70427 6.19248 6.76206C6.12883 6.77951 6.07027 6.77144 6.03623 6.76206C6.02903 6.76515 6.00597 6.75881 6.00498 6.76206ZM7.06748 6.82456C6.99286 6.84732 6.82899 6.97791 7.00498 7.01206C6.97484 7.00587 6.95526 7.01145 6.94248 7.01206C6.97305 7.03769 7.02009 7.08618 7.00498 7.07456C7.03737 7.07959 7.10708 7.09651 7.16123 7.10581C7.23411 7.11849 7.29509 7.1283 7.25498 7.13706C7.34508 7.17743 7.29496 7.00613 7.34873 7.16831C7.43736 7.18276 7.53915 7.2468 7.44248 7.26206C7.43768 7.26224 7.43164 7.31775 7.44248 7.29331C7.4703 7.33581 7.54663 7.4026 7.53623 7.35581C7.59377 7.40118 7.45973 7.46442 7.41123 7.48081C7.42348 7.5215 7.38435 7.55795 7.34873 7.57456C7.39208 7.56441 7.51928 7.74493 7.47373 7.69956C7.45389 7.70543 7.45782 7.71459 7.47373 7.73081C7.46693 7.73186 7.48885 7.77296 7.50498 7.76206C7.5724 7.80734 7.67501 7.84899 7.69248 7.85581C7.69938 7.83064 7.66182 7.76883 7.62998 7.73081C7.63818 7.73438 7.64653 7.72261 7.66123 7.73081C7.69422 7.73853 7.76296 7.75005 7.75498 7.79331C7.78383 7.76792 7.75158 7.66831 7.75498 7.66831C7.67533 7.55678 7.67985 7.6002 7.66123 7.51206C7.64247 7.49575 7.7772 7.50482 7.75498 7.51206C7.76915 7.53442 7.78294 7.55532 7.78623 7.57456C7.77533 7.56958 7.88315 7.52769 7.87998 7.60581C7.90515 7.5896 7.90393 7.5636 7.91123 7.54331C8.02798 7.54072 7.87394 7.50748 7.91123 7.51206C7.92093 7.4418 7.82929 7.47503 7.84873 7.41831C7.81775 7.3831 7.75819 7.33872 7.78623 7.38706C7.7741 7.38798 7.73774 7.34671 7.72373 7.32456C7.72913 7.31044 7.72253 7.28409 7.81748 7.29331C7.779 7.28182 7.75945 7.271 7.75498 7.26206C7.76742 7.25075 7.77718 7.22445 7.69248 7.23081C7.67179 7.20986 7.7052 7.20494 7.72373 7.19956C7.72331 7.19228 7.71563 7.18583 7.69248 7.16831C7.61695 7.20146 7.68568 7.15591 7.66123 7.13706C7.64632 7.14273 7.62896 7.14255 7.62998 7.13706C7.69491 7.10673 7.64187 7.06405 7.59873 7.07456C7.61279 7.06177 7.57826 7.02841 7.53623 7.04331C7.46263 7.02655 7.5472 7.04078 7.47373 6.98081C7.46213 6.95489 7.46334 6.91827 7.44248 6.91831C7.40437 6.91836 7.38794 6.94855 7.37998 6.94956C7.36854 6.91799 7.35583 6.90628 7.34873 6.91831C7.35193 6.87952 7.32418 6.84476 7.22373 6.88706C7.17128 6.90057 7.18825 6.99621 7.16123 6.94956C7.13376 6.92723 7.11399 6.93104 7.09873 6.94956C7.08347 6.96807 7.081 6.99808 7.09873 7.01206C7.0407 7.02381 7.0665 6.98825 7.09873 6.94956C7.14708 6.89151 7.1985 6.82287 7.12998 6.82456C7.11595 6.8249 7.09609 6.81647 7.06748 6.82456ZM5.31748 6.88706C5.28864 6.89831 5.22139 6.9291 5.16123 6.94956C5.10277 6.96388 5.03843 6.95897 5.06748 6.94956C5.04366 6.94396 4.91161 7.02148 4.84873 6.91831C4.74165 6.9281 4.68959 6.91543 4.62998 6.91831C4.62187 6.92254 4.60682 6.91403 4.59873 6.91831C4.24021 7.10822 3.91438 7.35266 3.62998 7.63706C3.59438 7.67048 3.56555 7.72165 3.53623 7.76206C3.49436 7.81977 3.48667 7.86201 3.53623 7.82456C3.48073 7.88587 3.46236 8.00412 3.56748 7.91831C3.47907 8.0531 3.34271 8.16775 3.25498 8.26206C3.39831 8.14524 3.52533 8.01387 3.66123 7.88706C3.67214 7.8286 3.75403 7.79502 3.81748 7.76206C3.75435 7.82023 3.69279 7.91653 3.75498 7.85581C3.81602 7.83223 3.90207 7.74037 3.94248 7.69956C3.9417 7.6987 3.97316 7.70187 3.97373 7.69956C3.98341 7.69926 3.98876 7.69696 3.97373 7.73081C4.00314 7.73801 4.10196 7.78332 4.12998 7.79331C4.16155 7.77754 4.23231 7.85245 4.22373 7.88706C4.23231 7.88142 4.24618 7.87196 4.25498 7.82456C4.2618 7.79749 4.23325 7.96695 4.25498 7.94956C4.24616 7.96915 4.23056 7.99188 4.22373 8.01206L4.19248 8.04331C4.18689 8.05629 4.18807 8.07049 4.19248 8.07456L4.22373 8.04331C4.22134 8.05374 4.2227 8.06699 4.22373 8.07456C4.22029 8.0749 4.2072 8.11596 4.22373 8.10581C4.22688 8.10802 4.24978 8.10553 4.25498 8.10581C4.23663 8.12464 4.24365 8.13088 4.25498 8.13706C4.26528 8.14572 4.25502 8.16469 4.22373 8.19956C4.21367 8.20927 4.24014 8.21666 4.22373 8.23081C4.20376 8.29677 4.23302 8.32509 4.25498 8.32456C4.24254 8.37906 4.24206 8.43387 4.25498 8.44956C4.22627 8.49066 4.20191 8.54761 4.22373 8.51206C4.27479 8.5068 4.22452 8.59863 4.19248 8.63706C4.2121 8.62892 4.24559 8.6193 4.31748 8.57456C4.31183 8.59147 4.40316 8.63148 4.34873 8.66831C4.37132 8.70321 4.36877 8.75733 4.34873 8.79331C4.33553 8.81637 4.31939 8.81931 4.31748 8.82456C4.28254 8.66926 4.19145 9.07384 4.19248 8.98081C4.12826 9.13101 4.0651 9.25831 4.03623 9.41831C3.97991 9.53863 4.02187 9.74431 4.06748 9.69956C4.09517 9.80536 4.0793 9.95583 4.19248 9.98081C4.29997 10.086 4.26734 10.2791 4.37998 10.3871C4.39416 10.4698 4.29088 10.5207 4.41123 10.5433C4.48958 10.7164 4.50335 10.8277 4.59873 10.7933C4.53528 10.7205 4.42137 10.4346 4.44248 10.4496C4.3876 10.3601 4.32234 10.1156 4.44248 10.1996C4.49253 10.3049 4.53446 10.4508 4.62998 10.5433C4.63296 10.6515 4.78607 10.7568 4.81748 10.9183C4.79131 11.0271 4.83499 11.1046 4.94248 11.1683C5.09359 11.2107 5.24428 11.37 5.41123 11.2933C5.51943 11.2742 5.61134 11.5053 5.75498 11.4808C5.91345 11.4965 5.90766 11.5373 6.00498 11.6683C5.99698 11.7948 6.08261 11.635 6.09873 11.7933C6.14862 11.7835 6.3115 11.8359 6.34873 11.8558C6.35423 11.7254 6.53517 11.7665 6.50498 11.8871C6.55667 11.996 6.54817 12.144 6.44248 12.2308C6.37246 12.259 6.30366 12.3931 6.28623 12.4496C6.44393 12.4325 6.37696 12.6769 6.31748 12.6996C6.45984 12.7801 6.50853 12.9563 6.59873 13.0746C6.65839 13.2031 6.8676 13.2031 6.94248 13.3246C6.96195 13.4632 6.93288 13.5668 6.94248 13.6996C6.88235 13.8036 6.95473 13.9215 6.91123 14.0121C6.85952 14.0944 6.8314 14.2545 6.94248 14.2621C6.93668 14.2893 6.8922 14.3258 6.87998 14.3558C6.87608 14.366 6.87998 14.3821 6.87998 14.3871C6.8022 14.3896 6.82117 14.4025 6.84873 14.4183L6.87998 14.4496C6.88918 14.45 6.90002 14.4553 6.91123 14.4496C6.92093 14.4557 6.90433 14.4751 6.91123 14.4808C7.0054 14.4705 7.10037 14.4662 7.19248 14.4496C7.06631 14.4318 7.35692 14.3514 7.19248 14.3246C7.26078 14.3063 7.24604 14.2618 7.31748 14.2308C7.32328 14.2022 7.45319 14.0766 7.56748 14.0746C7.85199 14.0258 7.42654 13.8426 7.69248 13.9183C7.77342 13.9634 7.8954 13.8225 7.94248 13.7621C7.90138 13.8718 8.13745 13.5224 8.12998 13.5121C8.23566 13.4329 8.55177 13.325 8.44248 13.3246C8.58602 13.2247 8.63737 13.0302 8.66123 12.8558C8.78215 12.7549 8.86602 12.5599 8.87998 12.5121C8.85529 12.4263 8.53091 12.3479 8.62998 12.3558C8.56246 12.3235 8.46833 12.3087 8.44248 12.3558C8.43598 12.2926 8.23176 12.2732 8.28623 12.2933C8.25164 12.3185 8.23944 12.3067 8.22373 12.3246C8.16805 12.388 8.19723 12.4213 8.12998 12.3558C8.18252 12.3458 8.21061 12.3405 8.22373 12.3246C8.2434 12.3006 8.22453 12.2667 8.19248 12.2621C8.18718 12.2625 8.16399 12.2581 8.16123 12.2621C8.15733 12.2646 8.13154 12.2595 8.12998 12.2621C8.10887 12.2718 8.08767 12.2969 8.06748 12.3246C8.00899 12.3073 8.02613 12.0453 8.12998 12.1058C8.10086 11.992 8.00494 11.9357 7.87998 11.9183C7.72293 11.9558 7.69468 11.8577 7.59873 11.7621C7.51245 11.7819 7.44197 11.6416 7.44248 11.6371C7.3242 11.7205 7.02586 11.6317 6.97373 11.6058C6.92498 11.6089 6.89536 11.6407 6.91123 11.7308C6.76842 11.787 6.9863 11.4956 6.84873 11.5746C6.75949 11.6867 6.65468 11.5888 6.62998 11.7308C6.5374 11.8693 6.56227 11.7882 6.41123 11.7308C6.23709 11.8257 6.09787 11.7148 6.12998 11.6058C6.1675 11.5127 6.12288 11.3668 6.12998 11.3558C6.08781 11.3465 5.99481 11.2961 5.87998 11.3246C5.70943 11.3793 5.92679 11.2196 5.87998 11.1683C5.86878 11.1161 5.79632 10.9515 5.91123 10.9496C5.73989 10.9221 5.72824 11.0704 5.66123 11.1683C5.60151 11.1174 5.45158 11.2199 5.37998 11.1058C5.2558 10.99 5.26679 10.8109 5.31748 10.6683C5.36502 10.6137 5.31468 10.4276 5.44248 10.4183C5.56185 10.3517 5.52441 10.3303 5.69248 10.3558C5.73053 10.3623 5.77984 10.2856 5.84873 10.3558C5.85523 10.2556 6.15275 10.2972 6.06748 10.2933C6.1269 10.3694 6.23827 10.3031 6.25498 10.4496C6.24568 10.5017 6.35334 10.6175 6.37998 10.6683C6.49762 10.5228 6.25057 10.2917 6.44248 10.1683C6.55283 10.0946 6.73914 9.96153 6.72373 9.94956C6.73273 9.94632 6.74172 9.92085 6.75498 9.91831C6.74568 9.91217 6.74788 9.89703 6.72373 9.88706C6.78268 9.84299 6.73375 9.72417 6.72373 9.69956C6.72753 9.70309 6.79373 9.56455 6.78623 9.73081C6.81018 9.90133 6.833 9.66027 6.84873 9.60581C6.88001 9.58473 6.90563 9.55462 6.94248 9.51206C6.94778 9.50613 6.965 9.5157 6.97373 9.51206C7.00495 9.48174 7.04438 9.43674 7.09873 9.44956C7.21428 9.43969 7.15002 9.44175 7.16123 9.32456C7.23964 9.23247 7.34029 9.20228 7.37998 9.19956C7.34808 9.14953 7.48815 9.19025 7.53623 9.16831C7.48365 9.195 7.3815 9.28973 7.50498 9.32456C7.52828 9.22607 7.7427 9.22795 7.72373 9.16831C7.72103 9.15979 7.70665 9.1813 7.69248 9.16831C7.5466 9.2314 7.46415 9.02285 7.50498 9.01206C7.35811 8.98039 7.77106 8.92129 7.50498 8.88706C7.28511 8.95012 7.09145 9.13062 7.34873 8.88706C7.47157 8.84856 7.48453 8.73392 7.62998 8.79331C7.72414 8.80763 7.87027 8.87282 7.94248 8.76206C8.01469 8.78247 8.10399 8.7054 8.06748 8.66831C8.10828 8.6128 8.04733 8.55362 8.03623 8.57456C8.02893 8.52401 7.95621 8.55111 7.91123 8.57456C7.91493 8.56874 7.89838 8.55788 7.91123 8.54331C7.94595 8.52213 8.08298 8.5128 7.94248 8.44956C7.89663 8.46642 7.8337 8.41395 7.87998 8.41831C7.78818 8.36033 7.82994 8.21749 7.81748 8.26206C7.85039 8.21451 7.87373 8.13227 7.81748 8.16831C7.73717 8.17957 7.82078 8.11998 7.75498 8.04331C7.75318 8.02282 7.72759 8.01868 7.72373 8.01206C7.70565 8.0442 7.66065 8.09495 7.66123 8.07456C7.65853 8.12333 7.54049 8.15105 7.53623 8.13706C7.48588 8.15795 7.56006 8.08781 7.44248 8.07456C7.43227 8.05648 7.43034 8.00139 7.41123 7.98081C7.51966 8.02556 7.55418 7.87606 7.44248 7.88706C7.40484 7.85822 7.19482 7.79004 7.28623 7.76206C7.14736 7.68788 7.11515 7.75456 7.06748 7.85581C7.1107 7.85894 7.02014 7.94059 7.06748 7.94956C7.0022 8.04015 7.05216 8.22557 7.06748 8.26206C7.06388 8.33416 6.90146 8.5119 6.84873 8.41831C6.82041 8.49072 6.77707 8.66833 6.81748 8.60581C6.83947 8.68737 6.75774 8.62704 6.72373 8.63706C6.64091 8.56808 6.64812 8.48613 6.69248 8.35581C6.66841 8.23786 6.53756 8.3362 6.47373 8.19956C6.42226 8.1326 6.28095 8.07032 6.22373 8.07456C6.25653 7.88087 6.09306 8.05526 6.16123 7.91831C6.18742 7.81179 6.27652 7.7206 6.34873 7.66831C6.40176 7.63068 6.44372 7.65852 6.41123 7.57456C6.53777 7.69631 6.47054 7.55841 6.47373 7.54331C6.59038 7.61045 6.56337 7.48111 6.66123 7.54331C6.7084 7.5366 6.74123 7.52484 6.75498 7.51206C6.77931 7.48944 6.75278 7.44409 6.72373 7.41831C6.8472 7.4825 6.85998 7.26695 6.94248 7.35581C6.94598 7.35987 6.96114 7.32679 6.97373 7.35581C7.09401 7.37585 7.0722 7.16096 7.09873 7.23081C7.109 7.23247 7.09433 7.20044 7.09873 7.19956C7.07402 7.1778 7.04982 7.15417 7.03623 7.13706C6.992 7.17183 6.91828 7.2259 6.87998 7.26206C6.85614 7.2745 6.84261 7.30177 6.84873 7.29331C6.79126 7.28326 6.90224 7.04522 6.78623 7.13706C6.75912 7.15929 6.73893 7.16796 6.72373 7.16831C6.71653 7.14436 6.71753 7.0904 6.75498 7.07456C6.67205 7.03317 6.82575 7.0327 6.75498 6.91831C6.70859 6.87113 6.60837 7.03098 6.62998 6.98081C6.48874 7.03088 6.78014 7.08527 6.59873 7.10581C6.7275 7.13012 6.5209 7.30545 6.50498 7.23081C6.4384 7.29521 6.56107 7.08013 6.50498 7.13706C6.48677 7.13535 6.43607 7.14142 6.41123 7.13706C6.41039 7.14181 6.39167 7.15156 6.41123 7.16831C6.41503 7.19484 6.18261 7.14253 6.12998 7.13706C6.09279 7.10094 6.08345 7.0728 6.03623 7.07456C5.95028 7.07867 5.93197 7.17814 5.91123 7.19956C5.83406 7.28325 5.81592 7.13237 5.87998 7.13706C5.78683 7.12147 5.72387 7.09546 5.69248 7.07456C5.69018 7.06296 5.6772 7.02232 5.66123 7.01206C5.58193 6.90742 5.50245 6.8435 5.44248 6.91831C5.33221 7.03051 5.3808 6.88446 5.34873 6.88706C5.34283 6.88754 5.33202 6.87374 5.31748 6.88706ZM6.50498 7.13706H6.53623C6.59748 7.15223 6.54797 7.01323 6.50498 7.01206C6.49798 7.01186 6.48077 7.03658 6.47373 7.04331C6.39509 7.07798 6.36235 7.05946 6.47373 7.10581L6.50498 7.13706ZM6.75498 7.51206C6.74948 7.51907 6.74688 7.56229 6.75498 7.54331C6.75828 7.56747 6.81087 7.62043 6.81748 7.60581C6.92422 7.47095 6.93143 7.63748 7.03623 7.60581C7.0126 7.57747 6.87901 7.42518 6.87998 7.41831C6.83994 7.41811 6.77139 7.49104 6.75498 7.51206ZM7.72373 9.16831C7.72483 9.177 7.73263 9.16463 7.75498 9.16831C7.77547 9.1357 7.82669 9.17882 7.78623 9.07456C7.78363 9.08361 7.72036 9.14225 7.72373 9.16831ZM4.19248 8.63706C4.20784 8.66884 4.20059 8.71624 4.19248 8.69956C4.23647 8.72241 4.25239 8.78655 4.31748 8.76206C4.33711 8.70591 4.23937 8.67449 4.19248 8.63706ZM7.41123 7.29331C7.36921 7.29322 7.25092 7.35844 7.37998 7.35581C7.42589 7.31087 7.43175 7.29335 7.41123 7.29331ZM8.31748 7.35581C8.28029 7.35566 8.27022 7.45312 8.37998 7.44956C8.35157 7.38736 8.33564 7.35588 8.31748 7.35581ZM9.37998 8.01206C9.39404 8.02298 9.39927 8.06313 9.41123 8.07456C9.39042 8.04643 9.39327 8.01184 9.37998 8.01206ZM9.41123 8.07456C9.46643 8.12201 9.38546 8.15724 9.50498 8.19956L9.53623 8.23081C9.60855 8.23835 9.57121 8.10464 9.56748 8.07456C9.50606 8.06457 9.44464 8.12318 9.44248 8.07456C9.43468 8.06175 9.41817 8.08394 9.41123 8.07456ZM6.91123 8.19956C6.8905 8.20099 6.83496 8.28172 6.91123 8.26206C6.93535 8.23433 6.92003 8.19895 6.91123 8.19956ZM6.69248 8.48081C6.66031 8.48111 6.66328 8.52611 6.75498 8.51206C6.74417 8.48831 6.70607 8.48068 6.69248 8.48081ZM10.0987 8.69956C10.1145 8.74503 10.1249 8.78077 10.1612 8.85581C10.1719 8.85228 10.1785 8.87401 10.1925 8.88706C10.1644 8.82268 10.13 8.76214 10.0987 8.69956ZM9.97373 8.73081C9.97193 8.79134 10.0015 8.90711 10.0362 8.98081C10.0419 8.9929 10.0311 9.0022 10.0362 9.01206C10.0331 9.01248 10.0267 9.04566 10.0362 9.04331C10.0383 9.04678 10.0657 9.0407 10.0675 9.04331C10.0374 9.1451 10.1066 9.1618 10.0675 9.19956C10.2068 9.22835 10.1265 9.03729 10.0987 8.98081C10.0635 8.86535 9.983 8.76546 9.97373 8.73081ZM7.62998 8.82456C7.59201 8.8247 7.60644 8.88024 7.75498 8.91831C7.71673 8.86159 7.65769 8.82445 7.62998 8.82456ZM8.00498 8.82456C7.9724 8.87977 7.93711 8.94059 7.87998 8.94956C7.8408 9.00069 7.95129 9.07482 8.06748 9.04331C8.06658 9.07237 8.02356 9.12449 8.12998 9.07456C8.14103 9.04874 8.12588 9.04217 8.12998 9.04331L8.16123 9.07456C8.16503 9.10264 8.16923 9.14157 8.19248 9.13706C8.27655 9.05478 8.16384 9.07225 8.16123 9.04331C8.16037 9.03366 8.16207 9.00546 8.19248 8.98081C8.09159 9.03731 8.04639 8.93962 8.12998 8.91831C7.99833 8.90717 8.11421 8.89718 8.06748 8.85581C7.99599 8.89848 7.98743 8.86464 8.00498 8.82456ZM9.94248 8.88706C9.93232 8.88768 9.91825 8.89742 9.91123 8.91831C9.90313 8.95859 9.92768 9.11567 9.94248 9.07456C9.95282 9.0837 9.95208 9.11809 9.97373 9.10581C10.0717 9.09091 9.99144 8.88403 9.94248 8.88706ZM10.2237 8.98081C10.2354 9.07833 10.2223 9.20312 10.2237 9.23081C10.1844 9.28426 10.1235 9.31408 10.0987 9.32456C10.1495 9.37936 10.0875 9.5505 10.13 9.60581C10.045 9.59458 10.0327 9.76646 10.0362 9.82456C10.0262 9.98645 10.1401 10.0464 10.1612 10.0433C10.2756 10.0457 10.2957 9.70391 10.2862 9.79331C10.3013 9.63674 10.409 9.59566 10.4425 9.79331C10.393 9.50727 10.33 9.24288 10.2237 8.98081ZM10.2237 10.0433C10.1727 10.0558 10.1485 10.0827 10.1925 10.1058C10.0852 10.0906 10.0059 10.579 10.005 10.4808C9.88397 10.5916 9.81541 10.7573 9.78623 10.9183C9.85022 11.0517 9.8208 11.4469 9.78623 11.3871C9.81439 11.4685 9.88482 11.6711 9.87998 11.5746C9.91629 11.6846 10.0325 11.791 10.13 11.6683C10.2661 11.5577 10.3857 11.5314 10.2862 11.7621C10.4252 11.3533 10.5362 10.9365 10.5362 10.4808C10.5362 10.4372 10.5064 10.3991 10.505 10.3558C10.4174 10.2565 10.2604 10.0512 10.38 10.0433C10.3331 10.029 10.2748 10.0308 10.2237 10.0433ZM6.25498 10.8246C6.20551 10.8242 6.1794 10.855 6.12998 10.8871C6.1022 10.9208 6.14446 10.925 6.19248 10.9183H6.22373C6.25658 10.9104 6.28509 10.8928 6.28623 10.8871C6.29243 10.8944 6.71111 11.065 6.53623 11.0121C6.55567 11.0257 6.57052 11.0345 6.56748 11.0433C6.57118 11.0485 6.5924 11.077 6.69248 11.0746C6.83662 11.0291 6.56075 10.9455 6.56748 10.9496C6.55394 10.9424 6.55015 10.9258 6.53623 10.9183C6.51856 10.8926 6.51438 10.8873 6.50498 10.8871C6.43168 10.8496 6.33334 10.8251 6.25498 10.8246ZM2.69248 10.8871C2.67875 10.8878 2.65687 10.9259 2.69248 10.9496C2.70529 10.9059 2.70188 10.8865 2.69248 10.8871ZM6.84873 11.0433C6.82652 11.0437 6.81068 11.0666 6.81748 11.0746C6.83338 11.0859 6.81058 11.0978 6.81748 11.1058C6.81098 11.1057 6.80436 11.1466 6.81748 11.1371C6.80285 11.1388 6.79816 11.1667 6.78623 11.1683C6.8708 11.1224 6.86301 11.2221 6.91123 11.1996C6.93101 11.1331 7.17083 11.1775 7.09873 11.1058C7.08363 11.0708 6.91535 11.0421 6.84873 11.0433ZM7.25498 11.1371C7.2146 11.1383 7.12555 11.2184 7.25498 11.1996C7.26732 11.1721 7.27203 11.1366 7.25498 11.1371ZM6.50498 11.1683C6.51168 11.1744 6.51821 11.1899 6.53623 11.1996H6.56748C6.68688 11.189 6.55778 11.1676 6.50498 11.1683ZM5.66123 12.2933C5.64995 12.2947 5.66045 12.3758 5.69248 12.3558C5.68708 12.3134 5.66617 12.2937 5.66123 12.2933Z" fill="url(#paint4_linear_335_366)"/>
<path d="M10.7141 10.4821C10.7141 11.0378 10.6047 11.5881 10.392 12.1016C10.1793 12.6151 9.86756 13.0816 9.47458 13.4746C9.0816 13.8676 8.61506 14.1793 8.1016 14.392C7.58815 14.6047 7.03782 14.7141 6.48206 14.7141C5.9263 14.7141 5.37598 14.6047 4.86252 14.392C4.34907 14.1793 3.88253 13.8676 3.48954 13.4746C3.09656 13.0816 2.78483 12.6151 2.57215 12.1016C2.35947 11.5881 2.25 11.0378 2.25 10.4821C2.25 9.9263 2.35947 9.37598 2.57215 8.86252C2.78483 8.34906 3.09656 7.88253 3.48954 7.48954C3.88253 7.09656 4.34907 6.78483 4.86252 6.57215C5.37598 6.35947 5.9263 6.25 6.48206 6.25C7.60447 6.25 8.68092 6.69588 9.47458 7.48954C10.2682 8.28321 10.7141 9.35965 10.7141 10.4821Z" stroke="url(#paint5_linear_335_366)" stroke-width="0.523153"/>
<defs>
<linearGradient id="paint0_linear_335_366" x1="9.85262" y1="2.77328" x2="9.85262" y2="15.458" gradientUnits="userSpaceOnUse">
<stop stop-color="#F9FAFC"/>
<stop offset="1" stop-color="#DCE7F7"/>
</linearGradient>
<linearGradient id="paint1_linear_335_366" x1="11.9567" y1="6.92858" x2="13.9455" y2="5.02818" gradientUnits="userSpaceOnUse">
<stop stop-color="#E0C88F"/>
<stop offset="1" stop-color="#D5B269"/>
</linearGradient>
<linearGradient id="paint2_linear_335_366" x1="10.5027" y1="2.1982" x2="10.5027" y2="15.943" gradientUnits="userSpaceOnUse">
<stop stop-color="#B28A30"/>
<stop offset="1" stop-color="#7C703E"/>
</linearGradient>
<radialGradient id="paint3_radial_335_366" cx="0" cy="0" r="1" gradientUnits="userSpaceOnUse" gradientTransform="translate(4.40494 8.97945) scale(5.59156)">
<stop stop-color="#6FD9FF"/>
<stop offset="1" stop-color="#4364A7"/>
</radialGradient>
<linearGradient id="paint4_linear_335_366" x1="4.35252" y1="7.25463" x2="9.03363" y2="12.6463" gradientUnits="userSpaceOnUse">
<stop stop-color="#FFFCF2"/>
<stop offset="0.35072" stop-color="#ADC977"/>
<stop offset="0.71202" stop-color="#7F9F3F"/>
<stop offset="1" stop-color="#77775C"/>
</linearGradient>
<linearGradient id="paint5_linear_335_366" x1="10.4149" y1="13.1278" x2="4.16246" y2="6.87529" gradientUnits="userSpaceOnUse">
<stop stop-color="#777777"/>
<stop offset="1" stop-color="#BFBF9F"/>
</linearGradient>
</defs>
</svg>
